<?xml version="1.0" encoding="us-ascii" standalone="no"?><svg xmlns="http://www.w3.org/2000/svg" xmlns:xlink="http://www.w3.org/1999/xlink" contentStyleType="text/css" height="1382px" preserveAspectRatio="none" style="width:1921px;height:1382px;background:#FFFFFF;" version="1.1" viewBox="0 0 1921 1382" width="1921px" zoomAndPan="magnify"><defs/><g><ellipse cx="1136.5" cy="16" fill="#222222" rx="10" ry="10" style="stroke:none;stroke-width:1.0;"/><rect fill="#F1F1F1" height="35.0938" rx="12.5" ry="12.5" style="stroke:#181818;stroke-width:0.5;" width="174" x="1049.5" y="81"/><text fill="#000000" font-family="sans-serif" font-size="12" lengthAdjust="spacing" textLength="154" x="1059.5" y="103.457">_x9uVkLZ8Ee2xLZp9hElpuA</text><rect fill="#F1F1F1" height="35.0938" rx="12.5" ry="12.5" style="stroke:#181818;stroke-width:0.5;" width="188" x="798.5" y="171"/><text fill="#000000" font-family="sans-serif" font-size="12" lengthAdjust="spacing" textLength="168" x="808.5" y="193.457">_umC4ULK8Ee2Y1pKtbIeM6Q</text><rect fill="#F1F1F1" height="35.0938" rx="12.5" ry="12.5" style="stroke:#181818;stroke-width:0.5;" width="174" x="449.5" y="261"/><text fill="#000000" font-family="sans-serif" font-size="12" lengthAdjust="spacing" textLength="154" x="459.5" y="283.457">_L8fqELkBEe25g4oGy4Jxtw</text><rect fill="#F1F1F1" height="35.0938" rx="12.5" ry="12.5" style="stroke:#181818;stroke-width:0.5;" width="180" x="265.5" y="351"/><text fill="#000000" font-family="sans-serif" font-size="12" lengthAdjust="spacing" textLength="160" x="275.5" y="373.457">_LVVQ0bLJEe2Y1pKtbIeM6Q</text><rect fill="#F1F1F1" height="35.0938" rx="12.5" ry="12.5" style="stroke:#181818;stroke-width:0.5;" width="180" x="194.5" y="441"/><text fill="#000000" font-family="sans-serif" font-size="12" lengthAdjust="spacing" textLength="160" x="204.5" y="463.457">_lubcMLmzEe2dIMSi7oNVYQ</text><rect fill="#F1F1F1" height="35.0938" rx="12.5" ry="12.5" style="stroke:#181818;stroke-width:0.5;" width="179" x="7" y="531"/><text fill="#000000" font-family="sans-serif" font-size="12" lengthAdjust="spacing" textLength="159" x="17" y="553.457">_HvqKobLJEe2Y1pKtbIeM6Q</text><rect fill="#F1F1F1" height="35.0938" rx="12.5" ry="12.5" style="stroke:#181818;stroke-width:0.5;" width="185" x="8" y="621"/><text fill="#000000" font-family="sans-serif" font-size="12" lengthAdjust="spacing" textLength="165" x="18" y="643.457">_6PoE0LmyEe2dIMSi7oNVYQ</text><rect fill="#F1F1F1" height="35.0938" rx="12.5" ry="12.5" style="stroke:#181818;stroke-width:0.5;" width="187" x="303" y="531"/><text fill="#000000" font-family="sans-serif" font-size="12" lengthAdjust="spacing" textLength="167" x="313" y="553.457">_mx8HoLmzEe2dIMSi7oNVYQ</text><rect fill="#F1F1F1" height="35.0938" rx="12.5" ry="12.5" style="stroke:#181818;stroke-width:0.5;" width="181" x="603" y="351"/><text fill="#000000" font-family="sans-serif" font-size="12" lengthAdjust="spacing" textLength="161" x="613" y="373.457">_N9OLsLkBEe25g4oGy4Jxtw</text><rect fill="#F1F1F1" height="35.0938" rx="12.5" ry="12.5" style="stroke:#181818;stroke-width:0.5;" width="175" x="518" y="441"/><text fill="#000000" font-family="sans-serif" font-size="12" lengthAdjust="spacing" textLength="155" x="528" y="463.457">_LVb-gbLJEe2Y1pKtbIeM6Q</text><rect fill="#F1F1F1" height="35.0938" rx="12.5" ry="12.5" style="stroke:#181818;stroke-width:0.5;" width="187" x="510" y="531"/><text fill="#000000" font-family="sans-serif" font-size="12" lengthAdjust="spacing" textLength="167" x="520" y="553.457">_3FHbMLmzEe2dIMSi7oNVYQ</text><rect fill="#F1F1F1" height="35.0938" rx="12.5" ry="12.5" style="stroke:#181818;stroke-width:0.5;" width="173" x="224" y="621"/><text fill="#000000" font-family="sans-serif" font-size="12" lengthAdjust="spacing" textLength="153" x="234" y="643.457">_pt55IbLGEe2Y1pKtbIeM6Q</text><rect fill="#F1F1F1" height="35.0938" rx="12.5" ry="12.5" style="stroke:#181818;stroke-width:0.5;" width="195" x="211" y="711"/><text fill="#000000" font-family="sans-serif" font-size="12" lengthAdjust="spacing" textLength="175" x="221" y="733.457">_QMHmwLmyEe2dIMSi7oNVYQ</text><rect fill="#F1F1F1" height="35.0938" rx="12.5" ry="12.5" style="stroke:#181818;stroke-width:0.5;" width="179" x="573" y="621"/><text fill="#000000" font-family="sans-serif" font-size="12" lengthAdjust="spacing" textLength="159" x="583" y="643.457">_5fVa4LmzEe2dIMSi7oNVYQ</text><rect fill="#F1F1F1" height="35.0938" rx="12.5" ry="12.5" style="stroke:#181818;stroke-width:0.5;" width="179" x="875" y="441"/><text fill="#000000" font-family="sans-serif" font-size="12" lengthAdjust="spacing" textLength="159" x="885" y="463.457">_QwI_QLkBEe25g4oGy4Jxtw</text><rect fill="#F1F1F1" height="35.0938" rx="12.5" ry="12.5" style="stroke:#181818;stroke-width:0.5;" width="183" x="779" y="531"/><text fill="#000000" font-family="sans-serif" font-size="12" lengthAdjust="spacing" textLength="163" x="789" y="553.457">_edH98LIBEe2fRLFFhL_FWA</text><rect fill="#F1F1F1" height="35.0938" rx="12.5" ry="12.5" style="stroke:#181818;stroke-width:0.5;" width="186" x="773.5" y="621"/><text fill="#000000" font-family="sans-serif" font-size="12" lengthAdjust="spacing" textLength="166" x="783.5" y="643.457">_G0Cp0LdREe2lCsB2iGU-8w</text><rect fill="#F1F1F1" height="35.0938" rx="12.5" ry="12.5" style="stroke:#181818;stroke-width:0.5;" width="172" x="426.5" y="711"/><text fill="#000000" font-family="sans-serif" font-size="12" lengthAdjust="spacing" textLength="152" x="436.5" y="733.457">_flc38LIBEe2fRLFFhL_FWA</text><rect fill="#F1F1F1" height="35.0938" rx="12.5" ry="12.5" style="stroke:#181818;stroke-width:0.5;" width="185" x="413" y="801"/><text fill="#000000" font-family="sans-serif" font-size="12" lengthAdjust="spacing" textLength="165" x="423" y="823.457">_mSwfALdHEe2lCsB2iGU-8w</text><rect fill="#F1F1F1" height="35.0938" rx="12.5" ry="12.5" style="stroke:#181818;stroke-width:0.5;" width="180" x="494.5" y="891"/><text fill="#000000" font-family="sans-serif" font-size="12" lengthAdjust="spacing" textLength="160" x="504.5" y="913.457">_tbmxALdHEe2lCsB2iGU-8w</text><rect fill="#F1F1F1" height="35.0938" rx="12.5" ry="12.5" style="stroke:#181818;stroke-width:0.5;" width="179" x="496" y="981"/><text fill="#000000" font-family="sans-serif" font-size="12" lengthAdjust="spacing" textLength="159" x="506" y="1003.457">_jASAELIBEe2fRLFFhL_FWA</text><rect fill="#F1F1F1" height="35.0938" rx="12.5" ry="12.5" style="stroke:#181818;stroke-width:0.5;" width="184" x="778.5" y="711"/><text fill="#000000" font-family="sans-serif" font-size="12" lengthAdjust="spacing" textLength="164" x="788.5" y="733.457">_RqhgoLdQEe2lCsB2iGU-8w</text><rect fill="#F1F1F1" height="35.0938" rx="12.5" ry="12.5" style="stroke:#181818;stroke-width:0.5;" width="181" x="661" y="801"/><text fill="#000000" font-family="sans-serif" font-size="12" lengthAdjust="spacing" textLength="161" x="671" y="823.457">_h0_4sLIBEe2fRLFFhL_FWA</text><rect fill="#F1F1F1" height="35.0938" rx="12.5" ry="12.5" style="stroke:#181818;stroke-width:0.5;" width="175" x="745" y="891"/><text fill="#000000" font-family="sans-serif" font-size="12" lengthAdjust="spacing" textLength="155" x="755" y="913.457">_MPkXALnFEe2hSdAxtFJKiA</text><rect fill="#F1F1F1" height="35.0938" rx="12.5" ry="12.5" style="stroke:#181818;stroke-width:0.5;" width="180" x="942.5" y="801"/><text fill="#000000" font-family="sans-serif" font-size="12" lengthAdjust="spacing" textLength="160" x="952.5" y="823.457">_Xg1GULdIEe2lCsB2iGU-8w</text><rect fill="#F1F1F1" height="35.0938" rx="12.5" ry="12.5" style="stroke:#181818;stroke-width:0.5;" width="175" x="1101" y="531"/><text fill="#000000" font-family="sans-serif" font-size="12" lengthAdjust="spacing" textLength="155" x="1111" y="553.457">_V__IQLkBEe25g4oGy4Jxtw</text><rect fill="#F1F1F1" height="35.0938" rx="12.5" ry="12.5" style="stroke:#181818;stroke-width:0.5;" width="174" x="1178.5" y="621"/><text fill="#000000" font-family="sans-serif" font-size="12" lengthAdjust="spacing" textLength="154" x="1188.5" y="643.457">_zxhBMLLIEe2Y1pKtbIeM6Q</text><rect fill="#F1F1F1" height="35.0938" rx="12.5" ry="12.5" style="stroke:#181818;stroke-width:0.5;" width="180" x="1251.5" y="711"/><text fill="#000000" font-family="sans-serif" font-size="12" lengthAdjust="spacing" textLength="160" x="1261.5" y="733.457">_zqW-0LmjEe2dIMSi7oNVYQ</text><rect fill="#F1F1F1" height="35.0938" rx="12.5" ry="12.5" style="stroke:#181818;stroke-width:0.5;" width="184" x="1142.5" y="801"/><text fill="#000000" font-family="sans-serif" font-size="12" lengthAdjust="spacing" textLength="164" x="1152.5" y="823.457">_fZnOULNUEe2o46d27a6tVQ</text><rect fill="#F1F1F1" height="35.0938" rx="12.5" ry="12.5" style="stroke:#181818;stroke-width:0.5;" width="186" x="1178.5" y="891"/><text fill="#000000" font-family="sans-serif" font-size="12" lengthAdjust="spacing" textLength="166" x="1188.5" y="913.457">_kSKnoLm1Ee2dIMSi7oNVYQ</text><rect fill="#F1F1F1" height="35.0938" rx="12.5" ry="12.5" style="stroke:#181818;stroke-width:0.5;" width="184" x="1134.5" y="981"/><text fill="#000000" font-family="sans-serif" font-size="12" lengthAdjust="spacing" textLength="164" x="1144.5" y="1003.457">_puBN4bLGEe2Y1pKtbIeM6Q</text><rect fill="#F1F1F1" height="35.0938" rx="12.5" ry="12.5" style="stroke:#181818;stroke-width:0.5;" width="188" x="1502.5" y="801"/><text fill="#000000" font-family="sans-serif" font-size="12" lengthAdjust="spacing" textLength="168" x="1512.5" y="823.457">_AwCboLmkEe2dIMSi7oNVYQ</text><rect fill="#F1F1F1" height="35.0938" rx="12.5" ry="12.5" style="stroke:#181818;stroke-width:0.5;" width="190" x="1449.5" y="891"/><text fill="#000000" font-family="sans-serif" font-size="12" lengthAdjust="spacing" textLength="170" x="1459.5" y="913.457">_DXYRULmkEe2dIMSi7oNVYQ</text><rect fill="#F1F1F1" height="35.0938" rx="12.5" ry="12.5" style="stroke:#181818;stroke-width:0.5;" width="186" x="1342.5" y="981"/><text fill="#000000" font-family="sans-serif" font-size="12" lengthAdjust="spacing" textLength="166" x="1352.5" y="1003.457">_nw3iQLNWEe2o46d27a6tVQ</text><rect fill="#F1F1F1" height="35.0938" rx="12.5" ry="12.5" style="stroke:#181818;stroke-width:0.5;" width="179" x="1578" y="981"/><text fill="#000000" font-family="sans-serif" font-size="12" lengthAdjust="spacing" textLength="159" x="1588" y="1003.457">_7yZngrmkEe2dIMSi7oNVYQ</text><rect fill="#F1F1F1" height="35.0938" rx="12.5" ry="12.5" style="stroke:#181818;stroke-width:0.5;" width="182" x="1642.5" y="1071"/><text fill="#000000" font-family="sans-serif" font-size="12" lengthAdjust="spacing" textLength="162" x="1652.5" y="1093.457">_C03ksLmlEe2dIMSi7oNVYQ</text><rect fill="#F1F1F1" height="35.0938" rx="12.5" ry="12.5" style="stroke:#181818;stroke-width:0.5;" width="179" x="1579" y="1161"/><text fill="#000000" font-family="sans-serif" font-size="12" lengthAdjust="spacing" textLength="159" x="1589" y="1183.457">_w6y-YLNaEe2o46d27a6tVQ</text><rect fill="#F1F1F1" height="35.0938" rx="12.5" ry="12.5" style="stroke:#181818;stroke-width:0.5;" width="180" x="1643.5" y="1251"/><text fill="#000000" font-family="sans-serif" font-size="12" lengthAdjust="spacing" textLength="160" x="1653.5" y="1273.457">_lNsYkLmxEe2dIMSi7oNVYQ</text><rect fill="#F1F1F1" height="35.0938" rx="12.5" ry="12.5" style="stroke:#181818;stroke-width:0.5;" width="180" x="1643.5" y="1341"/><text fill="#000000" font-family="sans-serif" font-size="12" lengthAdjust="spacing" textLength="160" x="1653.5" y="1363.457">_1iDdYLNaEe2o46d27a6tVQ</text><ellipse cx="1177.5" cy="188.5" fill="none" rx="10" ry="10" style="stroke:#222222;stroke-width:1.0;"/><ellipse cx="1178" cy="189" fill="#222222" rx="6" ry="6" style="stroke:none;stroke-width:1.0;"/><!--link start to _x9uVkLZ8Ee2xLZp9hElpuA--><g id="link_start__x9uVkLZ8Ee2xLZp9hElpuA"><path d="M1136.5,26.23 C1136.5,38.18 1136.5,59.38 1136.5,75.56 " fill="none" id="start-to-_x9uVkLZ8Ee2xLZp9hElpuA" style="stroke:#181818;stroke-width:1.0;"/><polygon fill="#181818" points="1136.5,80.84,1140.5,71.84,1136.5,75.84,1132.5,71.84,1136.5,80.84" style="stroke:#181818;stroke-width:1.0;"/><text fill="#000000" font-family="sans-serif" font-size="11" lengthAdjust="spacing" textLength="32" x="1137.5" y="58.4189">0 - null</text></g><!--link _x9uVkLZ8Ee2xLZp9hElpuA to _umC4ULK8Ee2Y1pKtbIeM6Q--><g id="link__x9uVkLZ8Ee2xLZp9hElpuA__umC4ULK8Ee2Y1pKtbIeM6Q"><path d="M1090.61,116.05 C1048.73,131.15 986.95,153.44 943.54,169.09 " fill="none" id="_x9uVkLZ8Ee2xLZp9hElpuA-to-_umC4ULK8Ee2Y1pKtbIeM6Q" style="stroke:#181818;stroke-width:1.0;"/><polygon fill="#181818" points="938.6,170.87,948.4239,171.5703,943.3019,169.1693,945.7028,164.0473,938.6,170.87" style="stroke:#181818;stroke-width:1.0;"/><text fill="#000000" font-family="sans-serif" font-size="11" lengthAdjust="spacing" textLength="54" x="1030.5" y="148.4189">1 - teleTAN</text></g><!--link _umC4ULK8Ee2Y1pKtbIeM6Q to _L8fqELkBEe25g4oGy4Jxtw--><g id="link__umC4ULK8Ee2Y1pKtbIeM6Q__L8fqELkBEe25g4oGy4Jxtw"><path d="M825.54,206.05 C763.61,221.36 671.81,244.05 608.36,259.74 " fill="none" id="_umC4ULK8Ee2Y1pKtbIeM6Q-to-_L8fqELkBEe25g4oGy4Jxtw" style="stroke:#181818;stroke-width:1.0;"/><polygon fill="#181818" points="603.46,260.95,613.1567,262.6746,608.3141,259.7508,611.2379,254.9081,603.46,260.95" style="stroke:#181818;stroke-width:1.0;"/><text fill="#000000" font-family="sans-serif" font-size="11" lengthAdjust="spacing" textLength="54" x="737.5" y="238.4189">2 - teleTAN</text></g><!--link _L8fqELkBEe25g4oGy4Jxtw to _LVVQ0bLJEe2Y1pKtbIeM6Q--><g id="link__L8fqELkBEe25g4oGy4Jxtw__LVVQ0bLJEe2Y1pKtbIeM6Q"><path d="M450.28,296.08 C434.41,301.12 418.47,307.63 404.5,316 C391.42,323.84 379.55,336.12 370.77,346.71 " fill="none" id="_L8fqELkBEe25g4oGy4Jxtw-to-_LVVQ0bLJEe2Y1pKtbIeM6Q" style="stroke:#181818;stroke-width:1.0;"/><polygon fill="#181818" points="367.44,350.83,376.2099,346.3479,370.5843,346.9424,369.9898,341.3169,367.44,350.83" style="stroke:#181818;stroke-width:1.0;"/><text fill="#000000" font-family="sans-serif" font-size="11" lengthAdjust="spacing" textLength="54" x="405.5" y="328.4189">3 - teleTAN</text></g><!--link _LVVQ0bLJEe2Y1pKtbIeM6Q to _lubcMLmzEe2dIMSi7oNVYQ--><g id="link__LVVQ0bLJEe2Y1pKtbIeM6Q__lubcMLmzEe2dIMSi7oNVYQ"><path d="M342.15,386.05 C330.62,400.34 313.9,421.06 301.43,436.51 " fill="none" id="_LVVQ0bLJEe2Y1pKtbIeM6Q-to-_lubcMLmzEe2dIMSi7oNVYQ" style="stroke:#181818;stroke-width:1.0;"/><polygon fill="#181818" points="298.04,440.72,306.8018,436.2222,301.1774,436.8268,300.5727,431.2024,298.04,440.72" style="stroke:#181818;stroke-width:1.0;"/><text fill="#000000" font-family="sans-serif" font-size="11" lengthAdjust="spacing" textLength="54" x="325.5" y="418.4189">4 - teleTAN</text></g><!--link _lubcMLmzEe2dIMSi7oNVYQ to _HvqKobLJEe2Y1pKtbIeM6Q--><g id="link__lubcMLmzEe2dIMSi7oNVYQ__HvqKobLJEe2Y1pKtbIeM6Q"><path d="M226.84,476.07 C210.26,481.61 192.37,488.36 176.5,496 C157.86,504.98 138.32,517.5 123.21,527.94 " fill="none" id="_lubcMLmzEe2dIMSi7oNVYQ-to-_HvqKobLJEe2Y1pKtbIeM6Q" style="stroke:#181818;stroke-width:1.0;"/><polygon fill="#181818" points="119.07,530.83,128.7409,528.9661,123.1722,527.9713,124.167,522.4026,119.07,530.83" style="stroke:#181818;stroke-width:1.0;"/><text fill="#000000" font-family="sans-serif" font-size="11" lengthAdjust="spacing" textLength="32" x="177.5" y="508.4189">5 - null</text></g><!--link _HvqKobLJEe2Y1pKtbIeM6Q to _6PoE0LmyEe2dIMSi7oNVYQ--><g id="link__HvqKobLJEe2Y1pKtbIeM6Q__6PoE0LmyEe2dIMSi7oNVYQ"><path d="M97.25,566.05 C97.89,580.1 98.81,600.36 99.51,615.72 " fill="none" id="_HvqKobLJEe2Y1pKtbIeM6Q-to-_6PoE0LmyEe2dIMSi7oNVYQ" style="stroke:#181818;stroke-width:1.0;"/><polygon fill="#181818" points="99.74,620.72,103.3248,611.5467,99.5117,615.7252,95.3332,611.9121,99.74,620.72" style="stroke:#181818;stroke-width:1.0;"/><text fill="#000000" font-family="sans-serif" font-size="11" lengthAdjust="spacing" textLength="32" x="100.5" y="598.4189">6 - null</text></g><!--link _6PoE0LmyEe2dIMSi7oNVYQ to _lubcMLmzEe2dIMSi7oNVYQ--><g id="link__6PoE0LmyEe2dIMSi7oNVYQ__lubcMLmzEe2dIMSi7oNVYQ"><path d="M125.95,620.74 C145.83,607.1 173.65,586.76 195.5,566 C224.16,538.77 252.64,502.7 269.4,480.3 " fill="none" id="_6PoE0LmyEe2dIMSi7oNVYQ-to-_lubcMLmzEe2dIMSi7oNVYQ" style="stroke:#181818;stroke-width:1.0;"/><polygon fill="#181818" points="272.59,476.01,264.0093,480.8443,269.606,480.022,270.4284,485.6187,272.59,476.01" style="stroke:#181818;stroke-width:1.0;"/><text fill="#000000" font-family="sans-serif" font-size="11" lengthAdjust="spacing" textLength="54" x="229.5" y="553.4189">7 - teleTAN</text></g><!--link _lubcMLmzEe2dIMSi7oNVYQ to _mx8HoLmzEe2dIMSi7oNVYQ--><g id="link__lubcMLmzEe2dIMSi7oNVYQ__mx8HoLmzEe2dIMSi7oNVYQ"><path d="M305.57,476.05 C324.06,490.59 351.03,511.77 370.79,527.3 " fill="none" id="_lubcMLmzEe2dIMSi7oNVYQ-to-_mx8HoLmzEe2dIMSi7oNVYQ" style="stroke:#181818;stroke-width:1.0;"/><polygon fill="#181818" points="375.15,530.72,370.5626,522.0048,371.2249,527.6227,365.6069,528.285,375.15,530.72" style="stroke:#181818;stroke-width:1.0;"/><text fill="#000000" font-family="sans-serif" font-size="11" lengthAdjust="spacing" textLength="54" x="348.5" y="508.4189">8 - teleTAN</text></g><!--link _mx8HoLmzEe2dIMSi7oNVYQ to _L8fqELkBEe25g4oGy4Jxtw--><g id="link__mx8HoLmzEe2dIMSi7oNVYQ__L8fqELkBEe25g4oGy4Jxtw"><path d="M405.25,530.74 C429.66,484.03 498.41,352.42 525.41,300.72 " fill="none" id="_mx8HoLmzEe2dIMSi7oNVYQ-to-_L8fqELkBEe25g4oGy4Jxtw" style="stroke:#181818;stroke-width:1.0;"/><polygon fill="#181818" points="527.74,296.26,520.0265,302.3839,525.4242,300.6914,527.1167,306.0891,527.74,296.26" style="stroke:#181818;stroke-width:1.0;"/><text fill="#000000" font-family="sans-serif" font-size="11" lengthAdjust="spacing" textLength="54" x="471.5" y="418.4189">9 - teleTAN</text></g><!--link _L8fqELkBEe25g4oGy4Jxtw to _N9OLsLkBEe25g4oGy4Jxtw--><g id="link__L8fqELkBEe25g4oGy4Jxtw__N9OLsLkBEe25g4oGy4Jxtw"><path d="M566.03,296.05 C592.59,310.94 631.6,332.81 659.46,348.42 " fill="none" id="_L8fqELkBEe25g4oGy4Jxtw-to-_N9OLsLkBEe25g4oGy4Jxtw" style="stroke:#181818;stroke-width:1.0;"/><polygon fill="#181818" points="663.84,350.87,657.9458,342.9796,659.4787,348.4248,654.0335,349.9577,663.84,350.87" style="stroke:#181818;stroke-width:1.0;"/><text fill="#000000" font-family="sans-serif" font-size="11" lengthAdjust="spacing" textLength="60" x="625.5" y="328.4189">10 - teleTAN</text></g><!--link _N9OLsLkBEe25g4oGy4Jxtw to _LVb-gbLJEe2Y1pKtbIeM6Q--><g id="link__N9OLsLkBEe25g4oGy4Jxtw__LVb-gbLJEe2Y1pKtbIeM6Q"><path d="M635.52,386.05 C626.25,391.08 617.68,397.59 611.5,406 C605.32,414.4 603.51,425.74 603.37,435.64 " fill="none" id="_N9OLsLkBEe25g4oGy4Jxtw-to-_LVb-gbLJEe2Y1pKtbIeM6Q" style="stroke:#181818;stroke-width:1.0;"/><polygon fill="#181818" points="603.44,440.66,607.311,431.6038,603.3686,435.6605,599.3118,431.7181,603.44,440.66" style="stroke:#181818;stroke-width:1.0;"/><text fill="#000000" font-family="sans-serif" font-size="11" lengthAdjust="spacing" textLength="105" x="612.5" y="418.4189">11 - registrationToken</text></g><!--link _LVb-gbLJEe2Y1pKtbIeM6Q to _3FHbMLmzEe2dIMSi7oNVYQ--><g id="link__LVb-gbLJEe2Y1pKtbIeM6Q__3FHbMLmzEe2dIMSi7oNVYQ"><path d="M603.84,476.2 C603.3,482.41 602.77,489.52 602.5,496 C602.1,505.71 602.22,516.46 602.49,525.61 " fill="none" id="_LVb-gbLJEe2Y1pKtbIeM6Q-to-_3FHbMLmzEe2dIMSi7oNVYQ" style="stroke:#181818;stroke-width:1.0;"/><polygon fill="#181818" points="602.67,530.8,606.3593,521.6682,602.4987,525.8029,598.364,521.9423,602.67,530.8" style="stroke:#181818;stroke-width:1.0;"/><text fill="#000000" font-family="sans-serif" font-size="11" lengthAdjust="spacing" textLength="105" x="603.5" y="508.4189">12 - registrationToken</text></g><!--link _3FHbMLmzEe2dIMSi7oNVYQ to _pt55IbLGEe2Y1pKtbIeM6Q--><g id="link__3FHbMLmzEe2dIMSi7oNVYQ__pt55IbLGEe2Y1pKtbIeM6Q"><path d="M509.75,564.35 C453.84,573.36 392.55,583.58 386.5,586 C367.46,593.63 348.36,606.6 334.07,617.62 " fill="none" id="_3FHbMLmzEe2dIMSi7oNVYQ-to-_pt55IbLGEe2Y1pKtbIeM6Q" style="stroke:#181818;stroke-width:1.0;"/><polygon fill="#181818" points="329.79,620.97,339.3385,618.5564,333.7221,617.8815,334.397,612.2651,329.79,620.97" style="stroke:#181818;stroke-width:1.0;"/><text fill="#000000" font-family="sans-serif" font-size="11" lengthAdjust="spacing" textLength="38" x="387.5" y="598.4189">13 - null</text></g><!--link _pt55IbLGEe2Y1pKtbIeM6Q to _QMHmwLmyEe2dIMSi7oNVYQ--><g id="link__pt55IbLGEe2Y1pKtbIeM6Q__QMHmwLmyEe2dIMSi7oNVYQ"><path d="M310.12,656.05 C309.8,670.1 309.34,690.36 309,705.72 " fill="none" id="_pt55IbLGEe2Y1pKtbIeM6Q-to-_QMHmwLmyEe2dIMSi7oNVYQ" style="stroke:#181818;stroke-width:1.0;"/><polygon fill="#181818" points="308.88,710.72,313.0852,701.814,308.9946,705.7213,305.0873,701.6307,308.88,710.72" style="stroke:#181818;stroke-width:1.0;"/><text fill="#000000" font-family="sans-serif" font-size="11" lengthAdjust="spacing" textLength="38" x="311.5" y="688.4189">14 - null</text></g><!--link _QMHmwLmyEe2dIMSi7oNVYQ to _3FHbMLmzEe2dIMSi7oNVYQ--><g id="link__QMHmwLmyEe2dIMSi7oNVYQ__3FHbMLmzEe2dIMSi7oNVYQ"><path d="M331.18,710.91 C370.8,681.94 449.06,624.85 455.5,621 C489.33,600.79 529.74,581.57 559.77,568.16 " fill="none" id="_QMHmwLmyEe2dIMSi7oNVYQ-to-_3FHbMLmzEe2dIMSi7oNVYQ" style="stroke:#181818;stroke-width:1.0;"/><polygon fill="#181818" points="564.5,566.06,554.6512,566.08,559.9351,568.1,557.9151,573.3839,564.5,566.06" style="stroke:#181818;stroke-width:1.0;"/><text fill="#000000" font-family="sans-serif" font-size="11" lengthAdjust="spacing" textLength="105" x="456.5" y="643.4189">15 - registrationToken</text></g><!--link _3FHbMLmzEe2dIMSi7oNVYQ to _5fVa4LmzEe2dIMSi7oNVYQ--><g id="link__3FHbMLmzEe2dIMSi7oNVYQ__5fVa4LmzEe2dIMSi7oNVYQ"><path d="M602.89,566.41 C603.25,577.05 605.14,590.68 611.5,601 C615.44,607.4 620.97,613.01 626.94,617.78 " fill="none" id="_3FHbMLmzEe2dIMSi7oNVYQ-to-_5fVa4LmzEe2dIMSi7oNVYQ" style="stroke:#181818;stroke-width:1.0;"/><polygon fill="#181818" points="631.13,620.95,626.3645,612.3309,627.142,617.934,621.5389,618.7116,631.13,620.95" style="stroke:#181818;stroke-width:1.0;"/><text fill="#000000" font-family="sans-serif" font-size="11" lengthAdjust="spacing" textLength="105" x="612.5" y="598.4189">16 - registrationToken</text></g><!--link _5fVa4LmzEe2dIMSi7oNVYQ to _N9OLsLkBEe25g4oGy4Jxtw--><g id="link__5fVa4LmzEe2dIMSi7oNVYQ__N9OLsLkBEe25g4oGy4Jxtw"><path d="M700.18,620.96 C707.91,615.74 715.04,609.14 719.5,601 C761.1,524.97 745.9,488.55 719.5,406 C717.76,400.55 714.87,395.23 711.65,390.4 " fill="none" id="_5fVa4LmzEe2dIMSi7oNVYQ-to-_N9OLsLkBEe25g4oGy4Jxtw" style="stroke:#181818;stroke-width:1.0;"/><polygon fill="#181818" points="708.61,386.11,710.5574,395.7644,711.504,390.1873,717.0811,391.1339,708.61,386.11" style="stroke:#181818;stroke-width:1.0;"/><text fill="#000000" font-family="sans-serif" font-size="11" lengthAdjust="spacing" textLength="60" x="746.5" y="508.4189">17 - teleTAN</text></g><!--link _N9OLsLkBEe25g4oGy4Jxtw to _QwI_QLkBEe25g4oGy4Jxtw--><g id="link__N9OLsLkBEe25g4oGy4Jxtw__QwI_QLkBEe25g4oGy4Jxtw"><path d="M744.47,386.05 C791.17,401.21 860.16,423.62 908.4,439.28 " fill="none" id="_N9OLsLkBEe25g4oGy4Jxtw-to-_QwI_QLkBEe25g4oGy4Jxtw" style="stroke:#181818;stroke-width:1.0;"/><polygon fill="#181818" points="913.3,440.87,905.973,434.2886,908.5439,439.3275,903.505,441.8983,913.3,440.87" style="stroke:#181818;stroke-width:1.0;"/><text fill="#000000" font-family="sans-serif" font-size="11" lengthAdjust="spacing" textLength="60" x="846.5" y="418.4189">18 - teleTAN</text></g><!--link _QwI_QLkBEe25g4oGy4Jxtw to _edH98LIBEe2fRLFFhL_FWA--><g id="link__QwI_QLkBEe25g4oGy4Jxtw__edH98LIBEe2fRLFFhL_FWA"><path d="M946.82,476.05 C931.29,490.59 908.66,511.77 892.08,527.3 " fill="none" id="_QwI_QLkBEe25g4oGy4Jxtw-to-_edH98LIBEe2fRLFFhL_FWA" style="stroke:#181818;stroke-width:1.0;"/><polygon fill="#181818" points="888.42,530.72,897.722,527.4839,892.0681,527.3008,892.2513,521.6469,888.42,530.72" style="stroke:#181818;stroke-width:1.0;"/><text fill="#000000" font-family="sans-serif" font-size="11" lengthAdjust="spacing" textLength="38" x="924.5" y="508.4189">19 - null</text></g><!--link _edH98LIBEe2fRLFFhL_FWA to _G0Cp0LdREe2lCsB2iGU-8w--><g id="link__edH98LIBEe2fRLFFhL_FWA__G0Cp0LdREe2lCsB2iGU-8w"><path d="M869.75,566.05 C869.11,580.1 868.19,600.36 867.49,615.72 " fill="none" id="_edH98LIBEe2fRLFFhL_FWA-to-_G0Cp0LdREe2lCsB2iGU-8w" style="stroke:#181818;stroke-width:1.0;"/><polygon fill="#181818" points="867.26,620.72,871.6668,611.9121,867.4883,615.7252,863.6752,611.5467,867.26,620.72" style="stroke:#181818;stroke-width:1.0;"/><text fill="#000000" font-family="sans-serif" font-size="11" lengthAdjust="spacing" textLength="38" x="870.5" y="598.4189">20 - null</text></g><!--link _G0Cp0LdREe2lCsB2iGU-8w to _flc38LIBEe2fRLFFhL_FWA--><g id="link__G0Cp0LdREe2lCsB2iGU-8w__flc38LIBEe2fRLFFhL_FWA"><path d="M773.5,654.37 C769.45,654.94 765.43,655.48 761.5,656 C677.31,667.04 649.33,642.06 571.5,676 C555.49,682.98 540.69,695.93 529.92,707.09 " fill="none" id="_G0Cp0LdREe2lCsB2iGU-8w-to-_flc38LIBEe2fRLFFhL_FWA" style="stroke:#181818;stroke-width:1.0;"/><polygon fill="#181818" points="526.42,710.8,535.5085,707.0055,529.854,707.1657,529.6937,701.5111,526.42,710.8" style="stroke:#181818;stroke-width:1.0;"/><text fill="#000000" font-family="sans-serif" font-size="11" lengthAdjust="spacing" textLength="40" x="572.5" y="688.4189">21 - rpis</text></g><!--link _flc38LIBEe2fRLFFhL_FWA to _mSwfALdHEe2lCsB2iGU-8w--><g id="link__flc38LIBEe2fRLFFhL_FWA__mSwfALdHEe2lCsB2iGU-8w"><path d="M511.18,746.05 C510.07,760.1 508.45,780.36 507.23,795.72 " fill="none" id="_flc38LIBEe2fRLFFhL_FWA-to-_mSwfALdHEe2lCsB2iGU-8w" style="stroke:#181818;stroke-width:1.0;"/><polygon fill="#181818" points="506.83,800.72,511.5369,792.0687,507.2299,795.736,503.5626,791.4289,506.83,800.72" style="stroke:#181818;stroke-width:1.0;"/><text fill="#000000" font-family="sans-serif" font-size="11" lengthAdjust="spacing" textLength="40" x="510.5" y="778.4189">22 - rpis</text></g><!--link _mSwfALdHEe2lCsB2iGU-8w to _tbmxALdHEe2lCsB2iGU-8w--><g id="link__mSwfALdHEe2lCsB2iGU-8w__tbmxALdHEe2lCsB2iGU-8w"><path d="M520.36,836.05 C533.3,850.46 552.11,871.42 566.02,886.91 " fill="none" id="_mSwfALdHEe2lCsB2iGU-8w-to-_tbmxALdHEe2lCsB2iGU-8w" style="stroke:#181818;stroke-width:1.0;"/><polygon fill="#181818" points="569.44,890.72,566.3925,881.3545,566.0952,887.0035,560.4461,886.7062,569.44,890.72" style="stroke:#181818;stroke-width:1.0;"/><text fill="#000000" font-family="sans-serif" font-size="11" lengthAdjust="spacing" textLength="40" x="551.5" y="868.4189">23 - rpis</text></g><!--link _tbmxALdHEe2lCsB2iGU-8w to _jASAELIBEe2fRLFFhL_FWA--><g id="link__tbmxALdHEe2lCsB2iGU-8w__jASAELIBEe2fRLFFhL_FWA"><path d="M563.82,926.22 C554.52,935.88 546.6,948.55 551.5,961 C553.78,966.79 557.46,972.21 561.57,977 " fill="none" id="_tbmxALdHEe2lCsB2iGU-8w-to-_jASAELIBEe2fRLFFhL_FWA" style="stroke:#181818;stroke-width:1.0;"/><polygon fill="#181818" points="565.11,980.88,561.9869,971.5394,561.7353,977.1907,556.084,976.939,565.11,980.88" style="stroke:#181818;stroke-width:1.0;"/><text fill="#000000" font-family="sans-serif" font-size="11" lengthAdjust="spacing" textLength="40" x="552.5" y="958.4189">24 - rpis</text></g><!--link _jASAELIBEe2fRLFFhL_FWA to _tbmxALdHEe2lCsB2iGU-8w--><g id="link__jASAELIBEe2fRLFFhL_FWA__tbmxALdHEe2lCsB2iGU-8w"><path d="M591.04,980.85 C593.73,970.79 596.07,957.69 594.5,946 C593.84,941.12 592.72,935.97 591.45,931.13 " fill="none" id="_jASAELIBEe2fRLFFhL_FWA-to-_tbmxALdHEe2lCsB2iGU-8w" style="stroke:#181818;stroke-width:1.0;"/><polygon fill="#181818" points="590.03,926.02,588.5952,935.7638,591.3734,930.8362,596.301,933.6144,590.03,926.02" style="stroke:#181818;stroke-width:1.0;"/><text fill="#000000" font-family="sans-serif" font-size="11" lengthAdjust="spacing" textLength="40" x="596.5" y="958.4189">25 - rpis</text></g><!--link _tbmxALdHEe2lCsB2iGU-8w to _G0Cp0LdREe2lCsB2iGU-8w--><g id="link__tbmxALdHEe2lCsB2iGU-8w__G0Cp0LdREe2lCsB2iGU-8w"><path d="M592.46,890.73 C603.47,868.6 624.92,829.19 650.5,801 C706.02,739.82 787.62,686.26 832.97,658.87 " fill="none" id="_tbmxALdHEe2lCsB2iGU-8w-to-_G0Cp0LdREe2lCsB2iGU-8w" style="stroke:#181818;stroke-width:1.0;"/><polygon fill="#181818" points="837.51,656.15,827.7375,657.3744,833.2288,658.733,831.8703,664.2243,837.51,656.15" style="stroke:#181818;stroke-width:1.0;"/><text fill="#000000" font-family="sans-serif" font-size="11" lengthAdjust="spacing" textLength="38" x="685.5" y="778.4189">26 - null</text></g><!--link _G0Cp0LdREe2lCsB2iGU-8w to _RqhgoLdQEe2lCsB2iGU-8w--><g id="link__G0Cp0LdREe2lCsB2iGU-8w__RqhgoLdQEe2lCsB2iGU-8w"><path d="M867.25,656.05 C867.89,670.1 868.81,690.36 869.51,705.72 " fill="none" id="_G0Cp0LdREe2lCsB2iGU-8w-to-_RqhgoLdQEe2lCsB2iGU-8w" style="stroke:#181818;stroke-width:1.0;"/><polygon fill="#181818" points="869.74,710.72,873.3248,701.5467,869.5117,705.7252,865.3332,701.9121,869.74,710.72" style="stroke:#181818;stroke-width:1.0;"/><text fill="#000000" font-family="sans-serif" font-size="11" lengthAdjust="spacing" textLength="38" x="870.5" y="688.4189">27 - null</text></g><!--link _RqhgoLdQEe2lCsB2iGU-8w to _h0_4sLIBEe2fRLFFhL_FWA--><g id="link__RqhgoLdQEe2lCsB2iGU-8w__h0_4sLIBEe2fRLFFhL_FWA"><path d="M848.12,746.05 C828.3,760.71 799.33,782.13 778.29,797.69 " fill="none" id="_RqhgoLdQEe2lCsB2iGU-8w-to-_h0_4sLIBEe2fRLFFhL_FWA" style="stroke:#181818;stroke-width:1.0;"/><polygon fill="#181818" points="774.19,800.72,783.8073,798.5968,778.2138,797.7521,779.0586,792.1586,774.19,800.72" style="stroke:#181818;stroke-width:1.0;"/><text fill="#000000" font-family="sans-serif" font-size="11" lengthAdjust="spacing" textLength="38" x="819.5" y="778.4189">28 - null</text></g><!--link _h0_4sLIBEe2fRLFFhL_FWA to _MPkXALnFEe2hSdAxtFJKiA--><g id="link__h0_4sLIBEe2fRLFFhL_FWA__MPkXALnFEe2hSdAxtFJKiA"><path d="M766.74,836.05 C780,850.46 799.29,871.42 813.55,886.91 " fill="none" id="_h0_4sLIBEe2fRLFFhL_FWA-to-_MPkXALnFEe2hSdAxtFJKiA" style="stroke:#181818;stroke-width:1.0;"/><polygon fill="#181818" points="817.06,890.72,813.9173,881.386,813.6775,887.0378,808.0257,886.798,817.06,890.72" style="stroke:#181818;stroke-width:1.0;"/><text fill="#000000" font-family="sans-serif" font-size="11" lengthAdjust="spacing" textLength="38" x="798.5" y="868.4189">29 - null</text></g><!--link _MPkXALnFEe2hSdAxtFJKiA to _RqhgoLdQEe2lCsB2iGU-8w--><g id="link__MPkXALnFEe2hSdAxtFJKiA__RqhgoLdQEe2lCsB2iGU-8w"><path d="M837.14,890.8 C838.84,884.59 840.78,877.48 842.5,871 C853.04,831.3 856.35,821.45 863.5,781 C865.21,771.34 866.73,760.61 867.91,751.44 " fill="none" id="_MPkXALnFEe2hSdAxtFJKiA-to-_RqhgoLdQEe2lCsB2iGU-8w" style="stroke:#181818;stroke-width:1.0;"/><polygon fill="#181818" points="868.57,746.25,863.4696,754.6753,867.941,751.2103,871.4061,755.6817,868.57,746.25" style="stroke:#181818;stroke-width:1.0;"/><text fill="#000000" font-family="sans-serif" font-size="11" lengthAdjust="spacing" textLength="38" x="861.5" y="823.4189">30 - null</text></g><!--link _RqhgoLdQEe2lCsB2iGU-8w to _Xg1GULdIEe2lCsB2iGU-8w--><g id="link__RqhgoLdQEe2lCsB2iGU-8w__Xg1GULdIEe2lCsB2iGU-8w"><path d="M891.73,746.1 C906.11,756.89 925.82,770.78 944.5,781 C956.52,787.58 969.97,793.72 982.67,799.02 " fill="none" id="_RqhgoLdQEe2lCsB2iGU-8w-to-_Xg1GULdIEe2lCsB2iGU-8w" style="stroke:#181818;stroke-width:1.0;"/><polygon fill="#181818" points="987.32,800.93,980.5209,793.8045,982.6966,799.0263,977.4749,801.202,987.32,800.93" style="stroke:#181818;stroke-width:1.0;"/><text fill="#000000" font-family="sans-serif" font-size="11" lengthAdjust="spacing" textLength="38" x="945.5" y="778.4189">31 - null</text></g><!--link _Xg1GULdIEe2lCsB2iGU-8w to _QwI_QLkBEe25g4oGy4Jxtw--><g id="link__Xg1GULdIEe2lCsB2iGU-8w__QwI_QLkBEe25g4oGy4Jxtw"><path d="M1022.55,800.95 C1013.16,783.73 1000.5,755.67 1000.5,729.5 C1000.5,547.5 1000.5,547.5 1000.5,547.5 C1000.5,523.36 988.75,498.08 978.68,480.84 " fill="none" id="_Xg1GULdIEe2lCsB2iGU-8w-to-_QwI_QLkBEe25g4oGy4Jxtw" style="stroke:#181818;stroke-width:1.0;"/><polygon fill="#181818" points="975.89,476.2,977.0905,485.9754,978.4625,480.4875,983.9504,481.8595,975.89,476.2" style="stroke:#181818;stroke-width:1.0;"/><text fill="#000000" font-family="sans-serif" font-size="11" lengthAdjust="spacing" textLength="60" x="1001.5" y="643.4189">32 - teleTAN</text></g><!--link _QwI_QLkBEe25g4oGy4Jxtw to _V__IQLkBEe25g4oGy4Jxtw--><g id="link__QwI_QLkBEe25g4oGy4Jxtw__V__IQLkBEe25g4oGy4Jxtw"><path d="M990.85,476.05 C1009.27,487.09 1034.72,501.3 1058.5,511 C1075.86,518.08 1095.06,524.3 1113.26,529.51 " fill="none" id="_QwI_QLkBEe25g4oGy4Jxtw-to-_V__IQLkBEe25g4oGy4Jxtw" style="stroke:#181818;stroke-width:1.0;"/><polygon fill="#181818" points="1118.36,530.95,1110.7829,524.6581,1113.5476,529.5934,1108.6123,532.358,1118.36,530.95" style="stroke:#181818;stroke-width:1.0;"/><text fill="#000000" font-family="sans-serif" font-size="11" lengthAdjust="spacing" textLength="60" x="1059.5" y="508.4189">33 - teleTAN</text></g><!--link _V__IQLkBEe25g4oGy4Jxtw to _zxhBMLLIEe2Y1pKtbIeM6Q--><g id="link__V__IQLkBEe25g4oGy4Jxtw__zxhBMLLIEe2Y1pKtbIeM6Q"><path d="M1202.98,566.05 C1215.59,580.46 1233.93,601.42 1247.48,616.91 " fill="none" id="_V__IQLkBEe25g4oGy4Jxtw-to-_zxhBMLLIEe2Y1pKtbIeM6Q" style="stroke:#181818;stroke-width:1.0;"/><polygon fill="#181818" points="1250.82,620.72,1247.9063,611.312,1247.5285,616.9562,1241.8843,616.5784,1250.82,620.72" style="stroke:#181818;stroke-width:1.0;"/><text fill="#000000" font-family="sans-serif" font-size="11" lengthAdjust="spacing" textLength="114" x="1232.5" y="598.4189">34 - diagnosisKeys, tan</text></g><!--link _zxhBMLLIEe2Y1pKtbIeM6Q to _zqW-0LmjEe2dIMSi7oNVYQ--><g id="link__zxhBMLLIEe2Y1pKtbIeM6Q__zqW-0LmjEe2dIMSi7oNVYQ"><path d="M1279.8,656.05 C1292.24,670.46 1310.34,691.42 1323.72,706.91 " fill="none" id="_zxhBMLLIEe2Y1pKtbIeM6Q-to-_zqW-0LmjEe2dIMSi7oNVYQ" style="stroke:#181818;stroke-width:1.0;"/><polygon fill="#181818" points="1327.01,710.72,1324.1519,701.295,1323.7408,706.9368,1318.0989,706.5257,1327.01,710.72" style="stroke:#181818;stroke-width:1.0;"/><text fill="#000000" font-family="sans-serif" font-size="11" lengthAdjust="spacing" textLength="114" x="1308.5" y="688.4189">35 - diagnosisKeys, tan</text></g><!--link _zqW-0LmjEe2dIMSi7oNVYQ to _fZnOULNUEe2o46d27a6tVQ--><g id="link__zqW-0LmjEe2dIMSi7oNVYQ__fZnOULNUEe2o46d27a6tVQ"><path d="M1321.37,746.05 C1303.7,760.59 1277.94,781.77 1259.06,797.3 " fill="none" id="_zqW-0LmjEe2dIMSi7oNVYQ-to-_fZnOULNUEe2o46d27a6tVQ" style="stroke:#181818;stroke-width:1.0;"/><polygon fill="#181818" points="1254.9,800.72,1264.3923,798.0938,1258.7621,797.5445,1259.3114,791.9143,1254.9,800.72" style="stroke:#181818;stroke-width:1.0;"/><text fill="#000000" font-family="sans-serif" font-size="11" lengthAdjust="spacing" textLength="37" x="1294.5" y="778.4189">36 - tan</text></g><!--link _fZnOULNUEe2o46d27a6tVQ to _kSKnoLm1Ee2dIMSi7oNVYQ--><g id="link__fZnOULNUEe2o46d27a6tVQ__kSKnoLm1Ee2dIMSi7oNVYQ"><path d="M1241.46,836.05 C1247.36,850.1 1255.88,870.36 1262.34,885.72 " fill="none" id="_fZnOULNUEe2o46d27a6tVQ-to-_kSKnoLm1Ee2dIMSi7oNVYQ" style="stroke:#181818;stroke-width:1.0;"/><polygon fill="#181818" points="1264.45,890.72,1264.67,880.8736,1262.5219,886.1067,1257.2887,883.9586,1264.45,890.72" style="stroke:#181818;stroke-width:1.0;"/><text fill="#000000" font-family="sans-serif" font-size="11" lengthAdjust="spacing" textLength="37" x="1255.5" y="868.4189">37 - tan</text></g><!--link _kSKnoLm1Ee2dIMSi7oNVYQ to _puBN4bLGEe2Y1pKtbIeM6Q--><g id="link__kSKnoLm1Ee2dIMSi7oNVYQ__puBN4bLGEe2Y1pKtbIeM6Q"><path d="M1240.28,926.01 C1233.15,931.37 1226.5,938.04 1222.5,946 C1217.95,955.06 1218.2,966.16 1219.9,975.74 " fill="none" id="_kSKnoLm1Ee2dIMSi7oNVYQ-to-_puBN4bLGEe2Y1pKtbIeM6Q" style="stroke:#181818;stroke-width:1.0;"/><polygon fill="#181818" points="1220.97,980.88,1223.0358,971.2502,1219.9428,975.9866,1215.2064,972.8937,1220.97,980.88" style="stroke:#181818;stroke-width:1.0;"/><text fill="#000000" font-family="sans-serif" font-size="11" lengthAdjust="spacing" textLength="37" x="1223.5" y="958.4189">38 - tan</text></g><!--link _puBN4bLGEe2Y1pKtbIeM6Q to _kSKnoLm1Ee2dIMSi7oNVYQ--><g id="link__puBN4bLGEe2Y1pKtbIeM6Q__kSKnoLm1Ee2dIMSi7oNVYQ"><path d="M1247.28,980.72 C1253.05,975.04 1258.75,968.28 1262.5,961 C1267.2,951.88 1269.5,940.77 1270.61,931.21 " fill="none" id="_puBN4bLGEe2Y1pKtbIeM6Q-to-_kSKnoLm1Ee2dIMSi7oNVYQ" style="stroke:#181818;stroke-width:1.0;"/><polygon fill="#181818" points="1271.11,926.07,1266.2562,934.6397,1270.6252,931.0464,1274.2185,935.4154,1271.11,926.07" style="stroke:#181818;stroke-width:1.0;"/><text fill="#000000" font-family="sans-serif" font-size="11" lengthAdjust="spacing" textLength="37" x="1268.5" y="958.4189">39 - tan</text></g><!--link _kSKnoLm1Ee2dIMSi7oNVYQ to _zqW-0LmjEe2dIMSi7oNVYQ--><g id="link__kSKnoLm1Ee2dIMSi7oNVYQ__zqW-0LmjEe2dIMSi7oNVYQ"><path d="M1292.95,890.96 C1308.12,877.88 1327.33,858.17 1336.5,836 C1347.9,808.45 1346.93,773.4 1344.65,751.2 " fill="none" id="_kSKnoLm1Ee2dIMSi7oNVYQ-to-_zqW-0LmjEe2dIMSi7oNVYQ" style="stroke:#181818;stroke-width:1.0;"/><polygon fill="#181818" points="1344.08,746.12,1341.1072,755.5095,1344.6369,751.0889,1349.0575,754.6185,1344.08,746.12" style="stroke:#181818;stroke-width:1.0;"/><text fill="#000000" font-family="sans-serif" font-size="11" lengthAdjust="spacing" textLength="114" x="1345.5" y="823.4189">40 - diagnosisKeys, tan</text></g><!--link _zqW-0LmjEe2dIMSi7oNVYQ to _AwCboLmkEe2dIMSi7oNVYQ--><g id="link__zqW-0LmjEe2dIMSi7oNVYQ__AwCboLmkEe2dIMSi7oNVYQ"><path d="M1389.46,746.05 C1433.31,761.18 1498.06,783.53 1543.44,799.19 " fill="none" id="_zqW-0LmjEe2dIMSi7oNVYQ-to-_AwCboLmkEe2dIMSi7oNVYQ" style="stroke:#181818;stroke-width:1.0;"/><polygon fill="#181818" points="1548.32,800.87,1541.1131,794.1573,1543.5925,799.2418,1538.508,801.7212,1548.32,800.87" style="stroke:#181818;stroke-width:1.0;"/><text fill="#000000" font-family="sans-serif" font-size="11" lengthAdjust="spacing" textLength="114" x="1484.5" y="778.4189">41 - diagnosisKeys, tan</text></g><!--link _AwCboLmkEe2dIMSi7oNVYQ to _DXYRULmkEe2dIMSi7oNVYQ--><g id="link__AwCboLmkEe2dIMSi7oNVYQ__DXYRULmkEe2dIMSi7oNVYQ"><path d="M1586.72,836.05 C1578.35,850.22 1566.24,870.71 1557.14,886.12 " fill="none" id="_AwCboLmkEe2dIMSi7oNVYQ-to-_DXYRULmkEe2dIMSi7oNVYQ" style="stroke:#181818;stroke-width:1.0;"/><polygon fill="#181818" points="1554.41,890.72,1562.4342,885.0093,1556.9551,886.4162,1555.5481,880.9371,1554.41,890.72" style="stroke:#181818;stroke-width:1.0;"/><text fill="#000000" font-family="sans-serif" font-size="11" lengthAdjust="spacing" textLength="114" x="1574.5" y="868.4189">42 - diagnosisKeys, tan</text></g><!--link _DXYRULmkEe2dIMSi7oNVYQ to _nw3iQLNWEe2o46d27a6tVQ--><g id="link__DXYRULmkEe2dIMSi7oNVYQ__nw3iQLNWEe2o46d27a6tVQ"><path d="M1449.21,925.81 C1429.49,931.15 1412.77,937.85 1406.5,946 C1399.1,955.62 1404.73,967.34 1412.93,977.18 " fill="none" id="_DXYRULmkEe2dIMSi7oNVYQ-to-_nw3iQLNWEe2o46d27a6tVQ" style="stroke:#181818;stroke-width:1.0;"/><polygon fill="#181818" points="1416.3,980.98,1413.3104,971.5959,1412.9782,977.243,1407.3311,976.9108,1416.3,980.98" style="stroke:#181818;stroke-width:1.0;"/><text fill="#000000" font-family="sans-serif" font-size="11" lengthAdjust="spacing" textLength="93" x="1407.5" y="958.4189">43 - diagnosisKeys</text></g><!--link _nw3iQLNWEe2o46d27a6tVQ to _DXYRULmkEe2dIMSi7oNVYQ--><g id="link__nw3iQLNWEe2o46d27a6tVQ__DXYRULmkEe2dIMSi7oNVYQ"><path d="M1471.91,980.97 C1482.32,975.39 1493.33,968.61 1502.5,961 C1513.06,952.23 1522.88,940.49 1530.37,930.43 " fill="none" id="_nw3iQLNWEe2o46d27a6tVQ-to-_DXYRULmkEe2dIMSi7oNVYQ" style="stroke:#181818;stroke-width:1.0;"/><polygon fill="#181818" points="1533.43,926.23,1524.8994,931.1524,1530.4874,930.2724,1531.3674,935.8604,1533.43,926.23" style="stroke:#181818;stroke-width:1.0;"/><text fill="#000000" font-family="sans-serif" font-size="11" lengthAdjust="spacing" textLength="114" x="1517.5" y="958.4189">44 - diagnosisKeys, tan</text></g><!--link _DXYRULmkEe2dIMSi7oNVYQ to _7yZngrmkEe2dIMSi7oNVYQ--><g id="link__DXYRULmkEe2dIMSi7oNVYQ__7yZngrmkEe2dIMSi7oNVYQ"><path d="M1604.39,926.16 C1616.19,931.25 1627.89,937.76 1637.5,946 C1646.9,954.06 1654.07,965.84 1659.04,976.1 " fill="none" id="_DXYRULmkEe2dIMSi7oNVYQ-to-_7yZngrmkEe2dIMSi7oNVYQ" style="stroke:#181818;stroke-width:1.0;"/><polygon fill="#181818" points="1661.16,980.68,1660.9889,970.8326,1659.0503,976.1469,1653.736,974.2082,1661.16,980.68" style="stroke:#181818;stroke-width:1.0;"/><text fill="#000000" font-family="sans-serif" font-size="11" lengthAdjust="spacing" textLength="114" x="1650.5" y="958.4189">45 - diagnosisKeys, tan</text></g><!--link _7yZngrmkEe2dIMSi7oNVYQ to _C03ksLmlEe2dIMSi7oNVYQ--><g id="link__7yZngrmkEe2dIMSi7oNVYQ__C03ksLmlEe2dIMSi7oNVYQ"><path d="M1663.35,1016.41 C1661.7,1027.05 1661.41,1040.68 1667.5,1051 C1671.44,1057.69 1677.1,1063.24 1683.47,1067.82 " fill="none" id="_7yZngrmkEe2dIMSi7oNVYQ-to-_C03ksLmlEe2dIMSi7oNVYQ" style="stroke:#181818;stroke-width:1.0;"/><polygon fill="#181818" points="1687.98,1070.83,1682.7301,1062.497,1683.8263,1068.0466,1678.2767,1069.1428,1687.98,1070.83" style="stroke:#181818;stroke-width:1.0;"/><text fill="#000000" font-family="sans-serif" font-size="11" lengthAdjust="spacing" textLength="114" x="1668.5" y="1048.4189">46 - diagnosisKeys, tan</text></g><!--link _C03ksLmlEe2dIMSi7oNVYQ to _w6y-YLNaEe2o46d27a6tVQ--><g id="link__C03ksLmlEe2dIMSi7oNVYQ__w6y-YLNaEe2o46d27a6tVQ"><path d="M1707.35,1106.26 C1700.16,1111.85 1692.88,1118.57 1687.5,1126 C1681.12,1134.81 1676.65,1146 1673.66,1155.69 " fill="none" id="_C03ksLmlEe2dIMSi7oNVYQ-to-_w6y-YLNaEe2o46d27a6tVQ" style="stroke:#181818;stroke-width:1.0;"/><polygon fill="#181818" points="1672.23,1160.61,1678.59,1153.09,1673.63,1155.81,1670.91,1150.85,1672.23,1160.61" style="stroke:#181818;stroke-width:1.0;"/><text fill="#000000" font-family="sans-serif" font-size="11" lengthAdjust="spacing" textLength="93" x="1688.5" y="1138.4189">47 - diagnosisKeys</text></g><!--link _w6y-YLNaEe2o46d27a6tVQ to _lNsYkLmxEe2dIMSi7oNVYQ--><g id="link__w6y-YLNaEe2o46d27a6tVQ__lNsYkLmxEe2dIMSi7oNVYQ"><path d="M1672.23,1196.39 C1675.16,1207.03 1680.01,1220.66 1687.5,1231 C1691.87,1237.04 1697.5,1242.6 1703.31,1247.48 " fill="none" id="_w6y-YLNaEe2o46d27a6tVQ-to-_lNsYkLmxEe2dIMSi7oNVYQ" style="stroke:#181818;stroke-width:1.0;"/><polygon fill="#181818" points="1707.35,1250.74,1702.8522,1241.9782,1703.4568,1247.6026,1697.8324,1248.2073,1707.35,1250.74" style="stroke:#181818;stroke-width:1.0;"/><text fill="#000000" font-family="sans-serif" font-size="11" lengthAdjust="spacing" textLength="93" x="1688.5" y="1228.4189">48 - diagnosisKeys</text></g><!--link _lNsYkLmxEe2dIMSi7oNVYQ to _1iDdYLNaEe2o46d27a6tVQ--><g id="link__lNsYkLmxEe2dIMSi7oNVYQ__1iDdYLNaEe2o46d27a6tVQ"><path d="M1693.27,1286.08 C1685.36,1291.25 1678.1,1297.82 1673.5,1306 C1666.43,1318.58 1675.28,1329.51 1688.17,1338.03 " fill="none" id="_lNsYkLmxEe2dIMSi7oNVYQ-to-_1iDdYLNaEe2o46d27a6tVQ" style="stroke:#181818;stroke-width:1.0;"/><polygon fill="#181818" points="1692.68,1340.82,1687.1236,1332.6882,1688.4256,1338.1931,1682.9207,1339.4952,1692.68,1340.82" style="stroke:#181818;stroke-width:1.0;"/><text fill="#000000" font-family="sans-serif" font-size="11" lengthAdjust="spacing" textLength="93" x="1674.5" y="1318.4189">49 - diagnosisKeys</text></g><!--link _1iDdYLNaEe2o46d27a6tVQ to _lNsYkLmxEe2dIMSi7oNVYQ--><g id="link__1iDdYLNaEe2o46d27a6tVQ__lNsYkLmxEe2dIMSi7oNVYQ"><path d="M1755.96,1340.98 C1766.08,1331.39 1774.72,1318.72 1769.5,1306 C1767.13,1300.21 1763.34,1294.85 1759.1,1290.11 " fill="none" id="_1iDdYLNaEe2o46d27a6tVQ-to-_lNsYkLmxEe2dIMSi7oNVYQ" style="stroke:#181818;stroke-width:1.0;"/><polygon fill="#181818" points="1755.45,1286.29,1758.7613,1295.5655,1758.8986,1289.9103,1764.5538,1290.0477,1755.45,1286.29" style="stroke:#181818;stroke-width:1.0;"/><text fill="#000000" font-family="sans-serif" font-size="11" lengthAdjust="spacing" textLength="93" x="1771.5" y="1318.4189">50 - diagnosisKeys</text></g><!--link _lNsYkLmxEe2dIMSi7oNVYQ to _C03ksLmlEe2dIMSi7oNVYQ--><g id="link__lNsYkLmxEe2dIMSi7oNVYQ__C03ksLmlEe2dIMSi7oNVYQ"><path d="M1765.6,1250.92 C1772.78,1245.59 1779.46,1238.95 1783.5,1231 C1804.64,1189.4 1804.64,1167.6 1783.5,1126 C1780.22,1119.54 1775.19,1113.95 1769.58,1109.22 " fill="none" id="_lNsYkLmxEe2dIMSi7oNVYQ-to-_C03ksLmlEe2dIMSi7oNVYQ" style="stroke:#181818;stroke-width:1.0;"/><polygon fill="#181818" points="1765.6,1106.08,1770.172,1114.8034,1769.5196,1109.1842,1775.1388,1108.5319,1765.6,1106.08" style="stroke:#181818;stroke-width:1.0;"/><text fill="#000000" font-family="sans-serif" font-size="11" lengthAdjust="spacing" textLength="114" x="1799.5" y="1183.4189">51 - diagnosisKeys, tan</text></g><!--link _C03ksLmlEe2dIMSi7oNVYQ to _V__IQLkBEe25g4oGy4Jxtw--><g id="link__C03ksLmlEe2dIMSi7oNVYQ__V__IQLkBEe25g4oGy4Jxtw"><path d="M1763.67,1070.89 C1771.38,1065.42 1779.02,1058.73 1784.5,1051 C1798.28,1031.55 1799.5,1023.34 1799.5,999.5 C1799.5,637.5 1799.5,637.5 1799.5,637.5 C1799.5,585.76 1451.88,562.01 1281.04,553.46 " fill="none" id="_C03ksLmlEe2dIMSi7oNVYQ-to-_V__IQLkBEe25g4oGy4Jxtw" style="stroke:#181818;stroke-width:1.0;"/><polygon fill="#181818" points="1276.04,553.21,1284.8353,557.6419,1281.0341,553.4526,1285.2235,549.6513,1276.04,553.21" style="stroke:#181818;stroke-width:1.0;"/><text fill="#000000" font-family="sans-serif" font-size="11" lengthAdjust="spacing" textLength="60" x="1800.5" y="823.4189">52 - teleTAN</text></g><!--link _V__IQLkBEe25g4oGy4Jxtw to _x9uVkLZ8Ee2xLZp9hElpuA--><g id="link__V__IQLkBEe25g4oGy4Jxtw__x9uVkLZ8Ee2xLZp9hElpuA"><path d="M1171.18,530.7 C1156.06,514.15 1136.5,487.36 1136.5,459.5 C1136.5,187.5 1136.5,187.5 1136.5,187.5 C1136.5,164.93 1136.5,139.11 1136.5,121.3 " fill="none" id="_V__IQLkBEe25g4oGy4Jxtw-to-_x9uVkLZ8Ee2xLZp9hElpuA" style="stroke:#181818;stroke-width:1.0;"/><polygon fill="#181818" points="1136.5,116.04,1132.5,125.04,1136.5,121.04,1140.5,125.04,1136.5,116.04" style="stroke:#181818;stroke-width:1.0;"/><text fill="#000000" font-family="sans-serif" font-size="11" lengthAdjust="spacing" textLength="38" x="1137.5" y="328.4189">53 - null</text></g><!--link _x9uVkLZ8Ee2xLZp9hElpuA to end--><g id="link__x9uVkLZ8Ee2xLZp9hElpuA_end"><path d="M1144.21,116.05 C1152.05,132.87 1164.03,158.6 1171.28,174.16 " fill="none" id="_x9uVkLZ8Ee2xLZp9hElpuA-to-end" style="stroke:#181818;stroke-width:1.0;"/><polygon fill="#181818" points="1173.55,179.02,1173.3926,169.1724,1171.4465,174.484,1166.135,172.5379,1173.55,179.02" style="stroke:#181818;stroke-width:1.0;"/><text fill="#000000" font-family="sans-serif" font-size="11" lengthAdjust="spacing" textLength="38" x="1159.5" y="148.4189">54 - null</text></g><!--SRC=[hTTRRw905C3nz_qKPf_QPacuNrusGUk5EjAYrLOt6oC5bNBJWYlsqo_8IOeovway_oU_78RfO6_kRbiCyxlrXsqnhUWG17zRFvUPTfZvPA5sNJuZYvssxGQxW_xp1rfAWik9r0tSPzqib4FO4QTaMAoTSxjXQXlkIBOA1IcbmbygH5tlkyHlvskbZHZtJ-93bXuB1Icb8bmfivd5skIXFWjIIaMyL8A3_JOYuMU-rZ564q-9pTdyh22bLAJArWx-xOSnTH2ab8HS8UIdkCkIy5IV0YabeJJoBEgb4cRg8AOgI2aLhP5tpB6NZAazaeJA80MOujn-k1ilIJzMgHT7px7lHkMfiPaDScge1K0U0uNUmAPlEb8052glVvTAac6JVdqef80XLWnhD0YFr2E4532afXzCna1fFLk9L10f02hD78chOsuTZQL5PP02Z5RPSzSPQ2enYfNhCUdrjcJPUpbVgaY1wx1wCVVPpeubpZXV6NIIDk_rfunwdWCfO9nF-CvB2cCTl0dqEP021bynmibnhHDdK9y3AM085IErmunk80KCiMAywnEzItqMf80XDJ27tC1xKIh6UB_TnCInwWPIm50hnfPTYWbrFv02HlMSZfxyLvr4lNpbTkBeMTfx67fd0odmmMM__om2Lp5UDrn_IXoZRY053BwHFrtXwWV4RBaqw0nIW2bEg-EjDb6SUCdGFIM_MkdgVCDzPjlsY12ZVeyZ1KG95_SlJFxvVw_VcKW1iJZ9GAmNqUEKcDDyOIpA3g-iv7Hs9f02XF95-9DXb7_ukVeKI052_I9sXxOfqZznz0A4zkqfHBRftHKvLDIF7JkVnA-BI06HHyNxr_buIXMH0g9mBHPOT1GyYvWlzRE05C34niV3ZxnoMaIR3vg8511bLEomWf-GCAYBI05HeMtXKJunSsAkwbk85C1K6XQOoTmdOKRvnKulW6aqZFFk7VfaI85_PTW69vEufj-2n3ToQql2z_yPbhv-Rz_StVu7]--></g></svg>