<?xml version="1.0" encoding="us-ascii" standalone="no"?><svg xmlns="http://www.w3.org/2000/svg" xmlns:xlink="http://www.w3.org/1999/xlink" contentStyleType="text/css" height="482px" preserveAspectRatio="none" style="width:578px;height:482px;background:#FFFFFF;" version="1.1" viewBox="0 0 578 482" width="578px" zoomAndPan="magnify"><defs/><g><ellipse cx="364" cy="16" fill="#222222" rx="10" ry="10" style="stroke:none;stroke-width:1.0;"/><rect fill="#F1F1F1" height="35.0938" rx="12.5" ry="12.5" style="stroke:#181818;stroke-width:0.5;" width="417" x="155.5" y="81"/><text fill="#000000" font-family="sans-serif" font-size="12" lengthAdjust="spacing" textLength="397" x="165.5" y="103.457">AllowSharingOfPrivacyPreservingAnalytics (_3gL1YLZ4Ee2xLZp9hElpuA)</text><rect fill="#F1F1F1" height="35.0938" rx="12.5" ry="12.5" style="stroke:#181818;stroke-width:0.5;" width="332" x="7" y="171"/><text fill="#000000" font-family="sans-serif" font-size="12" lengthAdjust="spacing" textLength="312" x="17" y="193.457">GenerateAuthenticityProof (_pa4bALK8Ee2Y1pKtbIeM6Q)</text><rect fill="#F1F1F1" height="35.0938" rx="12.5" ry="12.5" style="stroke:#181818;stroke-width:0.5;" width="334" x="39" y="261"/><text fill="#000000" font-family="sans-serif" font-size="12" lengthAdjust="spacing" textLength="314" x="49" y="283.457">GenerateAuthenticityProof (_k_kwULd9Ee2lCsB2iGU-8w)</text><rect fill="#F1F1F1" height="35.0938" rx="12.5" ry="12.5" style="stroke:#181818;stroke-width:0.5;" width="288" x="171" y="351"/><text fill="#000000" font-family="sans-serif" font-size="12" lengthAdjust="spacing" textLength="268" x="181" y="373.457">SendAnalyticData (_XZGTkLd9Ee2lCsB2iGU-8w)</text><rect fill="#F1F1F1" height="35.0938" rx="12.5" ry="12.5" style="stroke:#181818;stroke-width:0.5;" width="226" x="202" y="441"/><text fill="#000000" font-family="sans-serif" font-size="12" lengthAdjust="spacing" textLength="206" x="212" y="463.457">aName (_6z-hsLKkEe2Y1pKtbIeM6Q)</text><ellipse cx="369" cy="188.5" fill="none" rx="10" ry="10" style="stroke:#222222;stroke-width:1.0;"/><ellipse cx="369.5" cy="189" fill="#222222" rx="6" ry="6" style="stroke:none;stroke-width:1.0;"/><!--link start to AllowSharingOfPrivacyPreservingAnalytics (_3gL1YLZ4Ee2xLZp9hElpuA)--><g id="link_start_AllowSharingOfPrivacyPreservingAnalytics (_3gL1YLZ4Ee2xLZp9hElpuA)"><path d="M364,26.23 C364,38.18 364,59.38 364,75.56 " fill="none" id="start-to-AllowSharingOfPrivacyPreservingAnalytics (_3gL1YLZ4Ee2xLZp9hElpuA)" style="stroke:#181818;stroke-width:1.0;"/><polygon fill="#181818" points="364,80.84,368,71.84,364,75.84,360,71.84,364,80.84" style="stroke:#181818;stroke-width:1.0;"/><text fill="#000000" font-family="sans-serif" font-size="11" lengthAdjust="spacing" textLength="32" x="365" y="58.4189">0 - null</text></g><!--link AllowSharingOfPrivacyPreservingAnalytics (_3gL1YLZ4Ee2xLZp9hElpuA) to GenerateAuthenticityProof (_pa4bALK8Ee2Y1pKtbIeM6Q)--><g id="link_AllowSharingOfPrivacyPreservingAnalytics (_3gL1YLZ4Ee2xLZp9hElpuA)_GenerateAuthenticityProof (_pa4bALK8Ee2Y1pKtbIeM6Q)"><path d="M325.46,116.16 C311.42,122.3 295.45,129.38 281,136 C257.82,146.62 232.05,158.89 211.49,168.79 " fill="none" id="AllowSharingOfPrivacyPreservingAnalytics (_3gL1YLZ4Ee2xLZp9hElpuA)-to-GenerateAuthenticityProof (_pa4bALK8Ee2Y1pKtbIeM6Q)" style="stroke:#181818;stroke-width:1.0;"/><polygon fill="#181818" points="206.92,171,216.764,170.6912,211.4231,168.8271,213.2873,163.4862,206.92,171" style="stroke:#181818;stroke-width:1.0;"/><text fill="#000000" font-family="sans-serif" font-size="11" lengthAdjust="spacing" textLength="75" x="282" y="148.4189">1 - analyticData</text></g><!--link GenerateAuthenticityProof (_pa4bALK8Ee2Y1pKtbIeM6Q) to GenerateAuthenticityProof (_k_kwULd9Ee2lCsB2iGU-8w)--><g id="link_GenerateAuthenticityProof (_pa4bALK8Ee2Y1pKtbIeM6Q)_GenerateAuthenticityProof (_k_kwULd9Ee2lCsB2iGU-8w)"><path d="M179.21,206.05 C184.47,220.1 192.07,240.36 197.83,255.72 " fill="none" id="GenerateAuthenticityProof (_pa4bALK8Ee2Y1pKtbIeM6Q)-to-GenerateAuthenticityProof (_k_kwULd9Ee2lCsB2iGU-8w)" style="stroke:#181818;stroke-width:1.0;"/><polygon fill="#181818" points="199.71,260.72,200.2952,250.8885,197.9544,256.0384,192.8046,253.6975,199.71,260.72" style="stroke:#181818;stroke-width:1.0;"/><text fill="#000000" font-family="sans-serif" font-size="11" lengthAdjust="spacing" textLength="75" x="193" y="238.4189">2 - analyticData</text></g><!--link GenerateAuthenticityProof (_k_kwULd9Ee2lCsB2iGU-8w) to SendAnalyticData (_XZGTkLd9Ee2lCsB2iGU-8w)--><g id="link_GenerateAuthenticityProof (_k_kwULd9Ee2lCsB2iGU-8w)_SendAnalyticData (_XZGTkLd9Ee2lCsB2iGU-8w)"><path d="M226.5,296.05 C244.5,310.59 270.75,331.77 289.98,347.3 " fill="none" id="GenerateAuthenticityProof (_k_kwULd9Ee2lCsB2iGU-8w)-to-SendAnalyticData (_XZGTkLd9Ee2lCsB2iGU-8w)" style="stroke:#181818;stroke-width:1.0;"/><polygon fill="#181818" points="294.22,350.72,289.7379,341.9501,290.3324,347.5757,284.7069,348.1702,294.22,350.72" style="stroke:#181818;stroke-width:1.0;"/><text fill="#000000" font-family="sans-serif" font-size="11" lengthAdjust="spacing" textLength="75" x="268" y="328.4189">3 - analyticData</text></g><!--link SendAnalyticData (_XZGTkLd9Ee2lCsB2iGU-8w) to aName (_6z-hsLKkEe2Y1pKtbIeM6Q)--><g id="link_SendAnalyticData (_XZGTkLd9Ee2lCsB2iGU-8w)_aName (_6z-hsLKkEe2Y1pKtbIeM6Q)"><path d="M243.58,386.19 C234.7,391.17 226.74,397.62 221,406 C211.25,420.25 220.91,430.93 237.2,438.76 " fill="none" id="SendAnalyticData (_XZGTkLd9Ee2lCsB2iGU-8w)-to-aName (_6z-hsLKkEe2Y1pKtbIeM6Q)" style="stroke:#181818;stroke-width:1.0;"/><polygon fill="#181818" points="241.96,440.9,235.3836,433.5685,237.3975,438.8547,232.1112,440.8685,241.96,440.9" style="stroke:#181818;stroke-width:1.0;"/><text fill="#000000" font-family="sans-serif" font-size="11" lengthAdjust="spacing" textLength="162" x="222" y="418.4189">4 - analyticData, authenticityProof</text></g><!--link aName (_6z-hsLKkEe2Y1pKtbIeM6Q) to SendAnalyticData (_XZGTkLd9Ee2lCsB2iGU-8w)--><g id="link_aName (_6z-hsLKkEe2Y1pKtbIeM6Q)_SendAnalyticData (_XZGTkLd9Ee2lCsB2iGU-8w)"><path d="M365.1,440.99 C382.18,432.44 394.96,420.69 386,406 C381.81,399.14 375.88,393.52 369.21,388.92 " fill="none" id="aName (_6z-hsLKkEe2Y1pKtbIeM6Q)-to-SendAnalyticData (_XZGTkLd9Ee2lCsB2iGU-8w)" style="stroke:#181818;stroke-width:1.0;"/><polygon fill="#181818" points="364.97,386.19,370.3776,394.4215,369.1759,388.8938,374.7036,387.6921,364.97,386.19" style="stroke:#181818;stroke-width:1.0;"/><text fill="#000000" font-family="sans-serif" font-size="11" lengthAdjust="spacing" textLength="75" x="389" y="418.4189">5 - analyticData</text></g><!--link SendAnalyticData (_XZGTkLd9Ee2lCsB2iGU-8w) to AllowSharingOfPrivacyPreservingAnalytics (_3gL1YLZ4Ee2xLZp9hElpuA)--><g id="link_SendAnalyticData (_XZGTkLd9Ee2lCsB2iGU-8w)_AllowSharingOfPrivacyPreservingAnalytics (_3gL1YLZ4Ee2xLZp9hElpuA)"><path d="M337.02,350.99 C352.67,337.92 372.67,318.21 383,296 C505.91,31.57 413.91,173.08 399,136 C396.65,130.15 392.86,124.7 388.62,119.9 " fill="none" id="SendAnalyticData (_XZGTkLd9Ee2lCsB2iGU-8w)-to-AllowSharingOfPrivacyPreservingAnalytics (_3gL1YLZ4Ee2xLZp9hElpuA)" style="stroke:#181818;stroke-width:1.0;"/><polygon fill="#181818" points="384.98,116.02,388.2161,125.322,388.3992,119.6681,394.0531,119.8513,384.98,116.02" style="stroke:#181818;stroke-width:1.0;"/><text fill="#000000" font-family="sans-serif" font-size="11" lengthAdjust="spacing" textLength="32" x="414" y="238.4189">6 - null</text></g><!--link AllowSharingOfPrivacyPreservingAnalytics (_3gL1YLZ4Ee2xLZp9hElpuA) to end--><g id="link_AllowSharingOfPrivacyPreservingAnalytics (_3gL1YLZ4Ee2xLZp9hElpuA)_end"><path d="M363.43,116.22 C363.22,126.3 363.21,139.4 364,151 C364.5,158.38 365.57,166.54 366.59,173.27 " fill="none" id="AllowSharingOfPrivacyPreservingAnalytics (_3gL1YLZ4Ee2xLZp9hElpuA)-to-end" style="stroke:#181818;stroke-width:1.0;"/><polygon fill="#181818" points="367.42,178.54,369.9532,169.0225,366.6328,173.6024,362.053,170.282,367.42,178.54" style="stroke:#181818;stroke-width:1.0;"/><text fill="#000000" font-family="sans-serif" font-size="11" lengthAdjust="spacing" textLength="32" x="365" y="148.4189">7 - null</text></g><!--SRC=[pPBHIiCm58RlVOgmgtOOi5sjsuqGTHHfrCaSk8gCiorRGsDQsdHrFhr78YARCYOYtXx-y_rV3d7QBg7qb3mS4KfqhTGZQJ6bycQOGYdrycOnAEKAPkj1AIfHhd34DAYraREAE9FEadjZdWHzuJ_pfEYbVLNKp6qT_0R4Ydae1k_f2p20Wf7GeWGZM6rIeN4k3QBpV86m0e8fut4NOMElYCtqKbo5jsz6Fzco2lv-2jaaQqPytaEOEg_EV1cDQBVPfV3TbbNeR2iCXPwpJoDat2VHNVPbynvXMnXi51uIs9H61xY69u6iy8Mc5O-pxQllIjYsuxz-NlXVl_l9XvZJTby1]--></g></svg>