<?xml version="1.0" encoding="us-ascii" standalone="no"?><svg xmlns="http://www.w3.org/2000/svg" xmlns:xlink="http://www.w3.org/1999/xlink" contentStyleType="text/css" height="1022px" preserveAspectRatio="none" style="width:2382px;height:1022px;background:#FFFFFF;" version="1.1" viewBox="0 0 2382 1022" width="2382px" zoomAndPan="magnify"><defs/><g><ellipse cx="1742.5" cy="16" fill="#222222" rx="10" ry="10" style="stroke:none;stroke-width:1.0;"/><rect fill="#F1F1F1" height="35.0938" rx="12.5" ry="12.5" style="stroke:#181818;stroke-width:0.5;" width="349" x="1568" y="81"/><text fill="#000000" font-family="sans-serif" font-size="12" lengthAdjust="spacing" textLength="329" x="1578" y="103.457">EnterTeleTANandUploadKeys (_x9uVkLZ8Ee2xLZp9hElpuA)</text><rect fill="#F1F1F1" height="35.0938" rx="12.5" ry="12.5" style="stroke:#181818;stroke-width:0.5;" width="280" x="1235.5" y="171"/><text fill="#000000" font-family="sans-serif" font-size="12" lengthAdjust="spacing" textLength="260" x="1245.5" y="193.457">RequestToken (_umC4ULK8Ee2Y1pKtbIeM6Q)</text><rect fill="#F1F1F1" height="35.0938" rx="12.5" ry="12.5" style="stroke:#181818;stroke-width:0.5;" width="266" x="590.5" y="261"/><text fill="#000000" font-family="sans-serif" font-size="12" lengthAdjust="spacing" textLength="246" x="600.5" y="283.457">RequestToken (_L8fqELkBEe25g4oGy4Jxtw)</text><rect fill="#F1F1F1" height="35.0938" rx="12.5" ry="12.5" style="stroke:#181818;stroke-width:0.5;" width="276" x="327.5" y="351"/><text fill="#000000" font-family="sans-serif" font-size="12" lengthAdjust="spacing" textLength="256" x="337.5" y="373.457">GenerateToken (_LVVQ0bLJEe2Y1pKtbIeM6Q)</text><rect fill="#F1F1F1" height="35.0938" rx="12.5" ry="12.5" style="stroke:#181818;stroke-width:0.5;" width="276" x="238.5" y="441"/><text fill="#000000" font-family="sans-serif" font-size="12" lengthAdjust="spacing" textLength="256" x="248.5" y="463.457">GenerateToken (_lubcMLmzEe2dIMSi7oNVYQ)</text><rect fill="#F1F1F1" height="35.0938" rx="12.5" ry="12.5" style="stroke:#181818;stroke-width:0.5;" width="275" x="7" y="531"/><text fill="#000000" font-family="sans-serif" font-size="12" lengthAdjust="spacing" textLength="255" x="17" y="553.457">GenerateToken (_HvqKobLJEe2Y1pKtbIeM6Q)</text><rect fill="#F1F1F1" height="35.0938" rx="12.5" ry="12.5" style="stroke:#181818;stroke-width:0.5;" width="281" x="106" y="621"/><text fill="#000000" font-family="sans-serif" font-size="12" lengthAdjust="spacing" textLength="261" x="116" y="643.457">GenerateToken (_6PoE0LmyEe2dIMSi7oNVYQ)</text><rect fill="#F1F1F1" height="35.0938" rx="12.5" ry="12.5" style="stroke:#181818;stroke-width:0.5;" width="269" x="399" y="531"/><text fill="#000000" font-family="sans-serif" font-size="12" lengthAdjust="spacing" textLength="249" x="409" y="553.457">ReturnToken (_mx8HoLmzEe2dIMSi7oNVYQ)</text><rect fill="#F1F1F1" height="35.0938" rx="12.5" ry="12.5" style="stroke:#181818;stroke-width:0.5;" width="262" x="815.5" y="351"/><text fill="#000000" font-family="sans-serif" font-size="12" lengthAdjust="spacing" textLength="242" x="825.5" y="373.457">RequestTAN (_N9OLsLkBEe25g4oGy4Jxtw)</text><rect fill="#F1F1F1" height="35.0938" rx="12.5" ry="12.5" style="stroke:#181818;stroke-width:0.5;" width="260" x="697.5" y="441"/><text fill="#000000" font-family="sans-serif" font-size="12" lengthAdjust="spacing" textLength="240" x="707.5" y="463.457">GenerateTAN (_LVb-gbLJEe2Y1pKtbIeM6Q)</text><rect fill="#F1F1F1" height="35.0938" rx="12.5" ry="12.5" style="stroke:#181818;stroke-width:0.5;" width="272" x="688.5" y="531"/><text fill="#000000" font-family="sans-serif" font-size="12" lengthAdjust="spacing" textLength="252" x="698.5" y="553.457">GenerateTAN (_3FHbMLmzEe2dIMSi7oNVYQ)</text><rect fill="#F1F1F1" height="35.0938" rx="12.5" ry="12.5" style="stroke:#181818;stroke-width:0.5;" width="258" x="424.5" y="621"/><text fill="#000000" font-family="sans-serif" font-size="12" lengthAdjust="spacing" textLength="238" x="434.5" y="643.457">GenerateTAN (_pt55IbLGEe2Y1pKtbIeM6Q)</text><rect fill="#F1F1F1" height="35.0938" rx="12.5" ry="12.5" style="stroke:#181818;stroke-width:0.5;" width="280" x="412.5" y="711"/><text fill="#000000" font-family="sans-serif" font-size="12" lengthAdjust="spacing" textLength="260" x="422.5" y="733.457">GenerateTAN (_QMHmwLmyEe2dIMSi7oNVYQ)</text><rect fill="#F1F1F1" height="35.0938" rx="12.5" ry="12.5" style="stroke:#181818;stroke-width:0.5;" width="250" x="859.5" y="621"/><text fill="#000000" font-family="sans-serif" font-size="12" lengthAdjust="spacing" textLength="230" x="869.5" y="643.457">ReturnTAN (_5fVa4LmzEe2dIMSi7oNVYQ)</text><rect fill="#F1F1F1" height="35.0938" rx="12.5" ry="12.5" style="stroke:#181818;stroke-width:0.5;" width="261" x="1382" y="441"/><text fill="#000000" font-family="sans-serif" font-size="12" lengthAdjust="spacing" textLength="241" x="1392" y="463.457">GetOwnKeys (_QwI_QLkBEe25g4oGy4Jxtw)</text><rect fill="#F1F1F1" height="35.0938" rx="12.5" ry="12.5" style="stroke:#181818;stroke-width:0.5;" width="306" x="1169.5" y="531"/><text fill="#000000" font-family="sans-serif" font-size="12" lengthAdjust="spacing" textLength="286" x="1179.5" y="553.457">TriggerBroadcasting (_edH98LIBEe2fRLFFhL_FWA)</text><rect fill="#F1F1F1" height="35.0938" rx="12.5" ry="12.5" style="stroke:#181818;stroke-width:0.5;" width="309" x="1132" y="621"/><text fill="#000000" font-family="sans-serif" font-size="12" lengthAdjust="spacing" textLength="289" x="1142" y="643.457">TriggerBroadcasting (_G0Cp0LdREe2lCsB2iGU-8w)</text><rect fill="#F1F1F1" height="35.0938" rx="12.5" ry="12.5" style="stroke:#181818;stroke-width:0.5;" width="306" x="712.5" y="711"/><text fill="#000000" font-family="sans-serif" font-size="12" lengthAdjust="spacing" textLength="286" x="722.5" y="733.457">SimulateRPIExchange (_flc38LIBEe2fRLFFhL_FWA)</text><rect fill="#F1F1F1" height="35.0938" rx="12.5" ry="12.5" style="stroke:#181818;stroke-width:0.5;" width="319" x="699" y="801"/><text fill="#000000" font-family="sans-serif" font-size="12" lengthAdjust="spacing" textLength="299" x="709" y="823.457">SimulateRPIExchange (_mSwfALdHEe2lCsB2iGU-8w)</text><rect fill="#F1F1F1" height="35.0938" rx="12.5" ry="12.5" style="stroke:#181818;stroke-width:0.5;" width="308" x="833.5" y="891"/><text fill="#000000" font-family="sans-serif" font-size="12" lengthAdjust="spacing" textLength="288" x="843.5" y="913.457">StoreExchangedRPIs (_tbmxALdHEe2lCsB2iGU-8w)</text><rect fill="#F1F1F1" height="35.0938" rx="12.5" ry="12.5" style="stroke:#181818;stroke-width:0.5;" width="231" x="873" y="981"/><text fill="#000000" font-family="sans-serif" font-size="12" lengthAdjust="spacing" textLength="211" x="883" y="1003.457">aName (_jASAELIBEe2fRLFFhL_FWA)</text><rect fill="#F1F1F1" height="35.0938" rx="12.5" ry="12.5" style="stroke:#181818;stroke-width:0.5;" width="364" x="1132.5" y="711"/><text fill="#000000" font-family="sans-serif" font-size="12" lengthAdjust="spacing" textLength="344" x="1142.5" y="733.457">RetrieveOwnKeysFromStorage (_RqhgoLdQEe2lCsB2iGU-8w)</text><rect fill="#F1F1F1" height="35.0938" rx="12.5" ry="12.5" style="stroke:#181818;stroke-width:0.5;" width="247" x="1081" y="801"/><text fill="#000000" font-family="sans-serif" font-size="12" lengthAdjust="spacing" textLength="227" x="1091" y="823.457">LoadRPIs (_h0_4sLIBEe2fRLFFhL_FWA)</text><rect fill="#F1F1F1" height="35.0938" rx="12.5" ry="12.5" style="stroke:#181818;stroke-width:0.5;" width="241" x="1236" y="891"/><text fill="#000000" font-family="sans-serif" font-size="12" lengthAdjust="spacing" textLength="221" x="1246" y="913.457">LoadRPIs (_MPkXALnFEe2hSdAxtFJKiA)</text><rect fill="#F1F1F1" height="35.0938" rx="12.5" ry="12.5" style="stroke:#181818;stroke-width:0.5;" width="280" x="1428.5" y="801"/><text fill="#000000" font-family="sans-serif" font-size="12" lengthAdjust="spacing" textLength="260" x="1438.5" y="823.457">ReturnOwnKeys (_Xg1GULdIEe2lCsB2iGU-8w)</text><rect fill="#F1F1F1" height="35.0938" rx="12.5" ry="12.5" style="stroke:#181818;stroke-width:0.5;" width="253" x="1625" y="531"/><text fill="#000000" font-family="sans-serif" font-size="12" lengthAdjust="spacing" textLength="233" x="1635" y="553.457">UploadKeys (_V__IQLkBEe25g4oGy4Jxtw)</text><rect fill="#F1F1F1" height="35.0938" rx="12.5" ry="12.5" style="stroke:#181818;stroke-width:0.5;" width="237" x="1683" y="621"/><text fill="#000000" font-family="sans-serif" font-size="12" lengthAdjust="spacing" textLength="217" x="1693" y="643.457">VerifyTAN (_zxhBMLLIEe2Y1pKtbIeM6Q)</text><rect fill="#F1F1F1" height="35.0938" rx="12.5" ry="12.5" style="stroke:#181818;stroke-width:0.5;" width="243" x="1879" y="711"/><text fill="#000000" font-family="sans-serif" font-size="12" lengthAdjust="spacing" textLength="223" x="1889" y="733.457">VerifyTAN (_zqW-0LmjEe2dIMSi7oNVYQ)</text><rect fill="#F1F1F1" height="35.0938" rx="12.5" ry="12.5" style="stroke:#181818;stroke-width:0.5;" width="239" x="1729" y="801"/><text fill="#000000" font-family="sans-serif" font-size="12" lengthAdjust="spacing" textLength="219" x="1739" y="823.457">Validate (_fZnOULNUEe2o46d27a6tVQ)</text><rect fill="#F1F1F1" height="35.0938" rx="12.5" ry="12.5" style="stroke:#181818;stroke-width:0.5;" width="241" x="1834" y="891"/><text fill="#000000" font-family="sans-serif" font-size="12" lengthAdjust="spacing" textLength="221" x="1844" y="913.457">Validate (_kSKnoLm1Ee2dIMSi7oNVYQ)</text><rect fill="#F1F1F1" height="35.0938" rx="12.5" ry="12.5" style="stroke:#181818;stroke-width:0.5;" width="236" x="1836.5" y="981"/><text fill="#000000" font-family="sans-serif" font-size="12" lengthAdjust="spacing" textLength="216" x="1846.5" y="1003.457">aName (_puBN4bLGEe2Y1pKtbIeM6Q)</text><rect fill="#F1F1F1" height="35.0938" rx="12.5" ry="12.5" style="stroke:#181818;stroke-width:0.5;" width="231" x="2145" y="801"/><text fill="#000000" font-family="sans-serif" font-size="12" lengthAdjust="spacing" textLength="211" x="2155" y="823.457">aName (_Gl74ArmkEe2dIMSi7oNVYQ)</text><ellipse cx="1783.5" cy="188.5" fill="none" rx="10" ry="10" style="stroke:#222222;stroke-width:1.0;"/><ellipse cx="1784" cy="189" fill="#222222" rx="6" ry="6" style="stroke:none;stroke-width:1.0;"/><!--link start to EnterTeleTANandUploadKeys (_x9uVkLZ8Ee2xLZp9hElpuA)--><g id="link_start_EnterTeleTANandUploadKeys (_x9uVkLZ8Ee2xLZp9hElpuA)"><path d="M1742.5,26.23 C1742.5,38.18 1742.5,59.38 1742.5,75.56 " fill="none" id="start-to-EnterTeleTANandUploadKeys (_x9uVkLZ8Ee2xLZp9hElpuA)" style="stroke:#181818;stroke-width:1.0;"/><polygon fill="#181818" points="1742.5,80.84,1746.5,71.84,1742.5,75.84,1738.5,71.84,1742.5,80.84" style="stroke:#181818;stroke-width:1.0;"/><text fill="#000000" font-family="sans-serif" font-size="11" lengthAdjust="spacing" textLength="32" x="1743.5" y="58.4189">0 - null</text></g><!--link EnterTeleTANandUploadKeys (_x9uVkLZ8Ee2xLZp9hElpuA) to RequestToken (_umC4ULK8Ee2Y1pKtbIeM6Q)--><g id="link_EnterTeleTANandUploadKeys (_x9uVkLZ8Ee2xLZp9hElpuA)_RequestToken (_umC4ULK8Ee2Y1pKtbIeM6Q)"><path d="M1673.47,116.05 C1609.62,131.36 1514.99,154.05 1449.58,169.74 " fill="none" id="EnterTeleTANandUploadKeys (_x9uVkLZ8Ee2xLZp9hElpuA)-to-RequestToken (_umC4ULK8Ee2Y1pKtbIeM6Q)" style="stroke:#181818;stroke-width:1.0;"/><polygon fill="#181818" points="1444.53,170.95,1454.212,172.7554,1449.3939,169.7913,1452.358,164.9732,1444.53,170.95" style="stroke:#181818;stroke-width:1.0;"/><text fill="#000000" font-family="sans-serif" font-size="11" lengthAdjust="spacing" textLength="54" x="1582.5" y="148.4189">1 - teleTAN</text></g><!--link RequestToken (_umC4ULK8Ee2Y1pKtbIeM6Q) to RequestToken (_L8fqELkBEe25g4oGy4Jxtw)--><g id="link_RequestToken (_umC4ULK8Ee2Y1pKtbIeM6Q)_RequestToken (_L8fqELkBEe25g4oGy4Jxtw)"><path d="M1253.25,206 C1138.52,221.48 967.62,244.55 851.17,260.27 " fill="none" id="RequestToken (_umC4ULK8Ee2Y1pKtbIeM6Q)-to-RequestToken (_L8fqELkBEe25g4oGy4Jxtw)" style="stroke:#181818;stroke-width:1.0;"/><polygon fill="#181818" points="846.01,260.97,855.4654,263.7258,850.9648,260.2989,854.3917,255.7982,846.01,260.97" style="stroke:#181818;stroke-width:1.0;"/><text fill="#000000" font-family="sans-serif" font-size="11" lengthAdjust="spacing" textLength="54" x="1090.5" y="238.4189">2 - teleTAN</text></g><!--link RequestToken (_L8fqELkBEe25g4oGy4Jxtw) to GenerateToken (_LVVQ0bLJEe2Y1pKtbIeM6Q)--><g id="link_RequestToken (_L8fqELkBEe25g4oGy4Jxtw)_GenerateToken (_LVVQ0bLJEe2Y1pKtbIeM6Q)"><path d="M631.17,296.02 C608.37,301.3 584.26,307.92 562.5,316 C539.6,324.5 515.32,337.4 496.78,348.16 " fill="none" id="RequestToken (_L8fqELkBEe25g4oGy4Jxtw)-to-GenerateToken (_LVVQ0bLJEe2Y1pKtbIeM6Q)" style="stroke:#181818;stroke-width:1.0;"/><polygon fill="#181818" points="492.19,350.84,501.9773,349.7401,496.5037,348.3118,497.9321,342.8382,492.19,350.84" style="stroke:#181818;stroke-width:1.0;"/><text fill="#000000" font-family="sans-serif" font-size="11" lengthAdjust="spacing" textLength="54" x="563.5" y="328.4189">3 - teleTAN</text></g><!--link GenerateToken (_LVVQ0bLJEe2Y1pKtbIeM6Q) to GenerateToken (_lubcMLmzEe2dIMSi7oNVYQ)--><g id="link_GenerateToken (_LVVQ0bLJEe2Y1pKtbIeM6Q)_GenerateToken (_lubcMLmzEe2dIMSi7oNVYQ)"><path d="M448.76,386.05 C434.18,400.46 412.99,421.42 397.32,436.91 " fill="none" id="GenerateToken (_LVVQ0bLJEe2Y1pKtbIeM6Q)-to-GenerateToken (_lubcMLmzEe2dIMSi7oNVYQ)" style="stroke:#181818;stroke-width:1.0;"/><polygon fill="#181818" points="393.47,440.72,402.6836,437.2402,397.0269,437.206,397.0612,431.5492,393.47,440.72" style="stroke:#181818;stroke-width:1.0;"/><text fill="#000000" font-family="sans-serif" font-size="11" lengthAdjust="spacing" textLength="54" x="427.5" y="418.4189">4 - teleTAN</text></g><!--link GenerateToken (_lubcMLmzEe2dIMSi7oNVYQ) to GenerateToken (_HvqKobLJEe2Y1pKtbIeM6Q)--><g id="link_GenerateToken (_lubcMLmzEe2dIMSi7oNVYQ)_GenerateToken (_HvqKobLJEe2Y1pKtbIeM6Q)"><path d="M327.92,476.04 C310.39,482.14 290.5,489.22 272.5,496 C244.65,506.48 213.69,518.92 189.2,528.94 " fill="none" id="GenerateToken (_lubcMLmzEe2dIMSi7oNVYQ)-to-GenerateToken (_HvqKobLJEe2Y1pKtbIeM6Q)" style="stroke:#181818;stroke-width:1.0;"/><polygon fill="#181818" points="184.39,530.91,194.2348,531.1927,189.0155,529.0113,191.1968,523.7919,184.39,530.91" style="stroke:#181818;stroke-width:1.0;"/><text fill="#000000" font-family="sans-serif" font-size="11" lengthAdjust="spacing" textLength="32" x="273.5" y="508.4189">5 - null</text></g><!--link GenerateToken (_HvqKobLJEe2Y1pKtbIeM6Q) to GenerateToken (_6PoE0LmyEe2dIMSi7oNVYQ)--><g id="link_GenerateToken (_HvqKobLJEe2Y1pKtbIeM6Q)_GenerateToken (_6PoE0LmyEe2dIMSi7oNVYQ)"><path d="M163.69,566.05 C180.53,580.59 205.09,601.77 223.09,617.3 " fill="none" id="GenerateToken (_HvqKobLJEe2Y1pKtbIeM6Q)-to-GenerateToken (_6PoE0LmyEe2dIMSi7oNVYQ)" style="stroke:#181818;stroke-width:1.0;"/><polygon fill="#181818" points="227.05,620.72,222.8557,611.8089,223.2668,617.4508,217.625,617.8619,227.05,620.72" style="stroke:#181818;stroke-width:1.0;"/><text fill="#000000" font-family="sans-serif" font-size="11" lengthAdjust="spacing" textLength="32" x="203.5" y="598.4189">6 - null</text></g><!--link GenerateToken (_6PoE0LmyEe2dIMSi7oNVYQ) to GenerateToken (_lubcMLmzEe2dIMSi7oNVYQ)--><g id="link_GenerateToken (_6PoE0LmyEe2dIMSi7oNVYQ)_GenerateToken (_lubcMLmzEe2dIMSi7oNVYQ)"><path d="M258.6,620.93 C282.37,588.39 335.1,516.19 361.22,480.42 " fill="none" id="GenerateToken (_6PoE0LmyEe2dIMSi7oNVYQ)-to-GenerateToken (_lubcMLmzEe2dIMSi7oNVYQ)" style="stroke:#181818;stroke-width:1.0;"/><polygon fill="#181818" points="364.27,476.25,355.7199,481.1382,361.3113,480.2807,362.1689,485.8721,364.27,476.25" style="stroke:#181818;stroke-width:1.0;"/><text fill="#000000" font-family="sans-serif" font-size="11" lengthAdjust="spacing" textLength="54" x="323.5" y="553.4189">7 - teleTAN</text></g><!--link GenerateToken (_lubcMLmzEe2dIMSi7oNVYQ) to ReturnToken (_mx8HoLmzEe2dIMSi7oNVYQ)--><g id="link_GenerateToken (_lubcMLmzEe2dIMSi7oNVYQ)_ReturnToken (_mx8HoLmzEe2dIMSi7oNVYQ)"><path d="M406.03,476.05 C432.59,490.94 471.6,512.81 499.46,528.42 " fill="none" id="GenerateToken (_lubcMLmzEe2dIMSi7oNVYQ)-to-ReturnToken (_mx8HoLmzEe2dIMSi7oNVYQ)" style="stroke:#181818;stroke-width:1.0;"/><polygon fill="#181818" points="503.84,530.87,497.9458,522.9796,499.4787,528.4248,494.0335,529.9577,503.84,530.87" style="stroke:#181818;stroke-width:1.0;"/><text fill="#000000" font-family="sans-serif" font-size="11" lengthAdjust="spacing" textLength="54" x="465.5" y="508.4189">8 - teleTAN</text></g><!--link ReturnToken (_mx8HoLmzEe2dIMSi7oNVYQ) to RequestToken (_L8fqELkBEe25g4oGy4Jxtw)--><g id="link_ReturnToken (_mx8HoLmzEe2dIMSi7oNVYQ)_RequestToken (_L8fqELkBEe25g4oGy4Jxtw)"><path d="M545.38,530.74 C578.56,483.94 672.18,351.89 708.67,300.41 " fill="none" id="ReturnToken (_mx8HoLmzEe2dIMSi7oNVYQ)-to-RequestToken (_L8fqELkBEe25g4oGy4Jxtw)" style="stroke:#181818;stroke-width:1.0;"/><polygon fill="#181818" points="711.61,296.26,703.1306,301.2699,708.7092,300.3325,709.6466,305.9112,711.61,296.26" style="stroke:#181818;stroke-width:1.0;"/><text fill="#000000" font-family="sans-serif" font-size="11" lengthAdjust="spacing" textLength="54" x="634.5" y="418.4189">9 - teleTAN</text></g><!--link RequestToken (_L8fqELkBEe25g4oGy4Jxtw) to RequestTAN (_N9OLsLkBEe25g4oGy4Jxtw)--><g id="link_RequestToken (_L8fqELkBEe25g4oGy4Jxtw)_RequestTAN (_N9OLsLkBEe25g4oGy4Jxtw)"><path d="M765.44,296.05 C803.63,311.12 859.95,333.35 899.61,349 " fill="none" id="RequestToken (_L8fqELkBEe25g4oGy4Jxtw)-to-RequestTAN (_N9OLsLkBEe25g4oGy4Jxtw)" style="stroke:#181818;stroke-width:1.0;"/><polygon fill="#181818" points="904.36,350.87,897.4632,343.8391,899.7108,349.0303,894.5196,351.2779,904.36,350.87" style="stroke:#181818;stroke-width:1.0;"/><text fill="#000000" font-family="sans-serif" font-size="11" lengthAdjust="spacing" textLength="60" x="849.5" y="328.4189">10 - teleTAN</text></g><!--link RequestTAN (_N9OLsLkBEe25g4oGy4Jxtw) to GenerateTAN (_LVb-gbLJEe2Y1pKtbIeM6Q)--><g id="link_RequestTAN (_N9OLsLkBEe25g4oGy4Jxtw)_GenerateTAN (_LVb-gbLJEe2Y1pKtbIeM6Q)"><path d="M901.94,386.06 C890.43,391.46 878.48,398.13 868.5,406 C857.67,414.55 847.93,426.49 840.67,436.72 " fill="none" id="RequestTAN (_N9OLsLkBEe25g4oGy4Jxtw)-to-GenerateTAN (_LVb-gbLJEe2Y1pKtbIeM6Q)" style="stroke:#181818;stroke-width:1.0;"/><polygon fill="#181818" points="837.71,440.99,846.129,435.8793,840.562,436.8832,839.5581,431.3161,837.71,440.99" style="stroke:#181818;stroke-width:1.0;"/><text fill="#000000" font-family="sans-serif" font-size="11" lengthAdjust="spacing" textLength="105" x="869.5" y="418.4189">11 - registrationToken</text></g><!--link GenerateTAN (_LVb-gbLJEe2Y1pKtbIeM6Q) to GenerateTAN (_3FHbMLmzEe2dIMSi7oNVYQ)--><g id="link_GenerateTAN (_LVb-gbLJEe2Y1pKtbIeM6Q)_GenerateTAN (_3FHbMLmzEe2dIMSi7oNVYQ)"><path d="M826.94,476.05 C826.46,490.1 825.77,510.36 825.24,525.72 " fill="none" id="GenerateTAN (_LVb-gbLJEe2Y1pKtbIeM6Q)-to-GenerateTAN (_3FHbMLmzEe2dIMSi7oNVYQ)" style="stroke:#181818;stroke-width:1.0;"/><polygon fill="#181818" points="825.07,530.72,829.376,521.8623,825.2413,525.7229,821.3807,521.5882,825.07,530.72" style="stroke:#181818;stroke-width:1.0;"/><text fill="#000000" font-family="sans-serif" font-size="11" lengthAdjust="spacing" textLength="105" x="827.5" y="508.4189">12 - registrationToken</text></g><!--link GenerateTAN (_3FHbMLmzEe2dIMSi7oNVYQ) to GenerateTAN (_pt55IbLGEe2Y1pKtbIeM6Q)--><g id="link_GenerateTAN (_3FHbMLmzEe2dIMSi7oNVYQ)_GenerateTAN (_pt55IbLGEe2Y1pKtbIeM6Q)"><path d="M745.03,566.06 C721.75,571.62 696.4,578.38 673.5,586 C645.89,595.19 615.79,608.11 592.65,618.71 " fill="none" id="GenerateTAN (_3FHbMLmzEe2dIMSi7oNVYQ)-to-GenerateTAN (_pt55IbLGEe2Y1pKtbIeM6Q)" style="stroke:#181818;stroke-width:1.0;"/><polygon fill="#181818" points="587.82,620.94,597.6681,620.82,592.364,618.8538,594.3302,613.5496,587.82,620.94" style="stroke:#181818;stroke-width:1.0;"/><text fill="#000000" font-family="sans-serif" font-size="11" lengthAdjust="spacing" textLength="38" x="674.5" y="598.4189">13 - null</text></g><!--link GenerateTAN (_pt55IbLGEe2Y1pKtbIeM6Q) to GenerateTAN (_QMHmwLmyEe2dIMSi7oNVYQ)--><g id="link_GenerateTAN (_pt55IbLGEe2Y1pKtbIeM6Q)_GenerateTAN (_QMHmwLmyEe2dIMSi7oNVYQ)"><path d="M553.31,656.05 C553.15,670.1 552.92,690.36 552.75,705.72 " fill="none" id="GenerateTAN (_pt55IbLGEe2Y1pKtbIeM6Q)-to-GenerateTAN (_QMHmwLmyEe2dIMSi7oNVYQ)" style="stroke:#181818;stroke-width:1.0;"/><polygon fill="#181818" points="552.69,710.72,556.7926,701.7663,552.7471,705.7203,548.7931,701.6749,552.69,710.72" style="stroke:#181818;stroke-width:1.0;"/><text fill="#000000" font-family="sans-serif" font-size="11" lengthAdjust="spacing" textLength="38" x="554.5" y="688.4189">14 - null</text></g><!--link GenerateTAN (_QMHmwLmyEe2dIMSi7oNVYQ) to GenerateTAN (_3FHbMLmzEe2dIMSi7oNVYQ)--><g id="link_GenerateTAN (_QMHmwLmyEe2dIMSi7oNVYQ)_GenerateTAN (_3FHbMLmzEe2dIMSi7oNVYQ)"><path d="M589.91,710.98 C618.8,697.62 659.3,677.54 692.5,656 C733.53,629.38 776.89,592.46 802.28,569.82 " fill="none" id="GenerateTAN (_QMHmwLmyEe2dIMSi7oNVYQ)-to-GenerateTAN (_3FHbMLmzEe2dIMSi7oNVYQ)" style="stroke:#181818;stroke-width:1.0;"/><polygon fill="#181818" points="806.2,566.32,796.828,569.3476,802.4764,569.6569,802.1671,575.3053,806.2,566.32" style="stroke:#181818;stroke-width:1.0;"/><text fill="#000000" font-family="sans-serif" font-size="11" lengthAdjust="spacing" textLength="105" x="742.5" y="643.4189">15 - registrationToken</text></g><!--link GenerateTAN (_3FHbMLmzEe2dIMSi7oNVYQ) to ReturnTAN (_5fVa4LmzEe2dIMSi7oNVYQ)--><g id="link_GenerateTAN (_3FHbMLmzEe2dIMSi7oNVYQ)_ReturnTAN (_5fVa4LmzEe2dIMSi7oNVYQ)"><path d="M834.96,566.05 C842.9,577.37 854.77,591.92 868.5,601 C879.71,608.42 892.53,614.4 905.45,619.21 " fill="none" id="GenerateTAN (_3FHbMLmzEe2dIMSi7oNVYQ)-to-ReturnTAN (_5fVa4LmzEe2dIMSi7oNVYQ)" style="stroke:#181818;stroke-width:1.0;"/><polygon fill="#181818" points="910.21,620.93,903.1005,614.1142,905.5065,619.2339,900.3868,621.6398,910.21,620.93" style="stroke:#181818;stroke-width:1.0;"/><text fill="#000000" font-family="sans-serif" font-size="11" lengthAdjust="spacing" textLength="105" x="869.5" y="598.4189">16 - registrationToken</text></g><!--link ReturnTAN (_5fVa4LmzEe2dIMSi7oNVYQ) to RequestTAN (_N9OLsLkBEe25g4oGy4Jxtw)--><g id="link_ReturnTAN (_5fVa4LmzEe2dIMSi7oNVYQ)_RequestTAN (_N9OLsLkBEe25g4oGy4Jxtw)"><path d="M987.46,620.8 C993.65,581.7 1005.14,481.8 976.5,406 C974.37,400.37 970.99,394.96 967.26,390.12 " fill="none" id="ReturnTAN (_5fVa4LmzEe2dIMSi7oNVYQ)-to-RequestTAN (_N9OLsLkBEe25g4oGy4Jxtw)" style="stroke:#181818;stroke-width:1.0;"/><polygon fill="#181818" points="964.06,386.19,966.6309,395.6974,967.213,390.0706,972.8398,390.6527,964.06,386.19" style="stroke:#181818;stroke-width:1.0;"/><text fill="#000000" font-family="sans-serif" font-size="11" lengthAdjust="spacing" textLength="60" x="996.5" y="508.4189">17 - teleTAN</text></g><!--link RequestTAN (_N9OLsLkBEe25g4oGy4Jxtw) to GetOwnKeys (_QwI_QLkBEe25g4oGy4Jxtw)--><g id="link_RequestTAN (_N9OLsLkBEe25g4oGy4Jxtw)_GetOwnKeys (_QwI_QLkBEe25g4oGy4Jxtw)"><path d="M1052.63,386 C1151.94,401.44 1299.76,424.42 1400.83,440.14 " fill="none" id="RequestTAN (_N9OLsLkBEe25g4oGy4Jxtw)-to-GetOwnKeys (_QwI_QLkBEe25g4oGy4Jxtw)" style="stroke:#181818;stroke-width:1.0;"/><polygon fill="#181818" points="1405.91,440.93,1397.6345,435.59,1400.9698,440.159,1396.4008,443.4943,1405.91,440.93" style="stroke:#181818;stroke-width:1.0;"/><text fill="#000000" font-family="sans-serif" font-size="11" lengthAdjust="spacing" textLength="60" x="1264.5" y="418.4189">18 - teleTAN</text></g><!--link GetOwnKeys (_QwI_QLkBEe25g4oGy4Jxtw) to TriggerBroadcasting (_edH98LIBEe2fRLFFhL_FWA)--><g id="link_GetOwnKeys (_QwI_QLkBEe25g4oGy4Jxtw)_TriggerBroadcasting (_edH98LIBEe2fRLFFhL_FWA)"><path d="M1476.76,476.05 C1444.49,491 1397.02,512.99 1363.28,528.61 " fill="none" id="GetOwnKeys (_QwI_QLkBEe25g4oGy4Jxtw)-to-TriggerBroadcasting (_edH98LIBEe2fRLFFhL_FWA)" style="stroke:#181818;stroke-width:1.0;"/><polygon fill="#181818" points="1358.4,530.87,1368.2478,530.7244,1362.9385,528.772,1364.891,523.4628,1358.4,530.87" style="stroke:#181818;stroke-width:1.0;"/><text fill="#000000" font-family="sans-serif" font-size="11" lengthAdjust="spacing" textLength="38" x="1430.5" y="508.4189">19 - null</text></g><!--link TriggerBroadcasting (_edH98LIBEe2fRLFFhL_FWA) to TriggerBroadcasting (_G0Cp0LdREe2lCsB2iGU-8w)--><g id="link_TriggerBroadcasting (_edH98LIBEe2fRLFFhL_FWA)_TriggerBroadcasting (_G0Cp0LdREe2lCsB2iGU-8w)"><path d="M1315.73,566.05 C1309.98,580.1 1301.7,600.36 1295.41,615.72 " fill="none" id="TriggerBroadcasting (_edH98LIBEe2fRLFFhL_FWA)-to-TriggerBroadcasting (_G0Cp0LdREe2lCsB2iGU-8w)" style="stroke:#181818;stroke-width:1.0;"/><polygon fill="#181818" points="1293.36,620.72,1300.4781,613.9132,1295.2587,616.0945,1293.0773,610.8752,1293.36,620.72" style="stroke:#181818;stroke-width:1.0;"/><text fill="#000000" font-family="sans-serif" font-size="11" lengthAdjust="spacing" textLength="38" x="1308.5" y="598.4189">20 - null</text></g><!--link TriggerBroadcasting (_G0Cp0LdREe2lCsB2iGU-8w) to SimulateRPIExchange (_flc38LIBEe2fRLFFhL_FWA)--><g id="link_TriggerBroadcasting (_G0Cp0LdREe2lCsB2iGU-8w)_SimulateRPIExchange (_flc38LIBEe2fRLFFhL_FWA)"><path d="M1131.75,654.93 C1075.18,661.36 1018.46,668.96 991.5,676 C961.17,683.92 928.44,697.46 903.94,708.67 " fill="none" id="TriggerBroadcasting (_G0Cp0LdREe2lCsB2iGU-8w)-to-SimulateRPIExchange (_flc38LIBEe2fRLFFhL_FWA)" style="stroke:#181818;stroke-width:1.0;"/><polygon fill="#181818" points="899.15,710.88,908.9978,710.7344,903.6885,708.782,905.641,703.4728,899.15,710.88" style="stroke:#181818;stroke-width:1.0;"/><text fill="#000000" font-family="sans-serif" font-size="11" lengthAdjust="spacing" textLength="40" x="992.5" y="688.4189">21 - rpis</text></g><!--link SimulateRPIExchange (_flc38LIBEe2fRLFFhL_FWA) to SimulateRPIExchange (_mSwfALdHEe2lCsB2iGU-8w)--><g id="link_SimulateRPIExchange (_flc38LIBEe2fRLFFhL_FWA)_SimulateRPIExchange (_mSwfALdHEe2lCsB2iGU-8w)"><path d="M864.18,746.05 C863.07,760.1 861.45,780.36 860.23,795.72 " fill="none" id="SimulateRPIExchange (_flc38LIBEe2fRLFFhL_FWA)-to-SimulateRPIExchange (_mSwfALdHEe2lCsB2iGU-8w)" style="stroke:#181818;stroke-width:1.0;"/><polygon fill="#181818" points="859.83,800.72,864.5369,792.0687,860.2299,795.736,856.5626,791.4289,859.83,800.72" style="stroke:#181818;stroke-width:1.0;"/><text fill="#000000" font-family="sans-serif" font-size="11" lengthAdjust="spacing" textLength="40" x="863.5" y="778.4189">22 - rpis</text></g><!--link SimulateRPIExchange (_mSwfALdHEe2lCsB2iGU-8w) to StoreExchangedRPIs (_tbmxALdHEe2lCsB2iGU-8w)--><g id="link_SimulateRPIExchange (_mSwfALdHEe2lCsB2iGU-8w)_StoreExchangedRPIs (_tbmxALdHEe2lCsB2iGU-8w)"><path d="M882.76,836.05 C904.34,850.77 935.91,872.31 958.75,887.89 " fill="none" id="SimulateRPIExchange (_mSwfALdHEe2lCsB2iGU-8w)-to-StoreExchangedRPIs (_tbmxALdHEe2lCsB2iGU-8w)" style="stroke:#181818;stroke-width:1.0;"/><polygon fill="#181818" points="962.91,890.72,957.7264,882.3456,958.7786,887.9038,953.2204,888.9559,962.91,890.72" style="stroke:#181818;stroke-width:1.0;"/><text fill="#000000" font-family="sans-serif" font-size="11" lengthAdjust="spacing" textLength="40" x="932.5" y="868.4189">23 - rpis</text></g><!--link StoreExchangedRPIs (_tbmxALdHEe2lCsB2iGU-8w) to aName (_jASAELIBEe2fRLFFhL_FWA)--><g id="link_StoreExchangedRPIs (_tbmxALdHEe2lCsB2iGU-8w)_aName (_jASAELIBEe2fRLFFhL_FWA)"><path d="M966.82,926.22 C957.52,935.88 949.6,948.55 954.5,961 C956.78,966.79 960.46,972.21 964.57,977 " fill="none" id="StoreExchangedRPIs (_tbmxALdHEe2lCsB2iGU-8w)-to-aName (_jASAELIBEe2fRLFFhL_FWA)" style="stroke:#181818;stroke-width:1.0;"/><polygon fill="#181818" points="968.11,980.88,964.9869,971.5394,964.7353,977.1907,959.084,976.939,968.11,980.88" style="stroke:#181818;stroke-width:1.0;"/><text fill="#000000" font-family="sans-serif" font-size="11" lengthAdjust="spacing" textLength="40" x="955.5" y="958.4189">24 - rpis</text></g><!--link aName (_jASAELIBEe2fRLFFhL_FWA) to StoreExchangedRPIs (_tbmxALdHEe2lCsB2iGU-8w)--><g id="link_aName (_jASAELIBEe2fRLFFhL_FWA)_StoreExchangedRPIs (_tbmxALdHEe2lCsB2iGU-8w)"><path d="M994.04,980.85 C996.73,970.79 999.07,957.69 997.5,946 C996.84,941.12 995.72,935.97 994.45,931.13 " fill="none" id="aName (_jASAELIBEe2fRLFFhL_FWA)-to-StoreExchangedRPIs (_tbmxALdHEe2lCsB2iGU-8w)" style="stroke:#181818;stroke-width:1.0;"/><polygon fill="#181818" points="993.03,926.02,991.5952,935.7638,994.3734,930.8362,999.301,933.6144,993.03,926.02" style="stroke:#181818;stroke-width:1.0;"/><text fill="#000000" font-family="sans-serif" font-size="11" lengthAdjust="spacing" textLength="40" x="999.5" y="958.4189">25 - rpis</text></g><!--link StoreExchangedRPIs (_tbmxALdHEe2lCsB2iGU-8w) to TriggerBroadcasting (_G0Cp0LdREe2lCsB2iGU-8w)--><g id="link_StoreExchangedRPIs (_tbmxALdHEe2lCsB2iGU-8w)_TriggerBroadcasting (_G0Cp0LdREe2lCsB2iGU-8w)"><path d="M997.36,890.74 C1022.57,848.3 1089.7,738.07 1122.5,711 C1151.95,686.69 1190.95,669.24 1223.52,657.67 " fill="none" id="StoreExchangedRPIs (_tbmxALdHEe2lCsB2iGU-8w)-to-TriggerBroadcasting (_G0Cp0LdREe2lCsB2iGU-8w)" style="stroke:#181818;stroke-width:1.0;"/><polygon fill="#181818" points="1228.28,656,1218.4628,655.211,1223.5629,657.6581,1221.1158,662.7583,1228.28,656" style="stroke:#181818;stroke-width:1.0;"/><text fill="#000000" font-family="sans-serif" font-size="11" lengthAdjust="spacing" textLength="38" x="1078.5" y="778.4189">26 - null</text></g><!--link TriggerBroadcasting (_G0Cp0LdREe2lCsB2iGU-8w) to RetrieveOwnKeysFromStorage (_RqhgoLdQEe2lCsB2iGU-8w)--><g id="link_TriggerBroadcasting (_G0Cp0LdREe2lCsB2iGU-8w)_RetrieveOwnKeysFromStorage (_RqhgoLdQEe2lCsB2iGU-8w)"><path d="M1291.77,656.05 C1296.24,670.1 1302.68,690.36 1307.57,705.72 " fill="none" id="TriggerBroadcasting (_G0Cp0LdREe2lCsB2iGU-8w)-to-RetrieveOwnKeysFromStorage (_RqhgoLdQEe2lCsB2iGU-8w)" style="stroke:#181818;stroke-width:1.0;"/><polygon fill="#181818" points="1309.16,710.72,1310.2417,700.9307,1307.6434,705.9556,1302.6186,703.3573,1309.16,710.72" style="stroke:#181818;stroke-width:1.0;"/><text fill="#000000" font-family="sans-serif" font-size="11" lengthAdjust="spacing" textLength="38" x="1303.5" y="688.4189">27 - null</text></g><!--link RetrieveOwnKeysFromStorage (_RqhgoLdQEe2lCsB2iGU-8w) to LoadRPIs (_h0_4sLIBEe2fRLFFhL_FWA)--><g id="link_RetrieveOwnKeysFromStorage (_RqhgoLdQEe2lCsB2iGU-8w)_LoadRPIs (_h0_4sLIBEe2fRLFFhL_FWA)"><path d="M1293.81,746.05 C1275.64,760.59 1249.16,781.77 1229.75,797.3 " fill="none" id="RetrieveOwnKeysFromStorage (_RqhgoLdQEe2lCsB2iGU-8w)-to-LoadRPIs (_h0_4sLIBEe2fRLFFhL_FWA)" style="stroke:#181818;stroke-width:1.0;"/><polygon fill="#181818" points="1225.47,800.72,1234.9977,798.2255,1229.3757,797.5983,1230.0029,791.9763,1225.47,800.72" style="stroke:#181818;stroke-width:1.0;"/><text fill="#000000" font-family="sans-serif" font-size="11" lengthAdjust="spacing" textLength="38" x="1267.5" y="778.4189">28 - null</text></g><!--link LoadRPIs (_h0_4sLIBEe2fRLFFhL_FWA) to LoadRPIs (_MPkXALnFEe2hSdAxtFJKiA)--><g id="link_LoadRPIs (_h0_4sLIBEe2fRLFFhL_FWA)_LoadRPIs (_MPkXALnFEe2hSdAxtFJKiA)"><path d="M1233.09,836.05 C1258.7,850.88 1296.26,872.63 1323.21,888.23 " fill="none" id="LoadRPIs (_h0_4sLIBEe2fRLFFhL_FWA)-to-LoadRPIs (_MPkXALnFEe2hSdAxtFJKiA)" style="stroke:#181818;stroke-width:1.0;"/><polygon fill="#181818" points="1327.78,890.87,1321.987,882.905,1323.4503,888.3693,1317.9859,889.8326,1327.78,890.87" style="stroke:#181818;stroke-width:1.0;"/><text fill="#000000" font-family="sans-serif" font-size="11" lengthAdjust="spacing" textLength="38" x="1291.5" y="868.4189">29 - null</text></g><!--link LoadRPIs (_MPkXALnFEe2hSdAxtFJKiA) to RetrieveOwnKeysFromStorage (_RqhgoLdQEe2lCsB2iGU-8w)--><g id="link_LoadRPIs (_MPkXALnFEe2hSdAxtFJKiA)_RetrieveOwnKeysFromStorage (_RqhgoLdQEe2lCsB2iGU-8w)"><path d="M1354.23,890.75 C1351.2,869.65 1345.3,832.35 1337.5,801 C1333.27,783.98 1327.13,765.11 1322.26,751.03 " fill="none" id="LoadRPIs (_MPkXALnFEe2hSdAxtFJKiA)-to-RetrieveOwnKeysFromStorage (_RqhgoLdQEe2lCsB2iGU-8w)" style="stroke:#181818;stroke-width:1.0;"/><polygon fill="#181818" points="1320.53,746.07,1319.7145,755.885,1322.1754,750.7915,1327.2689,753.2524,1320.53,746.07" style="stroke:#181818;stroke-width:1.0;"/><text fill="#000000" font-family="sans-serif" font-size="11" lengthAdjust="spacing" textLength="38" x="1346.5" y="823.4189">30 - null</text></g><!--link RetrieveOwnKeysFromStorage (_RqhgoLdQEe2lCsB2iGU-8w) to ReturnOwnKeys (_Xg1GULdIEe2lCsB2iGU-8w)--><g id="link_RetrieveOwnKeysFromStorage (_RqhgoLdQEe2lCsB2iGU-8w)_ReturnOwnKeys (_Xg1GULdIEe2lCsB2iGU-8w)"><path d="M1362.28,746.05 C1405.95,761.18 1470.44,783.53 1515.65,799.19 " fill="none" id="RetrieveOwnKeysFromStorage (_RqhgoLdQEe2lCsB2iGU-8w)-to-ReturnOwnKeys (_Xg1GULdIEe2lCsB2iGU-8w)" style="stroke:#181818;stroke-width:1.0;"/><polygon fill="#181818" points="1520.51,800.87,1513.3212,794.1379,1515.7869,799.2291,1510.6957,801.6948,1520.51,800.87" style="stroke:#181818;stroke-width:1.0;"/><text fill="#000000" font-family="sans-serif" font-size="11" lengthAdjust="spacing" textLength="38" x="1458.5" y="778.4189">31 - null</text></g><!--link ReturnOwnKeys (_Xg1GULdIEe2lCsB2iGU-8w) to GetOwnKeys (_QwI_QLkBEe25g4oGy4Jxtw)--><g id="link_ReturnOwnKeys (_Xg1GULdIEe2lCsB2iGU-8w)_GetOwnKeys (_QwI_QLkBEe25g4oGy4Jxtw)"><path d="M1560.11,800.77 C1552.18,783.4 1541.5,755.23 1541.5,729.5 C1541.5,547.5 1541.5,547.5 1541.5,547.5 C1541.5,523.83 1531.92,498.29 1523.77,480.86 " fill="none" id="ReturnOwnKeys (_Xg1GULdIEe2lCsB2iGU-8w)-to-GetOwnKeys (_QwI_QLkBEe25g4oGy4Jxtw)" style="stroke:#181818;stroke-width:1.0;"/><polygon fill="#181818" points="1521.52,476.16,1521.8166,486.0044,1523.6874,480.6658,1529.0259,482.5366,1521.52,476.16" style="stroke:#181818;stroke-width:1.0;"/><text fill="#000000" font-family="sans-serif" font-size="11" lengthAdjust="spacing" textLength="60" x="1542.5" y="643.4189">32 - teleTAN</text></g><!--link GetOwnKeys (_QwI_QLkBEe25g4oGy4Jxtw) to UploadKeys (_V__IQLkBEe25g4oGy4Jxtw)--><g id="link_GetOwnKeys (_QwI_QLkBEe25g4oGy4Jxtw)_UploadKeys (_V__IQLkBEe25g4oGy4Jxtw)"><path d="M1557.45,476.05 C1598.47,491.15 1658.99,513.44 1701.51,529.09 " fill="none" id="GetOwnKeys (_QwI_QLkBEe25g4oGy4Jxtw)-to-UploadKeys (_V__IQLkBEe25g4oGy4Jxtw)" style="stroke:#181818;stroke-width:1.0;"/><polygon fill="#181818" points="1706.34,530.87,1699.2555,524.0282,1701.6427,529.1567,1696.5142,531.5439,1706.34,530.87" style="stroke:#181818;stroke-width:1.0;"/><text fill="#000000" font-family="sans-serif" font-size="11" lengthAdjust="spacing" textLength="60" x="1647.5" y="508.4189">33 - teleTAN</text></g><!--link UploadKeys (_V__IQLkBEe25g4oGy4Jxtw) to VerifyTAN (_zxhBMLLIEe2Y1pKtbIeM6Q)--><g id="link_UploadKeys (_V__IQLkBEe25g4oGy4Jxtw)_VerifyTAN (_zxhBMLLIEe2Y1pKtbIeM6Q)"><path d="M1760.9,566.05 C1768.95,580.22 1780.6,600.71 1789.35,616.12 " fill="none" id="UploadKeys (_V__IQLkBEe25g4oGy4Jxtw)-to-VerifyTAN (_zxhBMLLIEe2Y1pKtbIeM6Q)" style="stroke:#181818;stroke-width:1.0;"/><polygon fill="#181818" points="1791.97,620.72,1790.9951,610.9195,1789.497,616.3744,1784.0421,614.8763,1791.97,620.72" style="stroke:#181818;stroke-width:1.0;"/><text fill="#000000" font-family="sans-serif" font-size="11" lengthAdjust="spacing" textLength="114" x="1779.5" y="598.4189">34 - diagnosisKeys, tan</text></g><!--link VerifyTAN (_zxhBMLLIEe2Y1pKtbIeM6Q) to VerifyTAN (_zqW-0LmjEe2dIMSi7oNVYQ)--><g id="link_VerifyTAN (_zxhBMLLIEe2Y1pKtbIeM6Q)_VerifyTAN (_zqW-0LmjEe2dIMSi7oNVYQ)"><path d="M1838.93,656.05 C1872.87,671.06 1922.86,693.17 1958.23,708.81 " fill="none" id="VerifyTAN (_zxhBMLLIEe2Y1pKtbIeM6Q)-to-VerifyTAN (_zqW-0LmjEe2dIMSi7oNVYQ)" style="stroke:#181818;stroke-width:1.0;"/><polygon fill="#181818" points="1962.9,710.87,1956.2769,703.5806,1958.3245,708.8539,1953.0512,710.9015,1962.9,710.87" style="stroke:#181818;stroke-width:1.0;"/><text fill="#000000" font-family="sans-serif" font-size="11" lengthAdjust="spacing" textLength="114" x="1913.5" y="688.4189">35 - diagnosisKeys, tan</text></g><!--link VerifyTAN (_zqW-0LmjEe2dIMSi7oNVYQ) to Validate (_fZnOULNUEe2o46d27a6tVQ)--><g id="link_VerifyTAN (_zqW-0LmjEe2dIMSi7oNVYQ)_Validate (_fZnOULNUEe2o46d27a6tVQ)"><path d="M1971.91,746.05 C1946.3,760.88 1908.74,782.63 1881.79,798.23 " fill="none" id="VerifyTAN (_zqW-0LmjEe2dIMSi7oNVYQ)-to-Validate (_fZnOULNUEe2o46d27a6tVQ)" style="stroke:#181818;stroke-width:1.0;"/><polygon fill="#181818" points="1877.22,800.87,1887.0141,799.8326,1881.5497,798.3693,1883.013,792.905,1877.22,800.87" style="stroke:#181818;stroke-width:1.0;"/><text fill="#000000" font-family="sans-serif" font-size="11" lengthAdjust="spacing" textLength="37" x="1934.5" y="778.4189">36 - tan</text></g><!--link Validate (_fZnOULNUEe2o46d27a6tVQ) to Validate (_kSKnoLm1Ee2dIMSi7oNVYQ)--><g id="link_Validate (_fZnOULNUEe2o46d27a6tVQ)_Validate (_kSKnoLm1Ee2dIMSi7oNVYQ)"><path d="M1868.44,836.05 C1885.94,850.59 1911.47,871.77 1930.17,887.3 " fill="none" id="Validate (_fZnOULNUEe2o46d27a6tVQ)-to-Validate (_kSKnoLm1Ee2dIMSi7oNVYQ)" style="stroke:#181818;stroke-width:1.0;"/><polygon fill="#181818" points="1934.29,890.72,1929.898,881.9046,1930.4349,887.536,1924.8036,888.0728,1934.29,890.72" style="stroke:#181818;stroke-width:1.0;"/><text fill="#000000" font-family="sans-serif" font-size="11" lengthAdjust="spacing" textLength="37" x="1908.5" y="868.4189">37 - tan</text></g><!--link Validate (_kSKnoLm1Ee2dIMSi7oNVYQ) to aName (_puBN4bLGEe2Y1pKtbIeM6Q)--><g id="link_Validate (_kSKnoLm1Ee2dIMSi7oNVYQ)_aName (_puBN4bLGEe2Y1pKtbIeM6Q)"><path d="M1934.51,926.25 C1925.51,935.92 1917.83,948.59 1922.5,961 C1924.63,966.67 1928.09,972.03 1931.96,976.81 " fill="none" id="Validate (_kSKnoLm1Ee2dIMSi7oNVYQ)-to-aName (_puBN4bLGEe2Y1pKtbIeM6Q)" style="stroke:#181818;stroke-width:1.0;"/><polygon fill="#181818" points="1935.29,980.69,1932.4495,971.2596,1932.0278,976.9008,1926.3867,976.4791,1935.29,980.69" style="stroke:#181818;stroke-width:1.0;"/><text fill="#000000" font-family="sans-serif" font-size="11" lengthAdjust="spacing" textLength="37" x="1923.5" y="958.4189">38 - tan</text></g><!--link aName (_puBN4bLGEe2Y1pKtbIeM6Q) to Validate (_kSKnoLm1Ee2dIMSi7oNVYQ)--><g id="link_aName (_puBN4bLGEe2Y1pKtbIeM6Q)_Validate (_kSKnoLm1Ee2dIMSi7oNVYQ)"><path d="M1959.33,980.85 C1961.68,970.79 1963.77,957.69 1962.5,946 C1961.98,941.17 1961.07,936.04 1960.06,931.2 " fill="none" id="aName (_puBN4bLGEe2Y1pKtbIeM6Q)-to-Validate (_kSKnoLm1Ee2dIMSi7oNVYQ)" style="stroke:#181818;stroke-width:1.0;"/><polygon fill="#181818" points="1958.93,926.09,1956.9507,935.7379,1960.001,930.9739,1964.765,934.0243,1958.93,926.09" style="stroke:#181818;stroke-width:1.0;"/><text fill="#000000" font-family="sans-serif" font-size="11" lengthAdjust="spacing" textLength="37" x="1963.5" y="958.4189">39 - tan</text></g><!--link Validate (_kSKnoLm1Ee2dIMSi7oNVYQ) to VerifyTAN (_zqW-0LmjEe2dIMSi7oNVYQ)--><g id="link_Validate (_kSKnoLm1Ee2dIMSi7oNVYQ)_VerifyTAN (_zqW-0LmjEe2dIMSi7oNVYQ)"><path d="M1960.7,890.92 C1965.92,876.53 1973.34,855.09 1978.5,836 C1986.34,806.98 1992.94,772.85 1996.81,751.21 " fill="none" id="Validate (_kSKnoLm1Ee2dIMSi7oNVYQ)-to-VerifyTAN (_zqW-0LmjEe2dIMSi7oNVYQ)" style="stroke:#181818;stroke-width:1.0;"/><polygon fill="#181818" points="1997.68,746.25,1992.1741,754.4161,1996.8094,751.1736,2000.0519,755.809,1997.68,746.25" style="stroke:#181818;stroke-width:1.0;"/><text fill="#000000" font-family="sans-serif" font-size="11" lengthAdjust="spacing" textLength="114" x="1987.5" y="823.4189">40 - diagnosisKeys, tan</text></g><!--link VerifyTAN (_zqW-0LmjEe2dIMSi7oNVYQ) to aName (_Gl74ArmkEe2dIMSi7oNVYQ)--><g id="link_VerifyTAN (_zqW-0LmjEe2dIMSi7oNVYQ)_aName (_Gl74ArmkEe2dIMSi7oNVYQ)"><path d="M2030.66,746.17 C2051.69,757.25 2080.69,771.48 2107.5,781 C2127.99,788.28 2150.53,794.56 2171.87,799.76 " fill="none" id="VerifyTAN (_zqW-0LmjEe2dIMSi7oNVYQ)-to-aName (_Gl74ArmkEe2dIMSi7oNVYQ)" style="stroke:#181818;stroke-width:1.0;"/><polygon fill="#181818" points="2176.97,800.99,2169.1587,794.9914,2172.1094,799.8177,2167.283,802.7684,2176.97,800.99" style="stroke:#181818;stroke-width:1.0;"/><text fill="#000000" font-family="sans-serif" font-size="11" lengthAdjust="spacing" textLength="114" x="2108.5" y="778.4189">41 - diagnosisKeys, tan</text></g><!--link aName (_Gl74ArmkEe2dIMSi7oNVYQ) to UploadKeys (_V__IQLkBEe25g4oGy4Jxtw)--><g id="link_aName (_Gl74ArmkEe2dIMSi7oNVYQ)_UploadKeys (_V__IQLkBEe25g4oGy4Jxtw)"><path d="M2251.34,800.83 C2244.84,790.01 2235.36,776.11 2224.5,766 C2103.66,653.48 2053.62,645.26 1899.5,586 C1880.49,578.69 1859.53,572.47 1839.51,567.36 " fill="none" id="aName (_Gl74ArmkEe2dIMSi7oNVYQ)-to-UploadKeys (_V__IQLkBEe25g4oGy4Jxtw)" style="stroke:#181818;stroke-width:1.0;"/><polygon fill="#181818" points="1834.44,566.08,1842.1801,572.1703,1839.2865,567.3095,1844.1473,564.4159,1834.44,566.08" style="stroke:#181818;stroke-width:1.0;"/><text fill="#000000" font-family="sans-serif" font-size="11" lengthAdjust="spacing" textLength="60" x="2132.5" y="688.4189">42 - teleTAN</text></g><!--link UploadKeys (_V__IQLkBEe25g4oGy4Jxtw) to EnterTeleTANandUploadKeys (_x9uVkLZ8Ee2xLZp9hElpuA)--><g id="link_UploadKeys (_V__IQLkBEe25g4oGy4Jxtw)_EnterTeleTANandUploadKeys (_x9uVkLZ8Ee2xLZp9hElpuA)"><path d="M1748.75,530.68 C1746.1,513.01 1742.5,484.38 1742.5,459.5 C1742.5,187.5 1742.5,187.5 1742.5,187.5 C1742.5,164.93 1742.5,139.11 1742.5,121.3 " fill="none" id="UploadKeys (_V__IQLkBEe25g4oGy4Jxtw)-to-EnterTeleTANandUploadKeys (_x9uVkLZ8Ee2xLZp9hElpuA)" style="stroke:#181818;stroke-width:1.0;"/><polygon fill="#181818" points="1742.5,116.04,1738.5,125.04,1742.5,121.04,1746.5,125.04,1742.5,116.04" style="stroke:#181818;stroke-width:1.0;"/><text fill="#000000" font-family="sans-serif" font-size="11" lengthAdjust="spacing" textLength="38" x="1743.5" y="328.4189">43 - null</text></g><!--link EnterTeleTANandUploadKeys (_x9uVkLZ8Ee2xLZp9hElpuA) to end--><g id="link_EnterTeleTANandUploadKeys (_x9uVkLZ8Ee2xLZp9hElpuA)_end"><path d="M1750.21,116.05 C1758.05,132.87 1770.03,158.6 1777.28,174.16 " fill="none" id="EnterTeleTANandUploadKeys (_x9uVkLZ8Ee2xLZp9hElpuA)-to-end" style="stroke:#181818;stroke-width:1.0;"/><polygon fill="#181818" points="1779.55,179.02,1779.3926,169.1724,1777.4465,174.484,1772.135,172.5379,1779.55,179.02" style="stroke:#181818;stroke-width:1.0;"/><text fill="#000000" font-family="sans-serif" font-size="11" lengthAdjust="spacing" textLength="38" x="1765.5" y="148.4189">44 - null</text></g><!--SRC=[nPXPR-8m58NVvrUWFhNL88KiaBoC52gM59EMBLr68nI82IdPI9mI-kl78QOKo4ObwFivvykrhwyDrxStfNBvJ-alLIgNxC0q_vMk6ZQ2tX2QS2ZAggsDNDDHjGvS-wNhSIW4oWAyyWr8X-3L5UODqmt4cwjVttB5w0f6ezY8wNsu3A2FXiu2sjWQM7Vi27GYwql5xQ291BlLNWGiA8mPT1O3yBDb0opgsChfhDDQi_SXMYKmqeGnWzbZjA0DFHN1Jw-YzAW9k3ykfAWofh2P53EOJBl0-i1UJUeEZ9eZAo-9b3HbJE5sxN1eRBylEqwXGjAKCQAQZgW-EWqAMElyAjAKCQ9saRNY3teB1PwzTLeXttOI6SLqCK6uGFTMg4I8A6EdB3m0FnEHAIE0w9nxK3TyXDVMSEBQl-xB9WGeaxAUtLwPEWAZ2y6OPdkIqmAPEW9Z4bfvutCHnqaJqCeh9ar7yjcq_5wtRQso3qgcZkHpbroiQWgC78XD13TJL3Rhs6Ig2AXsxeRc3yOBUbZPvCRhhQHnBn5GI4O0mcxVXvwXwz2hU_XMdQe-CcmT-w7M5dWWHVvP7pIRSp1kFcskuzFqv9AaydWjwiwbWDR7VlFEhzD6QrJcL-cyD3tXRIQ2Q_YODp2imCGjr7-K6k5qhjewnFwPEMMIwpjDJtXq7iyQh6OYqDh7zPsc9ppc2myv7jmwDPmIRJ-QM64AxXGveR4xcYghLlHzR-90R2IkNvw2P78NhQ1wuVwhxNXuhdW6V8VaR3OznuegK3VRt5_ETGTelMFijso4pk_e07yrMQ8vDMRzn2qh82B9Gc9ozt7nB0AxYKtpWIQ6g7dVCGwJqqJaYKlzv8enbJqwlWTsa_HPhxH6G9CIWOMKX46VUQWp-pyJzdudAUEnb0me92E0Q0veXghRZc_uaULt2QdH3Qj0pvYjuwlj8vpNkm18no-J8Yf2uWgHbazb_4H_ExxBYwW8APeC95er3GqFucZQlzeF8o2FiCTXgnfTKwj8YPFpHIIubXIy67Hi_1gl97noleW4yv_1sr7h1dMPJNmCvYb8f72cRsMfI-qZMqaZRPUWPTPOqRCMnvGy1I7GPpvUBFDp_vImkny2rxSt_m40]--></g></svg>