<?xml version="1.0" encoding="us-ascii" standalone="no"?><svg xmlns="http://www.w3.org/2000/svg" xmlns:xlink="http://www.w3.org/1999/xlink" contentStyleType="text/css" height="572px" preserveAspectRatio="none" style="width:475px;height:572px;background:#FFFFFF;" version="1.1" viewBox="0 0 475 572" width="475px" zoomAndPan="magnify"><defs/><g><ellipse cx="320.5" cy="16" fill="#222222" rx="10" ry="10" style="stroke:none;stroke-width:1.0;"/><rect fill="#F1F1F1" height="35.0938" rx="12.5" ry="12.5" style="stroke:#181818;stroke-width:0.5;" width="297" x="172" y="81"/><text fill="#000000" font-family="sans-serif" font-size="12" lengthAdjust="spacing" textLength="277" x="182" y="103.457">EnterTestResults (_Ldj5QLRJEe25KMRnMCaMfw)</text><rect fill="#F1F1F1" height="35.0938" rx="12.5" ry="12.5" style="stroke:#181818;stroke-width:0.5;" width="283" x="7" y="171"/><text fill="#000000" font-family="sans-serif" font-size="12" lengthAdjust="spacing" textLength="263" x="17" y="193.457">RegisterResult (_ZUMSwLNVEe2o46d27a6tVQ)</text><rect fill="#F1F1F1" height="35.0938" rx="12.5" ry="12.5" style="stroke:#181818;stroke-width:0.5;" width="270" x="124.5" y="261"/><text fill="#000000" font-family="sans-serif" font-size="12" lengthAdjust="spacing" textLength="250" x="134.5" y="283.457">RegisterResult (_rctekLm8Ee2dIMSi7oNVYQ)</text><rect fill="#F1F1F1" height="35.0938" rx="12.5" ry="12.5" style="stroke:#181818;stroke-width:0.5;" width="285" x="25" y="351"/><text fill="#000000" font-family="sans-serif" font-size="12" lengthAdjust="spacing" textLength="265" x="35" y="373.457">StoreTestResult (_OYn9ELNVEe2o46d27a6tVQ)</text><rect fill="#F1F1F1" height="35.0938" rx="12.5" ry="12.5" style="stroke:#181818;stroke-width:0.5;" width="283" x="118" y="441"/><text fill="#000000" font-family="sans-serif" font-size="12" lengthAdjust="spacing" textLength="263" x="128" y="463.457">StoreTestResult (_YIPkQLm8Ee2dIMSi7oNVYQ)</text><rect fill="#F1F1F1" height="35.0938" rx="12.5" ry="12.5" style="stroke:#181818;stroke-width:0.5;" width="229" x="145" y="531"/><text fill="#000000" font-family="sans-serif" font-size="12" lengthAdjust="spacing" textLength="209" x="155" y="553.457">aName (_c6ziMLNXEe2o46d27a6tVQ)</text><ellipse cx="320.5" cy="188.5" fill="none" rx="10" ry="10" style="stroke:#222222;stroke-width:1.0;"/><ellipse cx="321" cy="189" fill="#222222" rx="6" ry="6" style="stroke:none;stroke-width:1.0;"/><!--link start to EnterTestResults (_Ldj5QLRJEe25KMRnMCaMfw)--><g id="link_start_EnterTestResults (_Ldj5QLRJEe25KMRnMCaMfw)"><path d="M320.5,26.23 C320.5,38.18 320.5,59.38 320.5,75.56 " fill="none" id="start-to-EnterTestResults (_Ldj5QLRJEe25KMRnMCaMfw)" style="stroke:#181818;stroke-width:1.0;"/><polygon fill="#181818" points="320.5,80.84,324.5,71.84,320.5,75.84,316.5,71.84,320.5,80.84" style="stroke:#181818;stroke-width:1.0;"/><text fill="#000000" font-family="sans-serif" font-size="11" lengthAdjust="spacing" textLength="32" x="321.5" y="58.4189">0 - null</text></g><!--link EnterTestResults (_Ldj5QLRJEe25KMRnMCaMfw) to RegisterResult (_ZUMSwLNVEe2o46d27a6tVQ)--><g id="link_EnterTestResults (_Ldj5QLRJEe25KMRnMCaMfw)_RegisterResult (_ZUMSwLNVEe2o46d27a6tVQ)"><path d="M269.65,116.01 C254.47,121.63 238.02,128.43 223.5,136 C206.11,145.07 187.95,157.46 173.85,167.81 " fill="none" id="EnterTestResults (_Ldj5QLRJEe25KMRnMCaMfw)-to-RegisterResult (_ZUMSwLNVEe2o46d27a6tVQ)" style="stroke:#181818;stroke-width:1.0;"/><polygon fill="#181818" points="169.61,170.95,179.2237,168.8105,173.6288,167.9752,174.464,162.3804,169.61,170.95" style="stroke:#181818;stroke-width:1.0;"/><text fill="#000000" font-family="sans-serif" font-size="11" lengthAdjust="spacing" textLength="90" x="224.5" y="148.4189">1 - testResult, guid</text></g><!--link RegisterResult (_ZUMSwLNVEe2o46d27a6tVQ) to RegisterResult (_rctekLm8Ee2dIMSi7oNVYQ)--><g id="link_RegisterResult (_ZUMSwLNVEe2o46d27a6tVQ)_RegisterResult (_rctekLm8Ee2dIMSi7oNVYQ)"><path d="M169.38,206.05 C187.71,220.59 214.44,241.77 234.02,257.3 " fill="none" id="RegisterResult (_ZUMSwLNVEe2o46d27a6tVQ)-to-RegisterResult (_rctekLm8Ee2dIMSi7oNVYQ)" style="stroke:#181818;stroke-width:1.0;"/><polygon fill="#181818" points="238.34,260.72,233.7876,251.9864,234.4273,257.607,228.8067,258.2467,238.34,260.72" style="stroke:#181818;stroke-width:1.0;"/><text fill="#000000" font-family="sans-serif" font-size="11" lengthAdjust="spacing" textLength="90" x="212.5" y="238.4189">2 - testResult, guid</text></g><!--link RegisterResult (_rctekLm8Ee2dIMSi7oNVYQ) to StoreTestResult (_OYn9ELNVEe2o46d27a6tVQ)--><g id="link_RegisterResult (_rctekLm8Ee2dIMSi7oNVYQ)_StoreTestResult (_OYn9ELNVEe2o46d27a6tVQ)"><path d="M242.2,296.05 C227.13,310.46 205.22,331.42 189.03,346.91 " fill="none" id="RegisterResult (_rctekLm8Ee2dIMSi7oNVYQ)-to-StoreTestResult (_OYn9ELNVEe2o46d27a6tVQ)" style="stroke:#181818;stroke-width:1.0;"/><polygon fill="#181818" points="185.04,350.72,194.3087,347.3896,188.6532,347.2639,188.7789,341.6084,185.04,350.72" style="stroke:#181818;stroke-width:1.0;"/><text fill="#000000" font-family="sans-serif" font-size="11" lengthAdjust="spacing" textLength="90" x="220.5" y="328.4189">3 - testResult, guid</text></g><!--link StoreTestResult (_OYn9ELNVEe2o46d27a6tVQ) to StoreTestResult (_YIPkQLm8Ee2dIMSi7oNVYQ)--><g id="link_StoreTestResult (_OYn9ELNVEe2o46d27a6tVQ)_StoreTestResult (_YIPkQLm8Ee2dIMSi7oNVYQ)"><path d="M184.8,386.05 C199.87,400.46 221.78,421.42 237.97,436.91 " fill="none" id="StoreTestResult (_OYn9ELNVEe2o46d27a6tVQ)-to-StoreTestResult (_YIPkQLm8Ee2dIMSi7oNVYQ)" style="stroke:#181818;stroke-width:1.0;"/><polygon fill="#181818" points="241.96,440.72,238.2211,431.6084,238.3468,437.2639,232.6913,437.3896,241.96,440.72" style="stroke:#181818;stroke-width:1.0;"/><text fill="#000000" font-family="sans-serif" font-size="11" lengthAdjust="spacing" textLength="90" x="220.5" y="418.4189">4 - testResult, guid</text></g><!--link StoreTestResult (_YIPkQLm8Ee2dIMSi7oNVYQ) to aName (_c6ziMLNXEe2o46d27a6tVQ)--><g id="link_StoreTestResult (_YIPkQLm8Ee2dIMSi7oNVYQ)_aName (_c6ziMLNXEe2o46d27a6tVQ)"><path d="M231.25,476.08 C224.52,481.51 218.22,488.19 214.5,496 C208.91,507.74 216.34,518.87 226.67,527.75 " fill="none" id="StoreTestResult (_YIPkQLm8Ee2dIMSi7oNVYQ)-to-aName (_c6ziMLNXEe2o46d27a6tVQ)" style="stroke:#181818;stroke-width:1.0;"/><polygon fill="#181818" points="230.6,530.92,226.1022,522.1582,226.7068,527.7826,221.0824,528.3873,230.6,530.92" style="stroke:#181818;stroke-width:1.0;"/><text fill="#000000" font-family="sans-serif" font-size="11" lengthAdjust="spacing" textLength="64" x="215.5" y="508.4189">5 - testResult</text></g><!--link aName (_c6ziMLNXEe2o46d27a6tVQ) to StoreTestResult (_YIPkQLm8Ee2dIMSi7oNVYQ)--><g id="link_aName (_c6ziMLNXEe2o46d27a6tVQ)_StoreTestResult (_YIPkQLm8Ee2dIMSi7oNVYQ)"><path d="M273,530.74 C279.33,520.87 284.83,507.99 281.5,496 C280.01,490.65 277.51,485.3 274.71,480.41 " fill="none" id="aName (_c6ziMLNXEe2o46d27a6tVQ)-to-StoreTestResult (_YIPkQLm8Ee2dIMSi7oNVYQ)" style="stroke:#181818;stroke-width:1.0;"/><polygon fill="#181818" points="272.08,476.07,273.3189,485.8406,274.6693,480.3473,280.1626,481.6978,272.08,476.07" style="stroke:#181818;stroke-width:1.0;"/><text fill="#000000" font-family="sans-serif" font-size="11" lengthAdjust="spacing" textLength="90" x="284.5" y="508.4189">6 - testResult, guid</text></g><!--link StoreTestResult (_YIPkQLm8Ee2dIMSi7oNVYQ) to RegisterResult (_rctekLm8Ee2dIMSi7oNVYQ)--><g id="link_StoreTestResult (_YIPkQLm8Ee2dIMSi7oNVYQ)_RegisterResult (_rctekLm8Ee2dIMSi7oNVYQ)"><path d="M296.39,440.88 C304.25,435.63 311.64,429.05 316.5,421 C332.6,394.35 320.83,382.11 319.5,351 C318.83,335.4 324.57,329.36 316.5,316 C312.55,309.46 306.93,303.89 300.75,299.22 " fill="none" id="StoreTestResult (_YIPkQLm8Ee2dIMSi7oNVYQ)-to-RegisterResult (_rctekLm8Ee2dIMSi7oNVYQ)" style="stroke:#181818;stroke-width:1.0;"/><polygon fill="#181818" points="296.39,296.12,301.4139,304.5911,300.4673,299.014,306.0444,298.0674,296.39,296.12" style="stroke:#181818;stroke-width:1.0;"/><text fill="#000000" font-family="sans-serif" font-size="11" lengthAdjust="spacing" textLength="90" x="325.5" y="373.4189">7 - testResult, guid</text></g><!--link RegisterResult (_rctekLm8Ee2dIMSi7oNVYQ) to EnterTestResults (_Ldj5QLRJEe25KMRnMCaMfw)--><g id="link_RegisterResult (_rctekLm8Ee2dIMSi7oNVYQ)_EnterTestResults (_Ldj5QLRJEe25KMRnMCaMfw)"><path d="M286.52,260.93 C304.79,248.23 327.83,229 340.5,206 C349.43,189.79 363.57,156.08 355.5,136 C353.15,130.15 349.36,124.7 345.12,119.9 " fill="none" id="RegisterResult (_rctekLm8Ee2dIMSi7oNVYQ)-to-EnterTestResults (_Ldj5QLRJEe25KMRnMCaMfw)" style="stroke:#181818;stroke-width:1.0;"/><polygon fill="#181818" points="341.48,116.02,344.7161,125.322,344.8992,119.6681,350.5531,119.8513,341.48,116.02" style="stroke:#181818;stroke-width:1.0;"/><text fill="#000000" font-family="sans-serif" font-size="11" lengthAdjust="spacing" textLength="32" x="356.5" y="193.4189">8 - null</text></g><!--link EnterTestResults (_Ldj5QLRJEe25KMRnMCaMfw) to end--><g id="link_EnterTestResults (_Ldj5QLRJEe25KMRnMCaMfw)_end"><path d="M320.5,116.05 C320.5,132.37 320.5,157.07 320.5,172.74 " fill="none" id="EnterTestResults (_Ldj5QLRJEe25KMRnMCaMfw)-to-end" style="stroke:#181818;stroke-width:1.0;"/><polygon fill="#181818" points="320.5,178.07,324.5,169.07,320.5,173.07,316.5,169.07,320.5,178.07" style="stroke:#181818;stroke-width:1.0;"/><text fill="#000000" font-family="sans-serif" font-size="11" lengthAdjust="spacing" textLength="32" x="321.5" y="148.4189">9 - null</text></g><!--SRC=[lTD12u8m70NmUvzYTD98A4kjIvVmK6sMMf95XEGAonHq4lJf-yV0Y8pMnQiytuytDgab8qKPeMq7AIWfudY7ccR2QBQaENDeNiGiHz8UXsVDnixKfAes8qv2nW4vtkHcuvymXxe0iJBVHgSY2W5rw2dAeOf_XfRDYhWtR7dGalRrK3K2dNdsanIESb0L1BC3enTy7K1BE25kPAIMvrU3tw8Sx5M3Baip-Zefg9dxoT2id2YUvMHVbFGdYujTEL8yoqdjZGGii88hXTyE-ZqYs5f_hlgLuCLw_LkCkg_8eAxNDYmXgIK_0000]--></g></svg>