<?xml version="1.0" encoding="us-ascii" standalone="no"?><svg xmlns="http://www.w3.org/2000/svg" xmlns:xlink="http://www.w3.org/1999/xlink" contentStyleType="text/css" height="302px" preserveAspectRatio="none" style="width:313px;height:302px;background:#FFFFFF;" version="1.1" viewBox="0 0 313 302" width="313px" zoomAndPan="magnify"><defs/><g><ellipse cx="219" cy="16" fill="#222222" rx="10" ry="10" style="stroke:none;stroke-width:1.0;"/><rect fill="#F1F1F1" height="35.0938" rx="12.5" ry="12.5" style="stroke:#181818;stroke-width:0.5;" width="177" x="130.5" y="81"/><text fill="#000000" font-family="sans-serif" font-size="12" lengthAdjust="spacing" textLength="157" x="140.5" y="103.457">_UbqtQLZ5Ee2xLZp9hElpuA</text><rect fill="#F1F1F1" height="35.0938" rx="12.5" ry="12.5" style="stroke:#181818;stroke-width:0.5;" width="182" x="7" y="171"/><text fill="#000000" font-family="sans-serif" font-size="12" lengthAdjust="spacing" textLength="162" x="17" y="193.457">_ssANgLK8Ee2Y1pKtbIeM6Q</text><rect fill="#F1F1F1" height="35.0938" rx="12.5" ry="12.5" style="stroke:#181818;stroke-width:0.5;" width="181" x="92.5" y="261"/><text fill="#000000" font-family="sans-serif" font-size="12" lengthAdjust="spacing" textLength="161" x="102.5" y="283.457">_NPsfsMK3Ee28l_bdB_O6zg</text><ellipse cx="219" cy="188.5" fill="none" rx="10" ry="10" style="stroke:#222222;stroke-width:1.0;"/><ellipse cx="219.5" cy="189" fill="#222222" rx="6" ry="6" style="stroke:none;stroke-width:1.0;"/><!--link start to _UbqtQLZ5Ee2xLZp9hElpuA--><g id="link_start__UbqtQLZ5Ee2xLZp9hElpuA"><path d="M219,26.23 C219,38.18 219,59.38 219,75.56 " fill="none" id="start-to-_UbqtQLZ5Ee2xLZp9hElpuA" style="stroke:#181818;stroke-width:1.0;"/><polygon fill="#181818" points="219,80.84,223,71.84,219,75.84,215,71.84,219,80.84" style="stroke:#181818;stroke-width:1.0;"/><text fill="#000000" font-family="sans-serif" font-size="11" lengthAdjust="spacing" textLength="32" x="220" y="58.4189">0 - null</text></g><!--link _UbqtQLZ5Ee2xLZp9hElpuA to _ssANgLK8Ee2Y1pKtbIeM6Q--><g id="link__UbqtQLZ5Ee2xLZp9hElpuA__ssANgLK8Ee2Y1pKtbIeM6Q"><path d="M172.87,116.1 C161.19,121.46 149.11,128.1 139,136 C128.13,144.5 118.39,156.44 111.13,166.68 " fill="none" id="_UbqtQLZ5Ee2xLZp9hElpuA-to-_ssANgLK8Ee2Y1pKtbIeM6Q" style="stroke:#181818;stroke-width:1.0;"/><polygon fill="#181818" points="108.18,170.95,116.587,165.8195,111.0223,166.8365,110.0054,161.2718,108.18,170.95" style="stroke:#181818;stroke-width:1.0;"/><text fill="#000000" font-family="sans-serif" font-size="11" lengthAdjust="spacing" textLength="73" x="140" y="148.4189">1 - journalEntry</text></g><!--link _ssANgLK8Ee2Y1pKtbIeM6Q to _NPsfsMK3Ee28l_bdB_O6zg--><g id="link__ssANgLK8Ee2Y1pKtbIeM6Q__NPsfsMK3Ee28l_bdB_O6zg"><path d="M113.99,206.05 C127.91,220.46 148.15,241.42 163.11,256.91 " fill="none" id="_ssANgLK8Ee2Y1pKtbIeM6Q-to-_NPsfsMK3Ee28l_bdB_O6zg" style="stroke:#181818;stroke-width:1.0;"/><polygon fill="#181818" points="166.79,260.72,163.4222,251.4649,163.3193,257.1208,157.6634,257.0179,166.79,260.72" style="stroke:#181818;stroke-width:1.0;"/><text fill="#000000" font-family="sans-serif" font-size="11" lengthAdjust="spacing" textLength="73" x="146" y="238.4189">2 - journalEntry</text></g><!--link _NPsfsMK3Ee28l_bdB_O6zg to _UbqtQLZ5Ee2xLZp9hElpuA--><g id="link__NPsfsMK3Ee28l_bdB_O6zg__UbqtQLZ5Ee2xLZp9hElpuA"><path d="M206.29,260.67 C212.98,255 219.85,248.24 225,241 C249.35,206.75 248.42,192.65 254,151 C254.88,144.39 256.49,142.19 254,136 C251.65,130.15 247.86,124.7 243.62,119.9 " fill="none" id="_NPsfsMK3Ee28l_bdB_O6zg-to-_UbqtQLZ5Ee2xLZp9hElpuA" style="stroke:#181818;stroke-width:1.0;"/><polygon fill="#181818" points="239.98,116.02,243.2161,125.322,243.3992,119.6681,249.0531,119.8513,239.98,116.02" style="stroke:#181818;stroke-width:1.0;"/><text fill="#000000" font-family="sans-serif" font-size="11" lengthAdjust="spacing" textLength="32" x="252" y="193.4189">3 - null</text></g><!--link _UbqtQLZ5Ee2xLZp9hElpuA to end--><g id="link__UbqtQLZ5Ee2xLZp9hElpuA_end"><path d="M219,116.05 C219,132.37 219,157.07 219,172.74 " fill="none" id="_UbqtQLZ5Ee2xLZp9hElpuA-to-end" style="stroke:#181818;stroke-width:1.0;"/><polygon fill="#181818" points="219,178.07,223,169.07,219,173.07,215,169.07,219,178.07" style="stroke:#181818;stroke-width:1.0;"/><text fill="#000000" font-family="sans-serif" font-size="11" lengthAdjust="spacing" textLength="32" x="220" y="148.4189">4 - null</text></g><!--SRC=[qz3ILD3LjLE8Db3GLSWhpSc9LL2A3qqgB0dqYJ9rJJMgy8agiCnmpIaeTLJYmYa3CS8GQ4HMVcbHNcAEQrv9KIN8gE9YHxzq7syBe8P8mmBlaYJFL5-pG91HE6GWHXbXCSele3YjsDVR6AZ18YS-ASKftj-iAXra50uPY576b7lC16w4XfOc0000]--></g></svg>