<?xml version="1.0" encoding="us-ascii" standalone="no"?><svg xmlns="http://www.w3.org/2000/svg" xmlns:xlink="http://www.w3.org/1999/xlink" contentStyleType="text/css" height="482px" preserveAspectRatio="none" style="width:480px;height:482px;background:#FFFFFF;" version="1.1" viewBox="0 0 480 482" width="480px" zoomAndPan="magnify"><defs/><g><ellipse cx="374.5" cy="16" fill="#222222" rx="10" ry="10" style="stroke:none;stroke-width:1.0;"/><rect fill="#F1F1F1" height="35.0938" rx="12.5" ry="12.5" style="stroke:#181818;stroke-width:0.5;" width="186" x="281.5" y="81"/><text fill="#000000" font-family="sans-serif" font-size="12" lengthAdjust="spacing" textLength="166" x="291.5" y="103.457">_u0tCcLRIEe25KMRnMCaMfw</text><rect fill="#F1F1F1" height="35.0938" rx="12.5" ry="12.5" style="stroke:#181818;stroke-width:0.5;" width="175" x="167" y="171"/><text fill="#000000" font-family="sans-serif" font-size="12" lengthAdjust="spacing" textLength="155" x="177" y="193.457">_-XiXsLNXEe2o46d27a6tVQ</text><rect fill="#F1F1F1" height="35.0938" rx="12.5" ry="12.5" style="stroke:#181818;stroke-width:0.5;" width="188" x="149.5" y="261"/><text fill="#000000" font-family="sans-serif" font-size="12" lengthAdjust="spacing" textLength="168" x="159.5" y="283.457">_2TsPMLm8Ee2dIMSi7oNVYQ</text><rect fill="#F1F1F1" height="35.0938" rx="12.5" ry="12.5" style="stroke:#181818;stroke-width:0.5;" width="185" x="7" y="351"/><text fill="#000000" font-family="sans-serif" font-size="12" lengthAdjust="spacing" textLength="165" x="17" y="373.457">__NZBoLNXEe2o46d27a6tVQ</text><rect fill="#F1F1F1" height="35.0938" rx="12.5" ry="12.5" style="stroke:#181818;stroke-width:0.5;" width="188" x="72.5" y="441"/><text fill="#000000" font-family="sans-serif" font-size="12" lengthAdjust="spacing" textLength="168" x="82.5" y="463.457">_gK7oULm8Ee2dIMSi7oNVYQ</text><rect fill="#F1F1F1" height="35.0938" rx="12.5" ry="12.5" style="stroke:#181818;stroke-width:0.5;" width="188" x="286.5" y="351"/><text fill="#000000" font-family="sans-serif" font-size="12" lengthAdjust="spacing" textLength="168" x="296.5" y="373.457">_3OJsULm8Ee2dIMSi7oNVYQ</text><ellipse cx="415.5" cy="188.5" fill="none" rx="10" ry="10" style="stroke:#222222;stroke-width:1.0;"/><ellipse cx="416" cy="189" fill="#222222" rx="6" ry="6" style="stroke:none;stroke-width:1.0;"/><!--link start to _u0tCcLRIEe25KMRnMCaMfw--><g id="link_start__u0tCcLRIEe25KMRnMCaMfw"><path d="M374.5,26.23 C374.5,38.18 374.5,59.38 374.5,75.56 " fill="none" id="start-to-_u0tCcLRIEe25KMRnMCaMfw" style="stroke:#181818;stroke-width:1.0;"/><polygon fill="#181818" points="374.5,80.84,378.5,71.84,374.5,75.84,370.5,71.84,374.5,80.84" style="stroke:#181818;stroke-width:1.0;"/><text fill="#000000" font-family="sans-serif" font-size="11" lengthAdjust="spacing" textLength="32" x="375.5" y="58.4189">0 - null</text></g><!--link _u0tCcLRIEe25KMRnMCaMfw to _-XiXsLNXEe2o46d27a6tVQ--><g id="link__u0tCcLRIEe25KMRnMCaMfw__-XiXsLNXEe2o46d27a6tVQ"><path d="M351.84,116.02 C343.27,122.27 333.43,129.46 324.5,136 C310.29,146.42 294.47,158.05 281.48,167.62 " fill="none" id="_u0tCcLRIEe25KMRnMCaMfw-to-_-XiXsLNXEe2o46d27a6tVQ" style="stroke:#181818;stroke-width:1.0;"/><polygon fill="#181818" points="277.18,170.78,286.7937,168.6405,281.1988,167.8052,282.034,162.2104,277.18,170.78" style="stroke:#181818;stroke-width:1.0;"/><text fill="#000000" font-family="sans-serif" font-size="11" lengthAdjust="spacing" textLength="32" x="325.5" y="148.4189">1 - null</text></g><!--link _-XiXsLNXEe2o46d27a6tVQ to _2TsPMLm8Ee2dIMSi7oNVYQ--><g id="link__-XiXsLNXEe2o46d27a6tVQ__2TsPMLm8Ee2dIMSi7oNVYQ"><path d="M252.43,206.05 C250.68,220.1 248.14,240.36 246.22,255.72 " fill="none" id="_-XiXsLNXEe2o46d27a6tVQ-to-_2TsPMLm8Ee2dIMSi7oNVYQ" style="stroke:#181818;stroke-width:1.0;"/><polygon fill="#181818" points="245.6,260.72,250.7004,252.2947,246.229,255.7597,242.7639,251.2883,245.6,260.72" style="stroke:#181818;stroke-width:1.0;"/><text fill="#000000" font-family="sans-serif" font-size="11" lengthAdjust="spacing" textLength="32" x="251.5" y="238.4189">2 - null</text></g><!--link _2TsPMLm8Ee2dIMSi7oNVYQ to __NZBoLNXEe2o46d27a6tVQ--><g id="link__2TsPMLm8Ee2dIMSi7oNVYQ___NZBoLNXEe2o46d27a6tVQ"><path d="M215.5,296.12 C205.12,302.32 193.25,309.45 182.5,316 C165.16,326.57 145.88,338.52 130.27,348.24 " fill="none" id="_2TsPMLm8Ee2dIMSi7oNVYQ-to-__NZBoLNXEe2o46d27a6tVQ" style="stroke:#181818;stroke-width:1.0;"/><polygon fill="#181818" points="125.97,350.92,135.7241,349.5568,130.214,348.2764,131.4943,342.7664,125.97,350.92" style="stroke:#181818;stroke-width:1.0;"/><text fill="#000000" font-family="sans-serif" font-size="11" lengthAdjust="spacing" textLength="32" x="183.5" y="328.4189">3 - null</text></g><!--link __NZBoLNXEe2o46d27a6tVQ to _gK7oULm8Ee2dIMSi7oNVYQ--><g id="link___NZBoLNXEe2o46d27a6tVQ__gK7oULm8Ee2dIMSi7oNVYQ"><path d="M112.1,386.05 C122.98,400.34 138.76,421.06 150.52,436.51 " fill="none" id="__NZBoLNXEe2o46d27a6tVQ-to-_gK7oULm8Ee2dIMSi7oNVYQ" style="stroke:#181818;stroke-width:1.0;"/><polygon fill="#181818" points="153.73,440.72,151.4532,431.1379,150.6981,436.7442,145.0918,435.989,153.73,440.72" style="stroke:#181818;stroke-width:1.0;"/><text fill="#000000" font-family="sans-serif" font-size="11" lengthAdjust="spacing" textLength="32" x="138.5" y="418.4189">4 - null</text></g><!--link _gK7oULm8Ee2dIMSi7oNVYQ to _2TsPMLm8Ee2dIMSi7oNVYQ--><g id="link__gK7oULm8Ee2dIMSi7oNVYQ__2TsPMLm8Ee2dIMSi7oNVYQ"><path d="M175.08,440.92 C182.41,426.54 193.08,405.09 201.5,386 C214.33,356.92 227.52,322.62 235.61,300.96 " fill="none" id="_gK7oULm8Ee2dIMSi7oNVYQ-to-_2TsPMLm8Ee2dIMSi7oNVYQ" style="stroke:#181818;stroke-width:1.0;"/><polygon fill="#181818" points="237.36,296.27,230.4734,303.3109,235.6169,300.9563,237.9715,306.0999,237.36,296.27" style="stroke:#181818;stroke-width:1.0;"/><text fill="#000000" font-family="sans-serif" font-size="11" lengthAdjust="spacing" textLength="32" x="217.5" y="373.4189">5 - null</text></g><!--link _2TsPMLm8Ee2dIMSi7oNVYQ to _3OJsULm8Ee2dIMSi7oNVYQ--><g id="link__2TsPMLm8Ee2dIMSi7oNVYQ__3OJsULm8Ee2dIMSi7oNVYQ"><path d="M269.27,296.05 C292.18,310.77 325.71,332.31 349.97,347.89 " fill="none" id="_2TsPMLm8Ee2dIMSi7oNVYQ-to-_3OJsULm8Ee2dIMSi7oNVYQ" style="stroke:#181818;stroke-width:1.0;"/><polygon fill="#181818" points="354.38,350.72,348.9724,342.4885,350.1741,348.0162,344.6464,349.2179,354.38,350.72" style="stroke:#181818;stroke-width:1.0;"/><text fill="#000000" font-family="sans-serif" font-size="11" lengthAdjust="spacing" textLength="32" x="321.5" y="328.4189">6 - null</text></g><!--link _3OJsULm8Ee2dIMSi7oNVYQ to _u0tCcLRIEe25KMRnMCaMfw--><g id="link__3OJsULm8Ee2dIMSi7oNVYQ__u0tCcLRIEe25KMRnMCaMfw"><path d="M380.12,350.74 C379.08,304.22 376.16,173.47 374.99,121.35 " fill="none" id="_3OJsULm8Ee2dIMSi7oNVYQ-to-_u0tCcLRIEe25KMRnMCaMfw" style="stroke:#181818;stroke-width:1.0;"/><polygon fill="#181818" points="374.88,116.26,371.0867,125.3491,374.9943,121.2587,379.0846,125.1662,374.88,116.26" style="stroke:#181818;stroke-width:1.0;"/><text fill="#000000" font-family="sans-serif" font-size="11" lengthAdjust="spacing" textLength="32" x="379.5" y="238.4189">7 - null</text></g><!--link _u0tCcLRIEe25KMRnMCaMfw to end--><g id="link__u0tCcLRIEe25KMRnMCaMfw_end"><path d="M382.21,116.05 C390.05,132.87 402.03,158.6 409.28,174.16 " fill="none" id="_u0tCcLRIEe25KMRnMCaMfw-to-end" style="stroke:#181818;stroke-width:1.0;"/><polygon fill="#181818" points="411.55,179.02,411.3926,169.1724,409.4465,174.484,404.135,172.5379,411.55,179.02" style="stroke:#181818;stroke-width:1.0;"/><text fill="#000000" font-family="sans-serif" font-size="11" lengthAdjust="spacing" textLength="32" x="397.5" y="148.4189">8 - null</text></g><!--SRC=[qz3ILD3LjLE8Db3GLSWhpSc9LL2ABpKeSKxs2V9qJJKozVODolDrJlHDArVYmYa3CS8GoGZTYCo8OX-_2A32V1Ep52FpHBEIi42G4JXa84OO8HbX558SuEkJQm5KcEBf6vnfdkyN5Was0eSCn0XZ92FY_QASyh6w0eSCn0WJ92FIlStpGx6w0eSCn0XJoZrYXcI4iRzNCNPNu921665EUQHQm8tGqD840000]--></g></svg>