<?xml version="1.0" encoding="us-ascii" standalone="no"?><svg xmlns="http://www.w3.org/2000/svg" xmlns:xlink="http://www.w3.org/1999/xlink" contentStyleType="text/css" height="932px" preserveAspectRatio="none" style="width:927px;height:932px;background:#FFFFFF;" version="1.1" viewBox="0 0 927 932" width="927px" zoomAndPan="magnify"><defs/><g><ellipse cx="824.5" cy="16" fill="#222222" rx="10" ry="10" style="stroke:none;stroke-width:1.0;"/><rect fill="#F1F1F1" height="35.0938" rx="12.5" ry="12.5" style="stroke:#181818;stroke-width:0.5;" width="173" x="738" y="81"/><text fill="#000000" font-family="sans-serif" font-size="12" lengthAdjust="spacing" textLength="153" x="748" y="103.457">_idM8ELZ-Ee2xLZp9hElpuA</text><rect fill="#F1F1F1" height="35.0938" rx="12.5" ry="12.5" style="stroke:#181818;stroke-width:0.5;" width="174" x="615.5" y="171"/><text fill="#000000" font-family="sans-serif" font-size="12" lengthAdjust="spacing" textLength="154" x="625.5" y="193.457">_xjKJsLK8Ee2Y1pKtbIeM6Q</text><rect fill="#F1F1F1" height="35.0938" rx="12.5" ry="12.5" style="stroke:#181818;stroke-width:0.5;" width="186" x="453.5" y="261"/><text fill="#000000" font-family="sans-serif" font-size="12" lengthAdjust="spacing" textLength="166" x="463.5" y="283.457">_POmMoLkEEe25g4oGy4Jxtw</text><rect fill="#F1F1F1" height="35.0938" rx="12.5" ry="12.5" style="stroke:#181818;stroke-width:0.5;" width="179" x="209" y="351"/><text fill="#000000" font-family="sans-serif" font-size="12" lengthAdjust="spacing" textLength="159" x="219" y="373.457">_LVH1cbLJEe2Y1pKtbIeM6Q</text><rect fill="#F1F1F1" height="35.0938" rx="12.5" ry="12.5" style="stroke:#181818;stroke-width:0.5;" width="182" x="191.5" y="441"/><text fill="#000000" font-family="sans-serif" font-size="12" lengthAdjust="spacing" textLength="162" x="201.5" y="463.457">_P4UrkLmzEe2dIMSi7oNVYQ</text><rect fill="#F1F1F1" height="35.0938" rx="12.5" ry="12.5" style="stroke:#181818;stroke-width:0.5;" width="179" x="7" y="531"/><text fill="#000000" font-family="sans-serif" font-size="12" lengthAdjust="spacing" textLength="159" x="17" y="553.457">_HvqKobLJEe2Y1pKtbIeM6Q</text><rect fill="#F1F1F1" height="35.0938" rx="12.5" ry="12.5" style="stroke:#181818;stroke-width:0.5;" width="185" x="87" y="621"/><text fill="#000000" font-family="sans-serif" font-size="12" lengthAdjust="spacing" textLength="165" x="97" y="643.457">_6PoE0LmyEe2dIMSi7oNVYQ</text><rect fill="#F1F1F1" height="35.0938" rx="12.5" ry="12.5" style="stroke:#181818;stroke-width:0.5;" width="187" x="285" y="531"/><text fill="#000000" font-family="sans-serif" font-size="12" lengthAdjust="spacing" textLength="167" x="295" y="553.457">_RQZ40LmzEe2dIMSi7oNVYQ</text><rect fill="#F1F1F1" height="35.0938" rx="12.5" ry="12.5" style="stroke:#181818;stroke-width:0.5;" width="178" x="561.5" y="351"/><text fill="#000000" font-family="sans-serif" font-size="12" lengthAdjust="spacing" textLength="158" x="571.5" y="373.457">_hlKUQLkEEe25g4oGy4Jxtw</text><rect fill="#F1F1F1" height="35.0938" rx="12.5" ry="12.5" style="stroke:#181818;stroke-width:0.5;" width="172" x="496.5" y="441"/><text fill="#000000" font-family="sans-serif" font-size="12" lengthAdjust="spacing" textLength="152" x="506.5" y="463.457">_LVOjIbLJEe2Y1pKtbIeM6Q</text><rect fill="#F1F1F1" height="35.0938" rx="12.5" ry="12.5" style="stroke:#181818;stroke-width:0.5;" width="182" x="492.5" y="531"/><text fill="#000000" font-family="sans-serif" font-size="12" lengthAdjust="spacing" textLength="162" x="502.5" y="553.457">_uGJfoLm0Ee2dIMSi7oNVYQ</text><rect fill="#F1F1F1" height="35.0938" rx="12.5" ry="12.5" style="stroke:#181818;stroke-width:0.5;" width="188" x="329.5" y="621"/><text fill="#000000" font-family="sans-serif" font-size="12" lengthAdjust="spacing" textLength="168" x="339.5" y="643.457">_3wsG4LNUEe2o46d27a6tVQ</text><rect fill="#F1F1F1" height="35.0938" rx="12.5" ry="12.5" style="stroke:#181818;stroke-width:0.5;" width="182" x="322.5" y="711"/><text fill="#000000" font-family="sans-serif" font-size="12" lengthAdjust="spacing" textLength="162" x="332.5" y="733.457">_LKVjYLm8Ee2dIMSi7oNVYQ</text><rect fill="#F1F1F1" height="35.0938" rx="12.5" ry="12.5" style="stroke:#181818;stroke-width:0.5;" width="176" x="193.5" y="801"/><text fill="#000000" font-family="sans-serif" font-size="12" lengthAdjust="spacing" textLength="156" x="203.5" y="823.457">_caJFILNXEe2o46d27a6tVQ</text><rect fill="#F1F1F1" height="35.0938" rx="12.5" ry="12.5" style="stroke:#181818;stroke-width:0.5;" width="173" x="259" y="891"/><text fill="#000000" font-family="sans-serif" font-size="12" lengthAdjust="spacing" textLength="153" x="269" y="913.457">_G67YILnGEe2hSdAxtFJKiA</text><rect fill="#F1F1F1" height="35.0938" rx="12.5" ry="12.5" style="stroke:#181818;stroke-width:0.5;" width="187" x="474" y="801"/><text fill="#000000" font-family="sans-serif" font-size="12" lengthAdjust="spacing" textLength="167" x="484" y="823.457">_L1upwLm8Ee2dIMSi7oNVYQ</text><rect fill="#F1F1F1" height="35.0938" rx="12.5" ry="12.5" style="stroke:#181818;stroke-width:0.5;" width="189" x="600" y="621"/><text fill="#000000" font-family="sans-serif" font-size="12" lengthAdjust="spacing" textLength="169" x="610" y="643.457">_vOMFwLm0Ee2dIMSi7oNVYQ</text><rect fill="#F1F1F1" height="35.0938" rx="12.5" ry="12.5" style="stroke:#181818;stroke-width:0.5;" width="179" x="742" y="441"/><text fill="#000000" font-family="sans-serif" font-size="12" lengthAdjust="spacing" textLength="159" x="752" y="463.457">_muIZMLkEEe25g4oGy4Jxtw</text><ellipse cx="865.5" cy="188.5" fill="none" rx="10" ry="10" style="stroke:#222222;stroke-width:1.0;"/><ellipse cx="866" cy="189" fill="#222222" rx="6" ry="6" style="stroke:none;stroke-width:1.0;"/><!--link start to _idM8ELZ-Ee2xLZp9hElpuA--><g id="link_start__idM8ELZ-Ee2xLZp9hElpuA"><path d="M824.5,26.23 C824.5,38.18 824.5,59.38 824.5,75.56 " fill="none" id="start-to-_idM8ELZ-Ee2xLZp9hElpuA" style="stroke:#181818;stroke-width:1.0;"/><polygon fill="#181818" points="824.5,80.84,828.5,71.84,824.5,75.84,820.5,71.84,824.5,80.84" style="stroke:#181818;stroke-width:1.0;"/><text fill="#000000" font-family="sans-serif" font-size="11" lengthAdjust="spacing" textLength="32" x="825.5" y="58.4189">0 - null</text></g><!--link _idM8ELZ-Ee2xLZp9hElpuA to _xjKJsLK8Ee2Y1pKtbIeM6Q--><g id="link__idM8ELZ-Ee2xLZp9hElpuA__xjKJsLK8Ee2Y1pKtbIeM6Q"><path d="M799.3,116.12 C790.16,122.26 779.79,129.35 770.5,136 C756.22,146.22 740.58,158.03 727.9,167.75 " fill="none" id="_idM8ELZ-Ee2xLZp9hElpuA-to-_xjKJsLK8Ee2Y1pKtbIeM6Q" style="stroke:#181818;stroke-width:1.0;"/><polygon fill="#181818" points="723.72,170.97,733.2969,168.6714,727.689,167.929,728.4313,162.3211,723.72,170.97" style="stroke:#181818;stroke-width:1.0;"/><text fill="#000000" font-family="sans-serif" font-size="11" lengthAdjust="spacing" textLength="36" x="771.5" y="148.4189">1 - guid</text></g><!--link _xjKJsLK8Ee2Y1pKtbIeM6Q to _POmMoLkEEe25g4oGy4Jxtw--><g id="link__xjKJsLK8Ee2Y1pKtbIeM6Q__POmMoLkEEe25g4oGy4Jxtw"><path d="M673.16,206.05 C646.88,220.88 608.32,242.63 580.66,258.23 " fill="none" id="_xjKJsLK8Ee2Y1pKtbIeM6Q-to-_POmMoLkEEe25g4oGy4Jxtw" style="stroke:#181818;stroke-width:1.0;"/><polygon fill="#181818" points="575.98,260.87,585.7842,259.9333,580.3352,258.4139,581.8545,252.9649,575.98,260.87" style="stroke:#181818;stroke-width:1.0;"/><text fill="#000000" font-family="sans-serif" font-size="11" lengthAdjust="spacing" textLength="36" x="635.5" y="238.4189">2 - guid</text></g><!--link _POmMoLkEEe25g4oGy4Jxtw to _LVH1cbLJEe2Y1pKtbIeM6Q--><g id="link__POmMoLkEEe25g4oGy4Jxtw__LVH1cbLJEe2Y1pKtbIeM6Q"><path d="M453.27,289.94 C424.28,295.37 392.78,303.58 365.5,316 C348.58,323.7 332,336.39 319.57,347.25 " fill="none" id="_POmMoLkEEe25g4oGy4Jxtw-to-_LVH1cbLJEe2Y1pKtbIeM6Q" style="stroke:#181818;stroke-width:1.0;"/><polygon fill="#181818" points="315.52,350.85,324.8977,347.8403,319.2499,347.5202,319.5701,341.8724,315.52,350.85" style="stroke:#181818;stroke-width:1.0;"/><text fill="#000000" font-family="sans-serif" font-size="11" lengthAdjust="spacing" textLength="36" x="366.5" y="328.4189">3 - guid</text></g><!--link _LVH1cbLJEe2Y1pKtbIeM6Q to _P4UrkLmzEe2dIMSi7oNVYQ--><g id="link__LVH1cbLJEe2Y1pKtbIeM6Q__P4UrkLmzEe2dIMSi7oNVYQ"><path d="M295.49,386.05 C292.94,400.1 289.25,420.36 286.46,435.72 " fill="none" id="_LVH1cbLJEe2Y1pKtbIeM6Q-to-_P4UrkLmzEe2dIMSi7oNVYQ" style="stroke:#181818;stroke-width:1.0;"/><polygon fill="#181818" points="285.55,440.72,291.1017,432.585,286.4482,435.8013,283.2318,431.1479,285.55,440.72" style="stroke:#181818;stroke-width:1.0;"/><text fill="#000000" font-family="sans-serif" font-size="11" lengthAdjust="spacing" textLength="36" x="292.5" y="418.4189">4 - guid</text></g><!--link _P4UrkLmzEe2dIMSi7oNVYQ to _HvqKobLJEe2Y1pKtbIeM6Q--><g id="link__P4UrkLmzEe2dIMSi7oNVYQ__HvqKobLJEe2Y1pKtbIeM6Q"><path d="M226.2,476.08 C209.84,481.65 192.17,488.39 176.5,496 C157.89,505.03 138.34,517.55 123.23,527.98 " fill="none" id="_P4UrkLmzEe2dIMSi7oNVYQ-to-_HvqKobLJEe2Y1pKtbIeM6Q" style="stroke:#181818;stroke-width:1.0;"/><polygon fill="#181818" points="119.09,530.87,128.7639,529.0219,123.1968,528.018,124.2007,522.451,119.09,530.87" style="stroke:#181818;stroke-width:1.0;"/><text fill="#000000" font-family="sans-serif" font-size="11" lengthAdjust="spacing" textLength="32" x="177.5" y="508.4189">5 - null</text></g><!--link _HvqKobLJEe2Y1pKtbIeM6Q to _6PoE0LmyEe2dIMSi7oNVYQ--><g id="link__HvqKobLJEe2Y1pKtbIeM6Q__6PoE0LmyEe2dIMSi7oNVYQ"><path d="M112.11,566.05 C125.7,580.46 145.47,601.42 160.08,616.91 " fill="none" id="_HvqKobLJEe2Y1pKtbIeM6Q-to-_6PoE0LmyEe2dIMSi7oNVYQ" style="stroke:#181818;stroke-width:1.0;"/><polygon fill="#181818" points="163.68,620.72,160.4052,611.4315,160.2456,617.0861,154.591,616.9265,163.68,620.72" style="stroke:#181818;stroke-width:1.0;"/><text fill="#000000" font-family="sans-serif" font-size="11" lengthAdjust="spacing" textLength="32" x="144.5" y="598.4189">6 - null</text></g><!--link _6PoE0LmyEe2dIMSi7oNVYQ to _P4UrkLmzEe2dIMSi7oNVYQ--><g id="link__6PoE0LmyEe2dIMSi7oNVYQ__P4UrkLmzEe2dIMSi7oNVYQ"><path d="M187.98,620.67 C198.77,599.48 218.22,562.09 236.5,531 C246.74,513.59 259.17,494.36 268.53,480.23 " fill="none" id="_6PoE0LmyEe2dIMSi7oNVYQ-to-_P4UrkLmzEe2dIMSi7oNVYQ" style="stroke:#181818;stroke-width:1.0;"/><polygon fill="#181818" points="271.33,476.02,263.0221,481.3095,268.5664,480.1868,269.689,485.7312,271.33,476.02" style="stroke:#181818;stroke-width:1.0;"/><text fill="#000000" font-family="sans-serif" font-size="11" lengthAdjust="spacing" textLength="36" x="237.5" y="553.4189">7 - guid</text></g><!--link _P4UrkLmzEe2dIMSi7oNVYQ to _RQZ40LmzEe2dIMSi7oNVYQ--><g id="link__P4UrkLmzEe2dIMSi7oNVYQ__RQZ40LmzEe2dIMSi7oNVYQ"><path d="M300.56,476.05 C316.41,490.59 339.53,511.77 356.47,527.3 " fill="none" id="_P4UrkLmzEe2dIMSi7oNVYQ-to-_RQZ40LmzEe2dIMSi7oNVYQ" style="stroke:#181818;stroke-width:1.0;"/><polygon fill="#181818" points="360.2,530.72,356.259,521.694,356.5107,527.3453,350.8594,527.5969,360.2,530.72" style="stroke:#181818;stroke-width:1.0;"/><text fill="#000000" font-family="sans-serif" font-size="11" lengthAdjust="spacing" textLength="36" x="337.5" y="508.4189">8 - guid</text></g><!--link _RQZ40LmzEe2dIMSi7oNVYQ to _POmMoLkEEe25g4oGy4Jxtw--><g id="link__RQZ40LmzEe2dIMSi7oNVYQ__POmMoLkEEe25g4oGy4Jxtw"><path d="M389.01,530.74 C418.29,484.03 500.79,352.42 533.2,300.72 " fill="none" id="_RQZ40LmzEe2dIMSi7oNVYQ-to-_POmMoLkEEe25g4oGy4Jxtw" style="stroke:#181818;stroke-width:1.0;"/><polygon fill="#181818" points="535.99,296.26,527.823,301.7646,533.3362,300.4976,534.6032,306.0107,535.99,296.26" style="stroke:#181818;stroke-width:1.0;"/><text fill="#000000" font-family="sans-serif" font-size="11" lengthAdjust="spacing" textLength="36" x="467.5" y="418.4189">9 - guid</text></g><!--link _POmMoLkEEe25g4oGy4Jxtw to _hlKUQLkEEe25g4oGy4Jxtw--><g id="link__POmMoLkEEe25g4oGy4Jxtw__hlKUQLkEEe25g4oGy4Jxtw"><path d="M566.06,296.05 C583.24,310.59 608.28,331.77 626.63,347.3 " fill="none" id="_POmMoLkEEe25g4oGy4Jxtw-to-_hlKUQLkEEe25g4oGy4Jxtw" style="stroke:#181818;stroke-width:1.0;"/><polygon fill="#181818" points="630.67,350.72,626.3848,341.8523,626.8536,347.4896,621.2162,347.9585,630.67,350.72" style="stroke:#181818;stroke-width:1.0;"/><text fill="#000000" font-family="sans-serif" font-size="11" lengthAdjust="spacing" textLength="42" x="606.5" y="328.4189">10 - guid</text></g><!--link _hlKUQLkEEe25g4oGy4Jxtw to _LVOjIbLJEe2Y1pKtbIeM6Q--><g id="link__hlKUQLkEEe25g4oGy4Jxtw__LVOjIbLJEe2Y1pKtbIeM6Q"><path d="M608.89,386.07 C600.56,391.25 592.76,397.81 587.5,406 C581.93,414.67 580.35,425.92 580.3,435.69 " fill="none" id="_hlKUQLkEEe25g4oGy4Jxtw-to-_LVOjIbLJEe2Y1pKtbIeM6Q" style="stroke:#181818;stroke-width:1.0;"/><polygon fill="#181818" points="580.41,440.94,584.2033,431.8509,580.2957,435.9413,576.2054,432.0338,580.41,440.94" style="stroke:#181818;stroke-width:1.0;"/><text fill="#000000" font-family="sans-serif" font-size="11" lengthAdjust="spacing" textLength="105" x="588.5" y="418.4189">11 - registrationToken</text></g><!--link _LVOjIbLJEe2Y1pKtbIeM6Q to _uGJfoLm0Ee2dIMSi7oNVYQ--><g id="link__LVOjIbLJEe2Y1pKtbIeM6Q__uGJfoLm0Ee2dIMSi7oNVYQ"><path d="M579.97,476.19 C578.75,486.27 577.71,499.37 578.5,511 C578.83,515.78 579.39,520.89 580.02,525.72 " fill="none" id="_LVOjIbLJEe2Y1pKtbIeM6Q-to-_uGJfoLm0Ee2dIMSi7oNVYQ" style="stroke:#181818;stroke-width:1.0;"/><polygon fill="#181818" points="580.73,530.83,583.4591,521.3668,580.0449,525.8772,575.5345,522.463,580.73,530.83" style="stroke:#181818;stroke-width:1.0;"/><text fill="#000000" font-family="sans-serif" font-size="11" lengthAdjust="spacing" textLength="105" x="579.5" y="508.4189">12 - registrationToken</text></g><!--link _uGJfoLm0Ee2dIMSi7oNVYQ to _3wsG4LNUEe2o46d27a6tVQ--><g id="link__uGJfoLm0Ee2dIMSi7oNVYQ__3wsG4LNUEe2o46d27a6tVQ"><path d="M534.61,566.06 C520.35,571.65 504.97,578.41 491.5,586 C475.62,594.95 459.29,607.19 446.61,617.5 " fill="none" id="_uGJfoLm0Ee2dIMSi7oNVYQ-to-_3wsG4LNUEe2o46d27a6tVQ" style="stroke:#181818;stroke-width:1.0;"/><polygon fill="#181818" points="442.46,620.92,451.9523,618.2938,446.3221,617.7445,446.8714,612.1143,442.46,620.92" style="stroke:#181818;stroke-width:1.0;"/><text fill="#000000" font-family="sans-serif" font-size="11" lengthAdjust="spacing" textLength="42" x="492.5" y="598.4189">13 - guid</text></g><!--link _3wsG4LNUEe2o46d27a6tVQ to _LKVjYLm8Ee2dIMSi7oNVYQ--><g id="link__3wsG4LNUEe2o46d27a6tVQ__LKVjYLm8Ee2dIMSi7oNVYQ"><path d="M421.62,656.05 C420.02,670.1 417.72,690.36 415.98,705.72 " fill="none" id="_3wsG4LNUEe2o46d27a6tVQ-to-_LKVjYLm8Ee2dIMSi7oNVYQ" style="stroke:#181818;stroke-width:1.0;"/><polygon fill="#181818" points="415.41,710.72,420.3875,702.2215,415.9669,705.7511,412.4372,701.3305,415.41,710.72" style="stroke:#181818;stroke-width:1.0;"/><text fill="#000000" font-family="sans-serif" font-size="11" lengthAdjust="spacing" textLength="42" x="420.5" y="688.4189">14 - guid</text></g><!--link _LKVjYLm8Ee2dIMSi7oNVYQ to _caJFILNXEe2o46d27a6tVQ--><g id="link__LKVjYLm8Ee2dIMSi7oNVYQ__caJFILNXEe2o46d27a6tVQ"><path d="M385.15,746.16 C375.05,752.24 363.67,759.28 353.5,766 C338.16,776.13 321.43,788.04 307.97,797.85 " fill="none" id="_LKVjYLm8Ee2dIMSi7oNVYQ-to-_caJFILNXEe2o46d27a6tVQ" style="stroke:#181818;stroke-width:1.0;"/><polygon fill="#181818" points="303.9,800.83,313.5257,798.7452,307.9356,797.8781,308.8027,792.2881,303.9,800.83" style="stroke:#181818;stroke-width:1.0;"/><text fill="#000000" font-family="sans-serif" font-size="11" lengthAdjust="spacing" textLength="38" x="354.5" y="778.4189">15 - null</text></g><!--link _caJFILNXEe2o46d27a6tVQ to _G67YILnGEe2hSdAxtFJKiA--><g id="link__caJFILNXEe2o46d27a6tVQ__G67YILnGEe2hSdAxtFJKiA"><path d="M293.54,836.05 C303.93,850.34 319,871.06 330.24,886.51 " fill="none" id="_caJFILNXEe2o46d27a6tVQ-to-_G67YILnGEe2hSdAxtFJKiA" style="stroke:#181818;stroke-width:1.0;"/><polygon fill="#181818" points="333.3,890.72,331.2374,881.0896,330.3574,886.6776,324.7694,885.7976,333.3,890.72" style="stroke:#181818;stroke-width:1.0;"/><text fill="#000000" font-family="sans-serif" font-size="11" lengthAdjust="spacing" textLength="38" x="318.5" y="868.4189">16 - null</text></g><!--link _G67YILnGEe2hSdAxtFJKiA to _LKVjYLm8Ee2dIMSi7oNVYQ--><g id="link__G67YILnGEe2hSdAxtFJKiA__LKVjYLm8Ee2dIMSi7oNVYQ"><path d="M354.26,890.74 C361.55,876.43 371.92,855.17 379.5,836 C390.86,807.26 401.24,773.07 407.47,751.33 " fill="none" id="_G67YILnGEe2hSdAxtFJKiA-to-_LKVjYLm8Ee2dIMSi7oNVYQ" style="stroke:#181818;stroke-width:1.0;"/><polygon fill="#181818" points="408.88,746.35,402.5881,753.9271,407.5234,751.1624,410.288,756.0977,408.88,746.35" style="stroke:#181818;stroke-width:1.0;"/><text fill="#000000" font-family="sans-serif" font-size="11" lengthAdjust="spacing" textLength="42" x="393.5" y="823.4189">17 - guid</text></g><!--link _LKVjYLm8Ee2dIMSi7oNVYQ to _L1upwLm8Ee2dIMSi7oNVYQ--><g id="link__LKVjYLm8Ee2dIMSi7oNVYQ__L1upwLm8Ee2dIMSi7oNVYQ"><path d="M436.87,746.14 C452.1,756.67 472.58,770.28 491.5,781 C502.31,787.13 514.3,793.2 525.51,798.59 " fill="none" id="_LKVjYLm8Ee2dIMSi7oNVYQ-to-_L1upwLm8Ee2dIMSi7oNVYQ" style="stroke:#181818;stroke-width:1.0;"/><polygon fill="#181818" points="530.26,800.85,523.8641,793.3605,525.7486,798.6942,520.4149,800.5787,530.26,800.85" style="stroke:#181818;stroke-width:1.0;"/><text fill="#000000" font-family="sans-serif" font-size="11" lengthAdjust="spacing" textLength="42" x="492.5" y="778.4189">18 - guid</text></g><!--link _L1upwLm8Ee2dIMSi7oNVYQ to _uGJfoLm0Ee2dIMSi7oNVYQ--><g id="link__L1upwLm8Ee2dIMSi7oNVYQ__uGJfoLm0Ee2dIMSi7oNVYQ"><path d="M567.29,800.87 C567,762.74 567.31,666.12 576.5,586 C577.05,581.2 577.88,576.08 578.77,571.25 " fill="none" id="_L1upwLm8Ee2dIMSi7oNVYQ-to-_uGJfoLm0Ee2dIMSi7oNVYQ" style="stroke:#181818;stroke-width:1.0;"/><polygon fill="#181818" points="579.76,566.14,574.1132,574.2093,578.8041,571.0478,581.9656,575.7387,579.76,566.14" style="stroke:#181818;stroke-width:1.0;"/><text fill="#000000" font-family="sans-serif" font-size="11" lengthAdjust="spacing" textLength="105" x="571.5" y="688.4189">19 - registrationToken</text></g><!--link _uGJfoLm0Ee2dIMSi7oNVYQ to _vOMFwLm0Ee2dIMSi7oNVYQ--><g id="link__uGJfoLm0Ee2dIMSi7oNVYQ__vOMFwLm0Ee2dIMSi7oNVYQ"><path d="M580.43,566.01 C579.34,577.02 579.91,591.22 587.5,601 C593.03,608.13 600.03,613.88 607.79,618.51 " fill="none" id="_uGJfoLm0Ee2dIMSi7oNVYQ-to-_vOMFwLm0Ee2dIMSi7oNVYQ" style="stroke:#181818;stroke-width:1.0;"/><polygon fill="#181818" points="612.17,620.97,606.2844,613.0732,607.8114,618.52,602.3645,620.047,612.17,620.97" style="stroke:#181818;stroke-width:1.0;"/><text fill="#000000" font-family="sans-serif" font-size="11" lengthAdjust="spacing" textLength="105" x="588.5" y="598.4189">20 - registrationToken</text></g><!--link _vOMFwLm0Ee2dIMSi7oNVYQ to _hlKUQLkEEe25g4oGy4Jxtw--><g id="link__vOMFwLm0Ee2dIMSi7oNVYQ__hlKUQLkEEe25g4oGy4Jxtw"><path d="M699.28,620.73 C709.61,581.06 730.42,479.29 695.5,406 C692.53,399.78 687.93,394.27 682.78,389.54 " fill="none" id="_vOMFwLm0Ee2dIMSi7oNVYQ-to-_hlKUQLkEEe25g4oGy4Jxtw" style="stroke:#181818;stroke-width:1.0;"/><polygon fill="#181818" points="678.75,386.08,682.9443,394.9911,682.5332,389.3492,688.175,388.9381,678.75,386.08" style="stroke:#181818;stroke-width:1.0;"/><text fill="#000000" font-family="sans-serif" font-size="11" lengthAdjust="spacing" textLength="42" x="716.5" y="508.4189">21 - guid</text></g><!--link _hlKUQLkEEe25g4oGy4Jxtw to _muIZMLkEEe25g4oGy4Jxtw--><g id="link__hlKUQLkEEe25g4oGy4Jxtw__muIZMLkEEe25g4oGy4Jxtw"><path d="M685.34,386.16 C698.28,392.36 713.07,399.48 726.5,406 C748.65,416.75 773.38,428.87 793.27,438.66 " fill="none" id="_hlKUQLkEEe25g4oGy4Jxtw-to-_muIZMLkEEe25g4oGy4Jxtw" style="stroke:#181818;stroke-width:1.0;"/><polygon fill="#181818" points="797.96,440.96,791.6507,433.3974,793.4737,438.7525,788.1187,440.5755,797.96,440.96" style="stroke:#181818;stroke-width:1.0;"/><text fill="#000000" font-family="sans-serif" font-size="11" lengthAdjust="spacing" textLength="42" x="756.5" y="418.4189">22 - guid</text></g><!--link _muIZMLkEEe25g4oGy4Jxtw to _idM8ELZ-Ee2xLZp9hElpuA--><g id="link__muIZMLkEEe25g4oGy4Jxtw__idM8ELZ-Ee2xLZp9hElpuA"><path d="M829.4,440.99 C827.34,423.33 824.5,394.48 824.5,369.5 C824.5,187.5 824.5,187.5 824.5,187.5 C824.5,164.93 824.5,139.11 824.5,121.3 " fill="none" id="_muIZMLkEEe25g4oGy4Jxtw-to-_idM8ELZ-Ee2xLZp9hElpuA" style="stroke:#181818;stroke-width:1.0;"/><polygon fill="#181818" points="824.5,116.04,820.5,125.04,824.5,121.04,828.5,125.04,824.5,116.04" style="stroke:#181818;stroke-width:1.0;"/><text fill="#000000" font-family="sans-serif" font-size="11" lengthAdjust="spacing" textLength="38" x="825.5" y="283.4189">23 - null</text></g><!--link _idM8ELZ-Ee2xLZp9hElpuA to end--><g id="link__idM8ELZ-Ee2xLZp9hElpuA_end"><path d="M832.21,116.05 C840.05,132.87 852.03,158.6 859.28,174.16 " fill="none" id="_idM8ELZ-Ee2xLZp9hElpuA-to-end" style="stroke:#181818;stroke-width:1.0;"/><polygon fill="#181818" points="861.55,179.02,861.3926,169.1724,859.4465,174.484,854.135,172.5379,861.55,179.02" style="stroke:#181818;stroke-width:1.0;"/><text fill="#000000" font-family="sans-serif" font-size="11" lengthAdjust="spacing" textLength="38" x="847.5" y="148.4189">24 - null</text></g><!--SRC=[hTNBRe90583XVP-2TAKc9e08k6dY0X4OlDHA2atJg5X5WR4AYdtwWZDf9c7EIjV_vCi13j1eDOLs-qNu48MsaEPn_2ayVqMXgnieQ1jhkK31eRSruaFUVtu22o6aajZaKLWHnSwnJyZHouE-T72ofRLsrMb508KGCaDCnecBqTue3tOt2ZQlYbrabue02Y4w386yeRHQ8hi-1L08eR1JAFFZ7YM_vS7GScUHXaUUVoE0GeWkSpk7vny7SwS02Y5KXb0ds11HSgrF0HH2QFTVYCuGhzD04Ra4K0ZHk_-XIY9ZR6DdFkKQGA56jP_7zIOwPST55k7q3U_NALcJySu2reHRA2X3O6xQtnWbOlr60OM2xEvsBYTJGQDvUH8hQYXh2pNpRWPGgC4kBtAydOyIlJu7KAZ1RkzgOGyiD7glpm4KQh3hQwgQRw7KB4zkPs6_o0Qs4zq-A42XXlQ0Qs4N64dvuS8t-8KQlGS_Q5c4mFFO7Lou850eADt_ViZinpV9hS3b6a2XHkV-tuYi_1kDLlCF]--></g></svg>