<?xml version="1.0" encoding="us-ascii" standalone="no"?><svg xmlns="http://www.w3.org/2000/svg" xmlns:xlink="http://www.w3.org/1999/xlink" contentStyleType="text/css" height="1022px" preserveAspectRatio="none" style="width:1666px;height:1022px;background:#FFFFFF;" version="1.1" viewBox="0 0 1666 1022" width="1666px" zoomAndPan="magnify"><defs/><g><ellipse cx="1140.5" cy="16" fill="#222222" rx="10" ry="10" style="stroke:none;stroke-width:1.0;"/><rect fill="#F1F1F1" height="35.0938" rx="12.5" ry="12.5" style="stroke:#181818;stroke-width:0.5;" width="174" x="1053.5" y="81"/><text fill="#000000" font-family="sans-serif" font-size="12" lengthAdjust="spacing" textLength="154" x="1063.5" y="103.457">_x9uVkLZ8Ee2xLZp9hElpuA</text><rect fill="#F1F1F1" height="35.0938" rx="12.5" ry="12.5" style="stroke:#181818;stroke-width:0.5;" width="188" x="802.5" y="171"/><text fill="#000000" font-family="sans-serif" font-size="12" lengthAdjust="spacing" textLength="168" x="812.5" y="193.457">_umC4ULK8Ee2Y1pKtbIeM6Q</text><rect fill="#F1F1F1" height="35.0938" rx="12.5" ry="12.5" style="stroke:#181818;stroke-width:0.5;" width="174" x="450.5" y="261"/><text fill="#000000" font-family="sans-serif" font-size="12" lengthAdjust="spacing" textLength="154" x="460.5" y="283.457">_L8fqELkBEe25g4oGy4Jxtw</text><rect fill="#F1F1F1" height="35.0938" rx="12.5" ry="12.5" style="stroke:#181818;stroke-width:0.5;" width="180" x="266.5" y="351"/><text fill="#000000" font-family="sans-serif" font-size="12" lengthAdjust="spacing" textLength="160" x="276.5" y="373.457">_LVVQ0bLJEe2Y1pKtbIeM6Q</text><rect fill="#F1F1F1" height="35.0938" rx="12.5" ry="12.5" style="stroke:#181818;stroke-width:0.5;" width="180" x="196.5" y="441"/><text fill="#000000" font-family="sans-serif" font-size="12" lengthAdjust="spacing" textLength="160" x="206.5" y="463.457">_lubcMLmzEe2dIMSi7oNVYQ</text><rect fill="#F1F1F1" height="35.0938" rx="12.5" ry="12.5" style="stroke:#181818;stroke-width:0.5;" width="179" x="7" y="531"/><text fill="#000000" font-family="sans-serif" font-size="12" lengthAdjust="spacing" textLength="159" x="17" y="553.457">_HvqKobLJEe2Y1pKtbIeM6Q</text><rect fill="#F1F1F1" height="35.0938" rx="12.5" ry="12.5" style="stroke:#181818;stroke-width:0.5;" width="185" x="8" y="621"/><text fill="#000000" font-family="sans-serif" font-size="12" lengthAdjust="spacing" textLength="165" x="18" y="643.457">_6PoE0LmyEe2dIMSi7oNVYQ</text><rect fill="#F1F1F1" height="35.0938" rx="12.5" ry="12.5" style="stroke:#181818;stroke-width:0.5;" width="187" x="303" y="531"/><text fill="#000000" font-family="sans-serif" font-size="12" lengthAdjust="spacing" textLength="167" x="313" y="553.457">_mx8HoLmzEe2dIMSi7oNVYQ</text><rect fill="#F1F1F1" height="35.0938" rx="12.5" ry="12.5" style="stroke:#181818;stroke-width:0.5;" width="181" x="603" y="351"/><text fill="#000000" font-family="sans-serif" font-size="12" lengthAdjust="spacing" textLength="161" x="613" y="373.457">_N9OLsLkBEe25g4oGy4Jxtw</text><rect fill="#F1F1F1" height="35.0938" rx="12.5" ry="12.5" style="stroke:#181818;stroke-width:0.5;" width="175" x="518" y="441"/><text fill="#000000" font-family="sans-serif" font-size="12" lengthAdjust="spacing" textLength="155" x="528" y="463.457">_LVb-gbLJEe2Y1pKtbIeM6Q</text><rect fill="#F1F1F1" height="35.0938" rx="12.5" ry="12.5" style="stroke:#181818;stroke-width:0.5;" width="187" x="510" y="531"/><text fill="#000000" font-family="sans-serif" font-size="12" lengthAdjust="spacing" textLength="167" x="520" y="553.457">_3FHbMLmzEe2dIMSi7oNVYQ</text><rect fill="#F1F1F1" height="35.0938" rx="12.5" ry="12.5" style="stroke:#181818;stroke-width:0.5;" width="173" x="215" y="621"/><text fill="#000000" font-family="sans-serif" font-size="12" lengthAdjust="spacing" textLength="153" x="225" y="643.457">_pt55IbLGEe2Y1pKtbIeM6Q</text><rect fill="#F1F1F1" height="35.0938" rx="12.5" ry="12.5" style="stroke:#181818;stroke-width:0.5;" width="195" x="189" y="711"/><text fill="#000000" font-family="sans-serif" font-size="12" lengthAdjust="spacing" textLength="175" x="199" y="733.457">_QMHmwLmyEe2dIMSi7oNVYQ</text><rect fill="#F1F1F1" height="35.0938" rx="12.5" ry="12.5" style="stroke:#181818;stroke-width:0.5;" width="179" x="558" y="621"/><text fill="#000000" font-family="sans-serif" font-size="12" lengthAdjust="spacing" textLength="159" x="568" y="643.457">_5fVa4LmzEe2dIMSi7oNVYQ</text><rect fill="#F1F1F1" height="35.0938" rx="12.5" ry="12.5" style="stroke:#181818;stroke-width:0.5;" width="179" x="879" y="441"/><text fill="#000000" font-family="sans-serif" font-size="12" lengthAdjust="spacing" textLength="159" x="889" y="463.457">_QwI_QLkBEe25g4oGy4Jxtw</text><rect fill="#F1F1F1" height="35.0938" rx="12.5" ry="12.5" style="stroke:#181818;stroke-width:0.5;" width="183" x="768" y="531"/><text fill="#000000" font-family="sans-serif" font-size="12" lengthAdjust="spacing" textLength="163" x="778" y="553.457">_edH98LIBEe2fRLFFhL_FWA</text><rect fill="#F1F1F1" height="35.0938" rx="12.5" ry="12.5" style="stroke:#181818;stroke-width:0.5;" width="186" x="757.5" y="621"/><text fill="#000000" font-family="sans-serif" font-size="12" lengthAdjust="spacing" textLength="166" x="767.5" y="643.457">_G0Cp0LdREe2lCsB2iGU-8w</text><rect fill="#F1F1F1" height="35.0938" rx="12.5" ry="12.5" style="stroke:#181818;stroke-width:0.5;" width="172" x="404.5" y="711"/><text fill="#000000" font-family="sans-serif" font-size="12" lengthAdjust="spacing" textLength="152" x="414.5" y="733.457">_flc38LIBEe2fRLFFhL_FWA</text><rect fill="#F1F1F1" height="35.0938" rx="12.5" ry="12.5" style="stroke:#181818;stroke-width:0.5;" width="185" x="391" y="801"/><text fill="#000000" font-family="sans-serif" font-size="12" lengthAdjust="spacing" textLength="165" x="401" y="823.457">_mSwfALdHEe2lCsB2iGU-8w</text><rect fill="#F1F1F1" height="35.0938" rx="12.5" ry="12.5" style="stroke:#181818;stroke-width:0.5;" width="180" x="472.5" y="891"/><text fill="#000000" font-family="sans-serif" font-size="12" lengthAdjust="spacing" textLength="160" x="482.5" y="913.457">_tbmxALdHEe2lCsB2iGU-8w</text><rect fill="#F1F1F1" height="35.0938" rx="12.5" ry="12.5" style="stroke:#181818;stroke-width:0.5;" width="179" x="474" y="981"/><text fill="#000000" font-family="sans-serif" font-size="12" lengthAdjust="spacing" textLength="159" x="484" y="1003.457">_jASAELIBEe2fRLFFhL_FWA</text><rect fill="#F1F1F1" height="35.0938" rx="12.5" ry="12.5" style="stroke:#181818;stroke-width:0.5;" width="184" x="765.5" y="711"/><text fill="#000000" font-family="sans-serif" font-size="12" lengthAdjust="spacing" textLength="164" x="775.5" y="733.457">_RqhgoLdQEe2lCsB2iGU-8w</text><rect fill="#F1F1F1" height="35.0938" rx="12.5" ry="12.5" style="stroke:#181818;stroke-width:0.5;" width="181" x="639" y="801"/><text fill="#000000" font-family="sans-serif" font-size="12" lengthAdjust="spacing" textLength="161" x="649" y="823.457">_h0_4sLIBEe2fRLFFhL_FWA</text><rect fill="#F1F1F1" height="35.0938" rx="12.5" ry="12.5" style="stroke:#181818;stroke-width:0.5;" width="175" x="746" y="891"/><text fill="#000000" font-family="sans-serif" font-size="12" lengthAdjust="spacing" textLength="155" x="756" y="913.457">_MPkXALnFEe2hSdAxtFJKiA</text><rect fill="#F1F1F1" height="35.0938" rx="12.5" ry="12.5" style="stroke:#181818;stroke-width:0.5;" width="180" x="920.5" y="801"/><text fill="#000000" font-family="sans-serif" font-size="12" lengthAdjust="spacing" textLength="160" x="930.5" y="823.457">_Xg1GULdIEe2lCsB2iGU-8w</text><rect fill="#F1F1F1" height="35.0938" rx="12.5" ry="12.5" style="stroke:#181818;stroke-width:0.5;" width="175" x="1058" y="531"/><text fill="#000000" font-family="sans-serif" font-size="12" lengthAdjust="spacing" textLength="155" x="1068" y="553.457">_V__IQLkBEe25g4oGy4Jxtw</text><rect fill="#F1F1F1" height="35.0938" rx="12.5" ry="12.5" style="stroke:#181818;stroke-width:0.5;" width="174" x="1122.5" y="621"/><text fill="#000000" font-family="sans-serif" font-size="12" lengthAdjust="spacing" textLength="154" x="1132.5" y="643.457">_zxhBMLLIEe2Y1pKtbIeM6Q</text><rect fill="#F1F1F1" height="35.0938" rx="12.5" ry="12.5" style="stroke:#181818;stroke-width:0.5;" width="180" x="1248.5" y="711"/><text fill="#000000" font-family="sans-serif" font-size="12" lengthAdjust="spacing" textLength="160" x="1258.5" y="733.457">_zqW-0LmjEe2dIMSi7oNVYQ</text><rect fill="#F1F1F1" height="35.0938" rx="12.5" ry="12.5" style="stroke:#181818;stroke-width:0.5;" width="184" x="1120.5" y="801"/><text fill="#000000" font-family="sans-serif" font-size="12" lengthAdjust="spacing" textLength="164" x="1130.5" y="823.457">_fZnOULNUEe2o46d27a6tVQ</text><rect fill="#F1F1F1" height="35.0938" rx="12.5" ry="12.5" style="stroke:#181818;stroke-width:0.5;" width="186" x="1204.5" y="891"/><text fill="#000000" font-family="sans-serif" font-size="12" lengthAdjust="spacing" textLength="166" x="1214.5" y="913.457">_kSKnoLm1Ee2dIMSi7oNVYQ</text><rect fill="#F1F1F1" height="35.0938" rx="12.5" ry="12.5" style="stroke:#181818;stroke-width:0.5;" width="184" x="1205.5" y="981"/><text fill="#000000" font-family="sans-serif" font-size="12" lengthAdjust="spacing" textLength="164" x="1215.5" y="1003.457">_puBN4bLGEe2Y1pKtbIeM6Q</text><rect fill="#F1F1F1" height="35.0938" rx="12.5" ry="12.5" style="stroke:#181818;stroke-width:0.5;" width="179" x="1481" y="801"/><text fill="#000000" font-family="sans-serif" font-size="12" lengthAdjust="spacing" textLength="159" x="1491" y="823.457">_Gl74ArmkEe2dIMSi7oNVYQ</text><ellipse cx="1181.5" cy="188.5" fill="none" rx="10" ry="10" style="stroke:#222222;stroke-width:1.0;"/><ellipse cx="1182" cy="189" fill="#222222" rx="6" ry="6" style="stroke:none;stroke-width:1.0;"/><!--link start to _x9uVkLZ8Ee2xLZp9hElpuA--><g id="link_start__x9uVkLZ8Ee2xLZp9hElpuA"><path d="M1140.5,26.23 C1140.5,38.18 1140.5,59.38 1140.5,75.56 " fill="none" id="start-to-_x9uVkLZ8Ee2xLZp9hElpuA" style="stroke:#181818;stroke-width:1.0;"/><polygon fill="#181818" points="1140.5,80.84,1144.5,71.84,1140.5,75.84,1136.5,71.84,1140.5,80.84" style="stroke:#181818;stroke-width:1.0;"/><text fill="#000000" font-family="sans-serif" font-size="11" lengthAdjust="spacing" textLength="32" x="1141.5" y="58.4189">0 - null</text></g><!--link _x9uVkLZ8Ee2xLZp9hElpuA to _umC4ULK8Ee2Y1pKtbIeM6Q--><g id="link__x9uVkLZ8Ee2xLZp9hElpuA__umC4ULK8Ee2Y1pKtbIeM6Q"><path d="M1094.61,116.05 C1052.73,131.15 990.95,153.44 947.54,169.09 " fill="none" id="_x9uVkLZ8Ee2xLZp9hElpuA-to-_umC4ULK8Ee2Y1pKtbIeM6Q" style="stroke:#181818;stroke-width:1.0;"/><polygon fill="#181818" points="942.6,170.87,952.4239,171.5703,947.3019,169.1693,949.7028,164.0473,942.6,170.87" style="stroke:#181818;stroke-width:1.0;"/><text fill="#000000" font-family="sans-serif" font-size="11" lengthAdjust="spacing" textLength="54" x="1034.5" y="148.4189">1 - teleTAN</text></g><!--link _umC4ULK8Ee2Y1pKtbIeM6Q to _L8fqELkBEe25g4oGy4Jxtw--><g id="link__umC4ULK8Ee2Y1pKtbIeM6Q__L8fqELkBEe25g4oGy4Jxtw"><path d="M828.97,206.05 C766.52,221.36 673.95,244.05 609.97,259.74 " fill="none" id="_umC4ULK8Ee2Y1pKtbIeM6Q-to-_L8fqELkBEe25g4oGy4Jxtw" style="stroke:#181818;stroke-width:1.0;"/><polygon fill="#181818" points="605.03,260.95,614.7219,262.7015,609.8874,259.7642,612.8246,254.9297,605.03,260.95" style="stroke:#181818;stroke-width:1.0;"/><text fill="#000000" font-family="sans-serif" font-size="11" lengthAdjust="spacing" textLength="54" x="739.5" y="238.4189">2 - teleTAN</text></g><!--link _L8fqELkBEe25g4oGy4Jxtw to _LVVQ0bLJEe2Y1pKtbIeM6Q--><g id="link__L8fqELkBEe25g4oGy4Jxtw__LVVQ0bLJEe2Y1pKtbIeM6Q"><path d="M451.28,296.08 C435.41,301.12 419.47,307.63 405.5,316 C392.42,323.84 380.55,336.12 371.77,346.71 " fill="none" id="_L8fqELkBEe25g4oGy4Jxtw-to-_LVVQ0bLJEe2Y1pKtbIeM6Q" style="stroke:#181818;stroke-width:1.0;"/><polygon fill="#181818" points="368.44,350.83,377.2099,346.3479,371.5843,346.9424,370.9898,341.3169,368.44,350.83" style="stroke:#181818;stroke-width:1.0;"/><text fill="#000000" font-family="sans-serif" font-size="11" lengthAdjust="spacing" textLength="54" x="406.5" y="328.4189">3 - teleTAN</text></g><!--link _LVVQ0bLJEe2Y1pKtbIeM6Q to _lubcMLmzEe2dIMSi7oNVYQ--><g id="link__LVVQ0bLJEe2Y1pKtbIeM6Q__lubcMLmzEe2dIMSi7oNVYQ"><path d="M343.33,386.05 C331.97,400.34 315.48,421.06 303.19,436.51 " fill="none" id="_LVVQ0bLJEe2Y1pKtbIeM6Q-to-_lubcMLmzEe2dIMSi7oNVYQ" style="stroke:#181818;stroke-width:1.0;"/><polygon fill="#181818" points="299.85,440.72,308.5836,436.1676,302.963,436.8073,302.3233,431.1867,299.85,440.72" style="stroke:#181818;stroke-width:1.0;"/><text fill="#000000" font-family="sans-serif" font-size="11" lengthAdjust="spacing" textLength="54" x="327.5" y="418.4189">4 - teleTAN</text></g><!--link _lubcMLmzEe2dIMSi7oNVYQ to _HvqKobLJEe2Y1pKtbIeM6Q--><g id="link__lubcMLmzEe2dIMSi7oNVYQ__HvqKobLJEe2Y1pKtbIeM6Q"><path d="M227.48,476.06 C210.67,481.58 192.56,488.32 176.5,496 C157.84,504.93 138.29,517.44 123.19,527.9 " fill="none" id="_lubcMLmzEe2dIMSi7oNVYQ-to-_HvqKobLJEe2Y1pKtbIeM6Q" style="stroke:#181818;stroke-width:1.0;"/><polygon fill="#181818" points="119.05,530.79,128.7165,528.9035,123.1455,527.9217,124.1273,522.3507,119.05,530.79" style="stroke:#181818;stroke-width:1.0;"/><text fill="#000000" font-family="sans-serif" font-size="11" lengthAdjust="spacing" textLength="32" x="177.5" y="508.4189">5 - null</text></g><!--link _HvqKobLJEe2Y1pKtbIeM6Q to _6PoE0LmyEe2dIMSi7oNVYQ--><g id="link__HvqKobLJEe2Y1pKtbIeM6Q__6PoE0LmyEe2dIMSi7oNVYQ"><path d="M97.25,566.05 C97.89,580.1 98.81,600.36 99.51,615.72 " fill="none" id="_HvqKobLJEe2Y1pKtbIeM6Q-to-_6PoE0LmyEe2dIMSi7oNVYQ" style="stroke:#181818;stroke-width:1.0;"/><polygon fill="#181818" points="99.74,620.72,103.3248,611.5467,99.5117,615.7252,95.3332,611.9121,99.74,620.72" style="stroke:#181818;stroke-width:1.0;"/><text fill="#000000" font-family="sans-serif" font-size="11" lengthAdjust="spacing" textLength="32" x="100.5" y="598.4189">6 - null</text></g><!--link _6PoE0LmyEe2dIMSi7oNVYQ to _lubcMLmzEe2dIMSi7oNVYQ--><g id="link__6PoE0LmyEe2dIMSi7oNVYQ__lubcMLmzEe2dIMSi7oNVYQ"><path d="M125.48,620.95 C145.35,607.27 173.39,586.78 195.5,566 C224.53,538.72 253.67,502.74 270.89,480.37 " fill="none" id="_6PoE0LmyEe2dIMSi7oNVYQ-to-_lubcMLmzEe2dIMSi7oNVYQ" style="stroke:#181818;stroke-width:1.0;"/><polygon fill="#181818" points="273.96,476.36,265.3218,481.091,270.9281,480.3358,271.6832,485.9421,273.96,476.36" style="stroke:#181818;stroke-width:1.0;"/><text fill="#000000" font-family="sans-serif" font-size="11" lengthAdjust="spacing" textLength="54" x="229.5" y="553.4189">7 - teleTAN</text></g><!--link _lubcMLmzEe2dIMSi7oNVYQ to _mx8HoLmzEe2dIMSi7oNVYQ--><g id="link__lubcMLmzEe2dIMSi7oNVYQ__mx8HoLmzEe2dIMSi7oNVYQ"><path d="M307.19,476.05 C325.36,490.59 351.84,511.77 371.25,527.3 " fill="none" id="_lubcMLmzEe2dIMSi7oNVYQ-to-_mx8HoLmzEe2dIMSi7oNVYQ" style="stroke:#181818;stroke-width:1.0;"/><polygon fill="#181818" points="375.53,530.72,370.9971,521.9763,371.6243,527.5983,366.0023,528.2255,375.53,530.72" style="stroke:#181818;stroke-width:1.0;"/><text fill="#000000" font-family="sans-serif" font-size="11" lengthAdjust="spacing" textLength="54" x="349.5" y="508.4189">8 - teleTAN</text></g><!--link _mx8HoLmzEe2dIMSi7oNVYQ to _L8fqELkBEe25g4oGy4Jxtw--><g id="link__mx8HoLmzEe2dIMSi7oNVYQ__L8fqELkBEe25g4oGy4Jxtw"><path d="M405.32,530.74 C429.89,484.03 499.14,352.42 526.33,300.72 " fill="none" id="_mx8HoLmzEe2dIMSi7oNVYQ-to-_L8fqELkBEe25g4oGy4Jxtw" style="stroke:#181818;stroke-width:1.0;"/><polygon fill="#181818" points="528.68,296.26,520.951,302.3644,526.353,300.6855,528.0319,306.0875,528.68,296.26" style="stroke:#181818;stroke-width:1.0;"/><text fill="#000000" font-family="sans-serif" font-size="11" lengthAdjust="spacing" textLength="54" x="471.5" y="418.4189">9 - teleTAN</text></g><!--link _L8fqELkBEe25g4oGy4Jxtw to _N9OLsLkBEe25g4oGy4Jxtw--><g id="link__L8fqELkBEe25g4oGy4Jxtw__N9OLsLkBEe25g4oGy4Jxtw"><path d="M566.84,296.05 C593.12,310.88 631.68,332.63 659.34,348.23 " fill="none" id="_L8fqELkBEe25g4oGy4Jxtw-to-_N9OLsLkBEe25g4oGy4Jxtw" style="stroke:#181818;stroke-width:1.0;"/><polygon fill="#181818" points="664.02,350.87,658.1455,342.9649,659.6648,348.4139,654.2158,349.9333,664.02,350.87" style="stroke:#181818;stroke-width:1.0;"/><text fill="#000000" font-family="sans-serif" font-size="11" lengthAdjust="spacing" textLength="60" x="626.5" y="328.4189">10 - teleTAN</text></g><!--link _N9OLsLkBEe25g4oGy4Jxtw to _LVb-gbLJEe2Y1pKtbIeM6Q--><g id="link__N9OLsLkBEe25g4oGy4Jxtw__LVb-gbLJEe2Y1pKtbIeM6Q"><path d="M635.52,386.05 C626.25,391.08 617.68,397.59 611.5,406 C605.32,414.4 603.51,425.74 603.37,435.64 " fill="none" id="_N9OLsLkBEe25g4oGy4Jxtw-to-_LVb-gbLJEe2Y1pKtbIeM6Q" style="stroke:#181818;stroke-width:1.0;"/><polygon fill="#181818" points="603.44,440.66,607.311,431.6038,603.3686,435.6605,599.3118,431.7181,603.44,440.66" style="stroke:#181818;stroke-width:1.0;"/><text fill="#000000" font-family="sans-serif" font-size="11" lengthAdjust="spacing" textLength="105" x="612.5" y="418.4189">11 - registrationToken</text></g><!--link _LVb-gbLJEe2Y1pKtbIeM6Q to _3FHbMLmzEe2dIMSi7oNVYQ--><g id="link__LVb-gbLJEe2Y1pKtbIeM6Q__3FHbMLmzEe2dIMSi7oNVYQ"><path d="M603.84,476.2 C603.3,482.41 602.77,489.52 602.5,496 C602.1,505.71 602.22,516.46 602.49,525.61 " fill="none" id="_LVb-gbLJEe2Y1pKtbIeM6Q-to-_3FHbMLmzEe2dIMSi7oNVYQ" style="stroke:#181818;stroke-width:1.0;"/><polygon fill="#181818" points="602.67,530.8,606.3593,521.6682,602.4987,525.8029,598.364,521.9423,602.67,530.8" style="stroke:#181818;stroke-width:1.0;"/><text fill="#000000" font-family="sans-serif" font-size="11" lengthAdjust="spacing" textLength="105" x="603.5" y="508.4189">12 - registrationToken</text></g><!--link _3FHbMLmzEe2dIMSi7oNVYQ to _pt55IbLGEe2Y1pKtbIeM6Q--><g id="link__3FHbMLmzEe2dIMSi7oNVYQ__pt55IbLGEe2Y1pKtbIeM6Q"><path d="M509.95,564.35 C446.27,574.45 373.5,586 373.5,586 C355.2,593.5 337.11,606.48 323.63,617.52 " fill="none" id="_3FHbMLmzEe2dIMSi7oNVYQ-to-_pt55IbLGEe2Y1pKtbIeM6Q" style="stroke:#181818;stroke-width:1.0;"/><polygon fill="#181818" points="319.61,620.88,329.0798,618.1739,323.4453,617.6721,323.9471,612.0375,319.61,620.88" style="stroke:#181818;stroke-width:1.0;"/><text fill="#000000" font-family="sans-serif" font-size="11" lengthAdjust="spacing" textLength="38" x="374.5" y="598.4189">13 - null</text></g><!--link _pt55IbLGEe2Y1pKtbIeM6Q to _QMHmwLmyEe2dIMSi7oNVYQ--><g id="link__pt55IbLGEe2Y1pKtbIeM6Q__QMHmwLmyEe2dIMSi7oNVYQ"><path d="M298.68,656.05 C296.28,670.1 292.83,690.36 290.21,705.72 " fill="none" id="_pt55IbLGEe2Y1pKtbIeM6Q-to-_QMHmwLmyEe2dIMSi7oNVYQ" style="stroke:#181818;stroke-width:1.0;"/><polygon fill="#181818" points="289.36,710.72,294.8159,702.5204,290.2005,705.7911,286.9298,701.1757,289.36,710.72" style="stroke:#181818;stroke-width:1.0;"/><text fill="#000000" font-family="sans-serif" font-size="11" lengthAdjust="spacing" textLength="38" x="296.5" y="688.4189">14 - null</text></g><!--link _QMHmwLmyEe2dIMSi7oNVYQ to _3FHbMLmzEe2dIMSi7oNVYQ--><g id="link__QMHmwLmyEe2dIMSi7oNVYQ__3FHbMLmzEe2dIMSi7oNVYQ"><path d="M313.98,710.98 C336.79,696.99 369.86,676.06 397.5,656 C417.44,641.53 419.47,633.84 440.5,621 C475.94,599.35 519.09,580.73 552.09,567.92 " fill="none" id="_QMHmwLmyEe2dIMSi7oNVYQ-to-_3FHbMLmzEe2dIMSi7oNVYQ" style="stroke:#181818;stroke-width:1.0;"/><polygon fill="#181818" points="556.88,566.07,547.0437,565.5735,552.2144,567.8678,549.9201,573.0385,556.88,566.07" style="stroke:#181818;stroke-width:1.0;"/><text fill="#000000" font-family="sans-serif" font-size="11" lengthAdjust="spacing" textLength="105" x="441.5" y="643.4189">15 - registrationToken</text></g><!--link _3FHbMLmzEe2dIMSi7oNVYQ to _5fVa4LmzEe2dIMSi7oNVYQ--><g id="link__3FHbMLmzEe2dIMSi7oNVYQ__5fVa4LmzEe2dIMSi7oNVYQ"><path d="M603.5,566.06 C604.11,576.57 606.05,590.17 611.5,601 C614.43,606.83 618.64,612.31 623.15,617.17 " fill="none" id="_3FHbMLmzEe2dIMSi7oNVYQ-to-_5fVa4LmzEe2dIMSi7oNVYQ" style="stroke:#181818;stroke-width:1.0;"/><polygon fill="#181818" points="626.64,620.76,623.2159,611.5255,623.1475,617.182,617.491,617.1135,626.64,620.76" style="stroke:#181818;stroke-width:1.0;"/><text fill="#000000" font-family="sans-serif" font-size="11" lengthAdjust="spacing" textLength="105" x="612.5" y="598.4189">16 - registrationToken</text></g><!--link _5fVa4LmzEe2dIMSi7oNVYQ to _N9OLsLkBEe25g4oGy4Jxtw--><g id="link__5fVa4LmzEe2dIMSi7oNVYQ__N9OLsLkBEe25g4oGy4Jxtw"><path d="M698.16,620.93 C706.66,615.88 714.37,609.36 719.5,601 C764.86,527.15 745.9,488.55 719.5,406 C717.76,400.55 714.87,395.23 711.65,390.4 " fill="none" id="_5fVa4LmzEe2dIMSi7oNVYQ-to-_N9OLsLkBEe25g4oGy4Jxtw" style="stroke:#181818;stroke-width:1.0;"/><polygon fill="#181818" points="708.61,386.11,710.5574,395.7644,711.504,390.1873,717.0811,391.1339,708.61,386.11" style="stroke:#181818;stroke-width:1.0;"/><text fill="#000000" font-family="sans-serif" font-size="11" lengthAdjust="spacing" textLength="60" x="748.5" y="508.4189">17 - teleTAN</text></g><!--link _N9OLsLkBEe25g4oGy4Jxtw to _QwI_QLkBEe25g4oGy4Jxtw--><g id="link__N9OLsLkBEe25g4oGy4Jxtw__QwI_QLkBEe25g4oGy4Jxtw"><path d="M745.23,386.05 C792.61,401.21 862.62,423.62 911.57,439.28 " fill="none" id="_N9OLsLkBEe25g4oGy4Jxtw-to-_QwI_QLkBEe25g4oGy4Jxtw" style="stroke:#181818;stroke-width:1.0;"/><polygon fill="#181818" points="916.54,440.87,909.1894,434.3149,911.7784,439.3446,906.7487,441.9335,916.54,440.87" style="stroke:#181818;stroke-width:1.0;"/><text fill="#000000" font-family="sans-serif" font-size="11" lengthAdjust="spacing" textLength="60" x="848.5" y="418.4189">18 - teleTAN</text></g><!--link _QwI_QLkBEe25g4oGy4Jxtw to _edH98LIBEe2fRLFFhL_FWA--><g id="link__QwI_QLkBEe25g4oGy4Jxtw__edH98LIBEe2fRLFFhL_FWA"><path d="M948,476.05 C930,490.59 903.75,511.77 884.52,527.3 " fill="none" id="_QwI_QLkBEe25g4oGy4Jxtw-to-_edH98LIBEe2fRLFFhL_FWA" style="stroke:#181818;stroke-width:1.0;"/><polygon fill="#181818" points="880.28,530.72,889.7931,528.1702,884.1676,527.5757,884.7621,521.9501,880.28,530.72" style="stroke:#181818;stroke-width:1.0;"/><text fill="#000000" font-family="sans-serif" font-size="11" lengthAdjust="spacing" textLength="38" x="922.5" y="508.4189">19 - null</text></g><!--link _edH98LIBEe2fRLFFhL_FWA to _G0Cp0LdREe2lCsB2iGU-8w--><g id="link__edH98LIBEe2fRLFFhL_FWA__G0Cp0LdREe2lCsB2iGU-8w"><path d="M857.81,566.05 C856.37,580.1 854.3,600.36 852.73,615.72 " fill="none" id="_edH98LIBEe2fRLFFhL_FWA-to-_G0Cp0LdREe2lCsB2iGU-8w" style="stroke:#181818;stroke-width:1.0;"/><polygon fill="#181818" points="852.22,620.72,857.1224,612.1779,852.733,615.7464,849.1646,611.3571,852.22,620.72" style="stroke:#181818;stroke-width:1.0;"/><text fill="#000000" font-family="sans-serif" font-size="11" lengthAdjust="spacing" textLength="38" x="857.5" y="598.4189">20 - null</text></g><!--link _G0Cp0LdREe2lCsB2iGU-8w to _flc38LIBEe2fRLFFhL_FWA--><g id="link__G0Cp0LdREe2lCsB2iGU-8w__flc38LIBEe2fRLFFhL_FWA"><path d="M757.27,654.55 C753.64,655.06 750.04,655.54 746.5,656 C659.23,667.34 630.23,640.97 549.5,676 C533.48,682.95 518.68,695.9 507.91,707.07 " fill="none" id="_G0Cp0LdREe2lCsB2iGU-8w-to-_flc38LIBEe2fRLFFhL_FWA" style="stroke:#181818;stroke-width:1.0;"/><polygon fill="#181818" points="504.41,710.78,513.4985,706.9855,507.844,707.1457,507.6837,701.4911,504.41,710.78" style="stroke:#181818;stroke-width:1.0;"/><text fill="#000000" font-family="sans-serif" font-size="11" lengthAdjust="spacing" textLength="40" x="550.5" y="688.4189">21 - rpis</text></g><!--link _flc38LIBEe2fRLFFhL_FWA to _mSwfALdHEe2lCsB2iGU-8w--><g id="link__flc38LIBEe2fRLFFhL_FWA__mSwfALdHEe2lCsB2iGU-8w"><path d="M489.18,746.05 C488.07,760.1 486.45,780.36 485.23,795.72 " fill="none" id="_flc38LIBEe2fRLFFhL_FWA-to-_mSwfALdHEe2lCsB2iGU-8w" style="stroke:#181818;stroke-width:1.0;"/><polygon fill="#181818" points="484.83,800.72,489.5369,792.0687,485.2299,795.736,481.5626,791.4289,484.83,800.72" style="stroke:#181818;stroke-width:1.0;"/><text fill="#000000" font-family="sans-serif" font-size="11" lengthAdjust="spacing" textLength="40" x="488.5" y="778.4189">22 - rpis</text></g><!--link _mSwfALdHEe2lCsB2iGU-8w to _tbmxALdHEe2lCsB2iGU-8w--><g id="link__mSwfALdHEe2lCsB2iGU-8w__tbmxALdHEe2lCsB2iGU-8w"><path d="M498.36,836.05 C511.3,850.46 530.11,871.42 544.02,886.91 " fill="none" id="_mSwfALdHEe2lCsB2iGU-8w-to-_tbmxALdHEe2lCsB2iGU-8w" style="stroke:#181818;stroke-width:1.0;"/><polygon fill="#181818" points="547.44,890.72,544.3925,881.3545,544.0952,887.0035,538.4461,886.7062,547.44,890.72" style="stroke:#181818;stroke-width:1.0;"/><text fill="#000000" font-family="sans-serif" font-size="11" lengthAdjust="spacing" textLength="40" x="529.5" y="868.4189">23 - rpis</text></g><!--link _tbmxALdHEe2lCsB2iGU-8w to _jASAELIBEe2fRLFFhL_FWA--><g id="link__tbmxALdHEe2lCsB2iGU-8w__jASAELIBEe2fRLFFhL_FWA"><path d="M541.82,926.22 C532.52,935.88 524.6,948.55 529.5,961 C531.78,966.79 535.46,972.21 539.57,977 " fill="none" id="_tbmxALdHEe2lCsB2iGU-8w-to-_jASAELIBEe2fRLFFhL_FWA" style="stroke:#181818;stroke-width:1.0;"/><polygon fill="#181818" points="543.11,980.88,539.9869,971.5394,539.7353,977.1907,534.084,976.939,543.11,980.88" style="stroke:#181818;stroke-width:1.0;"/><text fill="#000000" font-family="sans-serif" font-size="11" lengthAdjust="spacing" textLength="40" x="530.5" y="958.4189">24 - rpis</text></g><!--link _jASAELIBEe2fRLFFhL_FWA to _tbmxALdHEe2lCsB2iGU-8w--><g id="link__jASAELIBEe2fRLFFhL_FWA__tbmxALdHEe2lCsB2iGU-8w"><path d="M569.04,980.85 C571.73,970.79 574.07,957.69 572.5,946 C571.84,941.12 570.72,935.97 569.45,931.13 " fill="none" id="_jASAELIBEe2fRLFFhL_FWA-to-_tbmxALdHEe2lCsB2iGU-8w" style="stroke:#181818;stroke-width:1.0;"/><polygon fill="#181818" points="568.03,926.02,566.5952,935.7638,569.3734,930.8362,574.301,933.6144,568.03,926.02" style="stroke:#181818;stroke-width:1.0;"/><text fill="#000000" font-family="sans-serif" font-size="11" lengthAdjust="spacing" textLength="40" x="574.5" y="958.4189">25 - rpis</text></g><!--link _tbmxALdHEe2lCsB2iGU-8w to _G0Cp0LdREe2lCsB2iGU-8w--><g id="link__tbmxALdHEe2lCsB2iGU-8w__G0Cp0LdREe2lCsB2iGU-8w"><path d="M570.36,890.64 C581.27,868.42 602.6,828.9 628.5,801 C685.83,739.25 769.86,685.76 816.36,658.58 " fill="none" id="_tbmxALdHEe2lCsB2iGU-8w-to-_G0Cp0LdREe2lCsB2iGU-8w" style="stroke:#181818;stroke-width:1.0;"/><polygon fill="#181818" points="820.74,656.03,810.9485,657.0916,816.4165,658.5414,814.9667,664.0093,820.74,656.03" style="stroke:#181818;stroke-width:1.0;"/><text fill="#000000" font-family="sans-serif" font-size="11" lengthAdjust="spacing" textLength="38" x="665.5" y="778.4189">26 - null</text></g><!--link _G0Cp0LdREe2lCsB2iGU-8w to _RqhgoLdQEe2lCsB2iGU-8w--><g id="link__G0Cp0LdREe2lCsB2iGU-8w__RqhgoLdQEe2lCsB2iGU-8w"><path d="M851.82,656.05 C852.93,670.1 854.55,690.36 855.77,705.72 " fill="none" id="_G0Cp0LdREe2lCsB2iGU-8w-to-_RqhgoLdQEe2lCsB2iGU-8w" style="stroke:#181818;stroke-width:1.0;"/><polygon fill="#181818" points="856.17,710.72,859.4374,701.4289,855.7701,705.736,851.4631,702.0687,856.17,710.72" style="stroke:#181818;stroke-width:1.0;"/><text fill="#000000" font-family="sans-serif" font-size="11" lengthAdjust="spacing" textLength="38" x="855.5" y="688.4189">27 - null</text></g><!--link _RqhgoLdQEe2lCsB2iGU-8w to _h0_4sLIBEe2fRLFFhL_FWA--><g id="link__RqhgoLdQEe2lCsB2iGU-8w__h0_4sLIBEe2fRLFFhL_FWA"><path d="M833.42,746.05 C812.02,760.77 780.69,782.31 758.03,797.89 " fill="none" id="_RqhgoLdQEe2lCsB2iGU-8w-to-_h0_4sLIBEe2fRLFFhL_FWA" style="stroke:#181818;stroke-width:1.0;"/><polygon fill="#181818" points="753.9,800.72,763.5825,798.9174,758.0202,797.8874,759.0503,792.3251,753.9,800.72" style="stroke:#181818;stroke-width:1.0;"/><text fill="#000000" font-family="sans-serif" font-size="11" lengthAdjust="spacing" textLength="38" x="802.5" y="778.4189">28 - null</text></g><!--link _h0_4sLIBEe2fRLFFhL_FWA to _MPkXALnFEe2hSdAxtFJKiA--><g id="link__h0_4sLIBEe2fRLFFhL_FWA__MPkXALnFEe2hSdAxtFJKiA"><path d="M749.06,836.05 C766.24,850.59 791.28,871.77 809.63,887.3 " fill="none" id="_h0_4sLIBEe2fRLFFhL_FWA-to-_MPkXALnFEe2hSdAxtFJKiA" style="stroke:#181818;stroke-width:1.0;"/><polygon fill="#181818" points="813.67,890.72,809.3848,881.8523,809.8536,887.4896,804.2162,887.9585,813.67,890.72" style="stroke:#181818;stroke-width:1.0;"/><text fill="#000000" font-family="sans-serif" font-size="11" lengthAdjust="spacing" textLength="38" x="789.5" y="868.4189">29 - null</text></g><!--link _MPkXALnFEe2hSdAxtFJKiA to _RqhgoLdQEe2lCsB2iGU-8w--><g id="link__MPkXALnFEe2hSdAxtFJKiA__RqhgoLdQEe2lCsB2iGU-8w"><path d="M835.73,890.93 C840.09,858.65 849.7,787.36 854.56,751.3 " fill="none" id="_MPkXALnFEe2hSdAxtFJKiA-to-_RqhgoLdQEe2lCsB2iGU-8w" style="stroke:#181818;stroke-width:1.0;"/><polygon fill="#181818" points="855.24,746.25,850.092,754.6463,854.5829,751.2066,858.0226,755.6976,855.24,746.25" style="stroke:#181818;stroke-width:1.0;"/><text fill="#000000" font-family="sans-serif" font-size="11" lengthAdjust="spacing" textLength="38" x="848.5" y="823.4189">30 - null</text></g><!--link _RqhgoLdQEe2lCsB2iGU-8w to _Xg1GULdIEe2lCsB2iGU-8w--><g id="link__RqhgoLdQEe2lCsB2iGU-8w__Xg1GULdIEe2lCsB2iGU-8w"><path d="M877.51,746.07 C891.09,756.84 909.74,770.73 927.5,781 C938.69,787.47 951.24,793.54 963.12,798.81 " fill="none" id="_RqhgoLdQEe2lCsB2iGU-8w-to-_Xg1GULdIEe2lCsB2iGU-8w" style="stroke:#181818;stroke-width:1.0;"/><polygon fill="#181818" points="967.82,800.86,961.1969,793.5706,963.2445,798.8439,957.9712,800.8915,967.82,800.86" style="stroke:#181818;stroke-width:1.0;"/><text fill="#000000" font-family="sans-serif" font-size="11" lengthAdjust="spacing" textLength="38" x="928.5" y="778.4189">31 - null</text></g><!--link _Xg1GULdIEe2lCsB2iGU-8w to _QwI_QLkBEe25g4oGy4Jxtw--><g id="link__Xg1GULdIEe2lCsB2iGU-8w__QwI_QLkBEe25g4oGy4Jxtw"><path d="M1002.11,800.77 C994.18,783.4 983.5,755.23 983.5,729.5 C983.5,547.5 983.5,547.5 983.5,547.5 C983.5,524.75 978.57,499.15 974.36,481.45 " fill="none" id="_Xg1GULdIEe2lCsB2iGU-8w-to-_QwI_QLkBEe25g4oGy4Jxtw" style="stroke:#181818;stroke-width:1.0;"/><polygon fill="#181818" points="973.08,476.23,971.3285,485.9219,974.2658,481.0874,979.1003,484.0246,973.08,476.23" style="stroke:#181818;stroke-width:1.0;"/><text fill="#000000" font-family="sans-serif" font-size="11" lengthAdjust="spacing" textLength="60" x="984.5" y="643.4189">32 - teleTAN</text></g><!--link _QwI_QLkBEe25g4oGy4Jxtw to _V__IQLkBEe25g4oGy4Jxtw--><g id="link__QwI_QLkBEe25g4oGy4Jxtw__V__IQLkBEe25g4oGy4Jxtw"><path d="M997.37,476.17 C1015.79,486.59 1040.3,500.06 1062.5,511 C1074.95,517.13 1088.67,523.37 1101.31,528.92 " fill="none" id="_QwI_QLkBEe25g4oGy4Jxtw-to-_V__IQLkBEe25g4oGy4Jxtw" style="stroke:#181818;stroke-width:1.0;"/><polygon fill="#181818" points="1105.91,530.93,1099.2595,523.6656,1101.3269,528.9312,1096.0614,530.9985,1105.91,530.93" style="stroke:#181818;stroke-width:1.0;"/><text fill="#000000" font-family="sans-serif" font-size="11" lengthAdjust="spacing" textLength="60" x="1063.5" y="508.4189">33 - teleTAN</text></g><!--link _V__IQLkBEe25g4oGy4Jxtw to _zxhBMLLIEe2Y1pKtbIeM6Q--><g id="link__V__IQLkBEe25g4oGy4Jxtw__zxhBMLLIEe2Y1pKtbIeM6Q"><path d="M1157.54,566.05 C1167.93,580.34 1183,601.06 1194.24,616.51 " fill="none" id="_V__IQLkBEe25g4oGy4Jxtw-to-_zxhBMLLIEe2Y1pKtbIeM6Q" style="stroke:#181818;stroke-width:1.0;"/><polygon fill="#181818" points="1197.3,620.72,1195.2374,611.0896,1194.3574,616.6776,1188.7694,615.7976,1197.3,620.72" style="stroke:#181818;stroke-width:1.0;"/><text fill="#000000" font-family="sans-serif" font-size="11" lengthAdjust="spacing" textLength="114" x="1181.5" y="598.4189">34 - diagnosisKeys, tan</text></g><!--link _zxhBMLLIEe2Y1pKtbIeM6Q to _zqW-0LmjEe2dIMSi7oNVYQ--><g id="link__zxhBMLLIEe2Y1pKtbIeM6Q__zqW-0LmjEe2dIMSi7oNVYQ"><path d="M1233.76,656.05 C1255.34,670.77 1286.91,692.31 1309.75,707.89 " fill="none" id="_zxhBMLLIEe2Y1pKtbIeM6Q-to-_zqW-0LmjEe2dIMSi7oNVYQ" style="stroke:#181818;stroke-width:1.0;"/><polygon fill="#181818" points="1313.91,710.72,1308.7264,702.3456,1309.7786,707.9038,1304.2204,708.9559,1313.91,710.72" style="stroke:#181818;stroke-width:1.0;"/><text fill="#000000" font-family="sans-serif" font-size="11" lengthAdjust="spacing" textLength="114" x="1282.5" y="688.4189">35 - diagnosisKeys, tan</text></g><!--link _zqW-0LmjEe2dIMSi7oNVYQ to _fZnOULNUEe2o46d27a6tVQ--><g id="link__zqW-0LmjEe2dIMSi7oNVYQ__fZnOULNUEe2o46d27a6tVQ"><path d="M1314.8,746.05 C1293.82,760.71 1263.14,782.13 1240.86,797.69 " fill="none" id="_zqW-0LmjEe2dIMSi7oNVYQ-to-_fZnOULNUEe2o46d27a6tVQ" style="stroke:#181818;stroke-width:1.0;"/><polygon fill="#181818" points="1236.52,800.72,1246.1878,798.8403,1240.6175,797.8546,1241.6032,792.2843,1236.52,800.72" style="stroke:#181818;stroke-width:1.0;"/><text fill="#000000" font-family="sans-serif" font-size="11" lengthAdjust="spacing" textLength="37" x="1283.5" y="778.4189">36 - tan</text></g><!--link _fZnOULNUEe2o46d27a6tVQ to _kSKnoLm1Ee2dIMSi7oNVYQ--><g id="link__fZnOULNUEe2o46d27a6tVQ__kSKnoLm1Ee2dIMSi7oNVYQ"><path d="M1228.49,836.05 C1242.41,850.46 1262.65,871.42 1277.61,886.91 " fill="none" id="_fZnOULNUEe2o46d27a6tVQ-to-_kSKnoLm1Ee2dIMSi7oNVYQ" style="stroke:#181818;stroke-width:1.0;"/><polygon fill="#181818" points="1281.29,890.72,1277.9222,881.4649,1277.8193,887.1208,1272.1634,887.0179,1281.29,890.72" style="stroke:#181818;stroke-width:1.0;"/><text fill="#000000" font-family="sans-serif" font-size="11" lengthAdjust="spacing" textLength="37" x="1260.5" y="868.4189">37 - tan</text></g><!--link _kSKnoLm1Ee2dIMSi7oNVYQ to _puBN4bLGEe2Y1pKtbIeM6Q--><g id="link__kSKnoLm1Ee2dIMSi7oNVYQ__puBN4bLGEe2Y1pKtbIeM6Q"><path d="M1278.29,926.31 C1273.13,931.99 1268.23,938.74 1265.5,946 C1261.49,956.67 1266.59,967.52 1273.82,976.5 " fill="none" id="_kSKnoLm1Ee2dIMSi7oNVYQ-to-_puBN4bLGEe2Y1pKtbIeM6Q" style="stroke:#181818;stroke-width:1.0;"/><polygon fill="#181818" points="1277.51,980.75,1274.6343,971.3303,1274.2337,976.973,1268.5911,976.5724,1277.51,980.75" style="stroke:#181818;stroke-width:1.0;"/><text fill="#000000" font-family="sans-serif" font-size="11" lengthAdjust="spacing" textLength="37" x="1266.5" y="958.4189">38 - tan</text></g><!--link _puBN4bLGEe2Y1pKtbIeM6Q to _kSKnoLm1Ee2dIMSi7oNVYQ--><g id="link__puBN4bLGEe2Y1pKtbIeM6Q__kSKnoLm1Ee2dIMSi7oNVYQ"><path d="M1302.33,980.85 C1304.68,970.79 1306.77,957.69 1305.5,946 C1304.98,941.17 1304.07,936.04 1303.06,931.2 " fill="none" id="_puBN4bLGEe2Y1pKtbIeM6Q-to-_kSKnoLm1Ee2dIMSi7oNVYQ" style="stroke:#181818;stroke-width:1.0;"/><polygon fill="#181818" points="1301.93,926.09,1299.9507,935.7379,1303.001,930.9739,1307.765,934.0243,1301.93,926.09" style="stroke:#181818;stroke-width:1.0;"/><text fill="#000000" font-family="sans-serif" font-size="11" lengthAdjust="spacing" textLength="37" x="1306.5" y="958.4189">39 - tan</text></g><!--link _kSKnoLm1Ee2dIMSi7oNVYQ to _zqW-0LmjEe2dIMSi7oNVYQ--><g id="link__kSKnoLm1Ee2dIMSi7oNVYQ__zqW-0LmjEe2dIMSi7oNVYQ"><path d="M1301.54,890.75 C1305.02,876.27 1310.15,854.77 1314.5,836 C1321.31,806.6 1328.93,772.57 1333.72,751.04 " fill="none" id="_kSKnoLm1Ee2dIMSi7oNVYQ-to-_zqW-0LmjEe2dIMSi7oNVYQ" style="stroke:#181818;stroke-width:1.0;"/><polygon fill="#181818" points="1334.82,746.12,1328.958,754.0343,1333.7323,751.0003,1336.7664,755.7746,1334.82,746.12" style="stroke:#181818;stroke-width:1.0;"/><text fill="#000000" font-family="sans-serif" font-size="11" lengthAdjust="spacing" textLength="114" x="1322.5" y="823.4189">40 - diagnosisKeys, tan</text></g><!--link _zqW-0LmjEe2dIMSi7oNVYQ to _Gl74ArmkEe2dIMSi7oNVYQ--><g id="link__zqW-0LmjEe2dIMSi7oNVYQ__Gl74ArmkEe2dIMSi7oNVYQ"><path d="M1361.66,746.17 C1378.2,757.4 1401.35,771.79 1423.5,781 C1441.26,788.38 1460.86,794.53 1479.81,799.54 " fill="none" id="_zqW-0LmjEe2dIMSi7oNVYQ-to-_Gl74ArmkEe2dIMSi7oNVYQ" style="stroke:#181818;stroke-width:1.0;"/><polygon fill="#181818" points="1485.14,800.92,1477.4338,794.787,1480.3004,799.6637,1475.4237,802.5303,1485.14,800.92" style="stroke:#181818;stroke-width:1.0;"/><text fill="#000000" font-family="sans-serif" font-size="11" lengthAdjust="spacing" textLength="114" x="1424.5" y="778.4189">41 - diagnosisKeys, tan</text></g><!--link _Gl74ArmkEe2dIMSi7oNVYQ to _V__IQLkBEe25g4oGy4Jxtw--><g id="link__Gl74ArmkEe2dIMSi7oNVYQ__V__IQLkBEe25g4oGy4Jxtw"><path d="M1562.83,800.62 C1557.5,789.99 1549.71,776.37 1540.5,766 C1452.18,666.59 1421.94,642.36 1301.5,586 C1281.79,576.78 1259.56,569.78 1238.19,564.52 " fill="none" id="_Gl74ArmkEe2dIMSi7oNVYQ-to-_V__IQLkBEe25g4oGy4Jxtw" style="stroke:#181818;stroke-width:1.0;"/><polygon fill="#181818" points="1233.07,563.28,1240.8853,569.2734,1237.9314,564.449,1242.7558,561.4951,1233.07,563.28" style="stroke:#181818;stroke-width:1.0;"/><text fill="#000000" font-family="sans-serif" font-size="11" lengthAdjust="spacing" textLength="60" x="1468.5" y="688.4189">42 - teleTAN</text></g><!--link _V__IQLkBEe25g4oGy4Jxtw to _x9uVkLZ8Ee2xLZp9hElpuA--><g id="link__V__IQLkBEe25g4oGy4Jxtw__x9uVkLZ8Ee2xLZp9hElpuA"><path d="M1144,530.97 C1142.53,513.3 1140.5,484.44 1140.5,459.5 C1140.5,187.5 1140.5,187.5 1140.5,187.5 C1140.5,164.93 1140.5,139.11 1140.5,121.3 " fill="none" id="_V__IQLkBEe25g4oGy4Jxtw-to-_x9uVkLZ8Ee2xLZp9hElpuA" style="stroke:#181818;stroke-width:1.0;"/><polygon fill="#181818" points="1140.5,116.04,1136.5,125.04,1140.5,121.04,1144.5,125.04,1140.5,116.04" style="stroke:#181818;stroke-width:1.0;"/><text fill="#000000" font-family="sans-serif" font-size="11" lengthAdjust="spacing" textLength="38" x="1141.5" y="328.4189">43 - null</text></g><!--link _x9uVkLZ8Ee2xLZp9hElpuA to end--><g id="link__x9uVkLZ8Ee2xLZp9hElpuA_end"><path d="M1148.21,116.05 C1156.05,132.87 1168.03,158.6 1175.28,174.16 " fill="none" id="_x9uVkLZ8Ee2xLZp9hElpuA-to-end" style="stroke:#181818;stroke-width:1.0;"/><polygon fill="#181818" points="1177.55,179.02,1177.3926,169.1724,1175.4465,174.484,1170.135,172.5379,1177.55,179.02" style="stroke:#181818;stroke-width:1.0;"/><text fill="#000000" font-family="sans-serif" font-size="11" lengthAdjust="spacing" textLength="38" x="1163.5" y="148.4189">44 - null</text></g><!--SRC=[hTR9Rk9040RW-pm5oYc91ibBUxkCP28MXuQ449nbD48uDk3WZTW49qy_NafA4tUTulDV-bJTBdVt-UL5fzlzq_ahTBgTw104_pfdozmus3lwhFSzAQVFYR7j1yd1FFk59ZKX5aJc1TwzEIsLGtX55dHSrZw9oJXpB6-Ypae5IMf5EbMeljxtwQvNr2eR4Wy_o7MU7Ki5IMf5_gROzanmw7Mp5oIf5NAg10VdPKB3pwBMjIPpNukdzbEb84cjACpMZjxtuvZR29BKXCeGwctS5sZuqUm2IMf2QsKj-gaIvleevYf8KYj6AzzO54wPgN53Kow39C2KS_lcRVmqUrjbVXpTnpilggV6wMwGgU4c04eOA0z63d_JaGH0cVdyIQOebaE7pQQG10p26BF9A3noHmX9m53QNfYAWShQNX4kY2G0QksCnBSndnsjvOpB80am1hFddZioT6gLbUixEXXiwNBmK1sgI0B78Nim3uMhHA3kNL4PNAKzoHykkdhL1vA0KKruugUbiGvUP7uVI0A6n1ZX_BWsgJjgze4aOCYCaJbXpZUG10p26A_ctEnpru8aO2WjzA6sy5qqnhZRRpSnTMTD0qd0q1bZAon9ojqF9063dTF9xUxHfD6WgDpENJFF1jTZlpAG12vSuUThaKN6UDo8mmLrhQQ19618hVowyhS7XBrSMdm6IO0ffzNrLvieJlrqx7salplPgZhXFlDjRqAfrJp7aGH41HVt3ztY-dzjdfb80c8voK2idwER1PqkYiAOgAwahTJChWWa0KBx8dRpSLHS_6Ap2oG1GlyYaaDlIlXN73y1mlXn5qHeUtU9Y8h3G2FcMxXhYaW2ejJAQ1Bvvoz-ylMeEB-y-0y0]--></g></svg>