<?xml version="1.0" encoding="us-ascii" standalone="no"?><svg xmlns="http://www.w3.org/2000/svg" xmlns:xlink="http://www.w3.org/1999/xlink" contentStyleType="text/css" height="662px" preserveAspectRatio="none" style="width:839px;height:662px;background:#FFFFFF;" version="1.1" viewBox="0 0 839 662" width="839px" zoomAndPan="magnify"><defs/><g><ellipse cx="687" cy="16" fill="#222222" rx="10" ry="10" style="stroke:none;stroke-width:1.0;"/><rect fill="#F1F1F1" height="35.0938" rx="12.5" ry="12.5" style="stroke:#181818;stroke-width:0.5;" width="293" x="540.5" y="81"/><text fill="#000000" font-family="sans-serif" font-size="12" lengthAdjust="spacing" textLength="273" x="550.5" y="103.457">RequestTeleTAN (_CarY8LRIEe25KMRnMCaMfw)</text><rect fill="#F1F1F1" height="35.0938" rx="12.5" ry="12.5" style="stroke:#181818;stroke-width:0.5;" width="255" x="399.5" y="171"/><text fill="#000000" font-family="sans-serif" font-size="12" lengthAdjust="spacing" textLength="235" x="409.5" y="193.457">GetTeleTAN (_fLwRILNXEe2o46d27a6tVQ)</text><rect fill="#F1F1F1" height="35.0938" rx="12.5" ry="12.5" style="stroke:#181818;stroke-width:0.5;" width="262" x="392" y="261"/><text fill="#000000" font-family="sans-serif" font-size="12" lengthAdjust="spacing" textLength="242" x="402" y="283.457">GetTeleTAN (__V2a8Lm2Ee2dIMSi7oNVYQ)</text><rect fill="#F1F1F1" height="35.0938" rx="12.5" ry="12.5" style="stroke:#181818;stroke-width:0.5;" width="290" x="198" y="351"/><text fill="#000000" font-family="sans-serif" font-size="12" lengthAdjust="spacing" textLength="270" x="208" y="373.457">GenerateTeleTAN (_XDjtwLm0Ee2dIMSi7oNVYQ)</text><rect fill="#F1F1F1" height="35.0938" rx="12.5" ry="12.5" style="stroke:#181818;stroke-width:0.5;" width="292" x="192" y="441"/><text fill="#000000" font-family="sans-serif" font-size="12" lengthAdjust="spacing" textLength="272" x="202" y="463.457">GenerateTeleTAN (_x_EcgLm1Ee2dIMSi7oNVYQ)</text><rect fill="#F1F1F1" height="35.0938" rx="12.5" ry="12.5" style="stroke:#181818;stroke-width:0.5;" width="282" x="7" y="531"/><text fill="#000000" font-family="sans-serif" font-size="12" lengthAdjust="spacing" textLength="262" x="17" y="553.457">GenerateTeleTAN (_puIiobLGEe2Y1pKtbIeM6Q)</text><rect fill="#F1F1F1" height="35.0938" rx="12.5" ry="12.5" style="stroke:#181818;stroke-width:0.5;" width="294" x="92" y="621"/><text fill="#000000" font-family="sans-serif" font-size="12" lengthAdjust="spacing" textLength="274" x="102" y="643.457">GenerateTeleTAN (_ml6TQLmyEe2dIMSi7oNVYQ)</text><rect fill="#F1F1F1" height="35.0938" rx="12.5" ry="12.5" style="stroke:#181818;stroke-width:0.5;" width="281" x="383.5" y="531"/><text fill="#000000" font-family="sans-serif" font-size="12" lengthAdjust="spacing" textLength="261" x="393.5" y="553.457">ReturnTeleTAN (_4VHYkLm1Ee2dIMSi7oNVYQ)</text><rect fill="#F1F1F1" height="35.0938" rx="12.5" ry="12.5" style="stroke:#181818;stroke-width:0.5;" width="277" x="550.5" y="351"/><text fill="#000000" font-family="sans-serif" font-size="12" lengthAdjust="spacing" textLength="257" x="560.5" y="373.457">ReturnTeleTAN (__9wIcLm2Ee2dIMSi7oNVYQ)</text><ellipse cx="728" cy="188.5" fill="none" rx="10" ry="10" style="stroke:#222222;stroke-width:1.0;"/><ellipse cx="728.5" cy="189" fill="#222222" rx="6" ry="6" style="stroke:none;stroke-width:1.0;"/><!--link start to RequestTeleTAN (_CarY8LRIEe25KMRnMCaMfw)--><g id="link_start_RequestTeleTAN (_CarY8LRIEe25KMRnMCaMfw)"><path d="M687,26.23 C687,38.18 687,59.38 687,75.56 " fill="none" id="start-to-RequestTeleTAN (_CarY8LRIEe25KMRnMCaMfw)" style="stroke:#181818;stroke-width:1.0;"/><polygon fill="#181818" points="687,80.84,691,71.84,687,75.84,683,71.84,687,80.84" style="stroke:#181818;stroke-width:1.0;"/><text fill="#000000" font-family="sans-serif" font-size="11" lengthAdjust="spacing" textLength="32" x="688" y="58.4189">0 - null</text></g><!--link RequestTeleTAN (_CarY8LRIEe25KMRnMCaMfw) to GetTeleTAN (_fLwRILNXEe2o46d27a6tVQ)--><g id="link_RequestTeleTAN (_CarY8LRIEe25KMRnMCaMfw)_GetTeleTAN (_fLwRILNXEe2o46d27a6tVQ)"><path d="M656.91,116.05 C629.84,130.94 590.08,152.81 561.69,168.42 " fill="none" id="RequestTeleTAN (_CarY8LRIEe25KMRnMCaMfw)-to-GetTeleTAN (_fLwRILNXEe2o46d27a6tVQ)" style="stroke:#181818;stroke-width:1.0;"/><polygon fill="#181818" points="557.23,170.87,567.0433,170.0339,561.6102,168.4588,563.1853,163.0256,557.23,170.87" style="stroke:#181818;stroke-width:1.0;"/><text fill="#000000" font-family="sans-serif" font-size="11" lengthAdjust="spacing" textLength="32" x="618" y="148.4189">1 - null</text></g><!--link GetTeleTAN (_fLwRILNXEe2o46d27a6tVQ) to GetTeleTAN (__V2a8Lm2Ee2dIMSi7oNVYQ)--><g id="link_GetTeleTAN (_fLwRILNXEe2o46d27a6tVQ)_GetTeleTAN (__V2a8Lm2Ee2dIMSi7oNVYQ)"><path d="M526.25,206.05 C525.61,220.1 524.69,240.36 523.99,255.72 " fill="none" id="GetTeleTAN (_fLwRILNXEe2o46d27a6tVQ)-to-GetTeleTAN (__V2a8Lm2Ee2dIMSi7oNVYQ)" style="stroke:#181818;stroke-width:1.0;"/><polygon fill="#181818" points="523.76,260.72,528.1668,251.9121,523.9883,255.7252,520.1752,251.5467,523.76,260.72" style="stroke:#181818;stroke-width:1.0;"/><text fill="#000000" font-family="sans-serif" font-size="11" lengthAdjust="spacing" textLength="32" x="527" y="238.4189">2 - null</text></g><!--link GetTeleTAN (__V2a8Lm2Ee2dIMSi7oNVYQ) to GenerateTeleTAN (_XDjtwLm0Ee2dIMSi7oNVYQ)--><g id="link_GetTeleTAN (__V2a8Lm2Ee2dIMSi7oNVYQ)_GenerateTeleTAN (_XDjtwLm0Ee2dIMSi7oNVYQ)"><path d="M489.14,296.05 C458.57,311 413.6,332.99 381.63,348.61 " fill="none" id="GetTeleTAN (__V2a8Lm2Ee2dIMSi7oNVYQ)-to-GenerateTeleTAN (_XDjtwLm0Ee2dIMSi7oNVYQ)" style="stroke:#181818;stroke-width:1.0;"/><polygon fill="#181818" points="377.01,350.87,386.8523,350.5106,381.5019,348.6739,383.3386,343.3236,377.01,350.87" style="stroke:#181818;stroke-width:1.0;"/><text fill="#000000" font-family="sans-serif" font-size="11" lengthAdjust="spacing" textLength="32" x="445" y="328.4189">3 - null</text></g><!--link GenerateTeleTAN (_XDjtwLm0Ee2dIMSi7oNVYQ) to GenerateTeleTAN (_x_EcgLm1Ee2dIMSi7oNVYQ)--><g id="link_GenerateTeleTAN (_XDjtwLm0Ee2dIMSi7oNVYQ)_GenerateTeleTAN (_x_EcgLm1Ee2dIMSi7oNVYQ)"><path d="M342.06,386.05 C341.26,400.1 340.11,420.36 339.24,435.72 " fill="none" id="GenerateTeleTAN (_XDjtwLm0Ee2dIMSi7oNVYQ)-to-GenerateTeleTAN (_x_EcgLm1Ee2dIMSi7oNVYQ)" style="stroke:#181818;stroke-width:1.0;"/><polygon fill="#181818" points="338.95,440.72,343.4584,431.9636,339.2361,435.7282,335.4715,431.5059,338.95,440.72" style="stroke:#181818;stroke-width:1.0;"/><text fill="#000000" font-family="sans-serif" font-size="11" lengthAdjust="spacing" textLength="32" x="342" y="418.4189">4 - null</text></g><!--link GenerateTeleTAN (_x_EcgLm1Ee2dIMSi7oNVYQ) to GenerateTeleTAN (_puIiobLGEe2Y1pKtbIeM6Q)--><g id="link_GenerateTeleTAN (_x_EcgLm1Ee2dIMSi7oNVYQ)_GenerateTeleTAN (_puIiobLGEe2Y1pKtbIeM6Q)"><path d="M302.26,476.05 C269.99,491 222.52,512.99 188.78,528.61 " fill="none" id="GenerateTeleTAN (_x_EcgLm1Ee2dIMSi7oNVYQ)-to-GenerateTeleTAN (_puIiobLGEe2Y1pKtbIeM6Q)" style="stroke:#181818;stroke-width:1.0;"/><polygon fill="#181818" points="183.9,530.87,193.7478,530.7244,188.4385,528.772,190.391,523.4628,183.9,530.87" style="stroke:#181818;stroke-width:1.0;"/><text fill="#000000" font-family="sans-serif" font-size="11" lengthAdjust="spacing" textLength="32" x="256" y="508.4189">5 - null</text></g><!--link GenerateTeleTAN (_puIiobLGEe2Y1pKtbIeM6Q) to GenerateTeleTAN (_ml6TQLmyEe2dIMSi7oNVYQ)--><g id="link_GenerateTeleTAN (_puIiobLGEe2Y1pKtbIeM6Q)_GenerateTeleTAN (_ml6TQLmyEe2dIMSi7oNVYQ)"><path d="M165.12,566.05 C180.02,580.46 201.69,601.42 217.71,616.91 " fill="none" id="GenerateTeleTAN (_puIiobLGEe2Y1pKtbIeM6Q)-to-GenerateTeleTAN (_ml6TQLmyEe2dIMSi7oNVYQ)" style="stroke:#181818;stroke-width:1.0;"/><polygon fill="#181818" points="221.65,620.72,217.9479,611.5934,218.0508,617.2493,212.3949,617.3522,221.65,620.72" style="stroke:#181818;stroke-width:1.0;"/><text fill="#000000" font-family="sans-serif" font-size="11" lengthAdjust="spacing" textLength="32" x="200" y="598.4189">6 - null</text></g><!--link GenerateTeleTAN (_ml6TQLmyEe2dIMSi7oNVYQ) to GenerateTeleTAN (_x_EcgLm1Ee2dIMSi7oNVYQ)--><g id="link_GenerateTeleTAN (_ml6TQLmyEe2dIMSi7oNVYQ)_GenerateTeleTAN (_x_EcgLm1Ee2dIMSi7oNVYQ)"><path d="M255.88,620.86 C269.06,607.13 287.07,586.62 299,566 C314.89,538.55 326.22,503.47 332.44,481.24 " fill="none" id="GenerateTeleTAN (_ml6TQLmyEe2dIMSi7oNVYQ)-to-GenerateTeleTAN (_x_EcgLm1Ee2dIMSi7oNVYQ)" style="stroke:#181818;stroke-width:1.0;"/><polygon fill="#181818" points="333.84,476.15,327.5899,483.7616,332.5099,480.9698,335.3017,485.8898,333.84,476.15" style="stroke:#181818;stroke-width:1.0;"/><text fill="#000000" font-family="sans-serif" font-size="11" lengthAdjust="spacing" textLength="32" x="317" y="553.4189">7 - null</text></g><!--link GenerateTeleTAN (_x_EcgLm1Ee2dIMSi7oNVYQ) to ReturnTeleTAN (_4VHYkLm1Ee2dIMSi7oNVYQ)--><g id="link_GenerateTeleTAN (_x_EcgLm1Ee2dIMSi7oNVYQ)_ReturnTeleTAN (_4VHYkLm1Ee2dIMSi7oNVYQ)"><path d="M372.99,476.05 C404.58,491 451.05,512.99 484.08,528.61 " fill="none" id="GenerateTeleTAN (_x_EcgLm1Ee2dIMSi7oNVYQ)-to-ReturnTeleTAN (_4VHYkLm1Ee2dIMSi7oNVYQ)" style="stroke:#181818;stroke-width:1.0;"/><polygon fill="#181818" points="488.86,530.87,482.4164,523.4215,484.3349,528.7431,479.0133,530.6616,488.86,530.87" style="stroke:#181818;stroke-width:1.0;"/><text fill="#000000" font-family="sans-serif" font-size="11" lengthAdjust="spacing" textLength="32" x="444" y="508.4189">8 - null</text></g><!--link ReturnTeleTAN (_4VHYkLm1Ee2dIMSi7oNVYQ) to GetTeleTAN (__V2a8Lm2Ee2dIMSi7oNVYQ)--><g id="link_ReturnTeleTAN (_4VHYkLm1Ee2dIMSi7oNVYQ)_GetTeleTAN (__V2a8Lm2Ee2dIMSi7oNVYQ)"><path d="M523.94,530.74 C523.76,484.22 523.28,353.47 523.08,301.35 " fill="none" id="ReturnTeleTAN (_4VHYkLm1Ee2dIMSi7oNVYQ)-to-GetTeleTAN (__V2a8Lm2Ee2dIMSi7oNVYQ)" style="stroke:#181818;stroke-width:1.0;"/><polygon fill="#181818" points="523.06,296.26,519.0857,305.2714,523.0743,301.26,527.0857,305.2485,523.06,296.26" style="stroke:#181818;stroke-width:1.0;"/><text fill="#000000" font-family="sans-serif" font-size="11" lengthAdjust="spacing" textLength="32" x="525" y="418.4189">9 - null</text></g><!--link GetTeleTAN (__V2a8Lm2Ee2dIMSi7oNVYQ) to ReturnTeleTAN (__9wIcLm2Ee2dIMSi7oNVYQ)--><g id="link_GetTeleTAN (__V2a8Lm2Ee2dIMSi7oNVYQ)_ReturnTeleTAN (__9wIcLm2Ee2dIMSi7oNVYQ)"><path d="M554.22,296.05 C582.31,310.94 623.55,332.81 653.01,348.42 " fill="none" id="GetTeleTAN (__V2a8Lm2Ee2dIMSi7oNVYQ)-to-ReturnTeleTAN (__9wIcLm2Ee2dIMSi7oNVYQ)" style="stroke:#181818;stroke-width:1.0;"/><polygon fill="#181818" points="657.63,350.87,651.5452,343.1257,653.2104,348.5319,647.8042,350.1971,657.63,350.87" style="stroke:#181818;stroke-width:1.0;"/><text fill="#000000" font-family="sans-serif" font-size="11" lengthAdjust="spacing" textLength="38" x="617" y="328.4189">10 - null</text></g><!--link ReturnTeleTAN (__9wIcLm2Ee2dIMSi7oNVYQ) to RequestTeleTAN (_CarY8LRIEe25KMRnMCaMfw)--><g id="link_ReturnTeleTAN (__9wIcLm2Ee2dIMSi7oNVYQ)_RequestTeleTAN (_CarY8LRIEe25KMRnMCaMfw)"><path d="M688.87,350.74 C688.53,304.22 687.55,173.47 687.16,121.35 " fill="none" id="ReturnTeleTAN (__9wIcLm2Ee2dIMSi7oNVYQ)-to-RequestTeleTAN (_CarY8LRIEe25KMRnMCaMfw)" style="stroke:#181818;stroke-width:1.0;"/><polygon fill="#181818" points="687.13,116.26,683.2073,125.294,687.1729,121.2598,691.207,125.2254,687.13,116.26" style="stroke:#181818;stroke-width:1.0;"/><text fill="#000000" font-family="sans-serif" font-size="11" lengthAdjust="spacing" textLength="38" x="690" y="238.4189">11 - null</text></g><!--link RequestTeleTAN (_CarY8LRIEe25KMRnMCaMfw) to end--><g id="link_RequestTeleTAN (_CarY8LRIEe25KMRnMCaMfw)_end"><path d="M694.71,116.05 C702.55,132.87 714.53,158.6 721.78,174.16 " fill="none" id="RequestTeleTAN (_CarY8LRIEe25KMRnMCaMfw)-to-end" style="stroke:#181818;stroke-width:1.0;"/><polygon fill="#181818" points="724.05,179.02,723.8926,169.1724,721.9465,174.484,716.635,172.5379,724.05,179.02" style="stroke:#181818;stroke-width:1.0;"/><text fill="#000000" font-family="sans-serif" font-size="11" lengthAdjust="spacing" textLength="38" x="710" y="148.4189">12 - null</text></g><!--SRC=[lTH1QuCm00NW-tv5w4aBWcOssijWTAKBZKATI6KCITjqT3FQkOZRlvyb0uKPoMMzl_S-8YR6r0IMTGUURM21eixp5p29s4VDFaNCSXRVXy385hHAVHBX9OEpTH0LmO86nyQStEX79U9qo8hrMaVIH9Y4sxPLkkW0FOf4iha0MZ4v3XNZMGAfJpXiMmSSF9syCapIl-Egc1o_xOyNhAA2TTNjmvje2BU71DsiPDmnvYjRxby9TtGOLLOoip7cNEDJkIEhjfewvxNOOHOW1QFAIWQDCJn7yORmRvtJgBAIyQxpqVp-3H5rLNH5DtbCtmSHtQGavl_v2pks-W3PlC7xGK0t-MiuLtb6kgjkJCqV]--></g></svg>