<?xml version="1.0" encoding="us-ascii" standalone="no"?><svg xmlns="http://www.w3.org/2000/svg" xmlns:xlink="http://www.w3.org/1999/xlink" contentStyleType="text/css" height="482px" preserveAspectRatio="none" style="width:358px;height:482px;background:#FFFFFF;" version="1.1" viewBox="0 0 358 482" width="358px" zoomAndPan="magnify"><defs/><g><ellipse cx="212" cy="16" fill="#222222" rx="10" ry="10" style="stroke:none;stroke-width:1.0;"/><rect fill="#F1F1F1" height="35.0938" rx="12.5" ry="12.5" style="stroke:#181818;stroke-width:0.5;" width="177" x="123.5" y="81"/><text fill="#000000" font-family="sans-serif" font-size="12" lengthAdjust="spacing" textLength="157" x="133.5" y="103.457">_3gL1YLZ4Ee2xLZp9hElpuA</text><rect fill="#F1F1F1" height="35.0938" rx="12.5" ry="12.5" style="stroke:#181818;stroke-width:0.5;" width="180" x="7" y="171"/><text fill="#000000" font-family="sans-serif" font-size="12" lengthAdjust="spacing" textLength="160" x="17" y="193.457">_pa4bALK8Ee2Y1pKtbIeM6Q</text><rect fill="#F1F1F1" height="35.0938" rx="12.5" ry="12.5" style="stroke:#181818;stroke-width:0.5;" width="182" x="39" y="261"/><text fill="#000000" font-family="sans-serif" font-size="12" lengthAdjust="spacing" textLength="162" x="49" y="283.457">_k_kwULd9Ee2lCsB2iGU-8w</text><rect fill="#F1F1F1" height="35.0938" rx="12.5" ry="12.5" style="stroke:#181818;stroke-width:0.5;" width="181" x="110.5" y="351"/><text fill="#000000" font-family="sans-serif" font-size="12" lengthAdjust="spacing" textLength="161" x="120.5" y="373.457">_XZGTkLd9Ee2lCsB2iGU-8w</text><rect fill="#F1F1F1" height="35.0938" rx="12.5" ry="12.5" style="stroke:#181818;stroke-width:0.5;" width="174" x="114" y="441"/><text fill="#000000" font-family="sans-serif" font-size="12" lengthAdjust="spacing" textLength="154" x="124" y="463.457">_6z-hsLKkEe2Y1pKtbIeM6Q</text><ellipse cx="217" cy="188.5" fill="none" rx="10" ry="10" style="stroke:#222222;stroke-width:1.0;"/><ellipse cx="217.5" cy="189" fill="#222222" rx="6" ry="6" style="stroke:none;stroke-width:1.0;"/><!--link start to _3gL1YLZ4Ee2xLZp9hElpuA--><g id="link_start__3gL1YLZ4Ee2xLZp9hElpuA"><path d="M212,26.23 C212,38.18 212,59.38 212,75.56 " fill="none" id="start-to-_3gL1YLZ4Ee2xLZp9hElpuA" style="stroke:#181818;stroke-width:1.0;"/><polygon fill="#181818" points="212,80.84,216,71.84,212,75.84,208,71.84,212,80.84" style="stroke:#181818;stroke-width:1.0;"/><text fill="#000000" font-family="sans-serif" font-size="11" lengthAdjust="spacing" textLength="32" x="213" y="58.4189">0 - null</text></g><!--link _3gL1YLZ4Ee2xLZp9hElpuA to _pa4bALK8Ee2Y1pKtbIeM6Q--><g id="link__3gL1YLZ4Ee2xLZp9hElpuA__pa4bALK8Ee2Y1pKtbIeM6Q"><path d="M161.31,116.03 C149.89,121.26 138.39,127.85 129,136 C119.48,144.25 111.87,156.05 106.46,166.26 " fill="none" id="_3gL1YLZ4Ee2xLZp9hElpuA-to-_pa4bALK8Ee2Y1pKtbIeM6Q" style="stroke:#181818;stroke-width:1.0;"/><polygon fill="#181818" points="104.13,170.83,111.7804,164.6274,106.4003,166.3751,104.6526,160.995,104.13,170.83" style="stroke:#181818;stroke-width:1.0;"/><text fill="#000000" font-family="sans-serif" font-size="11" lengthAdjust="spacing" textLength="75" x="130" y="148.4189">1 - analyticData</text></g><!--link _pa4bALK8Ee2Y1pKtbIeM6Q to _k_kwULd9Ee2lCsB2iGU-8w--><g id="link__pa4bALK8Ee2Y1pKtbIeM6Q__k_kwULd9Ee2lCsB2iGU-8w"><path d="M103.21,206.05 C108.47,220.1 116.07,240.36 121.83,255.72 " fill="none" id="_pa4bALK8Ee2Y1pKtbIeM6Q-to-_k_kwULd9Ee2lCsB2iGU-8w" style="stroke:#181818;stroke-width:1.0;"/><polygon fill="#181818" points="123.71,260.72,124.2952,250.8885,121.9544,256.0384,116.8046,253.6975,123.71,260.72" style="stroke:#181818;stroke-width:1.0;"/><text fill="#000000" font-family="sans-serif" font-size="11" lengthAdjust="spacing" textLength="75" x="116" y="238.4189">2 - analyticData</text></g><!--link _k_kwULd9Ee2lCsB2iGU-8w to _XZGTkLd9Ee2lCsB2iGU-8w--><g id="link__k_kwULd9Ee2lCsB2iGU-8w__XZGTkLd9Ee2lCsB2iGU-8w"><path d="M142.35,296.43 C149.87,306.6 159.79,319.7 169,331 C173.33,336.31 178.13,341.93 182.68,347.12 " fill="none" id="_k_kwULd9Ee2lCsB2iGU-8w-to-_XZGTkLd9Ee2lCsB2iGU-8w" style="stroke:#181818;stroke-width:1.0;"/><polygon fill="#181818" points="186.09,351,183.1561,341.5983,182.7904,347.2433,177.1454,346.8776,186.09,351" style="stroke:#181818;stroke-width:1.0;"/><text fill="#000000" font-family="sans-serif" font-size="11" lengthAdjust="spacing" textLength="75" x="170" y="328.4189">3 - analyticData</text></g><!--link _XZGTkLd9Ee2lCsB2iGU-8w to _6z-hsLKkEe2Y1pKtbIeM6Q--><g id="link__XZGTkLd9Ee2lCsB2iGU-8w__6z-hsLKkEe2Y1pKtbIeM6Q"><path d="M129.58,386.19 C120.7,391.17 112.74,397.62 107,406 C97.25,420.25 106.91,430.93 123.2,438.76 " fill="none" id="_XZGTkLd9Ee2lCsB2iGU-8w-to-_6z-hsLKkEe2Y1pKtbIeM6Q" style="stroke:#181818;stroke-width:1.0;"/><polygon fill="#181818" points="127.96,440.9,121.3836,433.5685,123.3975,438.8547,118.1112,440.8685,127.96,440.9" style="stroke:#181818;stroke-width:1.0;"/><text fill="#000000" font-family="sans-serif" font-size="11" lengthAdjust="spacing" textLength="162" x="108" y="418.4189">4 - analyticData, authenticityProof</text></g><!--link _6z-hsLKkEe2Y1pKtbIeM6Q to _XZGTkLd9Ee2lCsB2iGU-8w--><g id="link__6z-hsLKkEe2Y1pKtbIeM6Q__XZGTkLd9Ee2lCsB2iGU-8w"><path d="M251.1,440.99 C268.18,432.44 280.96,420.69 272,406 C267.81,399.14 261.88,393.52 255.21,388.92 " fill="none" id="_6z-hsLKkEe2Y1pKtbIeM6Q-to-_XZGTkLd9Ee2lCsB2iGU-8w" style="stroke:#181818;stroke-width:1.0;"/><polygon fill="#181818" points="250.97,386.19,256.3776,394.4215,255.1759,388.8938,260.7036,387.6921,250.97,386.19" style="stroke:#181818;stroke-width:1.0;"/><text fill="#000000" font-family="sans-serif" font-size="11" lengthAdjust="spacing" textLength="75" x="275" y="418.4189">5 - analyticData</text></g><!--link _XZGTkLd9Ee2lCsB2iGU-8w to _3gL1YLZ4Ee2xLZp9hElpuA--><g id="link__XZGTkLd9Ee2lCsB2iGU-8w__3gL1YLZ4Ee2xLZp9hElpuA"><path d="M230.35,350.65 C237.04,345.29 243.27,338.71 247,331 C284.7,252.96 279.32,216.41 247,136 C244.65,130.15 240.86,124.7 236.62,119.9 " fill="none" id="_XZGTkLd9Ee2lCsB2iGU-8w-to-_3gL1YLZ4Ee2xLZp9hElpuA" style="stroke:#181818;stroke-width:1.0;"/><polygon fill="#181818" points="232.98,116.02,236.2161,125.322,236.3992,119.6681,242.0531,119.8513,232.98,116.02" style="stroke:#181818;stroke-width:1.0;"/><text fill="#000000" font-family="sans-serif" font-size="11" lengthAdjust="spacing" textLength="32" x="274" y="238.4189">6 - null</text></g><!--link _3gL1YLZ4Ee2xLZp9hElpuA to end--><g id="link__3gL1YLZ4Ee2xLZp9hElpuA_end"><path d="M211.43,116.22 C211.22,126.3 211.21,139.4 212,151 C212.5,158.38 213.57,166.54 214.59,173.27 " fill="none" id="_3gL1YLZ4Ee2xLZp9hElpuA-to-end" style="stroke:#181818;stroke-width:1.0;"/><polygon fill="#181818" points="215.42,178.54,217.9532,169.0225,214.6328,173.6024,210.053,170.282,215.42,178.54" style="stroke:#181818;stroke-width:1.0;"/><text fill="#000000" font-family="sans-serif" font-size="11" lengthAdjust="spacing" textLength="32" x="213" y="148.4189">7 - null</text></g><!--SRC=[qz3ILD3LjLE8Db3GLSWhpSc9LL2ADqxtCOpqYJ9nJJMgy8agiCnmpIaeTLJYmYa3CS8GQ4HYNc9EPKbciajYIIB8g894aoH77syBe8P8mmBlaYJFL5-pG91HE6GWHXbXCIexFhiyr2V54gWXnxdOoIZJFLJNeXna50uPY576M8oAY78FoSPg50uPY54cQ4RfA2IMbcIavW6vcIML0KNv-MaWqysgT3EAVRopCVsCGmPYkYdr76f6UMIQmutGqD840000]--></g></svg>