<?xml version="1.0" encoding="us-ascii" standalone="no"?><svg xmlns="http://www.w3.org/2000/svg" xmlns:xlink="http://www.w3.org/1999/xlink" contentStyleType="text/css" height="407px" preserveAspectRatio="none" style="width:521px;height:407px;background:#FFFFFF;" version="1.1" viewBox="0 0 521 407" width="521px" zoomAndPan="magnify"><defs/><g><ellipse cx="432.76" cy="16" fill="#222222" rx="10" ry="10" style="stroke:none;stroke-width:1.0;"/><rect fill="#F1F1F1" height="35.0938" rx="12.5" ry="12.5" style="stroke:#181818;stroke-width:0.5;" width="165" x="350.26" y="66"/><text fill="#000000" font-family="sans-serif" font-size="12" lengthAdjust="spacing" textLength="145" x="360.26" y="88.457">ViewEntryLevelSystemCall</text><rect fill="#F1F1F1" height="35.0938" rx="12.5" ry="12.5" style="stroke:#181818;stroke-width:0.5;" width="61" x="164.26" y="141"/><text fill="#000000" font-family="sans-serif" font-size="12" lengthAdjust="spacing" textLength="41" x="174.26" y="163.457">aName</text><rect fill="#F1F1F1" height="35.0938" rx="12.5" ry="12.5" style="stroke:#181818;stroke-width:0.5;" width="150" x="251.76" y="216"/><text fill="#000000" font-family="sans-serif" font-size="12" lengthAdjust="spacing" textLength="130" x="261.76" y="238.457">DatabaseLoadInventory</text><rect fill="#F1F1F1" height="35.0938" rx="12.5" ry="12.5" style="stroke:#181818;stroke-width:0.5;" width="71" x="291.26" y="291"/><text fill="#000000" font-family="sans-serif" font-size="12" lengthAdjust="spacing" textLength="51" x="301.26" y="313.457">RETURN</text><rect fill="#F1F1F1" height="35.0938" rx="12.5" ry="12.5" style="stroke:#181818;stroke-width:0.5;" width="159" x="89.26" y="366"/><text fill="#000000" font-family="sans-serif" font-size="12" lengthAdjust="spacing" textLength="139" x="99.26" y="388.457">BuyEntryLevelSystemCall</text><rect fill="#F1F1F1" height="35.0938" rx="12.5" ry="12.5" style="stroke:#181818;stroke-width:0.5;" width="124" x="106.76" y="291"/><text fill="#000000" font-family="sans-serif" font-size="12" lengthAdjust="spacing" textLength="104" x="116.76" y="313.457">StoreUserDataCall</text><rect fill="#F1F1F1" height="35.0938" rx="12.5" ry="12.5" style="stroke:#181818;stroke-width:0.5;" width="73" x="54.26" y="216"/><text fill="#000000" font-family="sans-serif" font-size="12" lengthAdjust="spacing" textLength="53" x="64.26" y="238.457">save data</text><!--link start to ViewEntryLevelSystemCall--><g id="link_start_ViewEntryLevelSystemCall"><path d="M432.76,26.11 C432.76,35.01 432.76,48.9 432.76,60.67 " fill="none" id="start-to-ViewEntryLevelSystemCall" style="stroke:#181818;stroke-width:1.0;"/><polygon fill="#181818" points="432.76,65.9,436.76,56.9,432.76,60.9,428.76,56.9,432.76,65.9" style="stroke:#181818;stroke-width:1.0;"/></g><!--link ViewEntryLevelSystemCall to aName--><g id="link_ViewEntryLevelSystemCall_aName"><path d="M378.75,101.06 C333.34,114.99 269.7,134.51 230.41,146.56 " fill="none" id="ViewEntryLevelSystemCall-to-aName" style="stroke:#181818;stroke-width:1.0;"/><polygon fill="#181818" points="225.27,148.14,235.0481,149.3184,230.0492,146.6706,232.697,141.6717,225.27,148.14" style="stroke:#181818;stroke-width:1.0;"/></g><!--link aName to DatabaseLoadInventory--><g id="link_aName_DatabaseLoadInventory"><path d="M218.31,176.06 C236.97,187.14 263.29,201.75 285.39,213.33 " fill="none" id="aName-to-DatabaseLoadInventory" style="stroke:#181818;stroke-width:1.0;"/><polygon fill="#181818" points="290.04,215.75,283.9161,208.0365,285.6086,213.4342,280.2109,215.1267,290.04,215.75" style="stroke:#181818;stroke-width:1.0;"/></g><!--link DatabaseLoadInventory to aName--><g id="link_DatabaseLoadInventory_aName"><path d="M303.21,215.94 C282.74,203.79 253.05,187.39 229.82,175.4 " fill="none" id="DatabaseLoadInventory-to-aName" style="stroke:#181818;stroke-width:1.0;"/><polygon fill="#181818" points="225.26,173.06,231.4431,180.7261,229.7091,175.3416,235.0936,173.6076,225.26,173.06" style="stroke:#181818;stroke-width:1.0;"/></g><!--link aName to RETURN--><g id="link_aName_RETURN"><path d="M200.38,176.22 C207.6,195.83 221.64,228.5 241.76,251 C255.14,265.98 273.33,278.77 289.46,288.37 " fill="none" id="aName-to-RETURN" style="stroke:#181818;stroke-width:1.0;"/><polygon fill="#181818" points="293.94,290.99,288.1979,282.9882,289.6263,288.4618,284.1527,289.8901,293.94,290.99" style="stroke:#181818;stroke-width:1.0;"/></g><!--link RETURN to DatabaseLoadInventory--><g id="link_RETURN_DatabaseLoadInventory"><path d="M333.18,290.75 C334.42,280.52 334.59,267.32 333.69,256.29 " fill="none" id="RETURN-to-DatabaseLoadInventory" style="stroke:#181818;stroke-width:1.0;"/><polygon fill="#181818" points="333.16,251.06,330.1073,260.4238,333.6745,256.0335,338.0649,259.6006,333.16,251.06" style="stroke:#181818;stroke-width:1.0;"/></g><!--link DatabaseLoadInventory to RETURN--><g id="link_DatabaseLoadInventory_RETURN"><path d="M320.35,251.06 C319.1,261.26 318.92,274.45 319.81,285.51 " fill="none" id="DatabaseLoadInventory-to-RETURN" style="stroke:#181818;stroke-width:1.0;"/><polygon fill="#181818" points="320.33,290.75,323.412,281.3958,319.8311,285.775,315.4519,282.1941,320.33,290.75" style="stroke:#181818;stroke-width:1.0;"/></g><!--link RETURN to ViewEntryLevelSystemCall--><g id="link_RETURN_ViewEntryLevelSystemCall"><path d="M362.45,292.6 C380.2,283.29 400.27,269.53 411.76,251 C439.87,205.63 438.5,139.93 435.45,106.23 " fill="none" id="RETURN-to-ViewEntryLevelSystemCall" style="stroke:#181818;stroke-width:1.0;"/><polygon fill="#181818" points="434.95,101.1,431.8415,110.4454,435.4348,106.0764,439.8038,109.6697,434.95,101.1" style="stroke:#181818;stroke-width:1.0;"/></g><!--link ViewEntryLevelSystemCall to BuyEntryLevelSystemCall--><g id="link_ViewEntryLevelSystemCall_BuyEntryLevelSystemCall"><path d="M440.06,101.44 C444.42,112.48 449.52,127.31 451.76,141 C454.27,156.35 453.49,160.54 451.76,176 C443.38,250.88 435.98,285.02 372.76,326 C337.19,349.05 292.27,362.8 253.64,370.95 " fill="none" id="ViewEntryLevelSystemCall-to-BuyEntryLevelSystemCall" style="stroke:#181818;stroke-width:1.0;"/><polygon fill="#181818" points="248.48,372.01,258.104,374.1027,253.3762,370.9965,256.4824,366.2687,248.48,372.01" style="stroke:#181818;stroke-width:1.0;"/></g><!--link BuyEntryLevelSystemCall to aName--><g id="link_BuyEntryLevelSystemCall_aName"><path d="M139.76,365.77 C92.05,336.07 6,272.02 44.76,216 C70.34,179.03 123.37,166.22 159.02,161.8 " fill="none" id="BuyEntryLevelSystemCall-to-aName" style="stroke:#181818;stroke-width:1.0;"/><polygon fill="#181818" points="164.14,161.21,154.7421,158.2639,159.1727,161.781,155.6556,166.2116,164.14,161.21" style="stroke:#181818;stroke-width:1.0;"/></g><!--link aName to aName--><g id="link_aName_aName"><path d="M225.33,144.64 C236.3,144.34 245.26,148.96 245.26,158.5 C245.26,166.4 239.12,170.93 230.77,172.08 " fill="none" id="aName-to-aName" style="stroke:#181818;stroke-width:1.0;"/><polygon fill="#181818" points="225.33,172.36,234.5236,175.8925,230.3234,172.1032,234.1127,167.903,225.33,172.36" style="stroke:#181818;stroke-width:1.0;"/></g><!--link aName to StoreUserDataCall--><g id="link_aName_StoreUserDataCall"><path d="M186.86,176.19 C178.98,202.95 169.56,255.47 167.11,285.34 " fill="none" id="aName-to-StoreUserDataCall" style="stroke:#181818;stroke-width:1.0;"/><polygon fill="#181818" points="166.74,290.64,171.3711,281.9479,167.0962,285.6527,163.3914,281.3779,166.74,290.64" style="stroke:#181818;stroke-width:1.0;"/></g><!--link StoreUserDataCall to aName--><g id="link_StoreUserDataCall_aName"><path d="M176.7,290.64 C184.59,263.78 193.99,211.25 196.41,181.47 " fill="none" id="StoreUserDataCall-to-aName" style="stroke:#181818;stroke-width:1.0;"/><polygon fill="#181818" points="196.78,176.19,192.172,184.8944,196.437,181.1782,200.1531,185.4432,196.78,176.19" style="stroke:#181818;stroke-width:1.0;"/></g><!--link aName to save data--><g id="link_aName_save data"><path d="M171.16,176.06 C155.71,186.91 135.44,201.14 119.11,212.6 " fill="none" id="aName-to-save data" style="stroke:#181818;stroke-width:1.0;"/><polygon fill="#181818" points="114.62,215.75,124.2865,213.8635,118.7155,212.8817,119.6973,207.3107,114.62,215.75" style="stroke:#181818;stroke-width:1.0;"/></g><!--link save data to StoreUserDataCall--><g id="link_save data_StoreUserDataCall"><path d="M108.46,251.06 C119.94,261.82 134.99,275.89 147.17,287.3 " fill="none" id="save data-to-StoreUserDataCall" style="stroke:#181818;stroke-width:1.0;"/><polygon fill="#181818" points="150.86,290.75,147.011,281.6844,147.2052,287.3379,141.5517,287.5321,150.86,290.75" style="stroke:#181818;stroke-width:1.0;"/></g><!--link StoreUserDataCall to BuyEntryLevelSystemCall--><g id="link_StoreUserDataCall_BuyEntryLevelSystemCall"><path d="M168.76,326.06 C168.76,336.26 168.76,349.45 168.76,360.51 " fill="none" id="StoreUserDataCall-to-BuyEntryLevelSystemCall" style="stroke:#181818;stroke-width:1.0;"/><polygon fill="#181818" points="168.76,365.75,172.76,356.75,168.76,360.75,164.76,356.75,168.76,365.75" style="stroke:#181818;stroke-width:1.0;"/></g><!--SRC=[qz3ILD3LjLDG2ijCBNVDAocgz4ajIyq9hYmkISrrJip9KUB2BGNHcUYNc9iAL0QX8M8kYIM9IOd5gJxvYIcUUMMfUINvHPL0DTZ5SPiJv1eI6kG758Goo3STkqda-zgfj1A7Hbmok7s9JImOwFRKqEBK8f2de2PZYk7MNvnObggG0bG754UmIJSRbsy0]--></g></svg>