<?xml version="1.0" encoding="us-ascii" standalone="no"?><svg xmlns="http://www.w3.org/2000/svg" xmlns:xlink="http://www.w3.org/1999/xlink" contentStyleType="text/css" height="662px" preserveAspectRatio="none" style="width:756px;height:662px;background:#FFFFFF;" version="1.1" viewBox="0 0 756 662" width="756px" zoomAndPan="magnify"><defs/><g><ellipse cx="594.5" cy="16" fill="#222222" rx="10" ry="10" style="stroke:none;stroke-width:1.0;"/><rect fill="#F1F1F1" height="35.0938" rx="12.5" ry="12.5" style="stroke:#181818;stroke-width:0.5;" width="270" x="459.5" y="81"/><text fill="#000000" font-family="sans-serif" font-size="12" lengthAdjust="spacing" textLength="250" x="469.5" y="103.457">ScanCertificate (_oJMyYLZ6Ee2xLZp9hElpuA)</text><rect fill="#F1F1F1" height="35.0938" rx="12.5" ry="12.5" style="stroke:#181818;stroke-width:0.5;" width="293" x="261" y="171"/><text fill="#000000" font-family="sans-serif" font-size="12" lengthAdjust="spacing" textLength="273" x="271" y="193.457">RetrieveCertificate (_wfCaQLK8Ee2Y1pKtbIeM6Q)</text><rect fill="#F1F1F1" height="35.0938" rx="12.5" ry="12.5" style="stroke:#181818;stroke-width:0.5;" width="290" x="356.5" y="261"/><text fill="#000000" font-family="sans-serif" font-size="12" lengthAdjust="spacing" textLength="270" x="366.5" y="283.457">RetrieveCertificate (_PAn3gLkDEe25g4oGy4Jxtw)</text><rect fill="#F1F1F1" height="35.0938" rx="12.5" ry="12.5" style="stroke:#181818;stroke-width:0.5;" width="273" x="276" y="351"/><text fill="#000000" font-family="sans-serif" font-size="12" lengthAdjust="spacing" textLength="253" x="286" y="373.457">IssueCertificate (_2v6MILKgEe2Y1pKtbIeM6Q)</text><rect fill="#F1F1F1" height="35.0938" rx="12.5" ry="12.5" style="stroke:#181818;stroke-width:0.5;" width="275" x="264" y="441"/><text fill="#000000" font-family="sans-serif" font-size="12" lengthAdjust="spacing" textLength="255" x="274" y="463.457">IssueCertificate (_jxGdwLdLEe2lCsB2iGU-8w)</text><rect fill="#F1F1F1" height="35.0938" rx="12.5" ry="12.5" style="stroke:#181818;stroke-width:0.5;" width="315" x="7" y="531"/><text fill="#000000" font-family="sans-serif" font-size="12" lengthAdjust="spacing" textLength="295" x="17" y="553.457">ReturnDigitalCertificate (_4HylELKgEe2Y1pKtbIeM6Q)</text><rect fill="#F1F1F1" height="35.0938" rx="12.5" ry="12.5" style="stroke:#181818;stroke-width:0.5;" width="320" x="103.5" y="621"/><text fill="#000000" font-family="sans-serif" font-size="12" lengthAdjust="spacing" textLength="300" x="113.5" y="643.457">ReturnDigitalCertificate (_FLa7oLdQEe2lCsB2iGU-8w)</text><rect fill="#F1F1F1" height="35.0938" rx="12.5" ry="12.5" style="stroke:#181818;stroke-width:0.5;" width="280" x="470.5" y="531"/><text fill="#000000" font-family="sans-serif" font-size="12" lengthAdjust="spacing" textLength="260" x="480.5" y="553.457">ReturnCertificate (_3tukQLdLEe2lCsB2iGU-8w)</text><ellipse cx="664.5" cy="188.5" fill="none" rx="10" ry="10" style="stroke:#222222;stroke-width:1.0;"/><ellipse cx="665" cy="189" fill="#222222" rx="6" ry="6" style="stroke:none;stroke-width:1.0;"/><!--link start to ScanCertificate (_oJMyYLZ6Ee2xLZp9hElpuA)--><g id="link_start_ScanCertificate (_oJMyYLZ6Ee2xLZp9hElpuA)"><path d="M594.5,26.23 C594.5,38.18 594.5,59.38 594.5,75.56 " fill="none" id="start-to-ScanCertificate (_oJMyYLZ6Ee2xLZp9hElpuA)" style="stroke:#181818;stroke-width:1.0;"/><polygon fill="#181818" points="594.5,80.84,598.5,71.84,594.5,75.84,590.5,71.84,594.5,80.84" style="stroke:#181818;stroke-width:1.0;"/><text fill="#000000" font-family="sans-serif" font-size="11" lengthAdjust="spacing" textLength="32" x="595.5" y="58.4189">0 - null</text></g><!--link ScanCertificate (_oJMyYLZ6Ee2xLZp9hElpuA) to RetrieveCertificate (_wfCaQLK8Ee2Y1pKtbIeM6Q)--><g id="link_ScanCertificate (_oJMyYLZ6Ee2xLZp9hElpuA)_RetrieveCertificate (_wfCaQLK8Ee2Y1pKtbIeM6Q)"><path d="M540.16,116.07 C523.89,121.7 506.21,128.48 490.5,136 C471.35,145.17 451.07,157.69 435.35,168.09 " fill="none" id="ScanCertificate (_oJMyYLZ6Ee2xLZp9hElpuA)-to-RetrieveCertificate (_wfCaQLK8Ee2Y1pKtbIeM6Q)" style="stroke:#181818;stroke-width:1.0;"/><polygon fill="#181818" points="431.05,170.96,440.7559,169.2882,435.2081,168.1832,436.3131,162.6353,431.05,170.96" style="stroke:#181818;stroke-width:1.0;"/><text fill="#000000" font-family="sans-serif" font-size="11" lengthAdjust="spacing" textLength="86" x="491.5" y="148.4189">1 - certificateData</text></g><!--link RetrieveCertificate (_wfCaQLK8Ee2Y1pKtbIeM6Q) to RetrieveCertificate (_PAn3gLkDEe25g4oGy4Jxtw)--><g id="link_RetrieveCertificate (_wfCaQLK8Ee2Y1pKtbIeM6Q)_RetrieveCertificate (_PAn3gLkDEe25g4oGy4Jxtw)"><path d="M425.18,206.05 C440.71,220.59 463.34,241.77 479.92,257.3 " fill="none" id="RetrieveCertificate (_wfCaQLK8Ee2Y1pKtbIeM6Q)-to-RetrieveCertificate (_PAn3gLkDEe25g4oGy4Jxtw)" style="stroke:#181818;stroke-width:1.0;"/><polygon fill="#181818" points="483.58,260.72,479.7487,251.6469,479.9319,257.3008,474.278,257.4839,483.58,260.72" style="stroke:#181818;stroke-width:1.0;"/><text fill="#000000" font-family="sans-serif" font-size="11" lengthAdjust="spacing" textLength="86" x="461.5" y="238.4189">2 - certificateData</text></g><!--link RetrieveCertificate (_PAn3gLkDEe25g4oGy4Jxtw) to IssueCertificate (_2v6MILKgEe2Y1pKtbIeM6Q)--><g id="link_RetrieveCertificate (_PAn3gLkDEe25g4oGy4Jxtw)_IssueCertificate (_2v6MILKgEe2Y1pKtbIeM6Q)"><path d="M484.76,296.05 C470.18,310.46 448.99,331.42 433.32,346.91 " fill="none" id="RetrieveCertificate (_PAn3gLkDEe25g4oGy4Jxtw)-to-IssueCertificate (_2v6MILKgEe2Y1pKtbIeM6Q)" style="stroke:#181818;stroke-width:1.0;"/><polygon fill="#181818" points="429.47,350.72,438.6836,347.2402,433.0269,347.206,433.0612,341.5492,429.47,350.72" style="stroke:#181818;stroke-width:1.0;"/><text fill="#000000" font-family="sans-serif" font-size="11" lengthAdjust="spacing" textLength="86" x="463.5" y="328.4189">3 - certificateData</text></g><!--link IssueCertificate (_2v6MILKgEe2Y1pKtbIeM6Q) to IssueCertificate (_jxGdwLdLEe2lCsB2iGU-8w)--><g id="link_IssueCertificate (_2v6MILKgEe2Y1pKtbIeM6Q)_IssueCertificate (_jxGdwLdLEe2lCsB2iGU-8w)"><path d="M410.43,386.05 C408.68,400.1 406.14,420.36 404.22,435.72 " fill="none" id="IssueCertificate (_2v6MILKgEe2Y1pKtbIeM6Q)-to-IssueCertificate (_jxGdwLdLEe2lCsB2iGU-8w)" style="stroke:#181818;stroke-width:1.0;"/><polygon fill="#181818" points="403.6,440.72,408.7004,432.2947,404.229,435.7597,400.7639,431.2883,403.6,440.72" style="stroke:#181818;stroke-width:1.0;"/><text fill="#000000" font-family="sans-serif" font-size="11" lengthAdjust="spacing" textLength="86" x="409.5" y="418.4189">4 - certificateData</text></g><!--link IssueCertificate (_jxGdwLdLEe2lCsB2iGU-8w) to ReturnDigitalCertificate (_4HylELKgEe2Y1pKtbIeM6Q)--><g id="link_IssueCertificate (_jxGdwLdLEe2lCsB2iGU-8w)_ReturnDigitalCertificate (_4HylELKgEe2Y1pKtbIeM6Q)"><path d="M322.07,476 C301.07,481.38 278.64,488.06 258.5,496 C236.48,504.68 213.13,517.45 195.21,528.11 " fill="none" id="IssueCertificate (_jxGdwLdLEe2lCsB2iGU-8w)-to-ReturnDigitalCertificate (_4HylELKgEe2Y1pKtbIeM6Q)" style="stroke:#181818;stroke-width:1.0;"/><polygon fill="#181818" points="190.78,530.76,200.5554,529.5595,195.0675,528.1875,196.4395,522.6996,190.78,530.76" style="stroke:#181818;stroke-width:1.0;"/><text fill="#000000" font-family="sans-serif" font-size="11" lengthAdjust="spacing" textLength="86" x="259.5" y="508.4189">5 - certificateData</text></g><!--link ReturnDigitalCertificate (_4HylELKgEe2Y1pKtbIeM6Q) to ReturnDigitalCertificate (_FLa7oLdQEe2lCsB2iGU-8w)--><g id="link_ReturnDigitalCertificate (_4HylELKgEe2Y1pKtbIeM6Q)_ReturnDigitalCertificate (_FLa7oLdQEe2lCsB2iGU-8w)"><path d="M183.12,566.05 C199.47,580.59 223.31,601.77 240.78,617.3 " fill="none" id="ReturnDigitalCertificate (_4HylELKgEe2Y1pKtbIeM6Q)-to-ReturnDigitalCertificate (_FLa7oLdQEe2lCsB2iGU-8w)" style="stroke:#181818;stroke-width:1.0;"/><polygon fill="#181818" points="244.63,620.72,240.5438,611.7588,240.8867,617.4053,235.2402,617.7482,244.63,620.72" style="stroke:#181818;stroke-width:1.0;"/><text fill="#000000" font-family="sans-serif" font-size="11" lengthAdjust="spacing" textLength="86" x="221.5" y="598.4189">6 - certificateData</text></g><!--link ReturnDigitalCertificate (_FLa7oLdQEe2lCsB2iGU-8w) to IssueCertificate (_jxGdwLdLEe2lCsB2iGU-8w)--><g id="link_ReturnDigitalCertificate (_FLa7oLdQEe2lCsB2iGU-8w)_IssueCertificate (_jxGdwLdLEe2lCsB2iGU-8w)"><path d="M290.23,620.86 C298.24,615.14 306.7,608.32 313.5,601 C348.29,563.52 377,510.33 391.43,481 " fill="none" id="ReturnDigitalCertificate (_FLa7oLdQEe2lCsB2iGU-8w)-to-IssueCertificate (_jxGdwLdLEe2lCsB2iGU-8w)" style="stroke:#181818;stroke-width:1.0;"/><polygon fill="#181818" points="393.79,476.16,386.2519,482.4985,391.5999,480.6548,393.4436,486.0028,393.79,476.16" style="stroke:#181818;stroke-width:1.0;"/><text fill="#000000" font-family="sans-serif" font-size="11" lengthAdjust="spacing" textLength="86" x="365.5" y="553.4189">7 - certificateData</text></g><!--link IssueCertificate (_jxGdwLdLEe2lCsB2iGU-8w) to ReturnCertificate (_3tukQLdLEe2lCsB2iGU-8w)--><g id="link_IssueCertificate (_jxGdwLdLEe2lCsB2iGU-8w)_ReturnCertificate (_3tukQLdLEe2lCsB2iGU-8w)"><path d="M425.14,476.11 C441.72,487.17 464.72,501.39 486.5,511 C502.73,518.16 520.77,524.38 537.94,529.56 " fill="none" id="IssueCertificate (_jxGdwLdLEe2lCsB2iGU-8w)-to-ReturnCertificate (_3tukQLdLEe2lCsB2iGU-8w)" style="stroke:#181818;stroke-width:1.0;"/><polygon fill="#181818" points="542.76,530.99,535.2802,524.5828,537.9689,529.5598,532.9919,532.2486,542.76,530.99" style="stroke:#181818;stroke-width:1.0;"/><text fill="#000000" font-family="sans-serif" font-size="11" lengthAdjust="spacing" textLength="86" x="487.5" y="508.4189">8 - certificateData</text></g><!--link ReturnCertificate (_3tukQLdLEe2lCsB2iGU-8w) to RetrieveCertificate (_PAn3gLkDEe25g4oGy4Jxtw)--><g id="link_ReturnCertificate (_3tukQLdLEe2lCsB2iGU-8w)_RetrieveCertificate (_PAn3gLkDEe25g4oGy4Jxtw)"><path d="M610.54,530.71 C609.83,490.13 603.18,384.98 555.5,316 C550.97,309.45 544.85,303.74 538.35,298.91 " fill="none" id="ReturnCertificate (_3tukQLdLEe2lCsB2iGU-8w)-to-RetrieveCertificate (_PAn3gLkDEe25g4oGy4Jxtw)" style="stroke:#181818;stroke-width:1.0;"/><polygon fill="#181818" points="534.27,296.01,539.2997,304.4777,538.3493,298.9013,543.9257,297.9509,534.27,296.01" style="stroke:#181818;stroke-width:1.0;"/><text fill="#000000" font-family="sans-serif" font-size="11" lengthAdjust="spacing" textLength="86" x="599.5" y="418.4189">9 - certificateData</text></g><!--link RetrieveCertificate (_PAn3gLkDEe25g4oGy4Jxtw) to ScanCertificate (_oJMyYLZ6Ee2xLZp9hElpuA)--><g id="link_RetrieveCertificate (_PAn3gLkDEe25g4oGy4Jxtw)_ScanCertificate (_oJMyYLZ6Ee2xLZp9hElpuA)"><path d="M532.27,260.99 C540.13,255.52 547.92,248.81 553.5,241 C579.68,204.37 589.24,151.2 592.66,121.57 " fill="none" id="RetrieveCertificate (_PAn3gLkDEe25g4oGy4Jxtw)-to-ScanCertificate (_oJMyYLZ6Ee2xLZp9hElpuA)" style="stroke:#181818;stroke-width:1.0;"/><polygon fill="#181818" points="593.23,116.32,588.2767,124.8326,592.6872,121.2905,596.2294,125.701,593.23,116.32" style="stroke:#181818;stroke-width:1.0;"/><text fill="#000000" font-family="sans-serif" font-size="11" lengthAdjust="spacing" textLength="38" x="584.5" y="193.4189">10 - null</text></g><!--link ScanCertificate (_oJMyYLZ6Ee2xLZp9hElpuA) to end--><g id="link_ScanCertificate (_oJMyYLZ6Ee2xLZp9hElpuA)_end"><path d="M607.67,116.05 C621.57,133.53 643.12,160.62 655.3,175.93 " fill="none" id="ScanCertificate (_oJMyYLZ6Ee2xLZp9hElpuA)-to-end" style="stroke:#181818;stroke-width:1.0;"/><polygon fill="#181818" points="658.47,179.92,655.9967,170.3867,655.357,176.0073,649.7364,175.3676,658.47,179.92" style="stroke:#181818;stroke-width:1.0;"/><text fill="#000000" font-family="sans-serif" font-size="11" lengthAdjust="spacing" textLength="38" x="634.5" y="148.4189">11 - null</text></g><!--SRC=[nTHFJuCm60Rmkv-YsGcMaCYVCNOncO38A8beF6p6c0eTrZMmG1dmxSKqqU30s1tS_UdpUzychJILWQ9SWQTBe82ielGPJ1vYbDcuO6HBOiGma5xoLTYkuSPqiTR0pNxnvj9zjPGd5m9PpgWT4t_d7SHG9zvZLX1ymFscUckZ20PMrxHMzm5xzN5eHf-gM9xBce1yjypq5EwShccM6hdN6gk6rUFoM9xB-g3ibsNreqOxcA4FW_HuOO4mDus_ck-DbzGmWLqDjSjhZNYFYbMFc6DXRix6RhWgCeUaX27QhpDkM-eExdl28Jw3AJh33KJp72RHyVud7E8ppCzmzzOlU_TxT5Rjea5K9CtLnTdUbFfV_vNwvKXJ-GC0]--></g></svg>