<?xml version="1.0" encoding="us-ascii" standalone="no"?><svg xmlns="http://www.w3.org/2000/svg" xmlns:xlink="http://www.w3.org/1999/xlink" contentStyleType="text/css" height="482px" preserveAspectRatio="none" style="width:650px;height:482px;background:#FFFFFF;" version="1.1" viewBox="0 0 650 482" width="650px" zoomAndPan="magnify"><defs/><g><ellipse cx="486.5" cy="16" fill="#222222" rx="10" ry="10" style="stroke:none;stroke-width:1.0;"/><rect fill="#F1F1F1" height="35.0938" rx="12.5" ry="12.5" style="stroke:#181818;stroke-width:0.5;" width="315" x="329" y="81"/><text fill="#000000" font-family="sans-serif" font-size="12" lengthAdjust="spacing" textLength="295" x="339" y="103.457">RequestLabStatistics (_u0tCcLRIEe25KMRnMCaMfw)</text><rect fill="#F1F1F1" height="35.0938" rx="12.5" ry="12.5" style="stroke:#181818;stroke-width:0.5;" width="233" x="221" y="171"/><text fill="#000000" font-family="sans-serif" font-size="12" lengthAdjust="spacing" textLength="213" x="231" y="193.457">GetStats (_-XiXsLNXEe2o46d27a6tVQ)</text><rect fill="#F1F1F1" height="35.0938" rx="12.5" ry="12.5" style="stroke:#181818;stroke-width:0.5;" width="246" x="201.5" y="261"/><text fill="#000000" font-family="sans-serif" font-size="12" lengthAdjust="spacing" textLength="226" x="211.5" y="283.457">GetStats (_2TsPMLm8Ee2dIMSi7oNVYQ)</text><rect fill="#F1F1F1" height="35.0938" rx="12.5" ry="12.5" style="stroke:#181818;stroke-width:0.5;" width="261" x="7" y="351"/><text fill="#000000" font-family="sans-serif" font-size="12" lengthAdjust="spacing" textLength="241" x="17" y="373.457">ReturnStats (__NZBoLNXEe2o46d27a6tVQ)</text><rect fill="#F1F1F1" height="35.0938" rx="12.5" ry="12.5" style="stroke:#181818;stroke-width:0.5;" width="264" x="91.5" y="441"/><text fill="#000000" font-family="sans-serif" font-size="12" lengthAdjust="spacing" textLength="244" x="101.5" y="463.457">ReturnStats (_gK7oULm8Ee2dIMSi7oNVYQ)</text><rect fill="#F1F1F1" height="35.0938" rx="12.5" ry="12.5" style="stroke:#181818;stroke-width:0.5;" width="264" x="362.5" y="351"/><text fill="#000000" font-family="sans-serif" font-size="12" lengthAdjust="spacing" textLength="244" x="372.5" y="373.457">ReturnStats (_3OJsULm8Ee2dIMSi7oNVYQ)</text><ellipse cx="527.5" cy="188.5" fill="none" rx="10" ry="10" style="stroke:#222222;stroke-width:1.0;"/><ellipse cx="528" cy="189" fill="#222222" rx="6" ry="6" style="stroke:none;stroke-width:1.0;"/><!--link start to RequestLabStatistics (_u0tCcLRIEe25KMRnMCaMfw)--><g id="link_start_RequestLabStatistics (_u0tCcLRIEe25KMRnMCaMfw)"><path d="M486.5,26.23 C486.5,38.18 486.5,59.38 486.5,75.56 " fill="none" id="start-to-RequestLabStatistics (_u0tCcLRIEe25KMRnMCaMfw)" style="stroke:#181818;stroke-width:1.0;"/><polygon fill="#181818" points="486.5,80.84,490.5,71.84,486.5,75.84,482.5,71.84,486.5,80.84" style="stroke:#181818;stroke-width:1.0;"/><text fill="#000000" font-family="sans-serif" font-size="11" lengthAdjust="spacing" textLength="32" x="487.5" y="58.4189">0 - null</text></g><!--link RequestLabStatistics (_u0tCcLRIEe25KMRnMCaMfw) to GetStats (_-XiXsLNXEe2o46d27a6tVQ)--><g id="link_RequestLabStatistics (_u0tCcLRIEe25KMRnMCaMfw)_GetStats (_-XiXsLNXEe2o46d27a6tVQ)"><path d="M458.47,116.05 C433.37,130.88 396.55,152.63 370.13,168.23 " fill="none" id="RequestLabStatistics (_u0tCcLRIEe25KMRnMCaMfw)-to-GetStats (_-XiXsLNXEe2o46d27a6tVQ)" style="stroke:#181818;stroke-width:1.0;"/><polygon fill="#181818" points="365.65,170.87,375.4345,169.7461,369.9575,168.3312,371.3724,162.8541,365.65,170.87" style="stroke:#181818;stroke-width:1.0;"/><text fill="#000000" font-family="sans-serif" font-size="11" lengthAdjust="spacing" textLength="32" x="422.5" y="148.4189">1 - null</text></g><!--link GetStats (_-XiXsLNXEe2o46d27a6tVQ) to GetStats (_2TsPMLm8Ee2dIMSi7oNVYQ)--><g id="link_GetStats (_-XiXsLNXEe2o46d27a6tVQ)_GetStats (_2TsPMLm8Ee2dIMSi7oNVYQ)"><path d="M335.05,206.05 C332.98,220.1 329.99,240.36 327.72,255.72 " fill="none" id="GetStats (_-XiXsLNXEe2o46d27a6tVQ)-to-GetStats (_2TsPMLm8Ee2dIMSi7oNVYQ)" style="stroke:#181818;stroke-width:1.0;"/><polygon fill="#181818" points="326.98,260.72,332.2497,252.3995,327.7091,255.7734,324.3352,251.2329,326.98,260.72" style="stroke:#181818;stroke-width:1.0;"/><text fill="#000000" font-family="sans-serif" font-size="11" lengthAdjust="spacing" textLength="32" x="333.5" y="238.4189">2 - null</text></g><!--link GetStats (_2TsPMLm8Ee2dIMSi7oNVYQ) to ReturnStats (__NZBoLNXEe2o46d27a6tVQ)--><g id="link_GetStats (_2TsPMLm8Ee2dIMSi7oNVYQ)_ReturnStats (__NZBoLNXEe2o46d27a6tVQ)"><path d="M289.33,296.05 C257.56,311 210.84,332.99 177.63,348.61 " fill="none" id="GetStats (_2TsPMLm8Ee2dIMSi7oNVYQ)-to-ReturnStats (__NZBoLNXEe2o46d27a6tVQ)" style="stroke:#181818;stroke-width:1.0;"/><polygon fill="#181818" points="172.83,350.87,182.6767,350.6616,177.3551,348.7431,179.2736,343.4215,172.83,350.87" style="stroke:#181818;stroke-width:1.0;"/><text fill="#000000" font-family="sans-serif" font-size="11" lengthAdjust="spacing" textLength="32" x="243.5" y="328.4189">3 - null</text></g><!--link ReturnStats (__NZBoLNXEe2o46d27a6tVQ) to ReturnStats (_gK7oULm8Ee2dIMSi7oNVYQ)--><g id="link_ReturnStats (__NZBoLNXEe2o46d27a6tVQ)_ReturnStats (_gK7oULm8Ee2dIMSi7oNVYQ)"><path d="M153.68,386.05 C167.76,400.46 188.24,421.42 203.38,436.91 " fill="none" id="ReturnStats (__NZBoLNXEe2o46d27a6tVQ)-to-ReturnStats (_gK7oULm8Ee2dIMSi7oNVYQ)" style="stroke:#181818;stroke-width:1.0;"/><polygon fill="#181818" points="207.1,440.72,203.6575,431.4924,203.6004,437.1489,197.9438,437.0918,207.1,440.72" style="stroke:#181818;stroke-width:1.0;"/><text fill="#000000" font-family="sans-serif" font-size="11" lengthAdjust="spacing" textLength="32" x="187.5" y="418.4189">4 - null</text></g><!--link ReturnStats (_gK7oULm8Ee2dIMSi7oNVYQ) to GetStats (_2TsPMLm8Ee2dIMSi7oNVYQ)--><g id="link_ReturnStats (_gK7oULm8Ee2dIMSi7oNVYQ)_GetStats (_2TsPMLm8Ee2dIMSi7oNVYQ)"><path d="M237.76,440.94 C249.39,426.93 265.76,405.98 277.5,386 C293.97,357.97 308.29,323.13 316.67,301.09 " fill="none" id="ReturnStats (_gK7oULm8Ee2dIMSi7oNVYQ)-to-GetStats (_2TsPMLm8Ee2dIMSi7oNVYQ)" style="stroke:#181818;stroke-width:1.0;"/><polygon fill="#181818" points="318.47,296.32,311.5388,303.317,316.6972,300.9952,319.019,306.1535,318.47,296.32" style="stroke:#181818;stroke-width:1.0;"/><text fill="#000000" font-family="sans-serif" font-size="11" lengthAdjust="spacing" textLength="32" x="297.5" y="373.4189">5 - null</text></g><!--link GetStats (_2TsPMLm8Ee2dIMSi7oNVYQ) to ReturnStats (_3OJsULm8Ee2dIMSi7oNVYQ)--><g id="link_GetStats (_2TsPMLm8Ee2dIMSi7oNVYQ)_ReturnStats (_3OJsULm8Ee2dIMSi7oNVYQ)"><path d="M356.48,296.05 C385.23,310.94 427.48,332.81 457.64,348.42 " fill="none" id="GetStats (_2TsPMLm8Ee2dIMSi7oNVYQ)-to-ReturnStats (_3OJsULm8Ee2dIMSi7oNVYQ)" style="stroke:#181818;stroke-width:1.0;"/><polygon fill="#181818" points="462.38,350.87,456.2264,343.1802,457.9397,348.5713,452.5486,350.2846,462.38,350.87" style="stroke:#181818;stroke-width:1.0;"/><text fill="#000000" font-family="sans-serif" font-size="11" lengthAdjust="spacing" textLength="32" x="421.5" y="328.4189">6 - null</text></g><!--link ReturnStats (_3OJsULm8Ee2dIMSi7oNVYQ) to RequestLabStatistics (_u0tCcLRIEe25KMRnMCaMfw)--><g id="link_ReturnStats (_3OJsULm8Ee2dIMSi7oNVYQ)_RequestLabStatistics (_u0tCcLRIEe25KMRnMCaMfw)"><path d="M494,350.74 C492.61,304.22 488.71,173.47 487.15,121.35 " fill="none" id="ReturnStats (_3OJsULm8Ee2dIMSi7oNVYQ)-to-RequestLabStatistics (_u0tCcLRIEe25KMRnMCaMfw)" style="stroke:#181818;stroke-width:1.0;"/><polygon fill="#181818" points="487,116.26,483.2587,125.3706,487.1428,121.258,491.2554,125.1421,487,116.26" style="stroke:#181818;stroke-width:1.0;"/><text fill="#000000" font-family="sans-serif" font-size="11" lengthAdjust="spacing" textLength="32" x="491.5" y="238.4189">7 - null</text></g><!--link RequestLabStatistics (_u0tCcLRIEe25KMRnMCaMfw) to end--><g id="link_RequestLabStatistics (_u0tCcLRIEe25KMRnMCaMfw)_end"><path d="M494.21,116.05 C502.05,132.87 514.03,158.6 521.28,174.16 " fill="none" id="RequestLabStatistics (_u0tCcLRIEe25KMRnMCaMfw)-to-end" style="stroke:#181818;stroke-width:1.0;"/><polygon fill="#181818" points="523.55,179.02,523.3926,169.1724,521.4465,174.484,516.135,172.5379,523.55,179.02" style="stroke:#181818;stroke-width:1.0;"/><text fill="#000000" font-family="sans-serif" font-size="11" lengthAdjust="spacing" textLength="32" x="509.5" y="148.4189">8 - null</text></g><!--SRC=[qz3ILD3LjLE8Db3GLSWhpSc9LL0AIYqiJIqkyKbC2Yv9BCaiBibCBbRGY2yrA75EzWdoT4qrClNs3ShpTKxqJIlNLE8YLGF4GaE4XUwf9I2D83sw4PaHnJv-4K0z-IPcAKRcYMObOO4WIuXG137O2Al1HY750Ru-kHP0FIcUli6Pvlb-OP7e1kDI137O63c8IagByc3QulsYdFAnEfeuTH3ZJN0Pd-vjdX-ArUd4gOCORqghO373vMvZVwzYOjoDInt4U7Dw9qmBk8KQMfe0]--></g></svg>