<?xml version="1.0" encoding="us-ascii" standalone="no"?><svg xmlns="http://www.w3.org/2000/svg" xmlns:xlink="http://www.w3.org/1999/xlink" contentStyleType="text/css" height="332px" preserveAspectRatio="none" style="width:457px;height:332px;background:#FFFFFF;" version="1.1" viewBox="0 0 457 332" width="457px" zoomAndPan="magnify"><defs/><g><ellipse cx="176.5" cy="16" fill="#222222" rx="10" ry="10" style="stroke:none;stroke-width:1.0;"/><rect fill="#F1F1F1" height="35.0938" rx="12.5" ry="12.5" style="stroke:#181818;stroke-width:0.5;" width="165" x="94" y="66"/><text fill="#000000" font-family="sans-serif" font-size="12" lengthAdjust="spacing" textLength="145" x="104" y="88.457">ViewEntryLevelSystemCall</text><rect fill="#F1F1F1" height="35.0938" rx="12.5" ry="12.5" style="stroke:#181818;stroke-width:0.5;" width="61" x="146" y="141"/><text fill="#000000" font-family="sans-serif" font-size="12" lengthAdjust="spacing" textLength="41" x="156" y="163.457">aName</text><rect fill="#F1F1F1" height="35.0938" rx="12.5" ry="12.5" style="stroke:#181818;stroke-width:0.5;" width="150" x="255.5" y="216"/><text fill="#000000" font-family="sans-serif" font-size="12" lengthAdjust="spacing" textLength="130" x="265.5" y="238.457">DatabaseLoadInventory</text><rect fill="#F1F1F1" height="35.0938" rx="12.5" ry="12.5" style="stroke:#181818;stroke-width:0.5;" width="71" x="348" y="291"/><text fill="#000000" font-family="sans-serif" font-size="12" lengthAdjust="spacing" textLength="51" x="358" y="313.457">RETURN</text><rect fill="#F1F1F1" height="35.0938" rx="12.5" ry="12.5" style="stroke:#181818;stroke-width:0.5;" width="159" x="7" y="291"/><text fill="#000000" font-family="sans-serif" font-size="12" lengthAdjust="spacing" textLength="139" x="17" y="313.457">BuyEntryLevelSystemCall</text><rect fill="#F1F1F1" height="35.0938" rx="12.5" ry="12.5" style="stroke:#181818;stroke-width:0.5;" width="117" x="118" y="216"/><text fill="#000000" font-family="sans-serif" font-size="12" lengthAdjust="spacing" textLength="97" x="128" y="238.457">SaveInventoryCall</text><!--link start to ViewEntryLevelSystemCall--><g id="link_start_ViewEntryLevelSystemCall"><path d="M176.5,26.11 C176.5,35.01 176.5,48.9 176.5,60.67 " fill="none" id="start-to-ViewEntryLevelSystemCall" style="stroke:#181818;stroke-width:1.0;"/><polygon fill="#181818" points="176.5,65.9,180.5,56.9,176.5,60.9,172.5,56.9,176.5,65.9" style="stroke:#181818;stroke-width:1.0;"/></g><!--link ViewEntryLevelSystemCall to aName--><g id="link_ViewEntryLevelSystemCall_aName"><path d="M176.5,101.06 C176.5,111.26 176.5,124.45 176.5,135.51 " fill="none" id="ViewEntryLevelSystemCall-to-aName" style="stroke:#181818;stroke-width:1.0;"/><polygon fill="#181818" points="176.5,140.75,180.5,131.75,176.5,135.75,172.5,131.75,176.5,140.75" style="stroke:#181818;stroke-width:1.0;"/></g><!--link aName to DatabaseLoadInventory--><g id="link_aName_DatabaseLoadInventory"><path d="M205.04,176.06 C227.31,187.27 258.5,202.1 284.27,213.74 " fill="none" id="aName-to-DatabaseLoadInventory" style="stroke:#181818;stroke-width:1.0;"/><polygon fill="#181818" points="289.02,215.87,282.4628,208.5213,284.4628,213.8128,279.1713,215.8129,289.02,215.87" style="stroke:#181818;stroke-width:1.0;"/></g><!--link DatabaseLoadInventory to aName--><g id="link_DatabaseLoadInventory_aName"><path d="M302.04,215.98 C276.56,203.15 239.34,185.56 211.95,173.44 " fill="none" id="DatabaseLoadInventory-to-aName" style="stroke:#181818;stroke-width:1.0;"/><polygon fill="#181818" points="207.3,171.39,213.9314,178.6718,211.8778,173.4008,217.1488,171.3472,207.3,171.39" style="stroke:#181818;stroke-width:1.0;"/></g><!--link aName to RETURN--><g id="link_aName_RETURN"><path d="M207.25,162.13 C265.82,167.84 389.84,183.57 415.5,216 C431.97,236.82 415.99,266.74 401.29,286.62 " fill="none" id="aName-to-RETURN" style="stroke:#181818;stroke-width:1.0;"/><polygon fill="#181818" points="398.19,290.71,406.82,285.9641,401.2151,286.7289,400.4502,281.124,398.19,290.71" style="stroke:#181818;stroke-width:1.0;"/></g><!--link RETURN to DatabaseLoadInventory--><g id="link_RETURN_DatabaseLoadInventory"><path d="M377.76,290.75 C371.35,280.15 361.48,266.36 352.28,255.09 " fill="none" id="RETURN-to-DatabaseLoadInventory" style="stroke:#181818;stroke-width:1.0;"/><polygon fill="#181818" points="348.93,251.06,351.6153,260.5357,352.1295,254.9023,357.763,255.4165,348.93,251.06" style="stroke:#181818;stroke-width:1.0;"/></g><!--link DatabaseLoadInventory to RETURN--><g id="link_DatabaseLoadInventory_RETURN"><path d="M336.13,251.06 C342.5,261.63 352.35,275.41 361.56,286.71 " fill="none" id="DatabaseLoadInventory-to-RETURN" style="stroke:#181818;stroke-width:1.0;"/><polygon fill="#181818" points="364.91,290.75,362.242,281.2694,361.7175,286.9019,356.085,286.3774,364.91,290.75" style="stroke:#181818;stroke-width:1.0;"/></g><!--link RETURN to ViewEntryLevelSystemCall--><g id="link_RETURN_ViewEntryLevelSystemCall"><path d="M404.19,290.73 C424.46,272.2 450.18,241.59 434.5,216 C396.63,154.19 319.56,120.29 259.47,102.47 " fill="none" id="RETURN-to-ViewEntryLevelSystemCall" style="stroke:#181818;stroke-width:1.0;"/><polygon fill="#181818" points="254.45,101,261.97,107.36,259.25,102.4,264.21,99.68,254.45,101" style="stroke:#181818;stroke-width:1.0;"/></g><!--link ViewEntryLevelSystemCall to BuyEntryLevelSystemCall--><g id="link_ViewEntryLevelSystemCall_BuyEntryLevelSystemCall"><path d="M160.74,101.08 C139.68,124.49 103.42,169.59 89.5,216 C82.57,239.1 82.8,266.96 84.14,285.82 " fill="none" id="ViewEntryLevelSystemCall-to-BuyEntryLevelSystemCall" style="stroke:#181818;stroke-width:1.0;"/><polygon fill="#181818" points="84.54,290.89,87.8074,281.5989,84.1401,285.906,79.8331,282.2387,84.54,290.89" style="stroke:#181818;stroke-width:1.0;"/></g><!--link BuyEntryLevelSystemCall to aName--><g id="link_BuyEntryLevelSystemCall_aName"><path d="M87.12,290.75 C88.53,271.4 93.07,239.27 107.5,216 C116.59,201.34 130.84,188.74 144.03,179.18 " fill="none" id="BuyEntryLevelSystemCall-to-aName" style="stroke:#181818;stroke-width:1.0;"/><polygon fill="#181818" points="148.45,176.06,138.7911,177.9849,144.366,178.9445,143.4063,184.5194,148.45,176.06" style="stroke:#181818;stroke-width:1.0;"/></g><!--link aName to aName--><g id="link_aName_aName"><path d="M207.07,144.64 C218.05,144.34 227,148.96 227,158.5 C227,166.4 220.86,170.93 212.52,172.08 " fill="none" id="aName-to-aName" style="stroke:#181818;stroke-width:1.0;"/><polygon fill="#181818" points="207.07,172.36,216.2636,175.8925,212.0634,172.1032,215.8527,167.903,207.07,172.36" style="stroke:#181818;stroke-width:1.0;"/></g><!--link aName to SaveInventoryCall--><g id="link_aName_SaveInventoryCall"><path d="M163.7,176.06 C161.17,186.35 160.82,199.69 162.66,210.81 " fill="none" id="aName-to-SaveInventoryCall" style="stroke:#181818;stroke-width:1.0;"/><polygon fill="#181818" points="163.65,215.75,165.7965,206.1379,162.6639,210.8482,157.9536,207.7156,163.65,215.75" style="stroke:#181818;stroke-width:1.0;"/></g><!--link SaveInventoryCall to aName--><g id="link_SaveInventoryCall_aName"><path d="M176.5,215.75 C176.5,205.52 176.5,192.32 176.5,181.29 " fill="none" id="SaveInventoryCall-to-aName" style="stroke:#181818;stroke-width:1.0;"/><polygon fill="#181818" points="176.5,176.06,172.5,185.06,176.5,181.06,180.5,185.06,176.5,176.06" style="stroke:#181818;stroke-width:1.0;"/></g><!--link aName to SaveInventoryCall--><g id="link_aName_SaveInventoryCall"><path d="M189.3,176.06 C191.83,186.35 192.18,199.69 190.34,210.81 " fill="none" id="aName-to-SaveInventoryCall-1" style="stroke:#181818;stroke-width:1.0;"/><polygon fill="#181818" points="189.35,215.75,195.0464,207.7156,190.3361,210.8482,187.2035,206.1379,189.35,215.75" style="stroke:#181818;stroke-width:1.0;"/></g><!--link SaveInventoryCall to BuyEntryLevelSystemCall--><g id="link_SaveInventoryCall_BuyEntryLevelSystemCall"><path d="M156.08,251.06 C142.71,261.91 125.17,276.14 111.04,287.6 " fill="none" id="SaveInventoryCall-to-BuyEntryLevelSystemCall" style="stroke:#181818;stroke-width:1.0;"/><polygon fill="#181818" points="107.15,290.75,116.6574,288.1791,111.0306,287.597,111.6127,281.9702,107.15,290.75" style="stroke:#181818;stroke-width:1.0;"/></g><!--SRC=[qz3ILD3LjLDG2ijCBNVDAocgz4ajIyq9hYmkISrrJip9KUB2BGNHcUYNc9iAL0QX8M8kYIM9IOd5gJxvYIcUUMMfUINvHPL0DTZ5SPiJv1eI6kG758Goo3STkqda-zgfj1A7Hbmok7s9JImuiImLxWUeoPXYrD6FoyK0]--></g></svg>