<?xml version="1.0" encoding="us-ascii" standalone="no"?><svg xmlns="http://www.w3.org/2000/svg" xmlns:xlink="http://www.w3.org/1999/xlink" contentStyleType="text/css" height="1022px" preserveAspectRatio="none" style="width:2544px;height:1022px;background:#FFFFFF;" version="1.1" viewBox="0 0 2544 1022" width="2544px" zoomAndPan="magnify"><defs/><g><ellipse cx="1768.5" cy="16" fill="#222222" rx="10" ry="10" style="stroke:none;stroke-width:1.0;"/><rect fill="#F1F1F1" height="35.0938" rx="12.5" ry="12.5" style="stroke:#181818;stroke-width:0.5;" width="349" x="1594" y="81"/><text fill="#000000" font-family="sans-serif" font-size="12" lengthAdjust="spacing" textLength="329" x="1604" y="103.457">EnterTeleTANandUploadKeys (_x9uVkLZ8Ee2xLZp9hElpuA)</text><rect fill="#F1F1F1" height="35.0938" rx="12.5" ry="12.5" style="stroke:#181818;stroke-width:0.5;" width="280" x="1253.5" y="171"/><text fill="#000000" font-family="sans-serif" font-size="12" lengthAdjust="spacing" textLength="260" x="1263.5" y="193.457">RequestToken (_umC4ULK8Ee2Y1pKtbIeM6Q)</text><rect fill="#F1F1F1" height="35.0938" rx="12.5" ry="12.5" style="stroke:#181818;stroke-width:0.5;" width="266" x="590.5" y="261"/><text fill="#000000" font-family="sans-serif" font-size="12" lengthAdjust="spacing" textLength="246" x="600.5" y="283.457">RequestToken (_L8fqELkBEe25g4oGy4Jxtw)</text><rect fill="#F1F1F1" height="35.0938" rx="12.5" ry="12.5" style="stroke:#181818;stroke-width:0.5;" width="276" x="327.5" y="351"/><text fill="#000000" font-family="sans-serif" font-size="12" lengthAdjust="spacing" textLength="256" x="337.5" y="373.457">GenerateToken (_LVVQ0bLJEe2Y1pKtbIeM6Q)</text><rect fill="#F1F1F1" height="35.0938" rx="12.5" ry="12.5" style="stroke:#181818;stroke-width:0.5;" width="276" x="238.5" y="441"/><text fill="#000000" font-family="sans-serif" font-size="12" lengthAdjust="spacing" textLength="256" x="248.5" y="463.457">GenerateToken (_lubcMLmzEe2dIMSi7oNVYQ)</text><rect fill="#F1F1F1" height="35.0938" rx="12.5" ry="12.5" style="stroke:#181818;stroke-width:0.5;" width="275" x="7" y="531"/><text fill="#000000" font-family="sans-serif" font-size="12" lengthAdjust="spacing" textLength="255" x="17" y="553.457">GenerateToken (_HvqKobLJEe2Y1pKtbIeM6Q)</text><rect fill="#F1F1F1" height="35.0938" rx="12.5" ry="12.5" style="stroke:#181818;stroke-width:0.5;" width="281" x="106" y="621"/><text fill="#000000" font-family="sans-serif" font-size="12" lengthAdjust="spacing" textLength="261" x="116" y="643.457">GenerateToken (_6PoE0LmyEe2dIMSi7oNVYQ)</text><rect fill="#F1F1F1" height="35.0938" rx="12.5" ry="12.5" style="stroke:#181818;stroke-width:0.5;" width="269" x="399" y="531"/><text fill="#000000" font-family="sans-serif" font-size="12" lengthAdjust="spacing" textLength="249" x="409" y="553.457">ReturnToken (_mx8HoLmzEe2dIMSi7oNVYQ)</text><rect fill="#F1F1F1" height="35.0938" rx="12.5" ry="12.5" style="stroke:#181818;stroke-width:0.5;" width="262" x="815.5" y="351"/><text fill="#000000" font-family="sans-serif" font-size="12" lengthAdjust="spacing" textLength="242" x="825.5" y="373.457">RequestTAN (_N9OLsLkBEe25g4oGy4Jxtw)</text><rect fill="#F1F1F1" height="35.0938" rx="12.5" ry="12.5" style="stroke:#181818;stroke-width:0.5;" width="260" x="697.5" y="441"/><text fill="#000000" font-family="sans-serif" font-size="12" lengthAdjust="spacing" textLength="240" x="707.5" y="463.457">GenerateTAN (_LVb-gbLJEe2Y1pKtbIeM6Q)</text><rect fill="#F1F1F1" height="35.0938" rx="12.5" ry="12.5" style="stroke:#181818;stroke-width:0.5;" width="272" x="688.5" y="531"/><text fill="#000000" font-family="sans-serif" font-size="12" lengthAdjust="spacing" textLength="252" x="698.5" y="553.457">GenerateTAN (_3FHbMLmzEe2dIMSi7oNVYQ)</text><rect fill="#F1F1F1" height="35.0938" rx="12.5" ry="12.5" style="stroke:#181818;stroke-width:0.5;" width="258" x="424.5" y="621"/><text fill="#000000" font-family="sans-serif" font-size="12" lengthAdjust="spacing" textLength="238" x="434.5" y="643.457">GenerateTAN (_pt55IbLGEe2Y1pKtbIeM6Q)</text><rect fill="#F1F1F1" height="35.0938" rx="12.5" ry="12.5" style="stroke:#181818;stroke-width:0.5;" width="280" x="412.5" y="711"/><text fill="#000000" font-family="sans-serif" font-size="12" lengthAdjust="spacing" textLength="260" x="422.5" y="733.457">GenerateTAN (_QMHmwLmyEe2dIMSi7oNVYQ)</text><rect fill="#F1F1F1" height="35.0938" rx="12.5" ry="12.5" style="stroke:#181818;stroke-width:0.5;" width="250" x="855.5" y="621"/><text fill="#000000" font-family="sans-serif" font-size="12" lengthAdjust="spacing" textLength="230" x="865.5" y="643.457">ReturnTAN (_5fVa4LmzEe2dIMSi7oNVYQ)</text><rect fill="#F1F1F1" height="35.0938" rx="12.5" ry="12.5" style="stroke:#181818;stroke-width:0.5;" width="261" x="1408" y="441"/><text fill="#000000" font-family="sans-serif" font-size="12" lengthAdjust="spacing" textLength="241" x="1418" y="463.457">GetOwnKeys (_QwI_QLkBEe25g4oGy4Jxtw)</text><rect fill="#F1F1F1" height="35.0938" rx="12.5" ry="12.5" style="stroke:#181818;stroke-width:0.5;" width="306" x="1180.5" y="531"/><text fill="#000000" font-family="sans-serif" font-size="12" lengthAdjust="spacing" textLength="286" x="1190.5" y="553.457">TriggerBroadcasting (_edH98LIBEe2fRLFFhL_FWA)</text><rect fill="#F1F1F1" height="35.0938" rx="12.5" ry="12.5" style="stroke:#181818;stroke-width:0.5;" width="309" x="1129" y="621"/><text fill="#000000" font-family="sans-serif" font-size="12" lengthAdjust="spacing" textLength="289" x="1139" y="643.457">TriggerBroadcasting (_G0Cp0LdREe2lCsB2iGU-8w)</text><rect fill="#F1F1F1" height="35.0938" rx="12.5" ry="12.5" style="stroke:#181818;stroke-width:0.5;" width="306" x="712.5" y="711"/><text fill="#000000" font-family="sans-serif" font-size="12" lengthAdjust="spacing" textLength="286" x="722.5" y="733.457">SimulateRPIExchange (_flc38LIBEe2fRLFFhL_FWA)</text><rect fill="#F1F1F1" height="35.0938" rx="12.5" ry="12.5" style="stroke:#181818;stroke-width:0.5;" width="319" x="699" y="801"/><text fill="#000000" font-family="sans-serif" font-size="12" lengthAdjust="spacing" textLength="299" x="709" y="823.457">SimulateRPIExchange (_mSwfALdHEe2lCsB2iGU-8w)</text><rect fill="#F1F1F1" height="35.0938" rx="12.5" ry="12.5" style="stroke:#181818;stroke-width:0.5;" width="308" x="833.5" y="891"/><text fill="#000000" font-family="sans-serif" font-size="12" lengthAdjust="spacing" textLength="288" x="843.5" y="913.457">StoreExchangedRPIs (_tbmxALdHEe2lCsB2iGU-8w)</text><rect fill="#F1F1F1" height="35.0938" rx="12.5" ry="12.5" style="stroke:#181818;stroke-width:0.5;" width="231" x="873" y="981"/><text fill="#000000" font-family="sans-serif" font-size="12" lengthAdjust="spacing" textLength="211" x="883" y="1003.457">aName (_jASAELIBEe2fRLFFhL_FWA)</text><rect fill="#F1F1F1" height="35.0938" rx="12.5" ry="12.5" style="stroke:#181818;stroke-width:0.5;" width="364" x="1152.5" y="711"/><text fill="#000000" font-family="sans-serif" font-size="12" lengthAdjust="spacing" textLength="344" x="1162.5" y="733.457">RetrieveOwnKeysFromStorage (_RqhgoLdQEe2lCsB2iGU-8w)</text><rect fill="#F1F1F1" height="35.0938" rx="12.5" ry="12.5" style="stroke:#181818;stroke-width:0.5;" width="247" x="1081" y="801"/><text fill="#000000" font-family="sans-serif" font-size="12" lengthAdjust="spacing" textLength="227" x="1091" y="823.457">LoadRPIs (_h0_4sLIBEe2fRLFFhL_FWA)</text><rect fill="#F1F1F1" height="35.0938" rx="12.5" ry="12.5" style="stroke:#181818;stroke-width:0.5;" width="241" x="1236" y="891"/><text fill="#000000" font-family="sans-serif" font-size="12" lengthAdjust="spacing" textLength="221" x="1246" y="913.457">LoadRPIs (_MPkXALnFEe2hSdAxtFJKiA)</text><rect fill="#F1F1F1" height="35.0938" rx="12.5" ry="12.5" style="stroke:#181818;stroke-width:0.5;" width="280" x="1428.5" y="801"/><text fill="#000000" font-family="sans-serif" font-size="12" lengthAdjust="spacing" textLength="260" x="1438.5" y="823.457">ReturnOwnKeys (_Xg1GULdIEe2lCsB2iGU-8w)</text><rect fill="#F1F1F1" height="35.0938" rx="12.5" ry="12.5" style="stroke:#181818;stroke-width:0.5;" width="253" x="1650" y="531"/><text fill="#000000" font-family="sans-serif" font-size="12" lengthAdjust="spacing" textLength="233" x="1660" y="553.457">UploadKeys (_V__IQLkBEe25g4oGy4Jxtw)</text><rect fill="#F1F1F1" height="35.0938" rx="12.5" ry="12.5" style="stroke:#181818;stroke-width:0.5;" width="237" x="1792" y="621"/><text fill="#000000" font-family="sans-serif" font-size="12" lengthAdjust="spacing" textLength="217" x="1802" y="643.457">VerifyTAN (_zxhBMLLIEe2Y1pKtbIeM6Q)</text><rect fill="#F1F1F1" height="35.0938" rx="12.5" ry="12.5" style="stroke:#181818;stroke-width:0.5;" width="243" x="1879" y="711"/><text fill="#000000" font-family="sans-serif" font-size="12" lengthAdjust="spacing" textLength="223" x="1889" y="733.457">VerifyTAN (_zqW-0LmjEe2dIMSi7oNVYQ)</text><rect fill="#F1F1F1" height="35.0938" rx="12.5" ry="12.5" style="stroke:#181818;stroke-width:0.5;" width="239" x="1729" y="801"/><text fill="#000000" font-family="sans-serif" font-size="12" lengthAdjust="spacing" textLength="219" x="1739" y="823.457">Validate (_fZnOULNUEe2o46d27a6tVQ)</text><rect fill="#F1F1F1" height="35.0938" rx="12.5" ry="12.5" style="stroke:#181818;stroke-width:0.5;" width="241" x="1747" y="891"/><text fill="#000000" font-family="sans-serif" font-size="12" lengthAdjust="spacing" textLength="221" x="1757" y="913.457">Validate (_kSKnoLm1Ee2dIMSi7oNVYQ)</text><rect fill="#F1F1F1" height="35.0938" rx="12.5" ry="12.5" style="stroke:#181818;stroke-width:0.5;" width="236" x="1721.5" y="981"/><text fill="#000000" font-family="sans-serif" font-size="12" lengthAdjust="spacing" textLength="216" x="1731.5" y="1003.457">aName (_puBN4bLGEe2Y1pKtbIeM6Q)</text><rect fill="#F1F1F1" height="35.0938" rx="12.5" ry="12.5" style="stroke:#181818;stroke-width:0.5;" width="255" x="2145" y="801"/><text fill="#000000" font-family="sans-serif" font-size="12" lengthAdjust="spacing" textLength="235" x="2155" y="823.457">StoreKeys (_AwCboLmkEe2dIMSi7oNVYQ)</text><rect fill="#F1F1F1" height="35.0938" rx="12.5" ry="12.5" style="stroke:#181818;stroke-width:0.5;" width="257" x="2087" y="891"/><text fill="#000000" font-family="sans-serif" font-size="12" lengthAdjust="spacing" textLength="237" x="2097" y="913.457">StoreKeys (_DXYRULmkEe2dIMSi7oNVYQ)</text><rect fill="#F1F1F1" height="35.0938" rx="12.5" ry="12.5" style="stroke:#181818;stroke-width:0.5;" width="238" x="2035.5" y="981"/><text fill="#000000" font-family="sans-serif" font-size="12" lengthAdjust="spacing" textLength="218" x="2045.5" y="1003.457">aName (_nw3iQLNWEe2o46d27a6tVQ)</text><rect fill="#F1F1F1" height="35.0938" rx="12.5" ry="12.5" style="stroke:#181818;stroke-width:0.5;" width="234" x="2304.5" y="981"/><text fill="#000000" font-family="sans-serif" font-size="12" lengthAdjust="spacing" textLength="214" x="2314.5" y="1003.457">aName (_9DElMrmkEe2dIMSi7oNVYQ)</text><ellipse cx="1809.5" cy="188.5" fill="none" rx="10" ry="10" style="stroke:#222222;stroke-width:1.0;"/><ellipse cx="1810" cy="189" fill="#222222" rx="6" ry="6" style="stroke:none;stroke-width:1.0;"/><!--link start to EnterTeleTANandUploadKeys (_x9uVkLZ8Ee2xLZp9hElpuA)--><g id="link_start_EnterTeleTANandUploadKeys (_x9uVkLZ8Ee2xLZp9hElpuA)"><path d="M1768.5,26.23 C1768.5,38.18 1768.5,59.38 1768.5,75.56 " fill="none" id="start-to-EnterTeleTANandUploadKeys (_x9uVkLZ8Ee2xLZp9hElpuA)" style="stroke:#181818;stroke-width:1.0;"/><polygon fill="#181818" points="1768.5,80.84,1772.5,71.84,1768.5,75.84,1764.5,71.84,1768.5,80.84" style="stroke:#181818;stroke-width:1.0;"/><text fill="#000000" font-family="sans-serif" font-size="11" lengthAdjust="spacing" textLength="32" x="1769.5" y="58.4189">0 - null</text></g><!--link EnterTeleTANandUploadKeys (_x9uVkLZ8Ee2xLZp9hElpuA) to RequestToken (_umC4ULK8Ee2Y1pKtbIeM6Q)--><g id="link_EnterTeleTANandUploadKeys (_x9uVkLZ8Ee2xLZp9hElpuA)_RequestToken (_umC4ULK8Ee2Y1pKtbIeM6Q)"><path d="M1697.97,116.05 C1632.73,131.36 1536.03,154.05 1469.2,169.74 " fill="none" id="EnterTeleTANandUploadKeys (_x9uVkLZ8Ee2xLZp9hElpuA)-to-RequestToken (_umC4ULK8Ee2Y1pKtbIeM6Q)" style="stroke:#181818;stroke-width:1.0;"/><polygon fill="#181818" points="1464.04,170.95,1473.7157,172.7886,1468.9078,169.808,1471.8885,165.0001,1464.04,170.95" style="stroke:#181818;stroke-width:1.0;"/><text fill="#000000" font-family="sans-serif" font-size="11" lengthAdjust="spacing" textLength="54" x="1604.5" y="148.4189">1 - teleTAN</text></g><!--link RequestToken (_umC4ULK8Ee2Y1pKtbIeM6Q) to RequestToken (_L8fqELkBEe25g4oGy4Jxtw)--><g id="link_RequestToken (_umC4ULK8Ee2Y1pKtbIeM6Q)_RequestToken (_L8fqELkBEe25g4oGy4Jxtw)"><path d="M1267.87,206 C1149.98,221.48 974.35,244.55 854.69,260.27 " fill="none" id="RequestToken (_umC4ULK8Ee2Y1pKtbIeM6Q)-to-RequestToken (_L8fqELkBEe25g4oGy4Jxtw)" style="stroke:#181818;stroke-width:1.0;"/><polygon fill="#181818" points="849.39,260.97,858.8376,263.7526,854.3466,260.3129,857.7863,255.822,849.39,260.97" style="stroke:#181818;stroke-width:1.0;"/><text fill="#000000" font-family="sans-serif" font-size="11" lengthAdjust="spacing" textLength="54" x="1100.5" y="238.4189">2 - teleTAN</text></g><!--link RequestToken (_L8fqELkBEe25g4oGy4Jxtw) to GenerateToken (_LVVQ0bLJEe2Y1pKtbIeM6Q)--><g id="link_RequestToken (_L8fqELkBEe25g4oGy4Jxtw)_GenerateToken (_LVVQ0bLJEe2Y1pKtbIeM6Q)"><path d="M631.17,296.02 C608.37,301.3 584.26,307.92 562.5,316 C539.6,324.5 515.32,337.4 496.78,348.16 " fill="none" id="RequestToken (_L8fqELkBEe25g4oGy4Jxtw)-to-GenerateToken (_LVVQ0bLJEe2Y1pKtbIeM6Q)" style="stroke:#181818;stroke-width:1.0;"/><polygon fill="#181818" points="492.19,350.84,501.9773,349.7401,496.5037,348.3118,497.9321,342.8382,492.19,350.84" style="stroke:#181818;stroke-width:1.0;"/><text fill="#000000" font-family="sans-serif" font-size="11" lengthAdjust="spacing" textLength="54" x="563.5" y="328.4189">3 - teleTAN</text></g><!--link GenerateToken (_LVVQ0bLJEe2Y1pKtbIeM6Q) to GenerateToken (_lubcMLmzEe2dIMSi7oNVYQ)--><g id="link_GenerateToken (_LVVQ0bLJEe2Y1pKtbIeM6Q)_GenerateToken (_lubcMLmzEe2dIMSi7oNVYQ)"><path d="M448.76,386.05 C434.18,400.46 412.99,421.42 397.32,436.91 " fill="none" id="GenerateToken (_LVVQ0bLJEe2Y1pKtbIeM6Q)-to-GenerateToken (_lubcMLmzEe2dIMSi7oNVYQ)" style="stroke:#181818;stroke-width:1.0;"/><polygon fill="#181818" points="393.47,440.72,402.6836,437.2402,397.0269,437.206,397.0612,431.5492,393.47,440.72" style="stroke:#181818;stroke-width:1.0;"/><text fill="#000000" font-family="sans-serif" font-size="11" lengthAdjust="spacing" textLength="54" x="427.5" y="418.4189">4 - teleTAN</text></g><!--link GenerateToken (_lubcMLmzEe2dIMSi7oNVYQ) to GenerateToken (_HvqKobLJEe2Y1pKtbIeM6Q)--><g id="link_GenerateToken (_lubcMLmzEe2dIMSi7oNVYQ)_GenerateToken (_HvqKobLJEe2Y1pKtbIeM6Q)"><path d="M327.92,476.04 C310.39,482.14 290.5,489.22 272.5,496 C244.65,506.48 213.69,518.92 189.2,528.94 " fill="none" id="GenerateToken (_lubcMLmzEe2dIMSi7oNVYQ)-to-GenerateToken (_HvqKobLJEe2Y1pKtbIeM6Q)" style="stroke:#181818;stroke-width:1.0;"/><polygon fill="#181818" points="184.39,530.91,194.2348,531.1927,189.0155,529.0113,191.1968,523.7919,184.39,530.91" style="stroke:#181818;stroke-width:1.0;"/><text fill="#000000" font-family="sans-serif" font-size="11" lengthAdjust="spacing" textLength="32" x="273.5" y="508.4189">5 - null</text></g><!--link GenerateToken (_HvqKobLJEe2Y1pKtbIeM6Q) to GenerateToken (_6PoE0LmyEe2dIMSi7oNVYQ)--><g id="link_GenerateToken (_HvqKobLJEe2Y1pKtbIeM6Q)_GenerateToken (_6PoE0LmyEe2dIMSi7oNVYQ)"><path d="M163.69,566.05 C180.53,580.59 205.09,601.77 223.09,617.3 " fill="none" id="GenerateToken (_HvqKobLJEe2Y1pKtbIeM6Q)-to-GenerateToken (_6PoE0LmyEe2dIMSi7oNVYQ)" style="stroke:#181818;stroke-width:1.0;"/><polygon fill="#181818" points="227.05,620.72,222.8557,611.8089,223.2668,617.4508,217.625,617.8619,227.05,620.72" style="stroke:#181818;stroke-width:1.0;"/><text fill="#000000" font-family="sans-serif" font-size="11" lengthAdjust="spacing" textLength="32" x="203.5" y="598.4189">6 - null</text></g><!--link GenerateToken (_6PoE0LmyEe2dIMSi7oNVYQ) to GenerateToken (_lubcMLmzEe2dIMSi7oNVYQ)--><g id="link_GenerateToken (_6PoE0LmyEe2dIMSi7oNVYQ)_GenerateToken (_lubcMLmzEe2dIMSi7oNVYQ)"><path d="M258.6,620.93 C282.37,588.39 335.1,516.19 361.22,480.42 " fill="none" id="GenerateToken (_6PoE0LmyEe2dIMSi7oNVYQ)-to-GenerateToken (_lubcMLmzEe2dIMSi7oNVYQ)" style="stroke:#181818;stroke-width:1.0;"/><polygon fill="#181818" points="364.27,476.25,355.7199,481.1382,361.3113,480.2807,362.1689,485.8721,364.27,476.25" style="stroke:#181818;stroke-width:1.0;"/><text fill="#000000" font-family="sans-serif" font-size="11" lengthAdjust="spacing" textLength="54" x="323.5" y="553.4189">7 - teleTAN</text></g><!--link GenerateToken (_lubcMLmzEe2dIMSi7oNVYQ) to ReturnToken (_mx8HoLmzEe2dIMSi7oNVYQ)--><g id="link_GenerateToken (_lubcMLmzEe2dIMSi7oNVYQ)_ReturnToken (_mx8HoLmzEe2dIMSi7oNVYQ)"><path d="M406.03,476.05 C432.59,490.94 471.6,512.81 499.46,528.42 " fill="none" id="GenerateToken (_lubcMLmzEe2dIMSi7oNVYQ)-to-ReturnToken (_mx8HoLmzEe2dIMSi7oNVYQ)" style="stroke:#181818;stroke-width:1.0;"/><polygon fill="#181818" points="503.84,530.87,497.9458,522.9796,499.4787,528.4248,494.0335,529.9577,503.84,530.87" style="stroke:#181818;stroke-width:1.0;"/><text fill="#000000" font-family="sans-serif" font-size="11" lengthAdjust="spacing" textLength="54" x="465.5" y="508.4189">8 - teleTAN</text></g><!--link ReturnToken (_mx8HoLmzEe2dIMSi7oNVYQ) to RequestToken (_L8fqELkBEe25g4oGy4Jxtw)--><g id="link_ReturnToken (_mx8HoLmzEe2dIMSi7oNVYQ)_RequestToken (_L8fqELkBEe25g4oGy4Jxtw)"><path d="M545.38,530.74 C578.56,483.94 672.18,351.89 708.67,300.41 " fill="none" id="ReturnToken (_mx8HoLmzEe2dIMSi7oNVYQ)-to-RequestToken (_L8fqELkBEe25g4oGy4Jxtw)" style="stroke:#181818;stroke-width:1.0;"/><polygon fill="#181818" points="711.61,296.26,703.1306,301.2699,708.7092,300.3325,709.6466,305.9112,711.61,296.26" style="stroke:#181818;stroke-width:1.0;"/><text fill="#000000" font-family="sans-serif" font-size="11" lengthAdjust="spacing" textLength="54" x="634.5" y="418.4189">9 - teleTAN</text></g><!--link RequestToken (_L8fqELkBEe25g4oGy4Jxtw) to RequestTAN (_N9OLsLkBEe25g4oGy4Jxtw)--><g id="link_RequestToken (_L8fqELkBEe25g4oGy4Jxtw)_RequestTAN (_N9OLsLkBEe25g4oGy4Jxtw)"><path d="M765.44,296.05 C803.63,311.12 859.95,333.35 899.61,349 " fill="none" id="RequestToken (_L8fqELkBEe25g4oGy4Jxtw)-to-RequestTAN (_N9OLsLkBEe25g4oGy4Jxtw)" style="stroke:#181818;stroke-width:1.0;"/><polygon fill="#181818" points="904.36,350.87,897.4632,343.8391,899.7108,349.0303,894.5196,351.2779,904.36,350.87" style="stroke:#181818;stroke-width:1.0;"/><text fill="#000000" font-family="sans-serif" font-size="11" lengthAdjust="spacing" textLength="60" x="849.5" y="328.4189">10 - teleTAN</text></g><!--link RequestTAN (_N9OLsLkBEe25g4oGy4Jxtw) to GenerateTAN (_LVb-gbLJEe2Y1pKtbIeM6Q)--><g id="link_RequestTAN (_N9OLsLkBEe25g4oGy4Jxtw)_GenerateTAN (_LVb-gbLJEe2Y1pKtbIeM6Q)"><path d="M901.94,386.06 C890.43,391.46 878.48,398.13 868.5,406 C857.67,414.55 847.93,426.49 840.67,436.72 " fill="none" id="RequestTAN (_N9OLsLkBEe25g4oGy4Jxtw)-to-GenerateTAN (_LVb-gbLJEe2Y1pKtbIeM6Q)" style="stroke:#181818;stroke-width:1.0;"/><polygon fill="#181818" points="837.71,440.99,846.129,435.8793,840.562,436.8832,839.5581,431.3161,837.71,440.99" style="stroke:#181818;stroke-width:1.0;"/><text fill="#000000" font-family="sans-serif" font-size="11" lengthAdjust="spacing" textLength="105" x="869.5" y="418.4189">11 - registrationToken</text></g><!--link GenerateTAN (_LVb-gbLJEe2Y1pKtbIeM6Q) to GenerateTAN (_3FHbMLmzEe2dIMSi7oNVYQ)--><g id="link_GenerateTAN (_LVb-gbLJEe2Y1pKtbIeM6Q)_GenerateTAN (_3FHbMLmzEe2dIMSi7oNVYQ)"><path d="M826.94,476.05 C826.46,490.1 825.77,510.36 825.24,525.72 " fill="none" id="GenerateTAN (_LVb-gbLJEe2Y1pKtbIeM6Q)-to-GenerateTAN (_3FHbMLmzEe2dIMSi7oNVYQ)" style="stroke:#181818;stroke-width:1.0;"/><polygon fill="#181818" points="825.07,530.72,829.376,521.8623,825.2413,525.7229,821.3807,521.5882,825.07,530.72" style="stroke:#181818;stroke-width:1.0;"/><text fill="#000000" font-family="sans-serif" font-size="11" lengthAdjust="spacing" textLength="105" x="827.5" y="508.4189">12 - registrationToken</text></g><!--link GenerateTAN (_3FHbMLmzEe2dIMSi7oNVYQ) to GenerateTAN (_pt55IbLGEe2Y1pKtbIeM6Q)--><g id="link_GenerateTAN (_3FHbMLmzEe2dIMSi7oNVYQ)_GenerateTAN (_pt55IbLGEe2Y1pKtbIeM6Q)"><path d="M739.72,566.01 C716.08,571.48 690.56,578.19 667.5,586 C641,594.97 612.3,607.96 590.32,618.64 " fill="none" id="GenerateTAN (_3FHbMLmzEe2dIMSi7oNVYQ)-to-GenerateTAN (_pt55IbLGEe2Y1pKtbIeM6Q)" style="stroke:#181818;stroke-width:1.0;"/><polygon fill="#181818" points="585.74,620.89,595.5818,620.5183,590.2292,618.6883,592.0591,613.3356,585.74,620.89" style="stroke:#181818;stroke-width:1.0;"/><text fill="#000000" font-family="sans-serif" font-size="11" lengthAdjust="spacing" textLength="38" x="668.5" y="598.4189">13 - null</text></g><!--link GenerateTAN (_pt55IbLGEe2Y1pKtbIeM6Q) to GenerateTAN (_QMHmwLmyEe2dIMSi7oNVYQ)--><g id="link_GenerateTAN (_pt55IbLGEe2Y1pKtbIeM6Q)_GenerateTAN (_QMHmwLmyEe2dIMSi7oNVYQ)"><path d="M553.31,656.05 C553.15,670.1 552.92,690.36 552.75,705.72 " fill="none" id="GenerateTAN (_pt55IbLGEe2Y1pKtbIeM6Q)-to-GenerateTAN (_QMHmwLmyEe2dIMSi7oNVYQ)" style="stroke:#181818;stroke-width:1.0;"/><polygon fill="#181818" points="552.69,710.72,556.7926,701.7663,552.7471,705.7203,548.7931,701.6749,552.69,710.72" style="stroke:#181818;stroke-width:1.0;"/><text fill="#000000" font-family="sans-serif" font-size="11" lengthAdjust="spacing" textLength="38" x="554.5" y="688.4189">14 - null</text></g><!--link GenerateTAN (_QMHmwLmyEe2dIMSi7oNVYQ) to GenerateTAN (_3FHbMLmzEe2dIMSi7oNVYQ)--><g id="link_GenerateTAN (_QMHmwLmyEe2dIMSi7oNVYQ)_GenerateTAN (_3FHbMLmzEe2dIMSi7oNVYQ)"><path d="M589.91,710.98 C618.8,697.62 659.3,677.54 692.5,656 C703.72,648.72 765.45,598.17 800.38,569.41 " fill="none" id="GenerateTAN (_QMHmwLmyEe2dIMSi7oNVYQ)-to-GenerateTAN (_3FHbMLmzEe2dIMSi7oNVYQ)" style="stroke:#181818;stroke-width:1.0;"/><polygon fill="#181818" points="804.51,566.01,795.0236,568.6572,800.6549,569.194,800.118,574.8254,804.51,566.01" style="stroke:#181818;stroke-width:1.0;"/><text fill="#000000" font-family="sans-serif" font-size="11" lengthAdjust="spacing" textLength="105" x="737.5" y="643.4189">15 - registrationToken</text></g><!--link GenerateTAN (_3FHbMLmzEe2dIMSi7oNVYQ) to ReturnTAN (_5fVa4LmzEe2dIMSi7oNVYQ)--><g id="link_GenerateTAN (_3FHbMLmzEe2dIMSi7oNVYQ)_ReturnTAN (_5fVa4LmzEe2dIMSi7oNVYQ)"><path d="M834.99,566 C842.94,577.3 854.81,591.85 868.5,601 C879.55,608.39 892.22,614.38 904.96,619.21 " fill="none" id="GenerateTAN (_3FHbMLmzEe2dIMSi7oNVYQ)-to-ReturnTAN (_5fVa4LmzEe2dIMSi7oNVYQ)" style="stroke:#181818;stroke-width:1.0;"/><polygon fill="#181818" points="909.65,620.93,902.5722,614.0813,904.9544,619.2121,899.8236,621.5943,909.65,620.93" style="stroke:#181818;stroke-width:1.0;"/><text fill="#000000" font-family="sans-serif" font-size="11" lengthAdjust="spacing" textLength="105" x="869.5" y="598.4189">16 - registrationToken</text></g><!--link ReturnTAN (_5fVa4LmzEe2dIMSi7oNVYQ) to RequestTAN (_N9OLsLkBEe25g4oGy4Jxtw)--><g id="link_ReturnTAN (_5fVa4LmzEe2dIMSi7oNVYQ)_RequestTAN (_N9OLsLkBEe25g4oGy4Jxtw)"><path d="M983.84,620.83 C990.89,581.79 1004.47,482.01 976.5,406 C974.42,400.35 971.06,394.93 967.34,390.09 " fill="none" id="ReturnTAN (_5fVa4LmzEe2dIMSi7oNVYQ)-to-RequestTAN (_N9OLsLkBEe25g4oGy4Jxtw)" style="stroke:#181818;stroke-width:1.0;"/><polygon fill="#181818" points="964.14,386.16,966.728,395.6627,967.3,390.0349,972.9278,390.6068,964.14,386.16" style="stroke:#181818;stroke-width:1.0;"/><text fill="#000000" font-family="sans-serif" font-size="11" lengthAdjust="spacing" textLength="60" x="994.5" y="508.4189">17 - teleTAN</text></g><!--link RequestTAN (_N9OLsLkBEe25g4oGy4Jxtw) to GetOwnKeys (_QwI_QLkBEe25g4oGy4Jxtw)--><g id="link_RequestTAN (_N9OLsLkBEe25g4oGy4Jxtw)_GetOwnKeys (_QwI_QLkBEe25g4oGy4Jxtw)"><path d="M1057.5,386 C1161.56,401.47 1316.54,424.51 1422.27,440.22 " fill="none" id="RequestTAN (_N9OLsLkBEe25g4oGy4Jxtw)-to-GetOwnKeys (_QwI_QLkBEe25g4oGy4Jxtw)" style="stroke:#181818;stroke-width:1.0;"/><polygon fill="#181818" points="1427.26,440.97,1418.9544,435.6768,1422.3155,440.2269,1417.7655,443.588,1427.26,440.97" style="stroke:#181818;stroke-width:1.0;"/><text fill="#000000" font-family="sans-serif" font-size="11" lengthAdjust="spacing" textLength="60" x="1279.5" y="418.4189">18 - teleTAN</text></g><!--link GetOwnKeys (_QwI_QLkBEe25g4oGy4Jxtw) to TriggerBroadcasting (_edH98LIBEe2fRLFFhL_FWA)--><g id="link_GetOwnKeys (_QwI_QLkBEe25g4oGy4Jxtw)_TriggerBroadcasting (_edH98LIBEe2fRLFFhL_FWA)"><path d="M1499.94,476.05 C1464.98,491.06 1413.48,513.17 1377.05,528.81 " fill="none" id="GetOwnKeys (_QwI_QLkBEe25g4oGy4Jxtw)-to-TriggerBroadcasting (_edH98LIBEe2fRLFFhL_FWA)" style="stroke:#181818;stroke-width:1.0;"/><polygon fill="#181818" points="1372.23,530.87,1382.078,531.0013,1376.8257,528.9004,1378.9266,523.6481,1372.23,530.87" style="stroke:#181818;stroke-width:1.0;"/><text fill="#000000" font-family="sans-serif" font-size="11" lengthAdjust="spacing" textLength="38" x="1449.5" y="508.4189">19 - null</text></g><!--link TriggerBroadcasting (_edH98LIBEe2fRLFFhL_FWA) to TriggerBroadcasting (_G0Cp0LdREe2lCsB2iGU-8w)--><g id="link_TriggerBroadcasting (_edH98LIBEe2fRLFFhL_FWA)_TriggerBroadcasting (_G0Cp0LdREe2lCsB2iGU-8w)"><path d="M1324.1,566.05 C1316.05,580.22 1304.4,600.71 1295.65,616.12 " fill="none" id="TriggerBroadcasting (_edH98LIBEe2fRLFFhL_FWA)-to-TriggerBroadcasting (_G0Cp0LdREe2lCsB2iGU-8w)" style="stroke:#181818;stroke-width:1.0;"/><polygon fill="#181818" points="1293.03,620.72,1300.9579,614.8763,1295.503,616.3744,1294.0049,610.9195,1293.03,620.72" style="stroke:#181818;stroke-width:1.0;"/><text fill="#000000" font-family="sans-serif" font-size="11" lengthAdjust="spacing" textLength="38" x="1312.5" y="598.4189">20 - null</text></g><!--link TriggerBroadcasting (_G0Cp0LdREe2lCsB2iGU-8w) to SimulateRPIExchange (_flc38LIBEe2fRLFFhL_FWA)--><g id="link_TriggerBroadcasting (_G0Cp0LdREe2lCsB2iGU-8w)_SimulateRPIExchange (_flc38LIBEe2fRLFFhL_FWA)"><path d="M1128.76,655.16 C1073.29,661.56 1017.94,669.07 991.5,676 C961.17,683.94 928.44,697.48 903.94,708.69 " fill="none" id="TriggerBroadcasting (_G0Cp0LdREe2lCsB2iGU-8w)-to-SimulateRPIExchange (_flc38LIBEe2fRLFFhL_FWA)" style="stroke:#181818;stroke-width:1.0;"/><polygon fill="#181818" points="899.16,710.89,909.0078,710.7444,903.6985,708.792,905.651,703.4828,899.16,710.89" style="stroke:#181818;stroke-width:1.0;"/><text fill="#000000" font-family="sans-serif" font-size="11" lengthAdjust="spacing" textLength="40" x="992.5" y="688.4189">21 - rpis</text></g><!--link SimulateRPIExchange (_flc38LIBEe2fRLFFhL_FWA) to SimulateRPIExchange (_mSwfALdHEe2lCsB2iGU-8w)--><g id="link_SimulateRPIExchange (_flc38LIBEe2fRLFFhL_FWA)_SimulateRPIExchange (_mSwfALdHEe2lCsB2iGU-8w)"><path d="M864.18,746.05 C863.07,760.1 861.45,780.36 860.23,795.72 " fill="none" id="SimulateRPIExchange (_flc38LIBEe2fRLFFhL_FWA)-to-SimulateRPIExchange (_mSwfALdHEe2lCsB2iGU-8w)" style="stroke:#181818;stroke-width:1.0;"/><polygon fill="#181818" points="859.83,800.72,864.5369,792.0687,860.2299,795.736,856.5626,791.4289,859.83,800.72" style="stroke:#181818;stroke-width:1.0;"/><text fill="#000000" font-family="sans-serif" font-size="11" lengthAdjust="spacing" textLength="40" x="863.5" y="778.4189">22 - rpis</text></g><!--link SimulateRPIExchange (_mSwfALdHEe2lCsB2iGU-8w) to StoreExchangedRPIs (_tbmxALdHEe2lCsB2iGU-8w)--><g id="link_SimulateRPIExchange (_mSwfALdHEe2lCsB2iGU-8w)_StoreExchangedRPIs (_tbmxALdHEe2lCsB2iGU-8w)"><path d="M882.76,836.05 C904.34,850.77 935.91,872.31 958.75,887.89 " fill="none" id="SimulateRPIExchange (_mSwfALdHEe2lCsB2iGU-8w)-to-StoreExchangedRPIs (_tbmxALdHEe2lCsB2iGU-8w)" style="stroke:#181818;stroke-width:1.0;"/><polygon fill="#181818" points="962.91,890.72,957.7264,882.3456,958.7786,887.9038,953.2204,888.9559,962.91,890.72" style="stroke:#181818;stroke-width:1.0;"/><text fill="#000000" font-family="sans-serif" font-size="11" lengthAdjust="spacing" textLength="40" x="932.5" y="868.4189">23 - rpis</text></g><!--link StoreExchangedRPIs (_tbmxALdHEe2lCsB2iGU-8w) to aName (_jASAELIBEe2fRLFFhL_FWA)--><g id="link_StoreExchangedRPIs (_tbmxALdHEe2lCsB2iGU-8w)_aName (_jASAELIBEe2fRLFFhL_FWA)"><path d="M966.82,926.22 C957.52,935.88 949.6,948.55 954.5,961 C956.78,966.79 960.46,972.21 964.57,977 " fill="none" id="StoreExchangedRPIs (_tbmxALdHEe2lCsB2iGU-8w)-to-aName (_jASAELIBEe2fRLFFhL_FWA)" style="stroke:#181818;stroke-width:1.0;"/><polygon fill="#181818" points="968.11,980.88,964.9869,971.5394,964.7353,977.1907,959.084,976.939,968.11,980.88" style="stroke:#181818;stroke-width:1.0;"/><text fill="#000000" font-family="sans-serif" font-size="11" lengthAdjust="spacing" textLength="40" x="955.5" y="958.4189">24 - rpis</text></g><!--link aName (_jASAELIBEe2fRLFFhL_FWA) to StoreExchangedRPIs (_tbmxALdHEe2lCsB2iGU-8w)--><g id="link_aName (_jASAELIBEe2fRLFFhL_FWA)_StoreExchangedRPIs (_tbmxALdHEe2lCsB2iGU-8w)"><path d="M994.04,980.85 C996.73,970.79 999.07,957.69 997.5,946 C996.84,941.12 995.72,935.97 994.45,931.13 " fill="none" id="aName (_jASAELIBEe2fRLFFhL_FWA)-to-StoreExchangedRPIs (_tbmxALdHEe2lCsB2iGU-8w)" style="stroke:#181818;stroke-width:1.0;"/><polygon fill="#181818" points="993.03,926.02,991.5952,935.7638,994.3734,930.8362,999.301,933.6144,993.03,926.02" style="stroke:#181818;stroke-width:1.0;"/><text fill="#000000" font-family="sans-serif" font-size="11" lengthAdjust="spacing" textLength="40" x="999.5" y="958.4189">25 - rpis</text></g><!--link StoreExchangedRPIs (_tbmxALdHEe2lCsB2iGU-8w) to TriggerBroadcasting (_G0Cp0LdREe2lCsB2iGU-8w)--><g id="link_StoreExchangedRPIs (_tbmxALdHEe2lCsB2iGU-8w)_TriggerBroadcasting (_G0Cp0LdREe2lCsB2iGU-8w)"><path d="M997.15,890.73 C1018.96,854.03 1075.41,765.55 1142.5,711 C1170.08,688.58 1205.84,670.54 1234.45,658.19 " fill="none" id="StoreExchangedRPIs (_tbmxALdHEe2lCsB2iGU-8w)-to-TriggerBroadcasting (_G0Cp0LdREe2lCsB2iGU-8w)" style="stroke:#181818;stroke-width:1.0;"/><polygon fill="#181818" points="1239.34,656.11,1229.4924,655.9528,1234.7391,658.0675,1232.6244,663.3142,1239.34,656.11" style="stroke:#181818;stroke-width:1.0;"/><text fill="#000000" font-family="sans-serif" font-size="11" lengthAdjust="spacing" textLength="38" x="1087.5" y="778.4189">26 - null</text></g><!--link TriggerBroadcasting (_G0Cp0LdREe2lCsB2iGU-8w) to RetrieveOwnKeysFromStorage (_RqhgoLdQEe2lCsB2iGU-8w)--><g id="link_TriggerBroadcasting (_G0Cp0LdREe2lCsB2iGU-8w)_RetrieveOwnKeysFromStorage (_RqhgoLdQEe2lCsB2iGU-8w)"><path d="M1293.09,656.05 C1301.3,670.22 1313.18,690.71 1322.11,706.12 " fill="none" id="TriggerBroadcasting (_G0Cp0LdREe2lCsB2iGU-8w)-to-RetrieveOwnKeysFromStorage (_RqhgoLdQEe2lCsB2iGU-8w)" style="stroke:#181818;stroke-width:1.0;"/><polygon fill="#181818" points="1324.78,710.72,1323.7285,700.9274,1322.2731,706.3938,1316.8067,704.9384,1324.78,710.72" style="stroke:#181818;stroke-width:1.0;"/><text fill="#000000" font-family="sans-serif" font-size="11" lengthAdjust="spacing" textLength="38" x="1313.5" y="688.4189">27 - null</text></g><!--link RetrieveOwnKeysFromStorage (_RqhgoLdQEe2lCsB2iGU-8w) to LoadRPIs (_h0_4sLIBEe2fRLFFhL_FWA)--><g id="link_RetrieveOwnKeysFromStorage (_RqhgoLdQEe2lCsB2iGU-8w)_LoadRPIs (_h0_4sLIBEe2fRLFFhL_FWA)"><path d="M1310.05,746.05 C1288.31,760.77 1256.49,782.31 1233.47,797.89 " fill="none" id="RetrieveOwnKeysFromStorage (_RqhgoLdQEe2lCsB2iGU-8w)-to-LoadRPIs (_h0_4sLIBEe2fRLFFhL_FWA)" style="stroke:#181818;stroke-width:1.0;"/><polygon fill="#181818" points="1229.28,800.72,1238.9724,798.9715,1233.416,797.9104,1234.477,792.354,1229.28,800.72" style="stroke:#181818;stroke-width:1.0;"/><text fill="#000000" font-family="sans-serif" font-size="11" lengthAdjust="spacing" textLength="38" x="1278.5" y="778.4189">28 - null</text></g><!--link LoadRPIs (_h0_4sLIBEe2fRLFFhL_FWA) to LoadRPIs (_MPkXALnFEe2hSdAxtFJKiA)--><g id="link_LoadRPIs (_h0_4sLIBEe2fRLFFhL_FWA)_LoadRPIs (_MPkXALnFEe2hSdAxtFJKiA)"><path d="M1233.09,836.05 C1258.7,850.88 1296.26,872.63 1323.21,888.23 " fill="none" id="LoadRPIs (_h0_4sLIBEe2fRLFFhL_FWA)-to-LoadRPIs (_MPkXALnFEe2hSdAxtFJKiA)" style="stroke:#181818;stroke-width:1.0;"/><polygon fill="#181818" points="1327.78,890.87,1321.987,882.905,1323.4503,888.3693,1317.9859,889.8326,1327.78,890.87" style="stroke:#181818;stroke-width:1.0;"/><text fill="#000000" font-family="sans-serif" font-size="11" lengthAdjust="spacing" textLength="38" x="1291.5" y="868.4189">29 - null</text></g><!--link LoadRPIs (_MPkXALnFEe2hSdAxtFJKiA) to RetrieveOwnKeysFromStorage (_RqhgoLdQEe2lCsB2iGU-8w)--><g id="link_LoadRPIs (_MPkXALnFEe2hSdAxtFJKiA)_RetrieveOwnKeysFromStorage (_RqhgoLdQEe2lCsB2iGU-8w)"><path d="M1354.45,890.93 C1350.46,858.65 1341.65,787.36 1337.19,751.3 " fill="none" id="LoadRPIs (_MPkXALnFEe2hSdAxtFJKiA)-to-RetrieveOwnKeysFromStorage (_RqhgoLdQEe2lCsB2iGU-8w)" style="stroke:#181818;stroke-width:1.0;"/><polygon fill="#181818" points="1336.57,746.25,1333.7072,755.6736,1337.1849,751.212,1341.6464,754.6898,1336.57,746.25" style="stroke:#181818;stroke-width:1.0;"/><text fill="#000000" font-family="sans-serif" font-size="11" lengthAdjust="spacing" textLength="38" x="1348.5" y="823.4189">30 - null</text></g><!--link RetrieveOwnKeysFromStorage (_RqhgoLdQEe2lCsB2iGU-8w) to ReturnOwnKeys (_Xg1GULdIEe2lCsB2iGU-8w)--><g id="link_RetrieveOwnKeysFromStorage (_RqhgoLdQEe2lCsB2iGU-8w)_ReturnOwnKeys (_Xg1GULdIEe2lCsB2iGU-8w)"><path d="M1378.51,746.05 C1418.67,761.15 1477.92,783.44 1519.55,799.09 " fill="none" id="RetrieveOwnKeysFromStorage (_RqhgoLdQEe2lCsB2iGU-8w)-to-ReturnOwnKeys (_Xg1GULdIEe2lCsB2iGU-8w)" style="stroke:#181818;stroke-width:1.0;"/><polygon fill="#181818" points="1524.29,800.87,1517.2675,793.9646,1519.6084,799.1144,1514.4585,801.4552,1524.29,800.87" style="stroke:#181818;stroke-width:1.0;"/><text fill="#000000" font-family="sans-serif" font-size="11" lengthAdjust="spacing" textLength="38" x="1467.5" y="778.4189">31 - null</text></g><!--link ReturnOwnKeys (_Xg1GULdIEe2lCsB2iGU-8w) to GetOwnKeys (_QwI_QLkBEe25g4oGy4Jxtw)--><g id="link_ReturnOwnKeys (_Xg1GULdIEe2lCsB2iGU-8w)_GetOwnKeys (_QwI_QLkBEe25g4oGy4Jxtw)"><path d="M1568.2,800.96 C1567.91,783.27 1567.5,754.4 1567.5,729.5 C1567.5,547.5 1567.5,547.5 1567.5,547.5 C1567.5,523.83 1557.92,498.29 1549.77,480.86 " fill="none" id="ReturnOwnKeys (_Xg1GULdIEe2lCsB2iGU-8w)-to-GetOwnKeys (_QwI_QLkBEe25g4oGy4Jxtw)" style="stroke:#181818;stroke-width:1.0;"/><polygon fill="#181818" points="1547.52,476.16,1547.8166,486.0044,1549.6874,480.6658,1555.0259,482.5366,1547.52,476.16" style="stroke:#181818;stroke-width:1.0;"/><text fill="#000000" font-family="sans-serif" font-size="11" lengthAdjust="spacing" textLength="60" x="1568.5" y="643.4189">32 - teleTAN</text></g><!--link GetOwnKeys (_QwI_QLkBEe25g4oGy4Jxtw) to UploadKeys (_V__IQLkBEe25g4oGy4Jxtw)--><g id="link_GetOwnKeys (_QwI_QLkBEe25g4oGy4Jxtw)_UploadKeys (_V__IQLkBEe25g4oGy4Jxtw)"><path d="M1583.27,476.05 C1624.11,491.15 1684.37,513.44 1726.72,529.09 " fill="none" id="GetOwnKeys (_QwI_QLkBEe25g4oGy4Jxtw)-to-UploadKeys (_V__IQLkBEe25g4oGy4Jxtw)" style="stroke:#181818;stroke-width:1.0;"/><polygon fill="#181818" points="1731.53,530.87,1724.4891,523.9834,1726.8437,529.1269,1721.7001,531.4815,1731.53,530.87" style="stroke:#181818;stroke-width:1.0;"/><text fill="#000000" font-family="sans-serif" font-size="11" lengthAdjust="spacing" textLength="60" x="1673.5" y="508.4189">33 - teleTAN</text></g><!--link UploadKeys (_V__IQLkBEe25g4oGy4Jxtw) to VerifyTAN (_zxhBMLLIEe2Y1pKtbIeM6Q)--><g id="link_UploadKeys (_V__IQLkBEe25g4oGy4Jxtw)_VerifyTAN (_zxhBMLLIEe2Y1pKtbIeM6Q)"><path d="M1801.7,566.05 C1824.11,580.77 1856.91,602.31 1880.63,617.89 " fill="none" id="UploadKeys (_V__IQLkBEe25g4oGy4Jxtw)-to-VerifyTAN (_zxhBMLLIEe2Y1pKtbIeM6Q)" style="stroke:#181818;stroke-width:1.0;"/><polygon fill="#181818" points="1884.95,620.72,1879.6276,612.4331,1880.7722,617.973,1875.2324,619.1176,1884.95,620.72" style="stroke:#181818;stroke-width:1.0;"/><text fill="#000000" font-family="sans-serif" font-size="11" lengthAdjust="spacing" textLength="114" x="1852.5" y="598.4189">34 - diagnosisKeys, tan</text></g><!--link VerifyTAN (_zxhBMLLIEe2Y1pKtbIeM6Q) to VerifyTAN (_zqW-0LmjEe2dIMSi7oNVYQ)--><g id="link_VerifyTAN (_zxhBMLLIEe2Y1pKtbIeM6Q)_VerifyTAN (_zqW-0LmjEe2dIMSi7oNVYQ)"><path d="M1927.43,656.05 C1942.17,670.46 1963.6,691.42 1979.44,706.91 " fill="none" id="VerifyTAN (_zxhBMLLIEe2Y1pKtbIeM6Q)-to-VerifyTAN (_zqW-0LmjEe2dIMSi7oNVYQ)" style="stroke:#181818;stroke-width:1.0;"/><polygon fill="#181818" points="1983.34,710.72,1979.7118,701.5638,1979.7689,707.2204,1974.1124,707.2775,1983.34,710.72" style="stroke:#181818;stroke-width:1.0;"/><text fill="#000000" font-family="sans-serif" font-size="11" lengthAdjust="spacing" textLength="114" x="1961.5" y="688.4189">35 - diagnosisKeys, tan</text></g><!--link VerifyTAN (_zqW-0LmjEe2dIMSi7oNVYQ) to Validate (_fZnOULNUEe2o46d27a6tVQ)--><g id="link_VerifyTAN (_zqW-0LmjEe2dIMSi7oNVYQ)_Validate (_fZnOULNUEe2o46d27a6tVQ)"><path d="M1971.91,746.05 C1946.3,760.88 1908.74,782.63 1881.79,798.23 " fill="none" id="VerifyTAN (_zqW-0LmjEe2dIMSi7oNVYQ)-to-Validate (_fZnOULNUEe2o46d27a6tVQ)" style="stroke:#181818;stroke-width:1.0;"/><polygon fill="#181818" points="1877.22,800.87,1887.0141,799.8326,1881.5497,798.3693,1883.013,792.905,1877.22,800.87" style="stroke:#181818;stroke-width:1.0;"/><text fill="#000000" font-family="sans-serif" font-size="11" lengthAdjust="spacing" textLength="37" x="1934.5" y="778.4189">36 - tan</text></g><!--link Validate (_fZnOULNUEe2o46d27a6tVQ) to Validate (_kSKnoLm1Ee2dIMSi7oNVYQ)--><g id="link_Validate (_fZnOULNUEe2o46d27a6tVQ)_Validate (_kSKnoLm1Ee2dIMSi7oNVYQ)"><path d="M1852.07,836.05 C1855.11,850.1 1859.48,870.36 1862.8,885.72 " fill="none" id="Validate (_fZnOULNUEe2o46d27a6tVQ)-to-Validate (_kSKnoLm1Ee2dIMSi7oNVYQ)" style="stroke:#181818;stroke-width:1.0;"/><polygon fill="#181818" points="1863.88,890.72,1865.9131,881.0833,1862.8363,885.8302,1858.0894,882.7533,1863.88,890.72" style="stroke:#181818;stroke-width:1.0;"/><text fill="#000000" font-family="sans-serif" font-size="11" lengthAdjust="spacing" textLength="37" x="1859.5" y="868.4189">37 - tan</text></g><!--link Validate (_kSKnoLm1Ee2dIMSi7oNVYQ) to aName (_puBN4bLGEe2Y1pKtbIeM6Q)--><g id="link_Validate (_kSKnoLm1Ee2dIMSi7oNVYQ)_aName (_puBN4bLGEe2Y1pKtbIeM6Q)"><path d="M1829.82,926.04 C1822.09,931.26 1814.96,937.86 1810.5,946 C1804.9,956.24 1810,967.55 1817.4,976.95 " fill="none" id="Validate (_kSKnoLm1Ee2dIMSi7oNVYQ)-to-aName (_puBN4bLGEe2Y1pKtbIeM6Q)" style="stroke:#181818;stroke-width:1.0;"/><polygon fill="#181818" points="1820.69,980.86,1817.9666,971.3952,1817.475,977.0306,1811.8396,976.5391,1820.69,980.86" style="stroke:#181818;stroke-width:1.0;"/><text fill="#000000" font-family="sans-serif" font-size="11" lengthAdjust="spacing" textLength="37" x="1811.5" y="958.4189">38 - tan</text></g><!--link aName (_puBN4bLGEe2Y1pKtbIeM6Q) to Validate (_kSKnoLm1Ee2dIMSi7oNVYQ)--><g id="link_aName (_puBN4bLGEe2Y1pKtbIeM6Q)_Validate (_kSKnoLm1Ee2dIMSi7oNVYQ)"><path d="M1844.84,980.72 C1849.33,966.61 1855.78,946.35 1860.65,931.04 " fill="none" id="aName (_puBN4bLGEe2Y1pKtbIeM6Q)-to-Validate (_kSKnoLm1Ee2dIMSi7oNVYQ)" style="stroke:#181818;stroke-width:1.0;"/><polygon fill="#181818" points="1862.23,926.05,1855.6886,933.4127,1860.7134,930.8144,1863.3117,935.8393,1862.23,926.05" style="stroke:#181818;stroke-width:1.0;"/><text fill="#000000" font-family="sans-serif" font-size="11" lengthAdjust="spacing" textLength="37" x="1855.5" y="958.4189">39 - tan</text></g><!--link Validate (_kSKnoLm1Ee2dIMSi7oNVYQ) to VerifyTAN (_zqW-0LmjEe2dIMSi7oNVYQ)--><g id="link_Validate (_kSKnoLm1Ee2dIMSi7oNVYQ)_VerifyTAN (_zqW-0LmjEe2dIMSi7oNVYQ)"><path d="M1908.35,890.99 C1932.41,879.18 1961.39,860.95 1978.5,836 C1995.9,810.63 2000.06,774.41 2000.79,751.43 " fill="none" id="Validate (_kSKnoLm1Ee2dIMSi7oNVYQ)-to-VerifyTAN (_zqW-0LmjEe2dIMSi7oNVYQ)" style="stroke:#181818;stroke-width:1.0;"/><polygon fill="#181818" points="2000.9,746.17,1996.6948,755.076,2000.7854,751.1687,2004.6927,755.2593,2000.9,746.17" style="stroke:#181818;stroke-width:1.0;"/><text fill="#000000" font-family="sans-serif" font-size="11" lengthAdjust="spacing" textLength="114" x="1994.5" y="823.4189">40 - diagnosisKeys, tan</text></g><!--link VerifyTAN (_zqW-0LmjEe2dIMSi7oNVYQ) to StoreKeys (_AwCboLmkEe2dIMSi7oNVYQ)--><g id="link_VerifyTAN (_zqW-0LmjEe2dIMSi7oNVYQ)_StoreKeys (_AwCboLmkEe2dIMSi7oNVYQ)"><path d="M2051.66,746.05 C2098.53,761.21 2167.77,783.62 2216.19,799.28 " fill="none" id="VerifyTAN (_zqW-0LmjEe2dIMSi7oNVYQ)-to-StoreKeys (_AwCboLmkEe2dIMSi7oNVYQ)" style="stroke:#181818;stroke-width:1.0;"/><polygon fill="#181818" points="2221.11,800.87,2213.783,794.2886,2216.3539,799.3275,2211.315,801.8983,2221.11,800.87" style="stroke:#181818;stroke-width:1.0;"/><text fill="#000000" font-family="sans-serif" font-size="11" lengthAdjust="spacing" textLength="114" x="2153.5" y="778.4189">41 - diagnosisKeys, tan</text></g><!--link StoreKeys (_AwCboLmkEe2dIMSi7oNVYQ) to StoreKeys (_DXYRULmkEe2dIMSi7oNVYQ)--><g id="link_StoreKeys (_AwCboLmkEe2dIMSi7oNVYQ)_StoreKeys (_DXYRULmkEe2dIMSi7oNVYQ)"><path d="M2261.78,836.05 C2252.52,850.34 2239.1,871.06 2229.09,886.51 " fill="none" id="StoreKeys (_AwCboLmkEe2dIMSi7oNVYQ)-to-StoreKeys (_DXYRULmkEe2dIMSi7oNVYQ)" style="stroke:#181818;stroke-width:1.0;"/><polygon fill="#181818" points="2226.37,890.72,2234.6357,885.3649,2229.1005,886.5314,2227.9339,880.9961,2226.37,890.72" style="stroke:#181818;stroke-width:1.0;"/><text fill="#000000" font-family="sans-serif" font-size="11" lengthAdjust="spacing" textLength="114" x="2247.5" y="868.4189">42 - diagnosisKeys, tan</text></g><!--link StoreKeys (_DXYRULmkEe2dIMSi7oNVYQ) to aName (_nw3iQLNWEe2o46d27a6tVQ)--><g id="link_StoreKeys (_DXYRULmkEe2dIMSi7oNVYQ)_aName (_nw3iQLNWEe2o46d27a6tVQ)"><path d="M2086.76,924.65 C2064.45,929.88 2045.98,936.82 2038.5,946 C2026.6,960.6 2035.58,971.19 2052.82,978.82 " fill="none" id="StoreKeys (_DXYRULmkEe2dIMSi7oNVYQ)-to-aName (_nw3iQLNWEe2o46d27a6tVQ)" style="stroke:#181818;stroke-width:1.0;"/><polygon fill="#181818" points="2057.89,980.9,2051.0644,973.8,2053.2595,979.0135,2048.046,981.2087,2057.89,980.9" style="stroke:#181818;stroke-width:1.0;"/><text fill="#000000" font-family="sans-serif" font-size="11" lengthAdjust="spacing" textLength="93" x="2039.5" y="958.4189">43 - diagnosisKeys</text></g><!--link aName (_nw3iQLNWEe2o46d27a6tVQ) to StoreKeys (_DXYRULmkEe2dIMSi7oNVYQ)--><g id="link_aName (_nw3iQLNWEe2o46d27a6tVQ)_StoreKeys (_DXYRULmkEe2dIMSi7oNVYQ)"><path d="M2152.15,980.58 C2151.52,969.94 2152.33,956.31 2158.5,946 C2162.42,939.45 2168.03,933.87 2174.21,929.19 " fill="none" id="aName (_nw3iQLNWEe2o46d27a6tVQ)-to-StoreKeys (_DXYRULmkEe2dIMSi7oNVYQ)" style="stroke:#181818;stroke-width:1.0;"/><polygon fill="#181818" points="2178.57,926.1,2168.9143,928.0409,2174.4907,928.9913,2173.5403,934.5677,2178.57,926.1" style="stroke:#181818;stroke-width:1.0;"/><text fill="#000000" font-family="sans-serif" font-size="11" lengthAdjust="spacing" textLength="114" x="2159.5" y="958.4189">44 - diagnosisKeys, tan</text></g><!--link StoreKeys (_DXYRULmkEe2dIMSi7oNVYQ) to aName (_9DElMrmkEe2dIMSi7oNVYQ)--><g id="link_StoreKeys (_DXYRULmkEe2dIMSi7oNVYQ)_aName (_9DElMrmkEe2dIMSi7oNVYQ)"><path d="M2243.02,926.15 C2253.24,932.35 2264.91,939.47 2275.5,946 C2286.21,952.6 2288.04,955.82 2299.5,961 C2315.2,968.1 2332.65,974.26 2349.33,979.39 " fill="none" id="StoreKeys (_DXYRULmkEe2dIMSi7oNVYQ)-to-aName (_9DElMrmkEe2dIMSi7oNVYQ)" style="stroke:#181818;stroke-width:1.0;"/><polygon fill="#181818" points="2354.47,980.95,2347.0253,974.502,2349.6868,979.4936,2344.6951,982.1551,2354.47,980.95" style="stroke:#181818;stroke-width:1.0;"/><text fill="#000000" font-family="sans-serif" font-size="11" lengthAdjust="spacing" textLength="114" x="2300.5" y="958.4189">45 - diagnosisKeys, tan</text></g><!--link aName (_9DElMrmkEe2dIMSi7oNVYQ) to UploadKeys (_V__IQLkBEe25g4oGy4Jxtw)--><g id="link_aName (_9DElMrmkEe2dIMSi7oNVYQ)_UploadKeys (_V__IQLkBEe25g4oGy4Jxtw)"><path d="M2424.55,980.69 C2427.5,963.03 2431.5,934.41 2431.5,909.5 C2431.5,637.5 2431.5,637.5 2431.5,637.5 C2431.5,585.22 2099.5,562.78 1908.23,554.19 " fill="none" id="aName (_9DElMrmkEe2dIMSi7oNVYQ)-to-UploadKeys (_V__IQLkBEe25g4oGy4Jxtw)" style="stroke:#181818;stroke-width:1.0;"/><polygon fill="#181818" points="1903.18,553.96,1912.0005,558.3417,1908.1754,554.1741,1912.343,550.349,1903.18,553.96" style="stroke:#181818;stroke-width:1.0;"/><text fill="#000000" font-family="sans-serif" font-size="11" lengthAdjust="spacing" textLength="60" x="2432.5" y="778.4189">46 - teleTAN</text></g><!--link UploadKeys (_V__IQLkBEe25g4oGy4Jxtw) to EnterTeleTANandUploadKeys (_x9uVkLZ8Ee2xLZp9hElpuA)--><g id="link_UploadKeys (_V__IQLkBEe25g4oGy4Jxtw)_EnterTeleTANandUploadKeys (_x9uVkLZ8Ee2xLZp9hElpuA)"><path d="M1774.1,531 C1771.74,513.34 1768.5,484.51 1768.5,459.5 C1768.5,187.5 1768.5,187.5 1768.5,187.5 C1768.5,164.93 1768.5,139.11 1768.5,121.3 " fill="none" id="UploadKeys (_V__IQLkBEe25g4oGy4Jxtw)-to-EnterTeleTANandUploadKeys (_x9uVkLZ8Ee2xLZp9hElpuA)" style="stroke:#181818;stroke-width:1.0;"/><polygon fill="#181818" points="1768.5,116.04,1764.5,125.04,1768.5,121.04,1772.5,125.04,1768.5,116.04" style="stroke:#181818;stroke-width:1.0;"/><text fill="#000000" font-family="sans-serif" font-size="11" lengthAdjust="spacing" textLength="38" x="1769.5" y="328.4189">47 - null</text></g><!--link EnterTeleTANandUploadKeys (_x9uVkLZ8Ee2xLZp9hElpuA) to end--><g id="link_EnterTeleTANandUploadKeys (_x9uVkLZ8Ee2xLZp9hElpuA)_end"><path d="M1776.21,116.05 C1784.05,132.87 1796.03,158.6 1803.28,174.16 " fill="none" id="EnterTeleTANandUploadKeys (_x9uVkLZ8Ee2xLZp9hElpuA)-to-end" style="stroke:#181818;stroke-width:1.0;"/><polygon fill="#181818" points="1805.55,179.02,1805.3926,169.1724,1803.4465,174.484,1798.135,172.5379,1805.55,179.02" style="stroke:#181818;stroke-width:1.0;"/><text fill="#000000" font-family="sans-serif" font-size="11" lengthAdjust="spacing" textLength="38" x="1791.5" y="148.4189">48 - null</text></g><!--SRC=[nPXPSw904CVVzrDOUKfIQnKAABni5HeFucZYHOwjBGjaH2A7SaJDfzz1sXYLorHftl___atFz7GFND_UvFBvFxc_L2wVitp3-9UxgbaUTWROm0EX8rlgS6xOijh2QpTtFLhnlZH3hrmD5rVeTSvFQyRS5swkVdtB5Q8B1Es5HaBluOMFNMzWpx15hBvPPOQe5LXV2lEMfuYuNUe6m8p2a55COY1kigYXMOLOMOsn6slcVkKj8nXnmf11xp4QsCAExE5FhoHrAGNT7oUILHbIc4IAuIlZDZ8_Y5SLstszR7UabqXAd3AaiBjoE3GstnSjErCYSSeGKOf7b1xj6eNCTNeMSSeGKRx8Nd47jUNvZhLrcYkkQKSoikb20d-1wYrGaH2XGvmT_W6vYOX46G22U-vWJNSzihUw7UR-zLmsGP2avBNayahK0QoO2KRNcqfA2IJg04P7bFB6D_TOLbHG8osPE1t4P-BYTzjDSvbyKH9r49-zv6QLOc1m8JOXs8aaCqdN9b45eFAv2vexQ2_UmzA2YTTTYgDk922J303yxjm7ZgvfsAauPAgEPTVJBOtuiThaEIG6_aaFrUjJDAe_RSRnQNeOabGQhq5LvnHIUyHlLDrAKMyCyzmodXUd1zwc8ynrb_3wkkaRf8HwZs9jDPxAbeQ9VsACwUZyJjC3hvZ6C_lBYO3Kvd5-f-c1Ht_XURQ3jqwLH0cEtrFCLGpk53dGc1rDxiXciButeI_K8lSlJG4nsOjcKBfm_PLtFD9N71s_OxYRTSSsWmpapJ7t5bFDHcht6Fij6z2v7HsHLSCMJQaHuqOUMGOHHEOZ8xSVPyy2ikh4DEshmightxVqmyXn8dZYKZ-vOtHXZqxcmAwJFck5nX2fOYGman8OnJCtTNh_Cs7lEqaQZSHeG2OP088-eEgoPjckxWQMtpbF3YQiX1rziWv7syTgMcaZ91w_JBAeWCHc8YsUykI9_dOyoxEeW1Hq1WWj6xfA6d7GxL-jXo7g38d7PafgiIoNF2cCd2w2mEMemBD-ooAlyKB4ajD549Zx3BnjjNE_qc4Y7uDf2WZ9dscj37MfSsGASQJDk83w5fPLXQnsTapAeW9ICGlfxlcbDqmbnQc0H1-IlfovjQJrBkey7PTecWA2CnTB8_OoRrVAtzMCjXD5ILC0eNJcpiUKV-ud5hERvjUtD_y1]--></g></svg>