<?xml version="1.0" encoding="us-ascii" standalone="no"?><svg xmlns="http://www.w3.org/2000/svg" xmlns:xlink="http://www.w3.org/1999/xlink" contentStyleType="text/css" height="662px" preserveAspectRatio="none" style="width:584px;height:662px;background:#FFFFFF;" version="1.1" viewBox="0 0 584 662" width="584px" zoomAndPan="magnify"><defs/><g><ellipse cx="484.5" cy="16" fill="#222222" rx="10" ry="10" style="stroke:none;stroke-width:1.0;"/><rect fill="#F1F1F1" height="35.0938" rx="12.5" ry="12.5" style="stroke:#181818;stroke-width:0.5;" width="188" x="390.5" y="81"/><text fill="#000000" font-family="sans-serif" font-size="12" lengthAdjust="spacing" textLength="168" x="400.5" y="103.457">_CarY8LRIEe25KMRnMCaMfw</text><rect fill="#F1F1F1" height="35.0938" rx="12.5" ry="12.5" style="stroke:#181818;stroke-width:0.5;" width="178" x="274.5" y="171"/><text fill="#000000" font-family="sans-serif" font-size="12" lengthAdjust="spacing" textLength="158" x="284.5" y="193.457">_fLwRILNXEe2o46d27a6tVQ</text><rect fill="#F1F1F1" height="35.0938" rx="12.5" ry="12.5" style="stroke:#181818;stroke-width:0.5;" width="185" x="268" y="261"/><text fill="#000000" font-family="sans-serif" font-size="12" lengthAdjust="spacing" textLength="165" x="278" y="283.457">__V2a8Lm2Ee2dIMSi7oNVYQ</text><rect fill="#F1F1F1" height="35.0938" rx="12.5" ry="12.5" style="stroke:#181818;stroke-width:0.5;" width="181" x="149" y="351"/><text fill="#000000" font-family="sans-serif" font-size="12" lengthAdjust="spacing" textLength="161" x="159" y="373.457">_XDjtwLm0Ee2dIMSi7oNVYQ</text><rect fill="#F1F1F1" height="35.0938" rx="12.5" ry="12.5" style="stroke:#181818;stroke-width:0.5;" width="183" x="141" y="441"/><text fill="#000000" font-family="sans-serif" font-size="12" lengthAdjust="spacing" textLength="163" x="151" y="463.457">_x_EcgLm1Ee2dIMSi7oNVYQ</text><rect fill="#F1F1F1" height="35.0938" rx="12.5" ry="12.5" style="stroke:#181818;stroke-width:0.5;" width="173" x="7" y="531"/><text fill="#000000" font-family="sans-serif" font-size="12" lengthAdjust="spacing" textLength="153" x="17" y="553.457">_puIiobLGEe2Y1pKtbIeM6Q</text><rect fill="#F1F1F1" height="35.0938" rx="12.5" ry="12.5" style="stroke:#181818;stroke-width:0.5;" width="185" x="65" y="621"/><text fill="#000000" font-family="sans-serif" font-size="12" lengthAdjust="spacing" textLength="165" x="75" y="643.457">_ml6TQLmyEe2dIMSi7oNVYQ</text><rect fill="#F1F1F1" height="35.0938" rx="12.5" ry="12.5" style="stroke:#181818;stroke-width:0.5;" width="186" x="274.5" y="531"/><text fill="#000000" font-family="sans-serif" font-size="12" lengthAdjust="spacing" textLength="166" x="284.5" y="553.457">_4VHYkLm1Ee2dIMSi7oNVYQ</text><rect fill="#F1F1F1" height="35.0938" rx="12.5" ry="12.5" style="stroke:#181818;stroke-width:0.5;" width="182" x="393.5" y="351"/><text fill="#000000" font-family="sans-serif" font-size="12" lengthAdjust="spacing" textLength="162" x="403.5" y="373.457">__9wIcLm2Ee2dIMSi7oNVYQ</text><ellipse cx="525.5" cy="188.5" fill="none" rx="10" ry="10" style="stroke:#222222;stroke-width:1.0;"/><ellipse cx="526" cy="189" fill="#222222" rx="6" ry="6" style="stroke:none;stroke-width:1.0;"/><!--link start to _CarY8LRIEe25KMRnMCaMfw--><g id="link_start__CarY8LRIEe25KMRnMCaMfw"><path d="M484.5,26.23 C484.5,38.18 484.5,59.38 484.5,75.56 " fill="none" id="start-to-_CarY8LRIEe25KMRnMCaMfw" style="stroke:#181818;stroke-width:1.0;"/><polygon fill="#181818" points="484.5,80.84,488.5,71.84,484.5,75.84,480.5,71.84,484.5,80.84" style="stroke:#181818;stroke-width:1.0;"/><text fill="#000000" font-family="sans-serif" font-size="11" lengthAdjust="spacing" textLength="32" x="485.5" y="58.4189">0 - null</text></g><!--link _CarY8LRIEe25KMRnMCaMfw to _fLwRILNXEe2o46d27a6tVQ--><g id="link__CarY8LRIEe25KMRnMCaMfw__fLwRILNXEe2o46d27a6tVQ"><path d="M461.74,116.05 C441.59,130.71 412.13,152.13 390.74,167.69 " fill="none" id="_CarY8LRIEe25KMRnMCaMfw-to-_fLwRILNXEe2o46d27a6tVQ" style="stroke:#181818;stroke-width:1.0;"/><polygon fill="#181818" points="386.57,170.72,396.2004,168.6574,390.6124,167.7774,391.4924,162.1894,386.57,170.72" style="stroke:#181818;stroke-width:1.0;"/><text fill="#000000" font-family="sans-serif" font-size="11" lengthAdjust="spacing" textLength="32" x="432.5" y="148.4189">1 - null</text></g><!--link _fLwRILNXEe2o46d27a6tVQ to __V2a8Lm2Ee2dIMSi7oNVYQ--><g id="link__fLwRILNXEe2o46d27a6tVQ___V2a8Lm2Ee2dIMSi7oNVYQ"><path d="M362.94,206.05 C362.46,220.1 361.77,240.36 361.24,255.72 " fill="none" id="_fLwRILNXEe2o46d27a6tVQ-to-__V2a8Lm2Ee2dIMSi7oNVYQ" style="stroke:#181818;stroke-width:1.0;"/><polygon fill="#181818" points="361.07,260.72,365.376,251.8623,361.2413,255.7229,357.3807,251.5882,361.07,260.72" style="stroke:#181818;stroke-width:1.0;"/><text fill="#000000" font-family="sans-serif" font-size="11" lengthAdjust="spacing" textLength="32" x="363.5" y="238.4189">2 - null</text></g><!--link __V2a8Lm2Ee2dIMSi7oNVYQ to _XDjtwLm0Ee2dIMSi7oNVYQ--><g id="link___V2a8Lm2Ee2dIMSi7oNVYQ__XDjtwLm0Ee2dIMSi7oNVYQ"><path d="M337.74,296.05 C317.59,310.71 288.13,332.13 266.74,347.69 " fill="none" id="__V2a8Lm2Ee2dIMSi7oNVYQ-to-_XDjtwLm0Ee2dIMSi7oNVYQ" style="stroke:#181818;stroke-width:1.0;"/><polygon fill="#181818" points="262.57,350.72,272.2004,348.6574,266.6124,347.7774,267.4924,342.1894,262.57,350.72" style="stroke:#181818;stroke-width:1.0;"/><text fill="#000000" font-family="sans-serif" font-size="11" lengthAdjust="spacing" textLength="32" x="308.5" y="328.4189">3 - null</text></g><!--link _XDjtwLm0Ee2dIMSi7oNVYQ to _x_EcgLm1Ee2dIMSi7oNVYQ--><g id="link__XDjtwLm0Ee2dIMSi7oNVYQ__x_EcgLm1Ee2dIMSi7oNVYQ"><path d="M238.18,386.05 C237.07,400.1 235.45,420.36 234.23,435.72 " fill="none" id="_XDjtwLm0Ee2dIMSi7oNVYQ-to-_x_EcgLm1Ee2dIMSi7oNVYQ" style="stroke:#181818;stroke-width:1.0;"/><polygon fill="#181818" points="233.83,440.72,238.5369,432.0687,234.2299,435.736,230.5626,431.4289,233.83,440.72" style="stroke:#181818;stroke-width:1.0;"/><text fill="#000000" font-family="sans-serif" font-size="11" lengthAdjust="spacing" textLength="32" x="237.5" y="418.4189">4 - null</text></g><!--link _x_EcgLm1Ee2dIMSi7oNVYQ to _puIiobLGEe2Y1pKtbIeM6Q--><g id="link__x_EcgLm1Ee2dIMSi7oNVYQ__puIiobLGEe2Y1pKtbIeM6Q"><path d="M203.59,476.06 C193.09,482.19 181.18,489.29 170.5,496 C154.21,506.23 136.33,518.15 121.9,527.94 " fill="none" id="_x_EcgLm1Ee2dIMSi7oNVYQ-to-_puIiobLGEe2Y1pKtbIeM6Q" style="stroke:#181818;stroke-width:1.0;"/><polygon fill="#181818" points="117.54,530.9,127.2324,529.1515,121.676,528.0904,122.737,522.534,117.54,530.9" style="stroke:#181818;stroke-width:1.0;"/><text fill="#000000" font-family="sans-serif" font-size="11" lengthAdjust="spacing" textLength="32" x="171.5" y="508.4189">5 - null</text></g><!--link _puIiobLGEe2Y1pKtbIeM6Q to _ml6TQLmyEe2dIMSi7oNVYQ--><g id="link__puIiobLGEe2Y1pKtbIeM6Q__ml6TQLmyEe2dIMSi7oNVYQ"><path d="M105.54,566.05 C115.93,580.34 131,601.06 142.24,616.51 " fill="none" id="_puIiobLGEe2Y1pKtbIeM6Q-to-_ml6TQLmyEe2dIMSi7oNVYQ" style="stroke:#181818;stroke-width:1.0;"/><polygon fill="#181818" points="145.3,620.72,143.2374,611.0896,142.3574,616.6776,136.7694,615.7976,145.3,620.72" style="stroke:#181818;stroke-width:1.0;"/><text fill="#000000" font-family="sans-serif" font-size="11" lengthAdjust="spacing" textLength="32" x="130.5" y="598.4189">6 - null</text></g><!--link _ml6TQLmyEe2dIMSi7oNVYQ to _x_EcgLm1Ee2dIMSi7oNVYQ--><g id="link__ml6TQLmyEe2dIMSi7oNVYQ__x_EcgLm1Ee2dIMSi7oNVYQ"><path d="M165.18,620.82 C171.77,606.38 181.46,584.9 189.5,566 C201.98,536.66 215.65,502.42 224.15,480.85 " fill="none" id="_ml6TQLmyEe2dIMSi7oNVYQ-to-_x_EcgLm1Ee2dIMSi7oNVYQ" style="stroke:#181818;stroke-width:1.0;"/><polygon fill="#181818" points="225.99,476.18,218.9702,483.0881,224.1578,480.8322,226.4137,486.0197,225.99,476.18" style="stroke:#181818;stroke-width:1.0;"/><text fill="#000000" font-family="sans-serif" font-size="11" lengthAdjust="spacing" textLength="32" x="205.5" y="553.4189">7 - null</text></g><!--link _x_EcgLm1Ee2dIMSi7oNVYQ to _4VHYkLm1Ee2dIMSi7oNVYQ--><g id="link__x_EcgLm1Ee2dIMSi7oNVYQ__4VHYkLm1Ee2dIMSi7oNVYQ"><path d="M257.89,476.05 C280.47,490.77 313.51,512.31 337.41,527.89 " fill="none" id="_x_EcgLm1Ee2dIMSi7oNVYQ-to-_4VHYkLm1Ee2dIMSi7oNVYQ" style="stroke:#181818;stroke-width:1.0;"/><polygon fill="#181818" points="341.76,530.72,336.4049,522.4543,337.5714,527.9895,332.0361,529.1561,341.76,530.72" style="stroke:#181818;stroke-width:1.0;"/><text fill="#000000" font-family="sans-serif" font-size="11" lengthAdjust="spacing" textLength="32" x="309.5" y="508.4189">8 - null</text></g><!--link _4VHYkLm1Ee2dIMSi7oNVYQ to __V2a8Lm2Ee2dIMSi7oNVYQ--><g id="link__4VHYkLm1Ee2dIMSi7oNVYQ___V2a8Lm2Ee2dIMSi7oNVYQ"><path d="M367.06,530.74 C365.85,484.22 362.43,353.47 361.07,301.35 " fill="none" id="_4VHYkLm1Ee2dIMSi7oNVYQ-to-__V2a8Lm2Ee2dIMSi7oNVYQ" style="stroke:#181818;stroke-width:1.0;"/><polygon fill="#181818" points="360.94,296.26,357.1727,305.3598,361.0685,301.2583,365.17,305.1542,360.94,296.26" style="stroke:#181818;stroke-width:1.0;"/><text fill="#000000" font-family="sans-serif" font-size="11" lengthAdjust="spacing" textLength="32" x="365.5" y="418.4189">9 - null</text></g><!--link __V2a8Lm2Ee2dIMSi7oNVYQ to __9wIcLm2Ee2dIMSi7oNVYQ--><g id="link___V2a8Lm2Ee2dIMSi7oNVYQ___9wIcLm2Ee2dIMSi7oNVYQ"><path d="M381.65,296.13 C394.93,306.41 412.51,319.75 428.5,331 C436.59,336.69 445.5,342.64 453.79,348.04 " fill="none" id="__V2a8Lm2Ee2dIMSi7oNVYQ-to-__9wIcLm2Ee2dIMSi7oNVYQ" style="stroke:#181818;stroke-width:1.0;"/><polygon fill="#181818" points="458.32,350.98,452.945,342.7271,454.1248,348.2596,448.5924,349.4394,458.32,350.98" style="stroke:#181818;stroke-width:1.0;"/><text fill="#000000" font-family="sans-serif" font-size="11" lengthAdjust="spacing" textLength="38" x="429.5" y="328.4189">10 - null</text></g><!--link __9wIcLm2Ee2dIMSi7oNVYQ to _CarY8LRIEe25KMRnMCaMfw--><g id="link___9wIcLm2Ee2dIMSi7oNVYQ__CarY8LRIEe25KMRnMCaMfw"><path d="M484.5,350.74 C484.5,304.22 484.5,173.47 484.5,121.35 " fill="none" id="__9wIcLm2Ee2dIMSi7oNVYQ-to-_CarY8LRIEe25KMRnMCaMfw" style="stroke:#181818;stroke-width:1.0;"/><polygon fill="#181818" points="484.5,116.26,480.5,125.26,484.5,121.26,488.5,125.26,484.5,116.26" style="stroke:#181818;stroke-width:1.0;"/><text fill="#000000" font-family="sans-serif" font-size="11" lengthAdjust="spacing" textLength="38" x="485.5" y="238.4189">11 - null</text></g><!--link _CarY8LRIEe25KMRnMCaMfw to end--><g id="link__CarY8LRIEe25KMRnMCaMfw_end"><path d="M492.21,116.05 C500.05,132.87 512.03,158.6 519.28,174.16 " fill="none" id="_CarY8LRIEe25KMRnMCaMfw-to-end" style="stroke:#181818;stroke-width:1.0;"/><polygon fill="#181818" points="521.55,179.02,521.3926,169.1724,519.4465,174.484,514.135,172.5379,521.55,179.02" style="stroke:#181818;stroke-width:1.0;"/><text fill="#000000" font-family="sans-serif" font-size="11" lengthAdjust="spacing" textLength="38" x="507.5" y="148.4189">12 - null</text></g><!--SRC=[hT9D2u8m6C3nUvzYTAf0SCkcNRfOr6WJj10bGjHUg5n66DQtprhGG7Ugy__XnpFsT7fTe6aZiDA11iwtB5k3TcJ7rz2Y7fbiqM3El3EpOxOhsorb4GIKY1qjFKATe1hC3Rn1PemBttqHYY88916HZsABSbGDRWXR7CpSySCteIY2w4j4C3uM9ULwdL0KGHWISOycwPvoM2SKHH03YRZSo25FwBGQ3E5bNYHao_2RK1H1O8dW6Lwwb3_gMoYA8CpV7s99XE7FmbCZeIY26Fx-gL0-psXOahJPQ2uV0_xXnBy7skbrdm00]--></g></svg>