<?xml version="1.0" encoding="us-ascii" standalone="no"?><svg xmlns="http://www.w3.org/2000/svg" xmlns:xlink="http://www.w3.org/1999/xlink" contentStyleType="text/css" height="932px" preserveAspectRatio="none" style="width:1306px;height:932px;background:#FFFFFF;" version="1.1" viewBox="0 0 1306 932" width="1306px" zoomAndPan="magnify"><defs/><g><ellipse cx="1132.5" cy="16" fill="#222222" rx="10" ry="10" style="stroke:none;stroke-width:1.0;"/><rect fill="#F1F1F1" height="35.0938" rx="12.5" ry="12.5" style="stroke:#181818;stroke-width:0.5;" width="260" x="1002.5" y="81"/><text fill="#000000" font-family="sans-serif" font-size="12" lengthAdjust="spacing" textLength="240" x="1012.5" y="103.457">ScanQRCode (_idM8ELZ-Ee2xLZp9hElpuA)</text><rect fill="#F1F1F1" height="35.0938" rx="12.5" ry="12.5" style="stroke:#181818;stroke-width:0.5;" width="266" x="831.5" y="171"/><text fill="#000000" font-family="sans-serif" font-size="12" lengthAdjust="spacing" textLength="246" x="841.5" y="193.457">RequestToken (_xjKJsLK8Ee2Y1pKtbIeM6Q)</text><rect fill="#F1F1F1" height="35.0938" rx="12.5" ry="12.5" style="stroke:#181818;stroke-width:0.5;" width="278" x="626.5" y="261"/><text fill="#000000" font-family="sans-serif" font-size="12" lengthAdjust="spacing" textLength="258" x="636.5" y="283.457">RequestToken (_POmMoLkEEe25g4oGy4Jxtw)</text><rect fill="#F1F1F1" height="35.0938" rx="12.5" ry="12.5" style="stroke:#181818;stroke-width:0.5;" width="275" x="261" y="351"/><text fill="#000000" font-family="sans-serif" font-size="12" lengthAdjust="spacing" textLength="255" x="271" y="373.457">GenerateToken (_LVH1cbLJEe2Y1pKtbIeM6Q)</text><rect fill="#F1F1F1" height="35.0938" rx="12.5" ry="12.5" style="stroke:#181818;stroke-width:0.5;" width="278" x="247.5" y="441"/><text fill="#000000" font-family="sans-serif" font-size="12" lengthAdjust="spacing" textLength="258" x="257.5" y="463.457">GenerateToken (_P4UrkLmzEe2dIMSi7oNVYQ)</text><rect fill="#F1F1F1" height="35.0938" rx="12.5" ry="12.5" style="stroke:#181818;stroke-width:0.5;" width="275" x="7" y="531"/><text fill="#000000" font-family="sans-serif" font-size="12" lengthAdjust="spacing" textLength="255" x="17" y="553.457">GenerateToken (_HvqKobLJEe2Y1pKtbIeM6Q)</text><rect fill="#F1F1F1" height="35.0938" rx="12.5" ry="12.5" style="stroke:#181818;stroke-width:0.5;" width="281" x="132" y="621"/><text fill="#000000" font-family="sans-serif" font-size="12" lengthAdjust="spacing" textLength="261" x="142" y="643.457">GenerateToken (_6PoE0LmyEe2dIMSi7oNVYQ)</text><rect fill="#F1F1F1" height="35.0938" rx="12.5" ry="12.5" style="stroke:#181818;stroke-width:0.5;" width="269" x="381" y="531"/><text fill="#000000" font-family="sans-serif" font-size="12" lengthAdjust="spacing" textLength="249" x="391" y="553.457">ReturnToken (_RQZ40LmzEe2dIMSi7oNVYQ)</text><rect fill="#F1F1F1" height="35.0938" rx="12.5" ry="12.5" style="stroke:#181818;stroke-width:0.5;" width="279" x="776" y="351"/><text fill="#000000" font-family="sans-serif" font-size="12" lengthAdjust="spacing" textLength="259" x="786" y="373.457">RequestResults (_hlKUQLkEEe25g4oGy4Jxtw)</text><rect fill="#F1F1F1" height="35.0938" rx="12.5" ry="12.5" style="stroke:#181818;stroke-width:0.5;" width="264" x="678.5" y="441"/><text fill="#000000" font-family="sans-serif" font-size="12" lengthAdjust="spacing" textLength="244" x="688.5" y="463.457">RetrieveResult (_LVOjIbLJEe2Y1pKtbIeM6Q)</text><rect fill="#F1F1F1" height="35.0938" rx="12.5" ry="12.5" style="stroke:#181818;stroke-width:0.5;" width="274" x="670.5" y="531"/><text fill="#000000" font-family="sans-serif" font-size="12" lengthAdjust="spacing" textLength="254" x="680.5" y="553.457">RetrieveResult (_uGJfoLm0Ee2dIMSi7oNVYQ)</text><rect fill="#F1F1F1" height="35.0938" rx="12.5" ry="12.5" style="stroke:#181818;stroke-width:0.5;" width="278" x="488.5" y="621"/><text fill="#000000" font-family="sans-serif" font-size="12" lengthAdjust="spacing" textLength="258" x="498.5" y="643.457">GetTestResult (_3wsG4LNUEe2o46d27a6tVQ)</text><rect fill="#F1F1F1" height="35.0938" rx="12.5" ry="12.5" style="stroke:#181818;stroke-width:0.5;" width="272" x="475.5" y="711"/><text fill="#000000" font-family="sans-serif" font-size="12" lengthAdjust="spacing" textLength="252" x="485.5" y="733.457">GetTestResult (_LKVjYLm8Ee2dIMSi7oNVYQ)</text><rect fill="#F1F1F1" height="35.0938" rx="12.5" ry="12.5" style="stroke:#181818;stroke-width:0.5;" width="282" x="286.5" y="801"/><text fill="#000000" font-family="sans-serif" font-size="12" lengthAdjust="spacing" textLength="262" x="296.5" y="823.457">LoadTestResults (_caJFILNXEe2o46d27a6tVQ)</text><rect fill="#F1F1F1" height="35.0938" rx="12.5" ry="12.5" style="stroke:#181818;stroke-width:0.5;" width="279" x="379" y="891"/><text fill="#000000" font-family="sans-serif" font-size="12" lengthAdjust="spacing" textLength="259" x="389" y="913.457">LoadTestResults (_G67YILnGEe2hSdAxtFJKiA)</text><rect fill="#F1F1F1" height="35.0938" rx="12.5" ry="12.5" style="stroke:#181818;stroke-width:0.5;" width="295" x="673" y="801"/><text fill="#000000" font-family="sans-serif" font-size="12" lengthAdjust="spacing" textLength="275" x="683" y="823.457">ReturnTestResult (_L1upwLm8Ee2dIMSi7oNVYQ)</text><rect fill="#F1F1F1" height="35.0938" rx="12.5" ry="12.5" style="stroke:#181818;stroke-width:0.5;" width="273" x="839" y="621"/><text fill="#000000" font-family="sans-serif" font-size="12" lengthAdjust="spacing" textLength="253" x="849" y="643.457">ReturnResult (_vOMFwLm0Ee2dIMSi7oNVYQ)</text><rect fill="#F1F1F1" height="35.0938" rx="12.5" ry="12.5" style="stroke:#181818;stroke-width:0.5;" width="294" x="1006.5" y="441"/><text fill="#000000" font-family="sans-serif" font-size="12" lengthAdjust="spacing" textLength="274" x="1016.5" y="463.457">ReturnTestResults (_muIZMLkEEe25g4oGy4Jxtw)</text><ellipse cx="1173.5" cy="188.5" fill="none" rx="10" ry="10" style="stroke:#222222;stroke-width:1.0;"/><ellipse cx="1174" cy="189" fill="#222222" rx="6" ry="6" style="stroke:none;stroke-width:1.0;"/><!--link start to ScanQRCode (_idM8ELZ-Ee2xLZp9hElpuA)--><g id="link_start_ScanQRCode (_idM8ELZ-Ee2xLZp9hElpuA)"><path d="M1132.5,26.23 C1132.5,38.18 1132.5,59.38 1132.5,75.56 " fill="none" id="start-to-ScanQRCode (_idM8ELZ-Ee2xLZp9hElpuA)" style="stroke:#181818;stroke-width:1.0;"/><polygon fill="#181818" points="1132.5,80.84,1136.5,71.84,1132.5,75.84,1128.5,71.84,1132.5,80.84" style="stroke:#181818;stroke-width:1.0;"/><text fill="#000000" font-family="sans-serif" font-size="11" lengthAdjust="spacing" textLength="32" x="1133.5" y="58.4189">0 - null</text></g><!--link ScanQRCode (_idM8ELZ-Ee2xLZp9hElpuA) to RequestToken (_xjKJsLK8Ee2Y1pKtbIeM6Q)--><g id="link_ScanQRCode (_idM8ELZ-Ee2xLZp9hElpuA)_RequestToken (_xjKJsLK8Ee2Y1pKtbIeM6Q)"><path d="M1100.9,116.05 C1072.48,130.94 1030.74,152.81 1000.92,168.42 " fill="none" id="ScanQRCode (_idM8ELZ-Ee2xLZp9hElpuA)-to-RequestToken (_xjKJsLK8Ee2Y1pKtbIeM6Q)" style="stroke:#181818;stroke-width:1.0;"/><polygon fill="#181818" points="996.24,170.87,1006.0691,170.2467,1000.6714,168.5542,1002.3639,163.1565,996.24,170.87" style="stroke:#181818;stroke-width:1.0;"/><text fill="#000000" font-family="sans-serif" font-size="11" lengthAdjust="spacing" textLength="36" x="1060.5" y="148.4189">1 - guid</text></g><!--link RequestToken (_xjKJsLK8Ee2Y1pKtbIeM6Q) to RequestToken (_POmMoLkEEe25g4oGy4Jxtw)--><g id="link_RequestToken (_xjKJsLK8Ee2Y1pKtbIeM6Q)_RequestToken (_POmMoLkEEe25g4oGy4Jxtw)"><path d="M927.07,206.05 C893.13,221.06 843.14,243.17 807.77,258.81 " fill="none" id="RequestToken (_xjKJsLK8Ee2Y1pKtbIeM6Q)-to-RequestToken (_POmMoLkEEe25g4oGy4Jxtw)" style="stroke:#181818;stroke-width:1.0;"/><polygon fill="#181818" points="803.1,260.87,812.9488,260.9015,807.6755,258.8539,809.7231,253.5806,803.1,260.87" style="stroke:#181818;stroke-width:1.0;"/><text fill="#000000" font-family="sans-serif" font-size="11" lengthAdjust="spacing" textLength="36" x="878.5" y="238.4189">2 - guid</text></g><!--link RequestToken (_POmMoLkEEe25g4oGy4Jxtw) to GenerateToken (_LVH1cbLJEe2Y1pKtbIeM6Q)--><g id="link_RequestToken (_POmMoLkEEe25g4oGy4Jxtw)_GenerateToken (_LVH1cbLJEe2Y1pKtbIeM6Q)"><path d="M626.37,292.63 C589.26,298.03 549.48,305.56 513.5,316 C485.84,324.03 456.22,337.41 433.97,348.53 " fill="none" id="RequestToken (_POmMoLkEEe25g4oGy4Jxtw)-to-GenerateToken (_LVH1cbLJEe2Y1pKtbIeM6Q)" style="stroke:#181818;stroke-width:1.0;"/><polygon fill="#181818" points="429.34,350.86,439.1769,350.3751,433.8035,348.6068,435.5719,343.2335,429.34,350.86" style="stroke:#181818;stroke-width:1.0;"/><text fill="#000000" font-family="sans-serif" font-size="11" lengthAdjust="spacing" textLength="36" x="514.5" y="328.4189">3 - guid</text></g><!--link GenerateToken (_LVH1cbLJEe2Y1pKtbIeM6Q) to GenerateToken (_P4UrkLmzEe2dIMSi7oNVYQ)--><g id="link_GenerateToken (_LVH1cbLJEe2Y1pKtbIeM6Q)_GenerateToken (_P4UrkLmzEe2dIMSi7oNVYQ)"><path d="M396.24,386.05 C394.33,400.1 391.57,420.36 389.47,435.72 " fill="none" id="GenerateToken (_LVH1cbLJEe2Y1pKtbIeM6Q)-to-GenerateToken (_P4UrkLmzEe2dIMSi7oNVYQ)" style="stroke:#181818;stroke-width:1.0;"/><polygon fill="#181818" points="388.79,440.72,393.9855,432.353,389.4751,435.7672,386.0609,431.2568,388.79,440.72" style="stroke:#181818;stroke-width:1.0;"/><text fill="#000000" font-family="sans-serif" font-size="11" lengthAdjust="spacing" textLength="36" x="394.5" y="418.4189">4 - guid</text></g><!--link GenerateToken (_P4UrkLmzEe2dIMSi7oNVYQ) to GenerateToken (_HvqKobLJEe2Y1pKtbIeM6Q)--><g id="link_GenerateToken (_P4UrkLmzEe2dIMSi7oNVYQ)_GenerateToken (_HvqKobLJEe2Y1pKtbIeM6Q)"><path d="M332.01,476.06 C313.07,482.05 291.76,489.05 272.5,496 C244.19,506.21 212.85,518.8 188.26,528.98 " fill="none" id="GenerateToken (_P4UrkLmzEe2dIMSi7oNVYQ)-to-GenerateToken (_HvqKobLJEe2Y1pKtbIeM6Q)" style="stroke:#181818;stroke-width:1.0;"/><polygon fill="#181818" points="183.43,530.98,193.2758,531.2259,188.0483,529.064,190.2102,523.8366,183.43,530.98" style="stroke:#181818;stroke-width:1.0;"/><text fill="#000000" font-family="sans-serif" font-size="11" lengthAdjust="spacing" textLength="32" x="273.5" y="508.4189">5 - null</text></g><!--link GenerateToken (_HvqKobLJEe2Y1pKtbIeM6Q) to GenerateToken (_6PoE0LmyEe2dIMSi7oNVYQ)--><g id="link_GenerateToken (_HvqKobLJEe2Y1pKtbIeM6Q)_GenerateToken (_6PoE0LmyEe2dIMSi7oNVYQ)"><path d="M168.58,566.05 C189.98,580.77 221.31,602.31 243.97,617.89 " fill="none" id="GenerateToken (_HvqKobLJEe2Y1pKtbIeM6Q)-to-GenerateToken (_6PoE0LmyEe2dIMSi7oNVYQ)" style="stroke:#181818;stroke-width:1.0;"/><polygon fill="#181818" points="248.1,620.72,242.9497,612.3251,243.9798,617.8874,238.4175,618.9174,248.1,620.72" style="stroke:#181818;stroke-width:1.0;"/><text fill="#000000" font-family="sans-serif" font-size="11" lengthAdjust="spacing" textLength="32" x="217.5" y="598.4189">6 - null</text></g><!--link GenerateToken (_6PoE0LmyEe2dIMSi7oNVYQ) to GenerateToken (_P4UrkLmzEe2dIMSi7oNVYQ)--><g id="link_GenerateToken (_6PoE0LmyEe2dIMSi7oNVYQ)_GenerateToken (_P4UrkLmzEe2dIMSi7oNVYQ)"><path d="M280.99,620.86 C292.05,599.55 312.38,561.71 332.5,531 C344.09,513.31 358.6,494.25 369.65,480.26 " fill="none" id="GenerateToken (_6PoE0LmyEe2dIMSi7oNVYQ)-to-GenerateToken (_P4UrkLmzEe2dIMSi7oNVYQ)" style="stroke:#181818;stroke-width:1.0;"/><polygon fill="#181818" points="372.97,476.08,364.2364,480.6324,369.857,479.9927,370.4967,485.6133,372.97,476.08" style="stroke:#181818;stroke-width:1.0;"/><text fill="#000000" font-family="sans-serif" font-size="11" lengthAdjust="spacing" textLength="36" x="333.5" y="553.4189">7 - guid</text></g><!--link GenerateToken (_P4UrkLmzEe2dIMSi7oNVYQ) to ReturnToken (_RQZ40LmzEe2dIMSi7oNVYQ)--><g id="link_GenerateToken (_P4UrkLmzEe2dIMSi7oNVYQ)_ReturnToken (_RQZ40LmzEe2dIMSi7oNVYQ)"><path d="M410.76,476.05 C432.34,490.77 463.91,512.31 486.75,527.89 " fill="none" id="GenerateToken (_P4UrkLmzEe2dIMSi7oNVYQ)-to-ReturnToken (_RQZ40LmzEe2dIMSi7oNVYQ)" style="stroke:#181818;stroke-width:1.0;"/><polygon fill="#181818" points="490.91,530.72,485.7264,522.3456,486.7786,527.9038,481.2204,528.9559,490.91,530.72" style="stroke:#181818;stroke-width:1.0;"/><text fill="#000000" font-family="sans-serif" font-size="11" lengthAdjust="spacing" textLength="36" x="460.5" y="508.4189">8 - guid</text></g><!--link ReturnToken (_RQZ40LmzEe2dIMSi7oNVYQ) to RequestToken (_POmMoLkEEe25g4oGy4Jxtw)--><g id="link_ReturnToken (_RQZ40LmzEe2dIMSi7oNVYQ)_RequestToken (_POmMoLkEEe25g4oGy4Jxtw)"><path d="M531.13,530.74 C574.88,483.84 698.47,351.35 746.28,300.1 " fill="none" id="ReturnToken (_RQZ40LmzEe2dIMSi7oNVYQ)-to-RequestToken (_POmMoLkEEe25g4oGy4Jxtw)" style="stroke:#181818;stroke-width:1.0;"/><polygon fill="#181818" points="749.86,296.26,740.8024,300.1279,746.4556,299.9219,746.6615,305.575,749.86,296.26" style="stroke:#181818;stroke-width:1.0;"/><text fill="#000000" font-family="sans-serif" font-size="11" lengthAdjust="spacing" textLength="36" x="647.5" y="418.4189">9 - guid</text></g><!--link RequestToken (_POmMoLkEEe25g4oGy4Jxtw) to RequestResults (_hlKUQLkEEe25g4oGy4Jxtw)--><g id="link_RequestToken (_POmMoLkEEe25g4oGy4Jxtw)_RequestResults (_hlKUQLkEEe25g4oGy4Jxtw)"><path d="M793.71,296.05 C818.98,310.88 856.05,332.63 882.65,348.23 " fill="none" id="RequestToken (_POmMoLkEEe25g4oGy4Jxtw)-to-RequestResults (_hlKUQLkEEe25g4oGy4Jxtw)" style="stroke:#181818;stroke-width:1.0;"/><polygon fill="#181818" points="887.16,350.87,881.4179,342.8682,882.8463,348.3418,877.3727,349.7701,887.16,350.87" style="stroke:#181818;stroke-width:1.0;"/><text fill="#000000" font-family="sans-serif" font-size="11" lengthAdjust="spacing" textLength="42" x="850.5" y="328.4189">10 - guid</text></g><!--link RequestResults (_hlKUQLkEEe25g4oGy4Jxtw) to RetrieveResult (_LVOjIbLJEe2Y1pKtbIeM6Q)--><g id="link_RequestResults (_hlKUQLkEEe25g4oGy4Jxtw)_RetrieveResult (_LVOjIbLJEe2Y1pKtbIeM6Q)"><path d="M881.63,386.14 C871.75,391.77 861.25,398.54 852.5,406 C842.05,414.91 832.24,426.66 824.73,436.69 " fill="none" id="RequestResults (_hlKUQLkEEe25g4oGy4Jxtw)-to-RetrieveResult (_LVOjIbLJEe2Y1pKtbIeM6Q)" style="stroke:#181818;stroke-width:1.0;"/><polygon fill="#181818" points="821.66,440.87,830.2101,435.9818,824.6187,436.8393,823.7611,431.2479,821.66,440.87" style="stroke:#181818;stroke-width:1.0;"/><text fill="#000000" font-family="sans-serif" font-size="11" lengthAdjust="spacing" textLength="105" x="853.5" y="418.4189">11 - registrationToken</text></g><!--link RetrieveResult (_LVOjIbLJEe2Y1pKtbIeM6Q) to RetrieveResult (_uGJfoLm0Ee2dIMSi7oNVYQ)--><g id="link_RetrieveResult (_LVOjIbLJEe2Y1pKtbIeM6Q)_RetrieveResult (_uGJfoLm0Ee2dIMSi7oNVYQ)"><path d="M809.94,476.05 C809.46,490.1 808.77,510.36 808.24,525.72 " fill="none" id="RetrieveResult (_LVOjIbLJEe2Y1pKtbIeM6Q)-to-RetrieveResult (_uGJfoLm0Ee2dIMSi7oNVYQ)" style="stroke:#181818;stroke-width:1.0;"/><polygon fill="#181818" points="808.07,530.72,812.376,521.8623,808.2413,525.7229,804.3807,521.5882,808.07,530.72" style="stroke:#181818;stroke-width:1.0;"/><text fill="#000000" font-family="sans-serif" font-size="11" lengthAdjust="spacing" textLength="105" x="810.5" y="508.4189">12 - registrationToken</text></g><!--link RetrieveResult (_uGJfoLm0Ee2dIMSi7oNVYQ) to GetTestResult (_3wsG4LNUEe2o46d27a6tVQ)--><g id="link_RetrieveResult (_uGJfoLm0Ee2dIMSi7oNVYQ)_GetTestResult (_3wsG4LNUEe2o46d27a6tVQ)"><path d="M773.64,566.05 C743.07,581 698.1,602.99 666.13,618.61 " fill="none" id="RetrieveResult (_uGJfoLm0Ee2dIMSi7oNVYQ)-to-GetTestResult (_3wsG4LNUEe2o46d27a6tVQ)" style="stroke:#181818;stroke-width:1.0;"/><polygon fill="#181818" points="661.51,620.87,671.3523,620.5106,666.0019,618.6739,667.8386,613.3236,661.51,620.87" style="stroke:#181818;stroke-width:1.0;"/><text fill="#000000" font-family="sans-serif" font-size="11" lengthAdjust="spacing" textLength="42" x="729.5" y="598.4189">13 - guid</text></g><!--link GetTestResult (_3wsG4LNUEe2o46d27a6tVQ) to GetTestResult (_LKVjYLm8Ee2dIMSi7oNVYQ)--><g id="link_GetTestResult (_3wsG4LNUEe2o46d27a6tVQ)_GetTestResult (_LKVjYLm8Ee2dIMSi7oNVYQ)"><path d="M624.49,656.05 C621.94,670.1 618.25,690.36 615.46,705.72 " fill="none" id="GetTestResult (_3wsG4LNUEe2o46d27a6tVQ)-to-GetTestResult (_LKVjYLm8Ee2dIMSi7oNVYQ)" style="stroke:#181818;stroke-width:1.0;"/><polygon fill="#181818" points="614.55,710.72,620.1017,702.585,615.4482,705.8013,612.2318,701.1479,614.55,710.72" style="stroke:#181818;stroke-width:1.0;"/><text fill="#000000" font-family="sans-serif" font-size="11" lengthAdjust="spacing" textLength="42" x="621.5" y="688.4189">14 - guid</text></g><!--link GetTestResult (_LKVjYLm8Ee2dIMSi7oNVYQ) to LoadTestResults (_caJFILNXEe2o46d27a6tVQ)--><g id="link_GetTestResult (_LKVjYLm8Ee2dIMSi7oNVYQ)_LoadTestResults (_caJFILNXEe2o46d27a6tVQ)"><path d="M576.89,746.05 C545.64,761 499.67,782.99 466.99,798.61 " fill="none" id="GetTestResult (_LKVjYLm8Ee2dIMSi7oNVYQ)-to-LoadTestResults (_caJFILNXEe2o46d27a6tVQ)" style="stroke:#181818;stroke-width:1.0;"/><polygon fill="#181818" points="462.27,800.87,472.1148,800.5866,466.7787,798.7087,468.6567,793.3726,462.27,800.87" style="stroke:#181818;stroke-width:1.0;"/><text fill="#000000" font-family="sans-serif" font-size="11" lengthAdjust="spacing" textLength="38" x="532.5" y="778.4189">15 - null</text></g><!--link LoadTestResults (_caJFILNXEe2o46d27a6tVQ) to LoadTestResults (_G67YILnGEe2hSdAxtFJKiA)--><g id="link_LoadTestResults (_caJFILNXEe2o46d27a6tVQ)_LoadTestResults (_G67YILnGEe2hSdAxtFJKiA)"><path d="M444.62,836.05 C459.52,850.46 481.19,871.42 497.21,886.91 " fill="none" id="LoadTestResults (_caJFILNXEe2o46d27a6tVQ)-to-LoadTestResults (_G67YILnGEe2hSdAxtFJKiA)" style="stroke:#181818;stroke-width:1.0;"/><polygon fill="#181818" points="501.15,890.72,497.4479,881.5934,497.5508,887.2493,491.8949,887.3522,501.15,890.72" style="stroke:#181818;stroke-width:1.0;"/><text fill="#000000" font-family="sans-serif" font-size="11" lengthAdjust="spacing" textLength="38" x="479.5" y="868.4189">16 - null</text></g><!--link LoadTestResults (_G67YILnGEe2hSdAxtFJKiA) to GetTestResult (_LKVjYLm8Ee2dIMSi7oNVYQ)--><g id="link_LoadTestResults (_G67YILnGEe2hSdAxtFJKiA)_GetTestResult (_LKVjYLm8Ee2dIMSi7oNVYQ)"><path d="M535.94,890.75 C549.25,877.11 567.17,856.77 578.5,836 C593.43,808.63 602.64,773.53 607.41,751.27 " fill="none" id="LoadTestResults (_G67YILnGEe2hSdAxtFJKiA)-to-GetTestResult (_LKVjYLm8Ee2dIMSi7oNVYQ)" style="stroke:#181818;stroke-width:1.0;"/><polygon fill="#181818" points="608.48,746.18,602.7387,754.1824,607.4665,751.0762,610.5727,755.804,608.48,746.18" style="stroke:#181818;stroke-width:1.0;"/><text fill="#000000" font-family="sans-serif" font-size="11" lengthAdjust="spacing" textLength="42" x="594.5" y="823.4189">17 - guid</text></g><!--link GetTestResult (_LKVjYLm8Ee2dIMSi7oNVYQ) to ReturnTestResult (_L1upwLm8Ee2dIMSi7oNVYQ)--><g id="link_GetTestResult (_LKVjYLm8Ee2dIMSi7oNVYQ)_ReturnTestResult (_L1upwLm8Ee2dIMSi7oNVYQ)"><path d="M650.81,746.05 C686.46,761.06 738.96,783.17 776.1,798.81 " fill="none" id="GetTestResult (_LKVjYLm8Ee2dIMSi7oNVYQ)-to-ReturnTestResult (_L1upwLm8Ee2dIMSi7oNVYQ)" style="stroke:#181818;stroke-width:1.0;"/><polygon fill="#181818" points="781.01,800.87,774.2675,793.6909,776.4018,798.9297,771.1631,801.064,781.01,800.87" style="stroke:#181818;stroke-width:1.0;"/><text fill="#000000" font-family="sans-serif" font-size="11" lengthAdjust="spacing" textLength="42" x="730.5" y="778.4189">18 - guid</text></g><!--link ReturnTestResult (_L1upwLm8Ee2dIMSi7oNVYQ) to RetrieveResult (_uGJfoLm0Ee2dIMSi7oNVYQ)--><g id="link_ReturnTestResult (_L1upwLm8Ee2dIMSi7oNVYQ)_RetrieveResult (_uGJfoLm0Ee2dIMSi7oNVYQ)"><path d="M819.69,800.74 C817.43,754.22 811.09,623.47 808.56,571.35 " fill="none" id="ReturnTestResult (_L1upwLm8Ee2dIMSi7oNVYQ)-to-RetrieveResult (_uGJfoLm0Ee2dIMSi7oNVYQ)" style="stroke:#181818;stroke-width:1.0;"/><polygon fill="#181818" points="808.31,566.26,804.7526,575.444,808.5533,571.2541,812.7431,575.0547,808.31,566.26" style="stroke:#181818;stroke-width:1.0;"/><text fill="#000000" font-family="sans-serif" font-size="11" lengthAdjust="spacing" textLength="105" x="815.5" y="688.4189">19 - registrationToken</text></g><!--link RetrieveResult (_uGJfoLm0Ee2dIMSi7oNVYQ) to ReturnResult (_vOMFwLm0Ee2dIMSi7oNVYQ)--><g id="link_RetrieveResult (_uGJfoLm0Ee2dIMSi7oNVYQ)_ReturnResult (_vOMFwLm0Ee2dIMSi7oNVYQ)"><path d="M818.23,566.11 C826.36,577.46 838.51,592.02 852.5,601 C864.1,608.45 877.29,614.43 890.61,619.21 " fill="none" id="RetrieveResult (_uGJfoLm0Ee2dIMSi7oNVYQ)-to-ReturnResult (_vOMFwLm0Ee2dIMSi7oNVYQ)" style="stroke:#181818;stroke-width:1.0;"/><polygon fill="#181818" points="895.52,620.92,888.3376,614.1811,890.7985,619.2746,885.705,621.7355,895.52,620.92" style="stroke:#181818;stroke-width:1.0;"/><text fill="#000000" font-family="sans-serif" font-size="11" lengthAdjust="spacing" textLength="105" x="853.5" y="598.4189">20 - registrationToken</text></g><!--link ReturnResult (_vOMFwLm0Ee2dIMSi7oNVYQ) to RequestResults (_hlKUQLkEEe25g4oGy4Jxtw)--><g id="link_ReturnResult (_vOMFwLm0Ee2dIMSi7oNVYQ)_RequestResults (_hlKUQLkEEe25g4oGy4Jxtw)"><path d="M978.71,620.89 C985.54,581.13 997.95,478.45 960.5,406 C957.33,399.88 952.64,394.41 947.46,389.7 " fill="none" id="ReturnResult (_vOMFwLm0Ee2dIMSi7oNVYQ)-to-RequestResults (_hlKUQLkEEe25g4oGy4Jxtw)" style="stroke:#181818;stroke-width:1.0;"/><polygon fill="#181818" points="943.42,386.24,947.6336,395.142,947.2102,389.501,952.8512,389.0777,943.42,386.24" style="stroke:#181818;stroke-width:1.0;"/><text fill="#000000" font-family="sans-serif" font-size="11" lengthAdjust="spacing" textLength="42" x="987.5" y="508.4189">21 - guid</text></g><!--link RequestResults (_hlKUQLkEEe25g4oGy4Jxtw) to ReturnTestResults (_muIZMLkEEe25g4oGy4Jxtw)--><g id="link_RequestResults (_hlKUQLkEEe25g4oGy4Jxtw)_ReturnTestResults (_muIZMLkEEe25g4oGy4Jxtw)"><path d="M960.27,386.05 C1001.11,401.15 1061.37,423.44 1103.72,439.09 " fill="none" id="RequestResults (_hlKUQLkEEe25g4oGy4Jxtw)-to-ReturnTestResults (_muIZMLkEEe25g4oGy4Jxtw)" style="stroke:#181818;stroke-width:1.0;"/><polygon fill="#181818" points="1108.53,440.87,1101.4891,433.9834,1103.8437,439.1269,1098.7001,441.4815,1108.53,440.87" style="stroke:#181818;stroke-width:1.0;"/><text fill="#000000" font-family="sans-serif" font-size="11" lengthAdjust="spacing" textLength="42" x="1050.5" y="418.4189">22 - guid</text></g><!--link ReturnTestResults (_muIZMLkEEe25g4oGy4Jxtw) to ScanQRCode (_idM8ELZ-Ee2xLZp9hElpuA)--><g id="link_ReturnTestResults (_muIZMLkEEe25g4oGy4Jxtw)_ScanQRCode (_idM8ELZ-Ee2xLZp9hElpuA)"><path d="M1147.09,440.91 C1140.91,423.43 1132.5,394.94 1132.5,369.5 C1132.5,187.5 1132.5,187.5 1132.5,187.5 C1132.5,164.93 1132.5,139.11 1132.5,121.3 " fill="none" id="ReturnTestResults (_muIZMLkEEe25g4oGy4Jxtw)-to-ScanQRCode (_idM8ELZ-Ee2xLZp9hElpuA)" style="stroke:#181818;stroke-width:1.0;"/><polygon fill="#181818" points="1132.5,116.04,1128.5,125.04,1132.5,121.04,1136.5,125.04,1132.5,116.04" style="stroke:#181818;stroke-width:1.0;"/><text fill="#000000" font-family="sans-serif" font-size="11" lengthAdjust="spacing" textLength="38" x="1133.5" y="283.4189">23 - null</text></g><!--link ScanQRCode (_idM8ELZ-Ee2xLZp9hElpuA) to end--><g id="link_ScanQRCode (_idM8ELZ-Ee2xLZp9hElpuA)_end"><path d="M1140.21,116.05 C1148.05,132.87 1160.03,158.6 1167.28,174.16 " fill="none" id="ScanQRCode (_idM8ELZ-Ee2xLZp9hElpuA)-to-end" style="stroke:#181818;stroke-width:1.0;"/><polygon fill="#181818" points="1169.55,179.02,1169.3926,169.1724,1167.4465,174.484,1162.135,172.5379,1169.55,179.02" style="stroke:#181818;stroke-width:1.0;"/><text fill="#000000" font-family="sans-serif" font-size="11" lengthAdjust="spacing" textLength="38" x="1155.5" y="148.4189">24 - null</text></g><!--SRC=[lPPTRw9058RlzrUGNcaJ4q0AUjF4R902Wz-QwcQpeJAhA30MPjJsr- -uCxLrPThP2xr_tlDmpfoPKBcjAhNQlV93LMfAHfBaft8pd8TPV_0THL2f_8gZe663MSs6-XxCDisbdMn8gthpJGvZnJLQV47YY1OVm6S22pn2QvZHt7xbUmNm6pGtrJO-Vd9XOFOFvIL19j25Wbut3H1OspHtjp2Gys9uUxmh4OX09gY_2noOmJp4y2q89W_Q_0buvot8aanXY1KzOvolGVfAWv4R36CBTIRJKeM8P8gxzqF-D_YmVVQHL1SYaYbCiSBi8Li5wSlNNOX8fh0kFwZ6ntt29C_UOeF-p51B1N8SAz-yzBfgwfbX00kIu896bua_xd_c-1hbbiEzpk4YBZ0TROnOzsncUGota1Nwk_dTbLkwNT8eL-goIk9uln58rTAJaaEvykJkuz5nG3HPtnME0JfZcaI66UbMQE89tpSvaZiCiGFuazKKf8sodPOZkUF3xGSeZ4Od9pqFlROBEe_ddSYpt6D-vd5CQ-g2pA7PvJ1gxN7Ry-DMkKV4SezrXPcTFmGdOOriTgMQ_u2vgNdrnTPLiP9-_B7AjXkqToAX3CXrsZNU95qNdzWXdH9t5WX4yZHtrI_vqwGRn-gLs-eV]--></g></svg>