<?xml version="1.0" encoding="us-ascii" standalone="no"?><svg xmlns="http://www.w3.org/2000/svg" xmlns:xlink="http://www.w3.org/1999/xlink" contentStyleType="text/css" height="572px" preserveAspectRatio="none" style="width:356px;height:572px;background:#FFFFFF;" version="1.1" viewBox="0 0 356 572" width="356px" zoomAndPan="magnify"><defs/><g><ellipse cx="226.5" cy="16" fill="#222222" rx="10" ry="10" style="stroke:none;stroke-width:1.0;"/><rect fill="#F1F1F1" height="35.0938" rx="12.5" ry="12.5" style="stroke:#181818;stroke-width:0.5;" width="190" x="131.5" y="81"/><text fill="#000000" font-family="sans-serif" font-size="12" lengthAdjust="spacing" textLength="170" x="141.5" y="103.457">_Ldj5QLRJEe25KMRnMCaMfw</text><rect fill="#F1F1F1" height="35.0938" rx="12.5" ry="12.5" style="stroke:#181818;stroke-width:0.5;" width="189" x="7" y="171"/><text fill="#000000" font-family="sans-serif" font-size="12" lengthAdjust="spacing" textLength="169" x="17" y="193.457">_ZUMSwLNVEe2o46d27a6tVQ</text><rect fill="#F1F1F1" height="35.0938" rx="12.5" ry="12.5" style="stroke:#181818;stroke-width:0.5;" width="176" x="101.5" y="261"/><text fill="#000000" font-family="sans-serif" font-size="12" lengthAdjust="spacing" textLength="156" x="111.5" y="283.457">_rctekLm8Ee2dIMSi7oNVYQ</text><rect fill="#F1F1F1" height="35.0938" rx="12.5" ry="12.5" style="stroke:#181818;stroke-width:0.5;" width="185" x="30" y="351"/><text fill="#000000" font-family="sans-serif" font-size="12" lengthAdjust="spacing" textLength="165" x="40" y="373.457">_OYn9ELNVEe2o46d27a6tVQ</text><rect fill="#F1F1F1" height="35.0938" rx="12.5" ry="12.5" style="stroke:#181818;stroke-width:0.5;" width="183" x="98" y="441"/><text fill="#000000" font-family="sans-serif" font-size="12" lengthAdjust="spacing" textLength="163" x="108" y="463.457">_YIPkQLm8Ee2dIMSi7oNVYQ</text><rect fill="#F1F1F1" height="35.0938" rx="12.5" ry="12.5" style="stroke:#181818;stroke-width:0.5;" width="177" x="101" y="531"/><text fill="#000000" font-family="sans-serif" font-size="12" lengthAdjust="spacing" textLength="157" x="111" y="553.457">_c6ziMLNXEe2o46d27a6tVQ</text><ellipse cx="226.5" cy="188.5" fill="none" rx="10" ry="10" style="stroke:#222222;stroke-width:1.0;"/><ellipse cx="227" cy="189" fill="#222222" rx="6" ry="6" style="stroke:none;stroke-width:1.0;"/><!--link start to _Ldj5QLRJEe25KMRnMCaMfw--><g id="link_start__Ldj5QLRJEe25KMRnMCaMfw"><path d="M226.5,26.23 C226.5,38.18 226.5,59.38 226.5,75.56 " fill="none" id="start-to-_Ldj5QLRJEe25KMRnMCaMfw" style="stroke:#181818;stroke-width:1.0;"/><polygon fill="#181818" points="226.5,80.84,230.5,71.84,226.5,75.84,222.5,71.84,226.5,80.84" style="stroke:#181818;stroke-width:1.0;"/><text fill="#000000" font-family="sans-serif" font-size="11" lengthAdjust="spacing" textLength="32" x="227.5" y="58.4189">0 - null</text></g><!--link _Ldj5QLRJEe25KMRnMCaMfw to _ZUMSwLNVEe2o46d27a6tVQ--><g id="link__Ldj5QLRJEe25KMRnMCaMfw__ZUMSwLNVEe2o46d27a6tVQ"><path d="M162.59,116.1 C150.72,121.16 139.07,127.67 129.5,136 C120.4,143.93 113.72,155.56 109.17,165.77 " fill="none" id="_Ldj5QLRJEe25KMRnMCaMfw-to-_ZUMSwLNVEe2o46d27a6tVQ" style="stroke:#181818;stroke-width:1.0;"/><polygon fill="#181818" points="107.11,170.64,114.3142,163.9244,109.0675,166.0391,106.9528,160.7924,107.11,170.64" style="stroke:#181818;stroke-width:1.0;"/><text fill="#000000" font-family="sans-serif" font-size="11" lengthAdjust="spacing" textLength="90" x="130.5" y="148.4189">1 - testResult, guid</text></g><!--link _ZUMSwLNVEe2o46d27a6tVQ to _rctekLm8Ee2dIMSi7oNVYQ--><g id="link__ZUMSwLNVEe2o46d27a6tVQ__rctekLm8Ee2dIMSi7oNVYQ"><path d="M118.05,206.05 C132.46,220.46 153.42,241.42 168.91,256.91 " fill="none" id="_ZUMSwLNVEe2o46d27a6tVQ-to-_rctekLm8Ee2dIMSi7oNVYQ" style="stroke:#181818;stroke-width:1.0;"/><polygon fill="#181818" points="172.72,260.72,169.1845,251.5276,169.1845,257.1845,163.5276,257.1845,172.72,260.72" style="stroke:#181818;stroke-width:1.0;"/><text fill="#000000" font-family="sans-serif" font-size="11" lengthAdjust="spacing" textLength="90" x="152.5" y="238.4189">2 - testResult, guid</text></g><!--link _rctekLm8Ee2dIMSi7oNVYQ to _OYn9ELNVEe2o46d27a6tVQ--><g id="link__rctekLm8Ee2dIMSi7oNVYQ__OYn9ELNVEe2o46d27a6tVQ"><path d="M166.96,296.19 C160.15,301.95 153.02,308.79 147.5,316 C140.54,325.09 134.78,336.42 130.56,346.14 " fill="none" id="_rctekLm8Ee2dIMSi7oNVYQ-to-_OYn9ELNVEe2o46d27a6tVQ" style="stroke:#181818;stroke-width:1.0;"/><polygon fill="#181818" points="128.6,350.76,135.7865,344.0255,130.5454,346.154,128.4169,340.9128,128.6,350.76" style="stroke:#181818;stroke-width:1.0;"/><text fill="#000000" font-family="sans-serif" font-size="11" lengthAdjust="spacing" textLength="90" x="148.5" y="328.4189">3 - testResult, guid</text></g><!--link _OYn9ELNVEe2o46d27a6tVQ to _YIPkQLm8Ee2dIMSi7oNVYQ--><g id="link__OYn9ELNVEe2o46d27a6tVQ__YIPkQLm8Ee2dIMSi7oNVYQ"><path d="M128.6,386.24 C132.93,396.81 139.4,410.43 147.5,421 C151.99,426.86 157.53,432.47 163.11,437.46 " fill="none" id="_OYn9ELNVEe2o46d27a6tVQ-to-_YIPkQLm8Ee2dIMSi7oNVYQ" style="stroke:#181818;stroke-width:1.0;"/><polygon fill="#181818" points="166.96,440.81,162.8016,431.8821,163.19,437.5256,157.5465,437.914,166.96,440.81" style="stroke:#181818;stroke-width:1.0;"/><text fill="#000000" font-family="sans-serif" font-size="11" lengthAdjust="spacing" textLength="90" x="148.5" y="418.4189">4 - testResult, guid</text></g><!--link _YIPkQLm8Ee2dIMSi7oNVYQ to _c6ziMLNXEe2o46d27a6tVQ--><g id="link__YIPkQLm8Ee2dIMSi7oNVYQ__c6ziMLNXEe2o46d27a6tVQ"><path d="M160.6,476.08 C148.36,485.41 138.22,497.82 144.5,511 C147.47,517.22 152.07,522.73 157.22,527.46 " fill="none" id="_YIPkQLm8Ee2dIMSi7oNVYQ-to-_c6ziMLNXEe2o46d27a6tVQ" style="stroke:#181818;stroke-width:1.0;"/><polygon fill="#181818" points="161.25,530.92,157.0557,522.0089,157.4668,527.6508,151.825,528.0619,161.25,530.92" style="stroke:#181818;stroke-width:1.0;"/><text fill="#000000" font-family="sans-serif" font-size="11" lengthAdjust="spacing" textLength="64" x="145.5" y="508.4189">5 - testResult</text></g><!--link _c6ziMLNXEe2o46d27a6tVQ to _YIPkQLm8Ee2dIMSi7oNVYQ--><g id="link__c6ziMLNXEe2o46d27a6tVQ__YIPkQLm8Ee2dIMSi7oNVYQ"><path d="M203,530.74 C209.33,520.87 214.83,507.99 211.5,496 C210.01,490.65 207.51,485.3 204.71,480.41 " fill="none" id="_c6ziMLNXEe2o46d27a6tVQ-to-_YIPkQLm8Ee2dIMSi7oNVYQ" style="stroke:#181818;stroke-width:1.0;"/><polygon fill="#181818" points="202.08,476.07,203.3189,485.8406,204.6693,480.3473,210.1626,481.6978,202.08,476.07" style="stroke:#181818;stroke-width:1.0;"/><text fill="#000000" font-family="sans-serif" font-size="11" lengthAdjust="spacing" textLength="90" x="214.5" y="508.4189">6 - testResult, guid</text></g><!--link _YIPkQLm8Ee2dIMSi7oNVYQ to _rctekLm8Ee2dIMSi7oNVYQ--><g id="link__YIPkQLm8Ee2dIMSi7oNVYQ__rctekLm8Ee2dIMSi7oNVYQ"><path d="M222.5,440.84 C229.72,435.54 236.42,428.94 240.5,421 C261.83,379.5 261.83,357.5 240.5,316 C237.18,309.55 232.14,303.98 226.49,299.28 " fill="none" id="_YIPkQLm8Ee2dIMSi7oNVYQ-to-_rctekLm8Ee2dIMSi7oNVYQ" style="stroke:#181818;stroke-width:1.0;"/><polygon fill="#181818" points="222.5,296.16,227.1223,304.8568,226.4375,299.2415,232.0528,298.5568,222.5,296.16" style="stroke:#181818;stroke-width:1.0;"/><text fill="#000000" font-family="sans-serif" font-size="11" lengthAdjust="spacing" textLength="90" x="258.5" y="373.4189">7 - testResult, guid</text></g><!--link _rctekLm8Ee2dIMSi7oNVYQ to _Ldj5QLRJEe25KMRnMCaMfw--><g id="link__rctekLm8Ee2dIMSi7oNVYQ__Ldj5QLRJEe25KMRnMCaMfw"><path d="M227.33,260.89 C235.48,255.65 243.22,249.06 248.5,241 C296.88,167.18 272.5,163.36 261.5,136 C259.15,130.15 255.36,124.7 251.12,119.9 " fill="none" id="_rctekLm8Ee2dIMSi7oNVYQ-to-_Ldj5QLRJEe25KMRnMCaMfw" style="stroke:#181818;stroke-width:1.0;"/><polygon fill="#181818" points="247.48,116.02,250.7161,125.322,250.8992,119.6681,256.5531,119.8513,247.48,116.02" style="stroke:#181818;stroke-width:1.0;"/><text fill="#000000" font-family="sans-serif" font-size="11" lengthAdjust="spacing" textLength="32" x="277.5" y="193.4189">8 - null</text></g><!--link _Ldj5QLRJEe25KMRnMCaMfw to end--><g id="link__Ldj5QLRJEe25KMRnMCaMfw_end"><path d="M226.5,116.05 C226.5,132.37 226.5,157.07 226.5,172.74 " fill="none" id="_Ldj5QLRJEe25KMRnMCaMfw-to-end" style="stroke:#181818;stroke-width:1.0;"/><polygon fill="#181818" points="226.5,178.07,230.5,169.07,226.5,173.07,222.5,169.07,226.5,178.07" style="stroke:#181818;stroke-width:1.0;"/><text fill="#000000" font-family="sans-serif" font-size="11" lengthAdjust="spacing" textLength="32" x="227.5" y="148.4189">9 - null</text></g><!--SRC=[hTBD2e9058RXVLSnj599AFDtqoPSM3EMIf95XAY5QGev8dJrQGD1v5db-kKyV3332JmInGKwJf68YZhFJsXynl5DSR2xCXD9MHEt8CkGN9hn22oCcBK4JIhg9bMTqmcwrcdSSOSTyHfi- -rHAQknf8KgzPsE0mhZ981xH3J9y5rlZsABUAbMsdxmve32k3d0ROB2C7lN0OLnCi05rZPpUjS1XN7A5zT1aVfC2RRtlxk0mY1rs5tQi8-W___BZ0_12VmB]--></g></svg>