<?xml version="1.0" encoding="us-ascii" standalone="no"?><svg xmlns="http://www.w3.org/2000/svg" xmlns:xlink="http://www.w3.org/1999/xlink" contentStyleType="text/css" height="662px" preserveAspectRatio="none" style="width:516px;height:662px;background:#FFFFFF;" version="1.1" viewBox="0 0 516 662" width="516px" zoomAndPan="magnify"><defs/><g><ellipse cx="399.5" cy="16" fill="#222222" rx="10" ry="10" style="stroke:none;stroke-width:1.0;"/><rect fill="#F1F1F1" height="35.0938" rx="12.5" ry="12.5" style="stroke:#181818;stroke-width:0.5;" width="176" x="311.5" y="81"/><text fill="#000000" font-family="sans-serif" font-size="12" lengthAdjust="spacing" textLength="156" x="321.5" y="103.457">_oJMyYLZ6Ee2xLZp9hElpuA</text><rect fill="#F1F1F1" height="35.0938" rx="12.5" ry="12.5" style="stroke:#181818;stroke-width:0.5;" width="182" x="177.5" y="171"/><text fill="#000000" font-family="sans-serif" font-size="12" lengthAdjust="spacing" textLength="162" x="187.5" y="193.457">_wfCaQLK8Ee2Y1pKtbIeM6Q</text><rect fill="#F1F1F1" height="35.0938" rx="12.5" ry="12.5" style="stroke:#181818;stroke-width:0.5;" width="179" x="245" y="261"/><text fill="#000000" font-family="sans-serif" font-size="12" lengthAdjust="spacing" textLength="159" x="255" y="283.457">_PAn3gLkDEe25g4oGy4Jxtw</text><rect fill="#F1F1F1" height="35.0938" rx="12.5" ry="12.5" style="stroke:#181818;stroke-width:0.5;" width="176" x="179.5" y="351"/><text fill="#000000" font-family="sans-serif" font-size="12" lengthAdjust="spacing" textLength="156" x="189.5" y="373.457">_2v6MILKgEe2Y1pKtbIeM6Q</text><rect fill="#F1F1F1" height="35.0938" rx="12.5" ry="12.5" style="stroke:#181818;stroke-width:0.5;" width="178" x="163.5" y="441"/><text fill="#000000" font-family="sans-serif" font-size="12" lengthAdjust="spacing" textLength="158" x="173.5" y="463.457">_jxGdwLdLEe2lCsB2iGU-8w</text><rect fill="#F1F1F1" height="35.0938" rx="12.5" ry="12.5" style="stroke:#181818;stroke-width:0.5;" width="177" x="7" y="531"/><text fill="#000000" font-family="sans-serif" font-size="12" lengthAdjust="spacing" textLength="157" x="17" y="553.457">_4HylELKgEe2Y1pKtbIeM6Q</text><rect fill="#F1F1F1" height="35.0938" rx="12.5" ry="12.5" style="stroke:#181818;stroke-width:0.5;" width="182" x="69.5" y="621"/><text fill="#000000" font-family="sans-serif" font-size="12" lengthAdjust="spacing" textLength="162" x="79.5" y="643.457">_FLa7oLdQEe2lCsB2iGU-8w</text><rect fill="#F1F1F1" height="35.0938" rx="12.5" ry="12.5" style="stroke:#181818;stroke-width:0.5;" width="177" x="333" y="531"/><text fill="#000000" font-family="sans-serif" font-size="12" lengthAdjust="spacing" textLength="157" x="343" y="553.457">_3tukQLdLEe2lCsB2iGU-8w</text><ellipse cx="469.5" cy="188.5" fill="none" rx="10" ry="10" style="stroke:#222222;stroke-width:1.0;"/><ellipse cx="470" cy="189" fill="#222222" rx="6" ry="6" style="stroke:none;stroke-width:1.0;"/><!--link start to _oJMyYLZ6Ee2xLZp9hElpuA--><g id="link_start__oJMyYLZ6Ee2xLZp9hElpuA"><path d="M399.5,26.23 C399.5,38.18 399.5,59.38 399.5,75.56 " fill="none" id="start-to-_oJMyYLZ6Ee2xLZp9hElpuA" style="stroke:#181818;stroke-width:1.0;"/><polygon fill="#181818" points="399.5,80.84,403.5,71.84,399.5,75.84,395.5,71.84,399.5,80.84" style="stroke:#181818;stroke-width:1.0;"/><text fill="#000000" font-family="sans-serif" font-size="11" lengthAdjust="spacing" textLength="32" x="400.5" y="58.4189">0 - null</text></g><!--link _oJMyYLZ6Ee2xLZp9hElpuA to _wfCaQLK8Ee2Y1pKtbIeM6Q--><g id="link__oJMyYLZ6Ee2xLZp9hElpuA__wfCaQLK8Ee2Y1pKtbIeM6Q"><path d="M329,116.1 C316.95,121.12 305.2,127.62 295.5,136 C286.44,143.83 279.98,155.46 275.66,165.68 " fill="none" id="_oJMyYLZ6Ee2xLZp9hElpuA-to-_wfCaQLK8Ee2Y1pKtbIeM6Q" style="stroke:#181818;stroke-width:1.0;"/><polygon fill="#181818" points="273.7,170.57,280.7564,163.6993,275.557,165.9276,273.3286,160.7281,273.7,170.57" style="stroke:#181818;stroke-width:1.0;"/><text fill="#000000" font-family="sans-serif" font-size="11" lengthAdjust="spacing" textLength="86" x="296.5" y="148.4189">1 - certificateData</text></g><!--link _wfCaQLK8Ee2Y1pKtbIeM6Q to _PAn3gLkDEe25g4oGy4Jxtw--><g id="link__wfCaQLK8Ee2Y1pKtbIeM6Q__PAn3gLkDEe25g4oGy4Jxtw"><path d="M275.47,206.11 C280.29,216.63 287.31,230.24 295.5,241 C299.8,246.64 305.01,252.18 310.2,257.16 " fill="none" id="_wfCaQLK8Ee2Y1pKtbIeM6Q-to-_PAn3gLkDEe25g4oGy4Jxtw" style="stroke:#181818;stroke-width:1.0;"/><polygon fill="#181818" points="314.16,260.85,310.311,251.7844,310.5052,257.4379,304.8517,257.6321,314.16,260.85" style="stroke:#181818;stroke-width:1.0;"/><text fill="#000000" font-family="sans-serif" font-size="11" lengthAdjust="spacing" textLength="86" x="296.5" y="238.4189">2 - certificateData</text></g><!--link _PAn3gLkDEe25g4oGy4Jxtw to _2v6MILKgEe2Y1pKtbIeM6Q--><g id="link__PAn3gLkDEe25g4oGy4Jxtw__2v6MILKgEe2Y1pKtbIeM6Q"><path d="M314.83,296.32 C308.57,302.19 301.88,309.06 296.5,316 C289.26,325.34 282.67,336.7 277.6,346.37 " fill="none" id="_PAn3gLkDEe25g4oGy4Jxtw-to-_2v6MILKgEe2Y1pKtbIeM6Q" style="stroke:#181818;stroke-width:1.0;"/><polygon fill="#181818" points="275.24,350.96,282.9142,344.7869,277.5274,346.5139,275.8004,341.1271,275.24,350.96" style="stroke:#181818;stroke-width:1.0;"/><text fill="#000000" font-family="sans-serif" font-size="11" lengthAdjust="spacing" textLength="86" x="297.5" y="328.4189">3 - certificateData</text></g><!--link _2v6MILKgEe2Y1pKtbIeM6Q to _jxGdwLdLEe2lCsB2iGU-8w--><g id="link__2v6MILKgEe2Y1pKtbIeM6Q__jxGdwLdLEe2lCsB2iGU-8w"><path d="M264.68,386.05 C262.28,400.1 258.83,420.36 256.21,435.72 " fill="none" id="_2v6MILKgEe2Y1pKtbIeM6Q-to-_jxGdwLdLEe2lCsB2iGU-8w" style="stroke:#181818;stroke-width:1.0;"/><polygon fill="#181818" points="255.36,440.72,260.8159,432.5204,256.2005,435.7911,252.9298,431.1757,255.36,440.72" style="stroke:#181818;stroke-width:1.0;"/><text fill="#000000" font-family="sans-serif" font-size="11" lengthAdjust="spacing" textLength="86" x="262.5" y="418.4189">4 - certificateData</text></g><!--link _jxGdwLdLEe2lCsB2iGU-8w to _4HylELKgEe2Y1pKtbIeM6Q--><g id="link__jxGdwLdLEe2lCsB2iGU-8w__4HylELKgEe2Y1pKtbIeM6Q"><path d="M163.25,473.02 C147.84,478.34 132.83,485.73 120.5,496 C111.31,503.65 105.24,515.49 101.38,525.88 " fill="none" id="_jxGdwLdLEe2lCsB2iGU-8w-to-_4HylELKgEe2Y1pKtbIeM6Q" style="stroke:#181818;stroke-width:1.0;"/><polygon fill="#181818" points="99.66,530.84,106.3727,523.6331,101.2882,526.1125,98.8088,521.028,99.66,530.84" style="stroke:#181818;stroke-width:1.0;"/><text fill="#000000" font-family="sans-serif" font-size="11" lengthAdjust="spacing" textLength="86" x="121.5" y="508.4189">5 - certificateData</text></g><!--link _4HylELKgEe2Y1pKtbIeM6Q to _FLa7oLdQEe2lCsB2iGU-8w--><g id="link__4HylELKgEe2Y1pKtbIeM6Q__FLa7oLdQEe2lCsB2iGU-8w"><path d="M101.69,566.17 C106.05,576.72 112.53,590.33 120.5,601 C124.71,606.64 129.89,612.11 135.1,617.02 " fill="none" id="_4HylELKgEe2Y1pKtbIeM6Q-to-_FLa7oLdQEe2lCsB2iGU-8w" style="stroke:#181818;stroke-width:1.0;"/><polygon fill="#181818" points="139.07,620.66,135.148,611.6257,135.3878,617.2775,129.736,617.5173,139.07,620.66" style="stroke:#181818;stroke-width:1.0;"/><text fill="#000000" font-family="sans-serif" font-size="11" lengthAdjust="spacing" textLength="86" x="121.5" y="598.4189">6 - certificateData</text></g><!--link _FLa7oLdQEe2lCsB2iGU-8w to _jxGdwLdLEe2lCsB2iGU-8w--><g id="link__FLa7oLdQEe2lCsB2iGU-8w__jxGdwLdLEe2lCsB2iGU-8w"><path d="M189.17,620.84 C196.66,615.34 204.13,608.64 209.5,601 C216.48,591.07 236.63,518.53 246.67,481.35 " fill="none" id="_FLa7oLdQEe2lCsB2iGU-8w-to-_jxGdwLdLEe2lCsB2iGU-8w" style="stroke:#181818;stroke-width:1.0;"/><polygon fill="#181818" points="248.08,476.13,241.8778,483.7806,246.7801,480.9581,249.6027,485.8604,248.08,476.13" style="stroke:#181818;stroke-width:1.0;"/><text fill="#000000" font-family="sans-serif" font-size="11" lengthAdjust="spacing" textLength="86" x="234.5" y="553.4189">7 - certificateData</text></g><!--link _jxGdwLdLEe2lCsB2iGU-8w to _3tukQLdLEe2lCsB2iGU-8w--><g id="link__jxGdwLdLEe2lCsB2iGU-8w__3tukQLdLEe2lCsB2iGU-8w"><path d="M262.9,476.13 C270.81,487.5 282.67,502.06 296.5,511 C308.08,518.49 321.24,524.48 334.57,529.26 " fill="none" id="_jxGdwLdLEe2lCsB2iGU-8w-to-_3tukQLdLEe2lCsB2iGU-8w" style="stroke:#181818;stroke-width:1.0;"/><polygon fill="#181818" points="339.49,530.97,332.3076,524.2311,334.7685,529.3246,329.675,531.7855,339.49,530.97" style="stroke:#181818;stroke-width:1.0;"/><text fill="#000000" font-family="sans-serif" font-size="11" lengthAdjust="spacing" textLength="86" x="297.5" y="508.4189">8 - certificateData</text></g><!--link _3tukQLdLEe2lCsB2iGU-8w to _PAn3gLkDEe25g4oGy4Jxtw--><g id="link__3tukQLdLEe2lCsB2iGU-8w__PAn3gLkDEe25g4oGy4Jxtw"><path d="M423.08,530.88 C426.06,490.68 428.79,386.31 385.5,316 C381.56,309.6 376.03,303.99 370.06,299.22 " fill="none" id="_3tukQLdLEe2lCsB2iGU-8w-to-_PAn3gLkDEe25g4oGy4Jxtw" style="stroke:#181818;stroke-width:1.0;"/><polygon fill="#181818" points="365.87,296.05,370.6355,304.6691,369.858,299.066,375.4611,298.2884,365.87,296.05" style="stroke:#181818;stroke-width:1.0;"/><text fill="#000000" font-family="sans-serif" font-size="11" lengthAdjust="spacing" textLength="86" x="421.5" y="418.4189">9 - certificateData</text></g><!--link _PAn3gLkDEe25g4oGy4Jxtw to _oJMyYLZ6Ee2xLZp9hElpuA--><g id="link__PAn3gLkDEe25g4oGy4Jxtw__oJMyYLZ6Ee2xLZp9hElpuA"><path d="M365.52,260.99 C372.89,255.6 379.94,248.91 384.5,241 C406.22,203.32 405.16,150.55 402.38,121.26 " fill="none" id="_PAn3gLkDEe25g4oGy4Jxtw-to-_oJMyYLZ6Ee2xLZp9hElpuA" style="stroke:#181818;stroke-width:1.0;"/><polygon fill="#181818" points="401.85,116.07,398.7973,125.4338,402.3645,121.0435,406.7549,124.6106,401.85,116.07" style="stroke:#181818;stroke-width:1.0;"/><text fill="#000000" font-family="sans-serif" font-size="11" lengthAdjust="spacing" textLength="38" x="404.5" y="193.4189">10 - null</text></g><!--link _oJMyYLZ6Ee2xLZp9hElpuA to end--><g id="link__oJMyYLZ6Ee2xLZp9hElpuA_end"><path d="M412.67,116.05 C426.57,133.53 448.12,160.62 460.3,175.93 " fill="none" id="_oJMyYLZ6Ee2xLZp9hElpuA-to-end" style="stroke:#181818;stroke-width:1.0;"/><polygon fill="#181818" points="463.47,179.92,460.9967,170.3867,460.357,176.0073,454.7364,175.3676,463.47,179.92" style="stroke:#181818;stroke-width:1.0;"/><text fill="#000000" font-family="sans-serif" font-size="11" lengthAdjust="spacing" textLength="38" x="439.5" y="148.4189">11 - null</text></g><!--SRC=[hTFB2e9068RXVLSnjB90o4Dccw23MVaBkMXX4J6fcJMar9Xwzsa3RPhPkNxv7xu1bVez9CiJT1WW6JroGeweUqetRkN3th0YjOHzDhvQ9CkdtOwmC4AfYI1wqkII19X62qnnenMNEVR0CUiRNyaSUbv7hk4rcg0mJULhs-b3Y-6-g6-6iPxQbRufQT5eWi8qZQ-fRyDTWnF_RnCKfkbyxLRQOG4Xr3Ta_fgfYRsJpUysGM7QaA_fgufOt6s2mZI3hoq1Zr88lVzjWiAqKQilDVcQHlExnzK4XMdZLhyGfOq_GFaPKh_t0G00]--></g></svg>