<?xml version="1.0" encoding="us-ascii" standalone="no"?><svg xmlns="http://www.w3.org/2000/svg" xmlns:xlink="http://www.w3.org/1999/xlink" contentStyleType="text/css" height="1390px" preserveAspectRatio="none" style="width:915px;height:1390px;background:#FFFFFF;" version="1.1" viewBox="0 0 915 1390" width="915px" zoomAndPan="magnify"><defs/><g><!--entity 280018684--><g id="elem_280018684"><ellipse cx="597" cy="14" fill="#F1F1F1" rx="8" ry="8" style="stroke:#181818;stroke-width:0.5;"/><path d="M597,22 L597,49 M584,30 L610,30 M597,49 L584,64 M597,49 L610,64 " fill="none" style="stroke:#181818;stroke-width:0.5;"/><text fill="#000000" font-family="sans-serif" font-size="14" lengthAdjust="spacing" textLength="52" x="554" y="80.0332">Shoping</text><line style="stroke:#181818;stroke-width:1.0;" x1="555" x2="639" y1="83.1094" y2="83.1094"/><text fill="#000000" font-family="sans-serif" font-size="14" lengthAdjust="spacing" textLength="52" x="554" y="101.6426">Shoping</text><line style="stroke:#181818;stroke-width:1.0;stroke-dasharray:1.0,2.0;" x1="555" x2="639" y1="108.7188" y2="108.7188"/><text fill="#000000" font-family="sans-serif" font-size="14" lengthAdjust="spacing" textLength="86" x="554" y="127.252">isCalling: true</text></g><g id="elem_724287091"><ellipse cx="316.9221" cy="253.7228" fill="#F1F1F1" rx="110.4221" ry="40.7228" style="stroke:#181818;stroke-width:0.5;"/><text fill="#000000" font-family="sans-serif" font-size="14" lengthAdjust="spacing" textLength="27" x="307.0985" y="230.5947">view</text><line style="stroke:#181818;stroke-width:1.0;" x1="221.8141" x2="412.0302" y1="233.6709" y2="233.6709"/><text fill="#000000" font-family="sans-serif" font-size="14" lengthAdjust="spacing" textLength="184" x="228.5985" y="252.2041">_gGipUITmEeywmO_IpTxeAg</text><line style="stroke:#181818;stroke-width:1.0;stroke-dasharray:1.0,2.0;" x1="208.5331" x2="425.3112" y1="259.2803" y2="259.2803"/><text fill="#000000" font-family="sans-serif" font-size="14" lengthAdjust="spacing" textLength="83" x="279.0985" y="277.8135">isCalling: null</text></g><g id="elem_454345997"><ellipse cx="127.8471" cy="419.4488" fill="#F1F1F1" rx="121.8471" ry="44.9488" style="stroke:#181818;stroke-width:0.5;"/><text fill="#000000" font-family="sans-serif" font-size="14" lengthAdjust="spacing" textLength="151" x="52.8109" y="401.2969">DatabaseLoadInventory</text><line style="stroke:#181818;stroke-width:1.0;" x1="14.0578" x2="241.6363" y1="404.3731" y2="404.3731"/><text fill="#000000" font-family="sans-serif" font-size="14" lengthAdjust="spacing" textLength="183" x="36.8109" y="422.9063">_1JoBkITmEeywmO_IpTxeAg</text><line style="stroke:#181818;stroke-width:1.0;stroke-dasharray:1.0,2.0;" x1="10.3931" x2="245.3011" y1="429.9824" y2="429.9824"/><text fill="#000000" font-family="sans-serif" font-size="14" lengthAdjust="spacing" textLength="86" x="85.3109" y="448.5157">isCalling: true</text></g><g id="elem_31919186"><ellipse cx="160.9166" cy="587.6202" fill="#F1F1F1" rx="112.4166" ry="41.6202" style="stroke:#181818;stroke-width:0.5;"/><text fill="#000000" font-family="sans-serif" font-size="14" lengthAdjust="spacing" textLength="85" x="116.4666" y="566.4398">loadInventory</text><line style="stroke:#181818;stroke-width:1.0;" x1="60.6925" x2="261.1407" y1="569.516" y2="569.516"/><text fill="#000000" font-family="sans-serif" font-size="14" lengthAdjust="spacing" textLength="183" x="67.4666" y="588.0492">_oGPyMITjEeywmO_IpTxeAg</text><line style="stroke:#181818;stroke-width:1.0;stroke-dasharray:1.0,2.0;" x1="51.3428" x2="270.4903" y1="595.1254" y2="595.1254"/><text fill="#000000" font-family="sans-serif" font-size="14" lengthAdjust="spacing" textLength="83" x="117.4666" y="613.6586">isCalling: null</text></g><g id="elem_2141225306"><ellipse cx="172.7873" cy="751.1604" fill="#F1F1F1" rx="107.7873" ry="41.1604" style="stroke:#181818;stroke-width:0.5;"/><text fill="#000000" font-family="sans-serif" font-size="14" lengthAdjust="spacing" textLength="56" x="146.0996" y="728.6328">RETURN</text><line style="stroke:#181818;stroke-width:1.0;" x1="78.7955" x2="266.7792" y1="731.709" y2="731.709"/><text fill="#000000" font-family="sans-serif" font-size="14" lengthAdjust="spacing" textLength="177" x="85.5996" y="750.2422">_IFQ3EITlEeywmO_IpTxeAg</text><line style="stroke:#181818;stroke-width:1.0;stroke-dasharray:1.0,2.0;" x1="67.2131" x2="278.3616" y1="757.3183" y2="757.3183"/><text fill="#000000" font-family="sans-serif" font-size="14" lengthAdjust="spacing" textLength="83" x="132.5996" y="775.8515">isCalling: null</text></g><g id="elem_454346003"><ellipse cx="216.8267" cy="916.6181" fill="#F1F1F1" rx="122.3267" ry="45.1181" style="stroke:#181818;stroke-width:0.5;"/><text fill="#000000" font-family="sans-serif" font-size="14" lengthAdjust="spacing" textLength="151" x="141.7724" y="898.2411">DatabaseLoadInventory</text><line style="stroke:#181818;stroke-width:1.0;" x1="102.7491" x2="330.9044" y1="901.3173" y2="901.3173"/><text fill="#000000" font-family="sans-serif" font-size="14" lengthAdjust="spacing" textLength="183" x="125.7724" y="919.8505">_1JoBkITmEeywmO_IpTxeAg</text><line style="stroke:#181818;stroke-width:1.0;stroke-dasharray:1.0,2.0;" x1="98.7357" x2="334.9178" y1="926.9266" y2="926.9266"/><text fill="#000000" font-family="sans-serif" font-size="14" lengthAdjust="spacing" textLength="91" x="171.7724" y="945.4598">isCalling: false</text></g><g id="elem_1715023177"><ellipse cx="277.2127" cy="1150.4112" fill="#F1F1F1" rx="113.7127" ry="40.9112" style="stroke:#181818;stroke-width:0.5;"/><text fill="#000000" font-family="sans-serif" font-size="14" lengthAdjust="spacing" textLength="56" x="251.2106" y="1128.0275">RETURN</text><line style="stroke:#181818;stroke-width:1.0;" x1="177.9599" x2="376.4655" y1="1131.1037" y2="1131.1037"/><text fill="#000000" font-family="sans-serif" font-size="14" lengthAdjust="spacing" textLength="189" x="184.7106" y="1149.6369">_tMGKUITmEeywmO_IpTxeAg</text><line style="stroke:#181818;stroke-width:1.0;stroke-dasharray:1.0,2.0;" x1="165.8572" x2="388.5683" y1="1156.7131" y2="1156.7131"/><text fill="#000000" font-family="sans-serif" font-size="14" lengthAdjust="spacing" textLength="83" x="237.7106" y="1175.2463">isCalling: null</text></g><!--entity 280018678--><g id="elem_280018678"><ellipse cx="510" cy="1263" fill="#F1F1F1" rx="8" ry="8" style="stroke:#181818;stroke-width:0.5;"/><path d="M510,1271 L510,1298 M497,1279 L523,1279 M510,1298 L497,1313 M510,1298 L523,1313 " fill="none" style="stroke:#181818;stroke-width:0.5;"/><text fill="#000000" font-family="sans-serif" font-size="14" lengthAdjust="spacing" textLength="52" x="464.5" y="1329.0332">Shoping</text><line style="stroke:#181818;stroke-width:1.0;" x1="465.5" x2="554.5" y1="1332.1094" y2="1332.1094"/><text fill="#000000" font-family="sans-serif" font-size="14" lengthAdjust="spacing" textLength="52" x="464.5" y="1350.6426">Shoping</text><line style="stroke:#181818;stroke-width:1.0;stroke-dasharray:1.0,2.0;" x1="465.5" x2="554.5" y1="1357.7188" y2="1357.7188"/><text fill="#000000" font-family="sans-serif" font-size="14" lengthAdjust="spacing" textLength="91" x="464.5" y="1376.252">isCalling: false</text></g><g id="elem_188012899"><ellipse cx="596.88" cy="253.2942" fill="#F1F1F1" rx="107.88" ry="40.7942" style="stroke:#181818;stroke-width:0.5;"/><text fill="#000000" font-family="sans-serif" font-size="14" lengthAdjust="spacing" textLength="23" x="588.9839" y="230.0033">buy</text><line style="stroke:#181818;stroke-width:1.0;" x1="504.1763" x2="689.5837" y1="233.0795" y2="233.0795"/><text fill="#000000" font-family="sans-serif" font-size="14" lengthAdjust="spacing" textLength="179" x="510.9839" y="251.6127">_nGp9cITjEeywmO_IpTxeAg</text><line style="stroke:#181818;stroke-width:1.0;stroke-dasharray:1.0,2.0;" x1="490.9474" x2="702.8126" y1="258.6889" y2="258.6889"/><text fill="#000000" font-family="sans-serif" font-size="14" lengthAdjust="spacing" textLength="83" x="558.9839" y="277.2221">isCalling: null</text></g><g id="elem_736834834"><ellipse cx="419.0807" cy="419.557" fill="#F1F1F1" rx="133.5807" ry="47.057" style="stroke:#181818;stroke-width:0.5;"/><text fill="#000000" font-family="sans-serif" font-size="14" lengthAdjust="spacing" textLength="192" x="324.073" y="404.1685">ProbabilisticBranchTransition1</text><line style="stroke:#181818;stroke-width:1.0;" x1="291.1535" x2="547.0079" y1="407.2447" y2="407.2447"/><text fill="#000000" font-family="sans-serif" font-size="14" lengthAdjust="spacing" textLength="175" x="332.573" y="425.7779">_vpIdQdv1EeyYrpd_1AtxSw</text><line style="stroke:#181818;stroke-width:1.0;stroke-dasharray:1.0,2.0;" x1="291.944" x2="546.2174" y1="432.854" y2="432.854"/><text fill="#000000" font-family="sans-serif" font-size="14" lengthAdjust="spacing" textLength="83" x="378.573" y="451.3872">isCalling: null</text></g><g id="elem_254517211"><ellipse cx="431.1807" cy="587.5353" fill="#F1F1F1" rx="114.6807" ry="43.0353" style="stroke:#181818;stroke-width:0.5;"/><text fill="#000000" font-family="sans-serif" font-size="14" lengthAdjust="spacing" textLength="114" x="374.1807" y="567.2164">SaveInventoryCall</text><line style="stroke:#181818;stroke-width:1.0;" x1="327.1074" x2="535.2541" y1="570.2926" y2="570.2926"/><text fill="#000000" font-family="sans-serif" font-size="14" lengthAdjust="spacing" textLength="180" x="341.1807" y="588.8258">_DX-mcNv2EeyYrpd_1AtxSw</text><line style="stroke:#181818;stroke-width:1.0;stroke-dasharray:1.0,2.0;" x1="319.6882" x2="542.6733" y1="595.902" y2="595.902"/><text fill="#000000" font-family="sans-serif" font-size="14" lengthAdjust="spacing" textLength="86" x="388.1807" y="614.4352">isCalling: true</text></g><g id="elem_191985992"><ellipse cx="434.961" cy="750.9715" fill="#F1F1F1" rx="111.961" ry="42.4715" style="stroke:#181818;stroke-width:0.5;"/><text fill="#000000" font-family="sans-serif" font-size="14" lengthAdjust="spacing" textLength="102" x="383.961" y="730.2">updateInventory</text><line style="stroke:#181818;stroke-width:1.0;" x1="334.1804" x2="535.7415" y1="733.2762" y2="733.2762"/><text fill="#000000" font-family="sans-serif" font-size="14" lengthAdjust="spacing" textLength="178" x="345.961" y="751.8094">_oGzL0ITjEeywmO_IpTxeAg</text><line style="stroke:#181818;stroke-width:1.0;stroke-dasharray:1.0,2.0;" x1="325.9609" x2="543.961" y1="758.8855" y2="758.8855"/><text fill="#000000" font-family="sans-serif" font-size="14" lengthAdjust="spacing" textLength="83" x="393.461" y="777.4187">isCalling: null</text></g><g id="elem_254517205"><ellipse cx="453.2313" cy="1034.7327" fill="#F1F1F1" rx="115.2313" ry="43.2327" style="stroke:#181818;stroke-width:0.5;"/><text fill="#000000" font-family="sans-serif" font-size="14" lengthAdjust="spacing" textLength="114" x="396.2313" y="1014.1845">SaveInventoryCall</text><line style="stroke:#181818;stroke-width:1.0;" x1="348.8295" x2="557.6331" y1="1017.2607" y2="1017.2607"/><text fill="#000000" font-family="sans-serif" font-size="14" lengthAdjust="spacing" textLength="180" x="363.2313" y="1035.7939">_DX-mcNv2EeyYrpd_1AtxSw</text><line style="stroke:#181818;stroke-width:1.0;stroke-dasharray:1.0,2.0;" x1="341.0596" x2="565.403" y1="1042.87" y2="1042.87"/><text fill="#000000" font-family="sans-serif" font-size="14" lengthAdjust="spacing" textLength="91" x="407.7313" y="1061.4032">isCalling: false</text></g><g id="elem_1865964196"><ellipse cx="721.0807" cy="419.557" fill="#F1F1F1" rx="133.5807" ry="47.057" style="stroke:#181818;stroke-width:0.5;"/><text fill="#000000" font-family="sans-serif" font-size="14" lengthAdjust="spacing" textLength="192" x="626.073" y="404.1685">ProbabilisticBranchTransition2</text><line style="stroke:#181818;stroke-width:1.0;" x1="593.1535" x2="849.0079" y1="407.2447" y2="407.2447"/><text fill="#000000" font-family="sans-serif" font-size="14" lengthAdjust="spacing" textLength="171" x="636.573" y="425.7779">_NIEngtv2EeyYrpd_1AtxSw</text><line style="stroke:#181818;stroke-width:1.0;stroke-dasharray:1.0,2.0;" x1="593.944" x2="848.2174" y1="432.854" y2="432.854"/><text fill="#000000" font-family="sans-serif" font-size="14" lengthAdjust="spacing" textLength="83" x="680.573" y="451.3872">isCalling: null</text></g><g id="elem_50765856"><ellipse cx="702.7737" cy="587.3973" fill="#F1F1F1" rx="117.7737" ry="42.8973" style="stroke:#181818;stroke-width:0.5;"/><text fill="#000000" font-family="sans-serif" font-size="14" lengthAdjust="spacing" textLength="117" x="644.2737" y="567.1809">StoreUserDataCall</text><line style="stroke:#181818;stroke-width:1.0;" x1="595.8099" x2="809.7375" y1="570.2571" y2="570.2571"/><text fill="#000000" font-family="sans-serif" font-size="14" lengthAdjust="spacing" textLength="186" x="609.7737" y="588.7903">_QqAdMNv2EeyYrpd_1AtxSw</text><line style="stroke:#181818;stroke-width:1.0;stroke-dasharray:1.0,2.0;" x1="588.3181" x2="817.2293" y1="595.8665" y2="595.8665"/><text fill="#000000" font-family="sans-serif" font-size="14" lengthAdjust="spacing" textLength="86" x="659.7737" y="614.3997">isCalling: true</text></g><g id="elem_1254518148"><ellipse cx="693.9271" cy="751.2235" fill="#F1F1F1" rx="108.4271" ry="42.2235" style="stroke:#181818;stroke-width:0.5;"/><text fill="#000000" font-family="sans-serif" font-size="14" lengthAdjust="spacing" textLength="91" x="647.4271" y="730.1307">storeUserData</text><line style="stroke:#181818;stroke-width:1.0;" x1="596.8662" x2="790.988" y1="733.2069" y2="733.2069"/><text fill="#000000" font-family="sans-serif" font-size="14" lengthAdjust="spacing" textLength="173" x="606.4271" y="751.7401">_vzrLQdvzEeyYrpd_1AtxSw</text><line style="stroke:#181818;stroke-width:1.0;stroke-dasharray:1.0,2.0;" x1="588.2675" x2="799.5866" y1="758.8163" y2="758.8163"/><text fill="#000000" font-family="sans-serif" font-size="14" lengthAdjust="spacing" textLength="83" x="651.4271" y="777.3495">isCalling: null</text></g><g id="elem_1782726851"><ellipse cx="655.99" cy="916.6745" fill="#F1F1F1" rx="109.49" ry="41.1745" style="stroke:#181818;stroke-width:0.5;"/><text fill="#000000" font-family="sans-serif" font-size="14" lengthAdjust="spacing" textLength="62" x="625.961" y="894.3704">save data</text><line style="stroke:#181818;stroke-width:1.0;" x1="560.1719" x2="751.8082" y1="897.4466" y2="897.4466"/><text fill="#000000" font-family="sans-serif" font-size="14" lengthAdjust="spacing" textLength="180" x="566.961" y="915.9798">_B1yF0Nv0EeyYrpd_1AtxSw</text><line style="stroke:#181818;stroke-width:1.0;stroke-dasharray:1.0,2.0;" x1="548.823" x2="763.1571" y1="923.056" y2="923.056"/><text fill="#000000" font-family="sans-serif" font-size="14" lengthAdjust="spacing" textLength="83" x="615.461" y="941.5892">isCalling: null</text></g><g id="elem_50765862"><ellipse cx="632.8078" cy="1150.5829" fill="#F1F1F1" rx="118.3078" ry="43.0829" style="stroke:#181818;stroke-width:0.5;"/><text fill="#000000" font-family="sans-serif" font-size="14" lengthAdjust="spacing" textLength="117" x="574.3078" y="1130.1509">StoreUserDataCall</text><line style="stroke:#181818;stroke-width:1.0;" x1="525.5245" x2="740.0911" y1="1133.2271" y2="1133.2271"/><text fill="#000000" font-family="sans-serif" font-size="14" lengthAdjust="spacing" textLength="186" x="539.8078" y="1151.7603">_QqAdMNv2EeyYrpd_1AtxSw</text><line style="stroke:#181818;stroke-width:1.0;stroke-dasharray:1.0,2.0;" x1="517.6913" x2="747.9243" y1="1158.8365" y2="1158.8365"/><text fill="#000000" font-family="sans-serif" font-size="14" lengthAdjust="spacing" textLength="91" x="587.3078" y="1177.3697">isCalling: false</text></g><!--link 280018678 to 280018684--><g id="link_280018678_280018684"><path codeLine="109" d="M555.66,1309 C660.2,1287.08 908,1227.15 908,1151.5 C908,252.5 908,252.5 908,252.5 C908,132.36 732.75,90.32 645.36,76.82 " fill="none" id="280018678-to-280018684" style="stroke:#181818;stroke-width:1.0;"/><polygon fill="#181818" points="640.24,76.04,648.5456,81.3332,645.1845,76.7831,649.7345,73.422,640.24,76.04" style="stroke:#181818;stroke-width:1.0;"/></g><!--link 280018684 to 724287091--><g id="link_280018684_724287091"><path codeLine="110" d="M553.86,98.96 C505.82,130.11 427.92,180.6 374.67,215.12 " fill="none" id="280018684-to-724287091" style="stroke:#181818;stroke-width:1.0;"/><polygon fill="#181818" points="370.24,217.99,379.9663,216.4412,374.4329,215.2661,375.608,209.7326,370.24,217.99" style="stroke:#181818;stroke-width:1.0;"/></g><!--link 724287091 to 454345997--><g id="link_724287091_454345997"><path codeLine="111" d="M274.58,291.3 C246.25,315.89 208.84,348.35 178.9,374.33 " fill="none" id="724287091-to-454345997" style="stroke:#181818;stroke-width:1.0;"/><polygon fill="#181818" points="174.92,377.79,184.3397,374.9143,178.697,374.5137,179.0976,368.8711,174.92,377.79" style="stroke:#181818;stroke-width:1.0;"/></g><!--link 454345997 to 31919186--><g id="link_454345997_31919186"><path codeLine="112" d="M136.76,464.55 C141.45,488.13 147.21,517.14 151.95,540.95 " fill="none" id="454345997-to-31919186" style="stroke:#181818;stroke-width:1.0;"/><polygon fill="#181818" points="152.94,545.95,155.0865,536.3379,151.9539,541.0482,147.2436,537.9156,152.94,545.95" style="stroke:#181818;stroke-width:1.0;"/></g><!--link 31919186 to 2141225306--><g id="link_31919186_2141225306"><path codeLine="113" d="M164.03,629.25 C165.73,652.19 167.86,680.88 169.62,704.54 " fill="none" id="31919186-to-2141225306" style="stroke:#181818;stroke-width:1.0;"/><polygon fill="#181818" points="170.01,709.82,173.3303,700.5477,169.6385,704.8338,165.3524,701.142,170.01,709.82" style="stroke:#181818;stroke-width:1.0;"/></g><!--link 2141225306 to 454346003--><g id="link_2141225306_454346003"><path codeLine="114" d="M183.76,792 C189.82,814.5 197.43,842.78 203.84,866.6 " fill="none" id="2141225306-to-454346003" style="stroke:#181818;stroke-width:1.0;"/><polygon fill="#181818" points="205.19,871.61,206.7127,861.8796,203.8901,866.7819,198.9878,863.9594,205.19,871.61" style="stroke:#181818;stroke-width:1.0;"/></g><!--link 454346003 to 1715023177--><g id="link_454346003_1715023177"><path codeLine="115" d="M228.36,961.41 C238.97,1002.44 254.73,1063.39 265.41,1104.7 " fill="none" id="454346003-to-1715023177" style="stroke:#181818;stroke-width:1.0;"/><polygon fill="#181818" points="266.69,1109.64,268.2934,1099.9225,265.4302,1104.8013,260.5514,1101.9382,266.69,1109.64" style="stroke:#181818;stroke-width:1.0;"/></g><!--link 1715023177 to 280018678--><g id="link_1715023177_280018678"><path codeLine="116" d="M327.27,1187.42 C366.51,1215.46 420.76,1254.23 459.94,1282.23 " fill="none" id="1715023177-to-280018678" style="stroke:#181818;stroke-width:1.0;"/><polygon fill="#181818" points="464.17,1285.25,459.1939,1276.7507,460.1091,1282.333,454.5267,1283.2481,464.17,1285.25" style="stroke:#181818;stroke-width:1.0;"/></g><!--link 254517205 to 280018678--><g id="link_254517205_280018678"><path codeLine="117" d="M461.47,1077.49 C470.61,1122.75 485.29,1195.52 496.11,1249.17 " fill="none" id="254517205-to-280018678" style="stroke:#181818;stroke-width:1.0;"/><polygon fill="#181818" points="497.15,1254.3,499.2965,1244.6879,496.1639,1249.3982,491.4536,1246.2656,497.15,1254.3" style="stroke:#181818;stroke-width:1.0;"/></g><!--link 50765862 to 280018678--><g id="link_50765862_280018678"><path codeLine="118" d="M602.91,1192.23 C589.58,1210.28 573.55,1231.98 558.59,1252.23 " fill="none" id="50765862-to-280018678" style="stroke:#181818;stroke-width:1.0;"/><polygon fill="#181818" points="555.61,1256.26,564.1714,1251.3914,558.5779,1252.2362,557.7332,1246.6427,555.61,1256.26" style="stroke:#181818;stroke-width:1.0;"/></g><!--link 280018684 to 188012899--><g id="link_280018684_188012899"><path codeLine="119" d="M597,134.73 C597,158.66 597,185.34 597,207.25 " fill="none" id="280018684-to-188012899" style="stroke:#181818;stroke-width:1.0;"/><polygon fill="#181818" points="597,212.42,601,203.42,597,207.42,593,203.42,597,212.42" style="stroke:#181818;stroke-width:1.0;"/><text fill="#000000" font-family="sans-serif" font-size="13" lengthAdjust="spacing" textLength="111" x="598" y="178.9951">userData, inventory</text></g><!--link 188012899 to 736834834--><g id="link_188012899_736834834"><path codeLine="120" d="M556.61,291.71 C530.9,315.4 497.38,346.29 469.86,371.64 " fill="none" id="188012899-to-736834834" style="stroke:#181818;stroke-width:1.0;"/><polygon fill="#181818" points="465.84,375.34,475.1679,372.1792,469.5157,371.9504,469.7445,366.2982,465.84,375.34" style="stroke:#181818;stroke-width:1.0;"/><text fill="#000000" font-family="sans-serif" font-size="13" lengthAdjust="spacing" textLength="111" x="520" y="338.9951">userData, inventory</text></g><!--link 736834834 to 254517211--><g id="link_736834834_254517211"><path codeLine="121" d="M422.34,466.74 C423.98,489.39 425.95,516.63 427.59,539.39 " fill="none" id="736834834-to-254517211" style="stroke:#181818;stroke-width:1.0;"/><polygon fill="#181818" points="427.96,544.48,431.3067,535.2172,427.6027,539.4928,423.3272,535.7888,427.96,544.48" style="stroke:#181818;stroke-width:1.0;"/><text fill="#000000" font-family="sans-serif" font-size="13" lengthAdjust="spacing" textLength="111" x="427" y="510.9951">userData, inventory</text></g><!--link 254517211 to 191985992--><g id="link_254517211_191985992"><path codeLine="122" d="M432.04,630.51 C432.59,652.84 433.27,680.35 433.84,703.34 " fill="none" id="254517211-to-191985992" style="stroke:#181818;stroke-width:1.0;"/><polygon fill="#181818" points="433.97,708.48,437.7633,699.3909,433.8557,703.4813,429.7654,699.5738,433.97,708.48" style="stroke:#181818;stroke-width:1.0;"/><text fill="#000000" font-family="sans-serif" font-size="13" lengthAdjust="spacing" textLength="51" x="435" y="674.9951">inventory</text></g><!--link 191985992 to 254517205--><g id="link_191985992_254517205"><path codeLine="123" d="M437.66,793.54 C440.94,844.95 446.53,932.29 449.98,986.22 " fill="none" id="191985992-to-254517205" style="stroke:#181818;stroke-width:1.0;"/><polygon fill="#181818" points="450.3,991.33,453.7259,982.0962,449.9854,986.3399,445.7417,982.5995,450.3,991.33" style="stroke:#181818;stroke-width:1.0;"/><text fill="#000000" font-family="sans-serif" font-size="13" lengthAdjust="spacing" textLength="111" x="442" y="837.9951">userData, inventory</text></g><!--link 188012899 to 1865964196--><g id="link_188012899_1865964196"><path codeLine="124" d="M626.39,293.37 C643.65,316.2 665.63,345.27 684.06,369.64 " fill="none" id="188012899-to-1865964196" style="stroke:#181818;stroke-width:1.0;"/><polygon fill="#181818" points="687.22,373.82,684.9816,364.2289,684.204,369.832,678.6009,369.0545,687.22,373.82" style="stroke:#181818;stroke-width:1.0;"/><text fill="#000000" font-family="sans-serif" font-size="13" lengthAdjust="spacing" textLength="111" x="663" y="338.9951">userData, inventory</text></g><!--link 1865964196 to 50765856--><g id="link_1865964196_50765856"><path codeLine="125" d="M715.99,466.74 C713.53,489.39 710.58,516.63 708.11,539.39 " fill="none" id="1865964196-to-50765856" style="stroke:#181818;stroke-width:1.0;"/><polygon fill="#181818" points="707.56,544.48,712.5133,535.9674,708.1028,539.5095,704.5606,535.099,707.56,544.48" style="stroke:#181818;stroke-width:1.0;"/><text fill="#000000" font-family="sans-serif" font-size="13" lengthAdjust="spacing" textLength="111" x="713" y="510.9951">userData, inventory</text></g><!--link 50765856 to 1254518148--><g id="link_50765856_1254518148"><path codeLine="126" d="M700.66,630.51 C699.41,652.93 697.87,680.57 696.59,703.61 " fill="none" id="50765856-to-1254518148" style="stroke:#181818;stroke-width:1.0;"/><polygon fill="#181818" points="696.3,708.76,700.7833,699.9908,696.5718,703.7674,692.7952,699.5559,696.3,708.76" style="stroke:#181818;stroke-width:1.0;"/><text fill="#000000" font-family="sans-serif" font-size="13" lengthAdjust="spacing" textLength="25" x="699" y="674.9951">data</text></g><!--link 1254518148 to 1782726851--><g id="link_1254518148_1782726851"><path codeLine="127" d="M684.41,793.26 C678.95,816.75 672.1,846.21 666.5,870.33 " fill="none" id="1254518148-to-1782726851" style="stroke:#181818;stroke-width:1.0;"/><polygon fill="#181818" points="665.32,875.39,671.248,867.525,666.4485,870.519,663.4545,865.7194,665.32,875.39" style="stroke:#181818;stroke-width:1.0;"/><text fill="#000000" font-family="sans-serif" font-size="13" lengthAdjust="spacing" textLength="25" x="678" y="837.9951">data</text></g><!--link 1782726851 to 50765862--><g id="link_1782726851_50765862"><path codeLine="128" d="M652.02,957.65 C648.03,997.9 641.89,1059.85 637.67,1102.41 " fill="none" id="1782726851-to-50765862" style="stroke:#181818;stroke-width:1.0;"/><polygon fill="#181818" points="637.16,1107.5,642.0162,1098.9316,637.6462,1102.5237,634.0541,1098.1537,637.16,1107.5" style="stroke:#181818;stroke-width:1.0;"/><text fill="#000000" font-family="sans-serif" font-size="13" lengthAdjust="spacing" textLength="111" x="649" y="1039.9951">userData, inventory</text></g><!--SRC=[hLNRZjem47tFL-G3IcKxSUpmK0cwB4hBqcK9KgkgGYP9sRGXINDZuUlNXc27ImNfDY2aZCTdRcSEp2kIJ4SK04WjQkhVjUbpaeRnKklmHxwyvuyMvXzP5F7NhbvaPV13A_F0OtcW4sGYIe0D-VKg3DRxk_FbC4ndZhiQ19lrwilSITsNe7UE5PTHfB1CR1ecjct2iUvOmHRSE4gOxyHL4FDSDpKu_9JqVry7FqxKW3R_K8jZHnSma-7Zvi5nVxLA644J8eGD852V1kxiQLp3EVSJO-2uKVlwBG2C_rF_JnRbZGP00Z501YJaDDdYOVZvvc6n9ci8lPKrfybG2Y2YjitlByf3OV4mjRssGo26HGsJVpdKOvOis2ACmhm8lNx6Ok_PvRzvM8H93EieLUhu4x-2FCgtBFNdi5UyJDVNHerD30c2WkTJLWLo9iA_1hxxsbbvumfT0JxcfQ0bvQH77BXCVLO4vzJSZa1hQkxp1VZj-PwDpiAsPKBRkjPmLCSPEuDuMLoDSrm01iJ258iWKvvtCCk3J2n58__9dvx_qBhVkyvGQ0hgvata0psssOZJOzigMqWe8iYYMF0Zv_tMVONOXvjxCAx0FzHleRVNNyzFhModyq79lgR-08HTwhccb5tOfJPhIgM5_I2hcjJN7ReKHgsXaH97Q9ocr4xObJff3Q5gP4gefZXzR9UjEd4_AamfJbSlwrw-qqEvQ-fyrmOfAfUzrVakfXI7ozxgV9U9tFXkCxwqDX1vgRTasrZ9lxbB1-4lT-kojppUOQjzwUv9tR3i9oUfVt1G5XNDGfUZlG80]--></g></svg>