<?xml version="1.0" encoding="UTF-8" standalone="no"?>
<!DOCTYPE svg PUBLIC "-//W3C//DTD SVG 1.1//EN"
 "http://www.w3.org/Graphics/SVG/1.1/DTD/svg11.dtd">
<!-- Generated by graphviz version 2.44.1 (20200629.0846)
 -->
<!-- Title: dfd Pages: 1 -->
<svg width="1971pt" height="438pt"
 viewBox="0.00 0.00 1971.27 438.00" xmlns="http://www.w3.org/2000/svg" xmlns:xlink="http://www.w3.org/1999/xlink">
<g id="graph0" class="graph" transform="scale(1 1) rotate(0) translate(4 434)">
<title>dfd</title>
<polygon fill="white" stroke="transparent" points="-4,4 -4,-434 1967.27,-434 1967.27,4 -4,4"/>
<!-- 1160552821 -->
<g id="node1" class="node">
<title>1160552821</title>
<text text-anchor="start" x="3.18" y="-178.9" font-family="Times New Roman,serif" font-weight="bold" font-size="14.00">ShopingUsageScenario</text>
<text text-anchor="start" x="133.82" y="-178.9" font-family="Times New Roman,serif" font-size="14.00"> &#160;</text>
<polygon fill="none" stroke="black" points="0,-171.5 0,-193.5 143,-193.5 143,-171.5 0,-171.5"/>
</g>
<!-- 1160552821&#45;&gt;1160552821 -->
<g id="edge2" class="edge">
<title>1160552821&#45;&gt;1160552821</title>
<path fill="none" stroke="black" d="M45.45,-200.65C41.44,-210.04 50.12,-218.5 71.5,-218.5 84.53,-218.5 92.84,-215.36 96.44,-210.78"/>
<polygon fill="black" stroke="black" points="99.94,-210.98 97.55,-200.65 92.98,-210.21 99.94,-210.98"/>
</g>
<!-- 724287091 -->
<g id="node2" class="node">
<title>724287091</title>
<path fill="none" stroke="black" d="M332.4,-349.5C332.4,-349.5 423.4,-349.5 423.4,-349.5 429.4,-349.5 435.4,-355.5 435.4,-361.5 435.4,-361.5 435.4,-377.5 435.4,-377.5 435.4,-383.5 429.4,-389.5 423.4,-389.5 423.4,-389.5 332.4,-389.5 332.4,-389.5 326.4,-389.5 320.4,-383.5 320.4,-377.5 320.4,-377.5 320.4,-361.5 320.4,-361.5 320.4,-355.5 326.4,-349.5 332.4,-349.5"/>
<text text-anchor="start" x="361.3" y="-375.9" font-family="Times New Roman,serif" font-weight="bold" font-size="14.00">view</text>
<text text-anchor="start" x="388.51" y="-375.9" font-family="Times New Roman,serif" font-size="14.00"> &#160;</text>
<text text-anchor="start" x="322.42" y="-354.9" font-family="Times New Roman,serif" font-size="14.00">ServerLocation.EU </text>
</g>
<!-- 1160552821&#45;&gt;724287091 -->
<g id="edge5" class="edge">
<title>1160552821&#45;&gt;724287091</title>
<path fill="none" stroke="black" d="M77.6,-200.51C87.73,-232.7 113.58,-299.8 161,-332.5 204.51,-362.51 264.42,-370.84 310.09,-372.18"/>
<polygon fill="black" stroke="black" points="310.13,-375.69 320.19,-372.38 310.26,-368.69 310.13,-375.69"/>
</g>
<!-- 188012899 -->
<g id="node8" class="node">
<title>188012899</title>
<path fill="none" stroke="black" d="M301.4,-141.5C301.4,-141.5 454.4,-141.5 454.4,-141.5 460.4,-141.5 466.4,-147.5 466.4,-153.5 466.4,-153.5 466.4,-211.5 466.4,-211.5 466.4,-217.5 460.4,-223.5 454.4,-223.5 454.4,-223.5 301.4,-223.5 301.4,-223.5 295.4,-223.5 289.4,-217.5 289.4,-211.5 289.4,-211.5 289.4,-153.5 289.4,-153.5 289.4,-147.5 295.4,-141.5 301.4,-141.5"/>
<text text-anchor="start" x="364.4" y="-209.9" font-family="Times New Roman,serif" font-weight="bold" font-size="14.00">buy</text>
<text text-anchor="start" x="385.4" y="-209.9" font-family="Times New Roman,serif" font-size="14.00"> &#160;</text>
<text text-anchor="start" x="322.42" y="-188.9" font-family="Times New Roman,serif" font-size="14.00">ServerLocation.EU </text>
<polyline fill="none" stroke="black" points="352.9,-183.5 289.9,-183.5 "/>
<text text-anchor="start" x="292.63" y="-167.9" font-family="Times New Roman,serif" font-size="14.00">inventory:</text>
<polyline fill="none" stroke="black" points="466.9,-183.5 352.9,-183.5 "/>
<text text-anchor="start" x="355.67" y="-167.9" font-family="Times New Roman,serif" font-size="14.00">ServerLocation.EU</text>
<text text-anchor="start" x="294.58" y="-146.9" font-family="Times New Roman,serif" font-size="14.00">userData:</text>
<text text-anchor="start" x="355.67" y="-146.9" font-family="Times New Roman,serif" font-size="14.00">ServerLocation.EU</text>
</g>
<!-- 1160552821&#45;&gt;188012899 -->
<g id="edge11" class="edge">
<title>1160552821&#45;&gt;188012899</title>
<path fill="none" stroke="black" d="M143.1,-182.5C183.51,-182.5 234.81,-182.5 279.06,-182.5"/>
<polygon fill="black" stroke="black" points="279.27,-186 289.27,-182.5 279.27,-179 279.27,-186"/>
<text text-anchor="middle" x="216.2" y="-186.7" font-family="Times New Roman,serif" font-size="14.00">userData, inventory</text>
</g>
<!-- 454345997 -->
<g id="node3" class="node">
<title>454345997</title>
<path fill="none" stroke="black" d="M640.81,-351.5C640.81,-351.5 761.81,-351.5 761.81,-351.5 767.81,-351.5 773.81,-357.5 773.81,-363.5 773.81,-363.5 773.81,-379.5 773.81,-379.5 773.81,-385.5 767.81,-391.5 761.81,-391.5 761.81,-391.5 640.81,-391.5 640.81,-391.5 634.81,-391.5 628.81,-385.5 628.81,-379.5 628.81,-379.5 628.81,-363.5 628.81,-363.5 628.81,-357.5 634.81,-351.5 640.81,-351.5"/>
<text text-anchor="start" x="631.06" y="-377.9" font-family="Times New Roman,serif" font-weight="bold" font-size="14.00">DatabaseLoadInventory</text>
<text text-anchor="start" x="765.55" y="-377.9" font-family="Times New Roman,serif" font-size="14.00"> &#160;</text>
<text text-anchor="start" x="645.83" y="-356.9" font-family="Times New Roman,serif" font-size="14.00">ServerLocation.EU </text>
</g>
<!-- 724287091&#45;&gt;454345997 -->
<g id="edge6" class="edge">
<title>724287091&#45;&gt;454345997</title>
<path fill="none" stroke="black" d="M435.62,-369.85C486.37,-370.17 561.36,-370.64 618.57,-370.99"/>
<polygon fill="black" stroke="black" points="618.66,-374.49 628.68,-371.05 618.7,-367.49 618.66,-374.49"/>
</g>
<!-- 31919186 -->
<g id="node4" class="node">
<title>31919186</title>
<path fill="none" stroke="black" d="M922.46,-355.5C922.46,-355.5 1034.46,-355.5 1034.46,-355.5 1040.46,-355.5 1046.46,-361.5 1046.46,-367.5 1046.46,-367.5 1046.46,-383.5 1046.46,-383.5 1046.46,-389.5 1040.46,-395.5 1034.46,-395.5 1034.46,-395.5 922.46,-395.5 922.46,-395.5 916.46,-395.5 910.46,-389.5 910.46,-383.5 910.46,-383.5 910.46,-367.5 910.46,-367.5 910.46,-361.5 916.46,-355.5 922.46,-355.5"/>
<text text-anchor="start" x="935.7" y="-381.9" font-family="Times New Roman,serif" font-weight="bold" font-size="14.00">loadInventory</text>
<text text-anchor="start" x="1014.23" y="-381.9" font-family="Times New Roman,serif" font-size="14.00"> &#160;</text>
<text text-anchor="start" x="911.98" y="-360.9" font-family="Times New Roman,serif" font-size="14.00">ServerLocation.nonEU </text>
</g>
<!-- 454345997&#45;&gt;31919186 -->
<g id="edge7" class="edge">
<title>454345997&#45;&gt;31919186</title>
<path fill="none" stroke="black" d="M773.88,-372.54C812.55,-373.1 860.34,-373.8 899.9,-374.37"/>
<polygon fill="black" stroke="black" points="899.98,-377.87 910.03,-374.52 900.08,-370.87 899.98,-377.87"/>
</g>
<!-- 2141225306 -->
<g id="node5" class="node">
<title>2141225306</title>
<path fill="none" stroke="black" d="M1235.86,-352.5C1235.86,-352.5 1411.86,-352.5 1411.86,-352.5 1417.86,-352.5 1423.86,-358.5 1423.86,-364.5 1423.86,-364.5 1423.86,-402.5 1423.86,-402.5 1423.86,-408.5 1417.86,-414.5 1411.86,-414.5 1411.86,-414.5 1235.86,-414.5 1235.86,-414.5 1229.86,-414.5 1223.86,-408.5 1223.86,-402.5 1223.86,-402.5 1223.86,-364.5 1223.86,-364.5 1223.86,-358.5 1229.86,-352.5 1235.86,-352.5"/>
<text text-anchor="start" x="1292.37" y="-400.9" font-family="Times New Roman,serif" font-weight="bold" font-size="14.00">RETURN</text>
<text text-anchor="start" x="1348.36" y="-400.9" font-family="Times New Roman,serif" font-size="14.00"> &#160;</text>
<text text-anchor="start" x="1257.39" y="-379.9" font-family="Times New Roman,serif" font-size="14.00">ServerLocation.nonEU </text>
<polyline fill="none" stroke="black" points="1288.86,-374.5 1223.86,-374.5 "/>
<text text-anchor="start" x="1226.42" y="-358.9" font-family="Times New Roman,serif" font-size="14.00">RETURN:</text>
<polyline fill="none" stroke="black" points="1423.86,-374.5 1288.86,-374.5 "/>
<text text-anchor="start" x="1291.64" y="-358.9" font-family="Times New Roman,serif" font-size="14.00">ServerLocation.nonEU</text>
</g>
<!-- 31919186&#45;&gt;2141225306 -->
<g id="edge8" class="edge">
<title>31919186&#45;&gt;2141225306</title>
<path fill="none" stroke="black" d="M1046.49,-377.06C1093.99,-378.17 1158.77,-379.68 1213.68,-380.96"/>
<polygon fill="black" stroke="black" points="1213.73,-384.46 1223.81,-381.19 1213.89,-377.46 1213.73,-384.46"/>
</g>
<!-- 454346003 -->
<g id="node6" class="node">
<title>454346003</title>
<path fill="none" stroke="black" d="M1582.27,-347.5C1582.27,-347.5 1737.27,-347.5 1737.27,-347.5 1743.27,-347.5 1749.27,-353.5 1749.27,-359.5 1749.27,-359.5 1749.27,-417.5 1749.27,-417.5 1749.27,-423.5 1743.27,-429.5 1737.27,-429.5 1737.27,-429.5 1582.27,-429.5 1582.27,-429.5 1576.27,-429.5 1570.27,-423.5 1570.27,-417.5 1570.27,-417.5 1570.27,-359.5 1570.27,-359.5 1570.27,-353.5 1576.27,-347.5 1582.27,-347.5"/>
<text text-anchor="start" x="1589.52" y="-415.9" font-family="Times New Roman,serif" font-weight="bold" font-size="14.00">DatabaseLoadInventory</text>
<text text-anchor="start" x="1724.01" y="-415.9" font-family="Times New Roman,serif" font-size="14.00"> &#160;</text>
<text text-anchor="start" x="1604.29" y="-394.9" font-family="Times New Roman,serif" font-size="14.00">ServerLocation.EU </text>
<polyline fill="none" stroke="black" points="1635.77,-389.5 1570.77,-389.5 "/>
<text text-anchor="start" x="1573.33" y="-373.9" font-family="Times New Roman,serif" font-size="14.00">RETURN:</text>
<polyline fill="none" stroke="black" points="1749.77,-389.5 1635.77,-389.5 "/>
<text text-anchor="start" x="1638.54" y="-373.9" font-family="Times New Roman,serif" font-size="14.00">ServerLocation.EU</text>
<text text-anchor="start" x="1574.49" y="-352.9" font-family="Times New Roman,serif" font-size="14.00">inventory:</text>
<text text-anchor="start" x="1638.54" y="-352.9" font-family="Times New Roman,serif" font-size="14.00">ServerLocation.EU</text>
</g>
<!-- 2141225306&#45;&gt;454346003 -->
<g id="edge9" class="edge">
<title>2141225306&#45;&gt;454346003</title>
<path fill="none" stroke="black" d="M1424.14,-384.99C1467.03,-385.63 1517.1,-386.38 1559.94,-387.02"/>
<polygon fill="black" stroke="black" points="1560.04,-390.52 1570.09,-387.17 1560.15,-383.52 1560.04,-390.52"/>
</g>
<!-- 1715023177 -->
<g id="node7" class="node">
<title>1715023177</title>
<path fill="none" stroke="black" d="M1798.27,-289.5C1798.27,-289.5 1951.27,-289.5 1951.27,-289.5 1957.27,-289.5 1963.27,-295.5 1963.27,-301.5 1963.27,-301.5 1963.27,-359.5 1963.27,-359.5 1963.27,-365.5 1957.27,-371.5 1951.27,-371.5 1951.27,-371.5 1798.27,-371.5 1798.27,-371.5 1792.27,-371.5 1786.27,-365.5 1786.27,-359.5 1786.27,-359.5 1786.27,-301.5 1786.27,-301.5 1786.27,-295.5 1792.27,-289.5 1798.27,-289.5"/>
<text text-anchor="start" x="1843.77" y="-357.9" font-family="Times New Roman,serif" font-weight="bold" font-size="14.00">RETURN</text>
<text text-anchor="start" x="1899.76" y="-357.9" font-family="Times New Roman,serif" font-size="14.00"> &#160;</text>
<text text-anchor="start" x="1819.29" y="-336.9" font-family="Times New Roman,serif" font-size="14.00">ServerLocation.EU </text>
<polyline fill="none" stroke="black" points="1849.77,-331.5 1786.77,-331.5 "/>
<text text-anchor="start" x="1789.49" y="-315.9" font-family="Times New Roman,serif" font-size="14.00">inventory:</text>
<polyline fill="none" stroke="black" points="1963.77,-331.5 1849.77,-331.5 "/>
<text text-anchor="start" x="1852.54" y="-315.9" font-family="Times New Roman,serif" font-size="14.00">ServerLocation.EU</text>
<text text-anchor="start" x="1788.33" y="-294.9" font-family="Times New Roman,serif" font-size="14.00">RETURN:</text>
<text text-anchor="start" x="1852.54" y="-294.9" font-family="Times New Roman,serif" font-size="14.00">ServerLocation.EU</text>
</g>
<!-- 454346003&#45;&gt;1715023177 -->
<g id="edge10" class="edge">
<title>454346003&#45;&gt;1715023177</title>
<path fill="none" stroke="black" d="M1749.56,-364.32C1758.44,-361.9 1767.5,-359.44 1776.46,-357"/>
<polygon fill="black" stroke="black" points="1777.42,-360.36 1786.15,-354.36 1775.58,-353.61 1777.42,-360.36"/>
</g>
<!-- 1715023177&#45;&gt;1160552821 -->
<g id="edge1" class="edge">
<title>1715023177&#45;&gt;1160552821</title>
<path fill="none" stroke="black" d="M1786.26,-323.35C1747.79,-320.78 1702.06,-318.5 1660.77,-318.5 376.9,-318.5 376.9,-318.5 376.9,-318.5 268.61,-318.5 156.03,-245.87 103.26,-206.76"/>
<polygon fill="black" stroke="black" points="105.11,-203.77 95.01,-200.56 100.9,-209.37 105.11,-203.77"/>
</g>
<!-- 254517211 -->
<g id="node9" class="node">
<title>254517211</title>
<path fill="none" stroke="black" d="M625.81,-86.5C625.81,-86.5 776.81,-86.5 776.81,-86.5 782.81,-86.5 788.81,-92.5 788.81,-98.5 788.81,-98.5 788.81,-156.5 788.81,-156.5 788.81,-162.5 782.81,-168.5 776.81,-168.5 776.81,-168.5 625.81,-168.5 625.81,-168.5 619.81,-168.5 613.81,-162.5 613.81,-156.5 613.81,-156.5 613.81,-98.5 613.81,-98.5 613.81,-92.5 619.81,-86.5 625.81,-86.5"/>
<text text-anchor="start" x="645.82" y="-154.9" font-family="Times New Roman,serif" font-weight="bold" font-size="14.00">SaveInventoryCall</text>
<text text-anchor="start" x="750.79" y="-154.9" font-family="Times New Roman,serif" font-size="14.00"> &#160;</text>
<text text-anchor="start" x="645.83" y="-133.9" font-family="Times New Roman,serif" font-size="14.00">ServerLocation.EU </text>
<polyline fill="none" stroke="black" points="675.31,-128.5 614.31,-128.5 "/>
<text text-anchor="start" x="617.99" y="-112.9" font-family="Times New Roman,serif" font-size="14.00">userData:</text>
<polyline fill="none" stroke="black" points="789.31,-128.5 675.31,-128.5 "/>
<text text-anchor="start" x="678.08" y="-112.9" font-family="Times New Roman,serif" font-size="14.00">ServerLocation.EU</text>
<text text-anchor="start" x="616.03" y="-91.9" font-family="Times New Roman,serif" font-size="14.00">inventory:</text>
<text text-anchor="start" x="678.08" y="-91.9" font-family="Times New Roman,serif" font-size="14.00">ServerLocation.EU</text>
</g>
<!-- 188012899&#45;&gt;254517211 -->
<g id="edge12" class="edge">
<title>188012899&#45;&gt;254517211</title>
<path fill="none" stroke="black" d="M466.73,-167.47C509.15,-160.21 560.16,-151.48 603.67,-144.04"/>
<polygon fill="black" stroke="black" points="604.43,-147.46 613.7,-142.32 603.25,-140.56 604.43,-147.46"/>
<text text-anchor="middle" x="539.6" y="-166.7" font-family="Times New Roman,serif" font-size="14.00">userData, inventory</text>
</g>
<!-- 50765856 -->
<g id="node12" class="node">
<title>50765856</title>
<path fill="none" stroke="black" d="M624.81,-187.5C624.81,-187.5 777.81,-187.5 777.81,-187.5 783.81,-187.5 789.81,-193.5 789.81,-199.5 789.81,-199.5 789.81,-277.5 789.81,-277.5 789.81,-283.5 783.81,-289.5 777.81,-289.5 777.81,-289.5 624.81,-289.5 624.81,-289.5 618.81,-289.5 612.81,-283.5 612.81,-277.5 612.81,-277.5 612.81,-199.5 612.81,-199.5 612.81,-193.5 618.81,-187.5 624.81,-187.5"/>
<text text-anchor="start" x="645.44" y="-275.9" font-family="Times New Roman,serif" font-weight="bold" font-size="14.00">StoreUserDataCall</text>
<text text-anchor="start" x="751.17" y="-275.9" font-family="Times New Roman,serif" font-size="14.00"> &#160;</text>
<text text-anchor="start" x="645.83" y="-254.9" font-family="Times New Roman,serif" font-size="14.00">ServerLocation.EU </text>
<polyline fill="none" stroke="black" points="676.31,-249.5 613.31,-249.5 "/>
<text text-anchor="start" x="616.03" y="-233.9" font-family="Times New Roman,serif" font-size="14.00">inventory:</text>
<polyline fill="none" stroke="black" points="790.31,-249.5 676.31,-249.5 "/>
<text text-anchor="start" x="679.08" y="-233.9" font-family="Times New Roman,serif" font-size="14.00">ServerLocation.EU</text>
<text text-anchor="start" x="617.99" y="-212.9" font-family="Times New Roman,serif" font-size="14.00">userData:</text>
<text text-anchor="start" x="679.08" y="-212.9" font-family="Times New Roman,serif" font-size="14.00">ServerLocation.EU</text>
<text text-anchor="start" x="631.2" y="-192.9" font-family="Times New Roman,serif" font-size="14.00">data:</text>
<text text-anchor="start" x="679.08" y="-192.9" font-family="Times New Roman,serif" font-size="14.00">ServerLocation.EU</text>
</g>
<!-- 188012899&#45;&gt;50765856 -->
<g id="edge15" class="edge">
<title>188012899&#45;&gt;50765856</title>
<path fill="none" stroke="black" d="M466.73,-197.8C508.8,-205.13 559.33,-213.94 602.61,-221.48"/>
<polygon fill="black" stroke="black" points="602.13,-224.95 612.59,-223.22 603.34,-218.05 602.13,-224.95"/>
<text text-anchor="middle" x="539.6" y="-222.7" font-family="Times New Roman,serif" font-size="14.00">userData, inventory</text>
</g>
<!-- 191985992 -->
<g id="node10" class="node">
<title>191985992</title>
<path fill="none" stroke="black" d="M891.46,-89.5C891.46,-89.5 1065.46,-89.5 1065.46,-89.5 1071.46,-89.5 1077.46,-95.5 1077.46,-101.5 1077.46,-101.5 1077.46,-139.5 1077.46,-139.5 1077.46,-145.5 1071.46,-151.5 1065.46,-151.5 1065.46,-151.5 891.46,-151.5 891.46,-151.5 885.46,-151.5 879.46,-145.5 879.46,-139.5 879.46,-139.5 879.46,-101.5 879.46,-101.5 879.46,-95.5 885.46,-89.5 891.46,-89.5"/>
<text text-anchor="start" x="929.09" y="-137.9" font-family="Times New Roman,serif" font-weight="bold" font-size="14.00">updateInventory</text>
<text text-anchor="start" x="1020.83" y="-137.9" font-family="Times New Roman,serif" font-size="14.00"> &#160;</text>
<text text-anchor="start" x="911.98" y="-116.9" font-family="Times New Roman,serif" font-size="14.00">ServerLocation.nonEU </text>
<polyline fill="none" stroke="black" points="942.46,-111.5 879.46,-111.5 "/>
<text text-anchor="start" x="882.19" y="-95.9" font-family="Times New Roman,serif" font-size="14.00">inventory:</text>
<polyline fill="none" stroke="black" points="1077.46,-111.5 942.46,-111.5 "/>
<text text-anchor="start" x="945.23" y="-95.9" font-family="Times New Roman,serif" font-size="14.00">ServerLocation.nonEU</text>
</g>
<!-- 254517211&#45;&gt;191985992 -->
<g id="edge13" class="edge">
<title>254517211&#45;&gt;191985992</title>
<path fill="none" stroke="black" d="M788.99,-125.29C814.41,-124.65 842.53,-123.93 869.12,-123.26"/>
<polygon fill="black" stroke="black" points="869.33,-126.75 879.23,-123 869.15,-119.75 869.33,-126.75"/>
<text text-anchor="middle" x="834.63" y="-128.7" font-family="Times New Roman,serif" font-size="14.00">inventory</text>
</g>
<!-- 254517205 -->
<g id="node11" class="node">
<title>254517205</title>
<path fill="none" stroke="black" d="M1247.36,-54.5C1247.36,-54.5 1400.36,-54.5 1400.36,-54.5 1406.36,-54.5 1412.36,-60.5 1412.36,-66.5 1412.36,-66.5 1412.36,-124.5 1412.36,-124.5 1412.36,-130.5 1406.36,-136.5 1400.36,-136.5 1400.36,-136.5 1247.36,-136.5 1247.36,-136.5 1241.36,-136.5 1235.36,-130.5 1235.36,-124.5 1235.36,-124.5 1235.36,-66.5 1235.36,-66.5 1235.36,-60.5 1241.36,-54.5 1247.36,-54.5"/>
<text text-anchor="start" x="1268.38" y="-122.9" font-family="Times New Roman,serif" font-weight="bold" font-size="14.00">SaveInventoryCall</text>
<text text-anchor="start" x="1373.35" y="-122.9" font-family="Times New Roman,serif" font-size="14.00"> &#160;</text>
<text text-anchor="start" x="1268.39" y="-101.9" font-family="Times New Roman,serif" font-size="14.00">ServerLocation.EU </text>
<polyline fill="none" stroke="black" points="1298.86,-96.5 1235.86,-96.5 "/>
<text text-anchor="start" x="1238.59" y="-80.9" font-family="Times New Roman,serif" font-size="14.00">inventory:</text>
<polyline fill="none" stroke="black" points="1412.86,-96.5 1298.86,-96.5 "/>
<text text-anchor="start" x="1301.64" y="-80.9" font-family="Times New Roman,serif" font-size="14.00">ServerLocation.EU</text>
<text text-anchor="start" x="1240.55" y="-59.9" font-family="Times New Roman,serif" font-size="14.00">userData:</text>
<text text-anchor="start" x="1301.64" y="-59.9" font-family="Times New Roman,serif" font-size="14.00">ServerLocation.EU</text>
</g>
<!-- 191985992&#45;&gt;254517205 -->
<g id="edge14" class="edge">
<title>191985992&#45;&gt;254517205</title>
<path fill="none" stroke="black" d="M1077.87,-113.34C1124.12,-109.97 1179.11,-105.97 1225.26,-102.61"/>
<polygon fill="black" stroke="black" points="1225.55,-106.09 1235.27,-101.88 1225.04,-99.11 1225.55,-106.09"/>
<text text-anchor="middle" x="1150.66" y="-115.7" font-family="Times New Roman,serif" font-size="14.00">userData, inventory</text>
</g>
<!-- 254517205&#45;&gt;1160552821 -->
<g id="edge3" class="edge">
<title>254517205&#45;&gt;1160552821</title>
<path fill="none" stroke="black" d="M1235.29,-80.43C1166.07,-69.82 1066.89,-57.5 979.46,-57.5 376.9,-57.5 376.9,-57.5 376.9,-57.5 271.64,-57.5 160.22,-122.25 106.03,-158.54"/>
<polygon fill="black" stroke="black" points="103.83,-155.81 97.52,-164.32 107.76,-161.6 103.83,-155.81"/>
</g>
<!-- 1254518148 -->
<g id="node13" class="node">
<title>1254518148</title>
<path fill="none" stroke="black" d="M906.46,-186.5C906.46,-186.5 1050.46,-186.5 1050.46,-186.5 1056.46,-186.5 1062.46,-192.5 1062.46,-198.5 1062.46,-198.5 1062.46,-236.5 1062.46,-236.5 1062.46,-242.5 1056.46,-248.5 1050.46,-248.5 1050.46,-248.5 906.46,-248.5 906.46,-248.5 900.46,-248.5 894.46,-242.5 894.46,-236.5 894.46,-236.5 894.46,-198.5 894.46,-198.5 894.46,-192.5 900.46,-186.5 906.46,-186.5"/>
<text text-anchor="start" x="934.93" y="-234.9" font-family="Times New Roman,serif" font-weight="bold" font-size="14.00">storeUserData</text>
<text text-anchor="start" x="1014.99" y="-234.9" font-family="Times New Roman,serif" font-size="14.00"> &#160;</text>
<text text-anchor="start" x="911.98" y="-213.9" font-family="Times New Roman,serif" font-size="14.00">ServerLocation.nonEU </text>
<polyline fill="none" stroke="black" points="927.46,-208.5 894.46,-208.5 "/>
<text text-anchor="start" x="897.36" y="-192.9" font-family="Times New Roman,serif" font-size="14.00">data:</text>
<polyline fill="none" stroke="black" points="1062.46,-208.5 927.46,-208.5 "/>
<text text-anchor="start" x="930.23" y="-192.9" font-family="Times New Roman,serif" font-size="14.00">ServerLocation.nonEU</text>
</g>
<!-- 50765856&#45;&gt;1254518148 -->
<g id="edge16" class="edge">
<title>50765856&#45;&gt;1254518148</title>
<path fill="none" stroke="black" d="M790.12,-231.8C820.08,-229.51 853.67,-226.95 884.05,-224.63"/>
<polygon fill="black" stroke="black" points="884.52,-228.1 894.22,-223.85 883.99,-221.12 884.52,-228.1"/>
<text text-anchor="middle" x="834.63" y="-233.7" font-family="Times New Roman,serif" font-size="14.00">data</text>
</g>
<!-- 1782726851 -->
<g id="node14" class="node">
<title>1782726851</title>
<path fill="none" stroke="black" d="M1251.86,-161.5C1251.86,-161.5 1395.86,-161.5 1395.86,-161.5 1401.86,-161.5 1407.86,-167.5 1407.86,-173.5 1407.86,-173.5 1407.86,-211.5 1407.86,-211.5 1407.86,-217.5 1401.86,-223.5 1395.86,-223.5 1395.86,-223.5 1251.86,-223.5 1251.86,-223.5 1245.86,-223.5 1239.86,-217.5 1239.86,-211.5 1239.86,-211.5 1239.86,-173.5 1239.86,-173.5 1239.86,-167.5 1245.86,-161.5 1251.86,-161.5"/>
<text text-anchor="start" x="1294.52" y="-209.9" font-family="Times New Roman,serif" font-weight="bold" font-size="14.00">save data</text>
<text text-anchor="start" x="1346.21" y="-209.9" font-family="Times New Roman,serif" font-size="14.00"> &#160;</text>
<text text-anchor="start" x="1257.39" y="-188.9" font-family="Times New Roman,serif" font-size="14.00">ServerLocation.nonEU </text>
<polyline fill="none" stroke="black" points="1272.86,-183.5 1239.86,-183.5 "/>
<text text-anchor="start" x="1242.76" y="-167.9" font-family="Times New Roman,serif" font-size="14.00">data:</text>
<polyline fill="none" stroke="black" points="1407.86,-183.5 1272.86,-183.5 "/>
<text text-anchor="start" x="1275.64" y="-167.9" font-family="Times New Roman,serif" font-size="14.00">ServerLocation.nonEU</text>
</g>
<!-- 1254518148&#45;&gt;1782726851 -->
<g id="edge17" class="edge">
<title>1254518148&#45;&gt;1782726851</title>
<path fill="none" stroke="black" d="M1062.59,-211.45C1112.93,-207.78 1177.25,-203.1 1229.36,-199.31"/>
<polygon fill="black" stroke="black" points="1229.89,-202.78 1239.61,-198.56 1229.38,-195.8 1229.89,-202.78"/>
<text text-anchor="middle" x="1150.66" y="-212.7" font-family="Times New Roman,serif" font-size="14.00">data</text>
</g>
<!-- 50765862 -->
<g id="node15" class="node">
<title>50765862</title>
<path fill="none" stroke="black" d="M1583.27,-0.5C1583.27,-0.5 1736.27,-0.5 1736.27,-0.5 1742.27,-0.5 1748.27,-6.5 1748.27,-12.5 1748.27,-12.5 1748.27,-70.5 1748.27,-70.5 1748.27,-76.5 1742.27,-82.5 1736.27,-82.5 1736.27,-82.5 1583.27,-82.5 1583.27,-82.5 1577.27,-82.5 1571.27,-76.5 1571.27,-70.5 1571.27,-70.5 1571.27,-12.5 1571.27,-12.5 1571.27,-6.5 1577.27,-0.5 1583.27,-0.5"/>
<text text-anchor="start" x="1603.9" y="-68.9" font-family="Times New Roman,serif" font-weight="bold" font-size="14.00">StoreUserDataCall</text>
<text text-anchor="start" x="1709.63" y="-68.9" font-family="Times New Roman,serif" font-size="14.00"> &#160;</text>
<text text-anchor="start" x="1604.29" y="-47.9" font-family="Times New Roman,serif" font-size="14.00">ServerLocation.EU </text>
<polyline fill="none" stroke="black" points="1634.77,-42.5 1571.77,-42.5 "/>
<text text-anchor="start" x="1574.49" y="-26.9" font-family="Times New Roman,serif" font-size="14.00">inventory:</text>
<polyline fill="none" stroke="black" points="1748.77,-42.5 1634.77,-42.5 "/>
<text text-anchor="start" x="1637.54" y="-26.9" font-family="Times New Roman,serif" font-size="14.00">ServerLocation.EU</text>
<text text-anchor="start" x="1576.45" y="-5.9" font-family="Times New Roman,serif" font-size="14.00">userData:</text>
<text text-anchor="start" x="1637.54" y="-5.9" font-family="Times New Roman,serif" font-size="14.00">ServerLocation.EU</text>
</g>
<!-- 1782726851&#45;&gt;50765862 -->
<g id="edge18" class="edge">
<title>1782726851&#45;&gt;50765862</title>
<path fill="none" stroke="black" d="M1393.64,-161.4C1442.19,-139.44 1507.91,-109.72 1561.77,-85.36"/>
<polygon fill="black" stroke="black" points="1563.33,-88.5 1571,-81.19 1560.44,-82.12 1563.33,-88.5"/>
<text text-anchor="middle" x="1497.07" y="-142.7" font-family="Times New Roman,serif" font-size="14.00">userData, inventory</text>
</g>
<!-- 50765862&#45;&gt;1160552821 -->
<g id="edge4" class="edge">
<title>50765862&#45;&gt;1160552821</title>
<path fill="none" stroke="black" d="M1570.99,-32.55C1503.71,-26.46 1408.52,-19.5 1324.86,-19.5 376.9,-19.5 376.9,-19.5 376.9,-19.5 277.99,-19.5 244.44,-20.38 161,-73.5 128.59,-94.14 102.53,-130.69 87.3,-155.73"/>
<polygon fill="black" stroke="black" points="84.26,-154 82.18,-164.39 90.29,-157.56 84.26,-154"/>
</g>
</g>
</svg>
