<?xml version="1.0" encoding="us-ascii" standalone="no"?><svg xmlns="http://www.w3.org/2000/svg" xmlns:xlink="http://www.w3.org/1999/xlink" contentStyleType="text/css" height="1569px" preserveAspectRatio="none" style="width:2136px;height:1569px;background:#FFFFFF;" version="1.1" viewBox="0 0 2136 1569" width="2136px" zoomAndPan="magnify"><defs/><g><g id="elem_u_1"><ellipse cx="506.5195" cy="202.4236" fill="#F1F1F1" rx="135.5195" ry="45.4236" style="stroke:#181818;stroke-width:0.5;"/><text fill="#000000" font-family="sans-serif" font-size="14" lengthAdjust="spacing" textLength="27" x="483.2899" y="174.7662">view</text><line style="stroke:#181818;stroke-width:1.0;" x1="393.558" x2="619.481" y1="177.8424" y2="177.8424"/><text fill="#000000" font-family="sans-serif" font-size="14" lengthAdjust="spacing" textLength="190" x="401.7899" y="196.3756">SEFFActionSequenceElement</text><line style="stroke:#181818;stroke-width:1.0;stroke-dasharray:1.0,2.0;" x1="372.0347" x2="641.0043" y1="203.4518" y2="203.4518"/><text fill="#000000" font-family="sans-serif" font-size="14" lengthAdjust="spacing" textLength="203" x="395.2899" y="221.985">id: _gGipUITmEeywmO_IpTxeAg</text></g><g id="elem_u_3"><ellipse cx="551.7172" cy="505.4895" fill="#F1F1F1" rx="138.2172" ry="46.4895" style="stroke:#181818;stroke-width:0.5;"/><text fill="#000000" font-family="sans-serif" font-size="14" lengthAdjust="spacing" textLength="85" x="499.0753" y="479.5405">loadInventory</text><line style="stroke:#181818;stroke-width:1.0;" x1="432.386" x2="671.0483" y1="482.6166" y2="482.6166"/><text fill="#000000" font-family="sans-serif" font-size="14" lengthAdjust="spacing" textLength="190" x="446.5753" y="501.1498">SEFFActionSequenceElement</text><line style="stroke:#181818;stroke-width:1.0;stroke-dasharray:1.0,2.0;" x1="414.7397" x2="688.6946" y1="508.226" y2="508.226"/><text fill="#000000" font-family="sans-serif" font-size="14" lengthAdjust="spacing" textLength="202" x="440.5753" y="526.7592">id: _oGPyMITjEeywmO_IpTxeAg</text></g><g id="elem_u_4"><ellipse cx="138.5439" cy="658.8667" fill="#F1F1F1" rx="132.5439" ry="45.8667" style="stroke:#181818;stroke-width:0.5;"/><text fill="#000000" font-family="sans-serif" font-size="14" lengthAdjust="spacing" textLength="56" x="100.8365" y="631.9655">RETURN</text><line style="stroke:#181818;stroke-width:1.0;" x1="26.2842" x2="250.8036" y1="635.0417" y2="635.0417"/><text fill="#000000" font-family="sans-serif" font-size="14" lengthAdjust="spacing" textLength="190" x="33.8365" y="653.5749">SEFFActionSequenceElement</text><line style="stroke:#181818;stroke-width:1.0;stroke-dasharray:1.0,2.0;" x1="7.1003" x2="269.9875" y1="660.6511" y2="660.6511"/><text fill="#000000" font-family="sans-serif" font-size="14" lengthAdjust="spacing" textLength="196" x="30.8365" y="679.1843">id: _IFQ3EITlEeywmO_IpTxeAg</text></g><g id="elem_u_6"><ellipse cx="446.3934" cy="658.8278" fill="#F1F1F1" rx="139.8934" ry="45.8278" style="stroke:#181818;stroke-width:0.5;"/><text fill="#000000" font-family="sans-serif" font-size="14" lengthAdjust="spacing" textLength="56" x="408.345" y="631.7969">RETURN</text><line style="stroke:#181818;stroke-width:1.0;" x1="328.133" x2="564.6537" y1="634.873" y2="634.873"/><text fill="#000000" font-family="sans-serif" font-size="14" lengthAdjust="spacing" textLength="190" x="341.345" y="653.4063">SEFFActionSequenceElement</text><line style="stroke:#181818;stroke-width:1.0;stroke-dasharray:1.0,2.0;" x1="307.5912" x2="585.1955" y1="660.4824" y2="660.4824"/><text fill="#000000" font-family="sans-serif" font-size="14" lengthAdjust="spacing" textLength="208" x="332.345" y="679.0156">id: _tMGKUITmEeywmO_IpTxeAg</text></g><g id="elem_u_9"><ellipse cx="739.7224" cy="828.5169" fill="#F1F1F1" rx="132.7224" ry="45.5169" style="stroke:#181818;stroke-width:0.5;"/><text fill="#000000" font-family="sans-serif" font-size="14" lengthAdjust="spacing" textLength="23" x="719.7799" y="800.6148">buy</text><line style="stroke:#181818;stroke-width:1.0;" x1="629.4796" x2="849.9651" y1="803.691" y2="803.691"/><text fill="#000000" font-family="sans-serif" font-size="14" lengthAdjust="spacing" textLength="190" x="636.2799" y="822.2242">SEFFActionSequenceElement</text><line style="stroke:#181818;stroke-width:1.0;stroke-dasharray:1.0,2.0;" x1="608.0197" x2="871.4251" y1="829.3003" y2="829.3003"/><text fill="#000000" font-family="sans-serif" font-size="14" lengthAdjust="spacing" textLength="198" x="632.2799" y="847.8335">id: _nGp9cITjEeywmO_IpTxeAg</text></g><g id="elem_u_10"><ellipse cx="739.3109" cy="1003.5508" fill="#F1F1F1" rx="148.3109" ry="51.5508" style="stroke:#181818;stroke-width:0.5;"/><text fill="#000000" font-family="sans-serif" font-size="14" lengthAdjust="spacing" textLength="192" x="642.8109" y="981.67">ProbabilisticBranchTransition1</text><line style="stroke:#181818;stroke-width:1.0;" x1="602.2195" x2="876.4022" y1="984.7462" y2="984.7462"/><text fill="#000000" font-family="sans-serif" font-size="14" lengthAdjust="spacing" textLength="190" x="643.8109" y="1003.2794">SEFFActionSequenceElement</text><line style="stroke:#181818;stroke-width:1.0;stroke-dasharray:1.0,2.0;" x1="593.2978" x2="885.324" y1="1010.3555" y2="1010.3555"/><text fill="#000000" font-family="sans-serif" font-size="14" lengthAdjust="spacing" textLength="194" x="641.8109" y="1028.8887">id: _vpIdQdv1EeyYrpd_1AtxSw</text></g><g id="elem_u_12"><ellipse cx="740.2524" cy="1347.0475" fill="#F1F1F1" rx="136.7524" ry="47.0475" style="stroke:#181818;stroke-width:0.5;"/><text fill="#000000" font-family="sans-serif" font-size="14" lengthAdjust="spacing" textLength="102" x="679.0462" y="1321.9919">updateInventory</text><line style="stroke:#181818;stroke-width:1.0;" x1="620.3408" x2="860.1639" y1="1325.068" y2="1325.068"/><text fill="#000000" font-family="sans-serif" font-size="14" lengthAdjust="spacing" textLength="190" x="635.0462" y="1343.6012">SEFFActionSequenceElement</text><line style="stroke:#181818;stroke-width:1.0;stroke-dasharray:1.0,2.0;" x1="604.9076" x2="875.5971" y1="1350.6774" y2="1350.6774"/><text fill="#000000" font-family="sans-serif" font-size="14" lengthAdjust="spacing" textLength="197" x="631.5462" y="1369.2106">id: _oGzL0ITjEeywmO_IpTxeAg</text></g><g id="elem_u_16"><ellipse cx="1630.5195" cy="202.4236" fill="#F1F1F1" rx="135.5195" ry="45.4236" style="stroke:#181818;stroke-width:0.5;"/><text fill="#000000" font-family="sans-serif" font-size="14" lengthAdjust="spacing" textLength="27" x="1607.2899" y="174.7662">view</text><line style="stroke:#181818;stroke-width:1.0;" x1="1517.558" x2="1743.481" y1="177.8424" y2="177.8424"/><text fill="#000000" font-family="sans-serif" font-size="14" lengthAdjust="spacing" textLength="190" x="1525.7899" y="196.3756">SEFFActionSequenceElement</text><line style="stroke:#181818;stroke-width:1.0;stroke-dasharray:1.0,2.0;" x1="1496.0347" x2="1765.0043" y1="203.4518" y2="203.4518"/><text fill="#000000" font-family="sans-serif" font-size="14" lengthAdjust="spacing" textLength="203" x="1519.2899" y="221.985">id: _gGipUITmEeywmO_IpTxeAg</text></g><g id="elem_u_18"><ellipse cx="1631.7172" cy="505.4895" fill="#F1F1F1" rx="138.2172" ry="46.4895" style="stroke:#181818;stroke-width:0.5;"/><text fill="#000000" font-family="sans-serif" font-size="14" lengthAdjust="spacing" textLength="85" x="1579.0753" y="479.5405">loadInventory</text><line style="stroke:#181818;stroke-width:1.0;" x1="1512.386" x2="1751.0483" y1="482.6166" y2="482.6166"/><text fill="#000000" font-family="sans-serif" font-size="14" lengthAdjust="spacing" textLength="190" x="1526.5753" y="501.1498">SEFFActionSequenceElement</text><line style="stroke:#181818;stroke-width:1.0;stroke-dasharray:1.0,2.0;" x1="1494.7397" x2="1768.6946" y1="508.226" y2="508.226"/><text fill="#000000" font-family="sans-serif" font-size="14" lengthAdjust="spacing" textLength="202" x="1520.5753" y="526.7592">id: _oGPyMITjEeywmO_IpTxeAg</text></g><g id="elem_u_19"><ellipse cx="1218.5439" cy="658.8667" fill="#F1F1F1" rx="132.5439" ry="45.8667" style="stroke:#181818;stroke-width:0.5;"/><text fill="#000000" font-family="sans-serif" font-size="14" lengthAdjust="spacing" textLength="56" x="1180.8365" y="631.9655">RETURN</text><line style="stroke:#181818;stroke-width:1.0;" x1="1106.2842" x2="1330.8036" y1="635.0417" y2="635.0417"/><text fill="#000000" font-family="sans-serif" font-size="14" lengthAdjust="spacing" textLength="190" x="1113.8365" y="653.5749">SEFFActionSequenceElement</text><line style="stroke:#181818;stroke-width:1.0;stroke-dasharray:1.0,2.0;" x1="1087.1003" x2="1349.9875" y1="660.6511" y2="660.6511"/><text fill="#000000" font-family="sans-serif" font-size="14" lengthAdjust="spacing" textLength="196" x="1110.8365" y="679.1843">id: _IFQ3EITlEeywmO_IpTxeAg</text></g><g id="elem_u_21"><ellipse cx="1526.3934" cy="658.8278" fill="#F1F1F1" rx="139.8934" ry="45.8278" style="stroke:#181818;stroke-width:0.5;"/><text fill="#000000" font-family="sans-serif" font-size="14" lengthAdjust="spacing" textLength="56" x="1488.345" y="631.7969">RETURN</text><line style="stroke:#181818;stroke-width:1.0;" x1="1408.133" x2="1644.6537" y1="634.873" y2="634.873"/><text fill="#000000" font-family="sans-serif" font-size="14" lengthAdjust="spacing" textLength="190" x="1421.345" y="653.4063">SEFFActionSequenceElement</text><line style="stroke:#181818;stroke-width:1.0;stroke-dasharray:1.0,2.0;" x1="1387.5912" x2="1665.1955" y1="660.4824" y2="660.4824"/><text fill="#000000" font-family="sans-serif" font-size="14" lengthAdjust="spacing" textLength="208" x="1412.345" y="679.0156">id: _tMGKUITmEeywmO_IpTxeAg</text></g><g id="elem_u_24"><ellipse cx="1818.7224" cy="828.5169" fill="#F1F1F1" rx="132.7224" ry="45.5169" style="stroke:#181818;stroke-width:0.5;"/><text fill="#000000" font-family="sans-serif" font-size="14" lengthAdjust="spacing" textLength="23" x="1798.7799" y="800.6148">buy</text><line style="stroke:#181818;stroke-width:1.0;" x1="1708.4796" x2="1928.9651" y1="803.691" y2="803.691"/><text fill="#000000" font-family="sans-serif" font-size="14" lengthAdjust="spacing" textLength="190" x="1715.2799" y="822.2242">SEFFActionSequenceElement</text><line style="stroke:#181818;stroke-width:1.0;stroke-dasharray:1.0,2.0;" x1="1687.0197" x2="1950.4251" y1="829.3003" y2="829.3003"/><text fill="#000000" font-family="sans-serif" font-size="14" lengthAdjust="spacing" textLength="198" x="1711.2799" y="847.8335">id: _nGp9cITjEeywmO_IpTxeAg</text></g><g id="elem_u_25"><ellipse cx="1818.3967" cy="1003.5497" fill="#F1F1F1" rx="146.8967" ry="51.5497" style="stroke:#181818;stroke-width:0.5;"/><text fill="#000000" font-family="sans-serif" font-size="14" lengthAdjust="spacing" textLength="192" x="1722.8967" y="981.6688">ProbabilisticBranchTransition2</text><line style="stroke:#181818;stroke-width:1.0;" x1="1682.6225" x2="1954.1708" y1="984.745" y2="984.745"/><text fill="#000000" font-family="sans-serif" font-size="14" lengthAdjust="spacing" textLength="190" x="1723.8967" y="1003.2782">SEFFActionSequenceElement</text><line style="stroke:#181818;stroke-width:1.0;stroke-dasharray:1.0,2.0;" x1="1673.7854" x2="1963.0079" y1="1010.3544" y2="1010.3544"/><text fill="#000000" font-family="sans-serif" font-size="14" lengthAdjust="spacing" textLength="190" x="1723.8967" y="1028.8876">id: _NIEngtv2EeyYrpd_1AtxSw</text></g><g id="elem_u_27"><ellipse cx="1818.7222" cy="1346.7673" fill="#F1F1F1" rx="132.7222" ry="46.7673" style="stroke:#181818;stroke-width:0.5;"/><text fill="#000000" font-family="sans-serif" font-size="14" lengthAdjust="spacing" textLength="91" x="1763.2834" y="1321.3076">storeUserData</text><line style="stroke:#181818;stroke-width:1.0;" x1="1703.1888" x2="1934.2556" y1="1324.3838" y2="1324.3838"/><text fill="#000000" font-family="sans-serif" font-size="14" lengthAdjust="spacing" textLength="190" x="1713.7834" y="1342.917">SEFFActionSequenceElement</text><line style="stroke:#181818;stroke-width:1.0;stroke-dasharray:1.0,2.0;" x1="1687.3161" x2="1950.1283" y1="1349.9931" y2="1349.9931"/><text fill="#000000" font-family="sans-serif" font-size="14" lengthAdjust="spacing" textLength="192" x="1712.7834" y="1368.5263">id: _vzrLQdvzEeyYrpd_1AtxSw</text></g><g id="elem_u_28"><ellipse cx="1818.741" cy="1517.9739" fill="#F1F1F1" rx="134.741" ry="45.9739" style="stroke:#181818;stroke-width:0.5;"/><text fill="#000000" font-family="sans-serif" font-size="14" lengthAdjust="spacing" textLength="62" x="1777.9004" y="1491.2265">save data</text><line style="stroke:#181818;stroke-width:1.0;" x1="1704.2329" x2="1933.2491" y1="1494.3027" y2="1494.3027"/><text fill="#000000" font-family="sans-serif" font-size="14" lengthAdjust="spacing" textLength="190" x="1713.9004" y="1512.8359">SEFFActionSequenceElement</text><line style="stroke:#181818;stroke-width:1.0;stroke-dasharray:1.0,2.0;" x1="1685.1198" x2="1952.3622" y1="1519.9121" y2="1519.9121"/><text fill="#000000" font-family="sans-serif" font-size="14" lengthAdjust="spacing" textLength="199" x="1709.4004" y="1538.4453">id: _B1yF0Nv0EeyYrpd_1AtxSw</text></g><!--entity u_0--><g id="elem_u_0"><rect fill="#F1F1F1" height="88.8281" rx="2.5" ry="2.5" style="stroke:#181818;stroke-width:0.5;" width="246" x="383.5" y="7"/><text fill="#000000" font-family="sans-serif" font-size="14" lengthAdjust="spacing" textLength="166" x="393.5" y="31.5332">ViewEntryLevelSystemCall</text><line style="stroke:#181818;stroke-width:1.0;" x1="384.5" x2="628.5" y1="34.6094" y2="34.6094"/><text fill="#000000" font-family="sans-serif" font-size="14" lengthAdjust="spacing" textLength="226" x="393.5" y="53.1426">CallingUserActionSequenceElement</text><line style="stroke:#181818;stroke-width:1.0;stroke-dasharray:1.0,2.0;" x1="384.5" x2="628.5" y1="60.2188" y2="60.2188"/><text fill="#000000" font-family="sans-serif" font-size="14" lengthAdjust="spacing" textLength="202" x="393.5" y="78.752">id: _Js2OAITnEeywmO_IpTxeAg</text></g><!--entity u_2--><g id="elem_u_2"><rect fill="#F1F1F1" height="88.8281" rx="2.5" ry="2.5" style="stroke:#181818;stroke-width:0.5;" width="253" x="515" y="309"/><text fill="#000000" font-family="sans-serif" font-size="14" lengthAdjust="spacing" textLength="151" x="525" y="333.5332">DatabaseLoadInventory</text><line style="stroke:#181818;stroke-width:1.0;" x1="516" x2="767" y1="336.6094" y2="336.6094"/><text fill="#000000" font-family="sans-serif" font-size="14" lengthAdjust="spacing" textLength="233" x="525" y="355.1426">CallingSEFFActionSequenceElement</text><line style="stroke:#181818;stroke-width:1.0;stroke-dasharray:1.0,2.0;" x1="516" x2="767" y1="362.2188" y2="362.2188"/><text fill="#000000" font-family="sans-serif" font-size="14" lengthAdjust="spacing" textLength="202" x="525" y="380.752">id: _1JoBkITmEeywmO_IpTxeAg</text></g><!--entity u_8--><g id="elem_u_8"><rect fill="#F1F1F1" height="88.8281" rx="2.5" ry="2.5" style="stroke:#181818;stroke-width:0.5;" width="246" x="804.5" y="614.5"/><text fill="#000000" font-family="sans-serif" font-size="14" lengthAdjust="spacing" textLength="161" x="814.5" y="639.0332">BuyEntryLevelSystemCall</text><line style="stroke:#181818;stroke-width:1.0;" x1="805.5" x2="1049.5" y1="642.1094" y2="642.1094"/><text fill="#000000" font-family="sans-serif" font-size="14" lengthAdjust="spacing" textLength="226" x="814.5" y="660.6426">CallingUserActionSequenceElement</text><line style="stroke:#181818;stroke-width:1.0;stroke-dasharray:1.0,2.0;" x1="805.5" x2="1049.5" y1="667.7188" y2="667.7188"/><text fill="#000000" font-family="sans-serif" font-size="14" lengthAdjust="spacing" textLength="203" x="814.5" y="686.252">id: _hq6RAITkEeywmO_IpTxeAg</text></g><!--entity u_11--><g id="elem_u_11"><rect fill="#F1F1F1" height="88.8281" rx="2.5" ry="2.5" style="stroke:#181818;stroke-width:0.5;" width="253" x="760" y="1133"/><text fill="#000000" font-family="sans-serif" font-size="14" lengthAdjust="spacing" textLength="114" x="770" y="1157.5332">SaveInventoryCall</text><line style="stroke:#181818;stroke-width:1.0;" x1="761" x2="1012" y1="1160.6094" y2="1160.6094"/><text fill="#000000" font-family="sans-serif" font-size="14" lengthAdjust="spacing" textLength="233" x="770" y="1179.1426">CallingSEFFActionSequenceElement</text><line style="stroke:#181818;stroke-width:1.0;stroke-dasharray:1.0,2.0;" x1="761" x2="1012" y1="1186.2188" y2="1186.2188"/><text fill="#000000" font-family="sans-serif" font-size="14" lengthAdjust="spacing" textLength="199" x="770" y="1204.752">id: _DX-mcNv2EeyYrpd_1AtxSw</text></g><!--entity u_15--><g id="elem_u_15"><rect fill="#F1F1F1" height="88.8281" rx="2.5" ry="2.5" style="stroke:#181818;stroke-width:0.5;" width="246" x="1507.5" y="7"/><text fill="#000000" font-family="sans-serif" font-size="14" lengthAdjust="spacing" textLength="166" x="1517.5" y="31.5332">ViewEntryLevelSystemCall</text><line style="stroke:#181818;stroke-width:1.0;" x1="1508.5" x2="1752.5" y1="34.6094" y2="34.6094"/><text fill="#000000" font-family="sans-serif" font-size="14" lengthAdjust="spacing" textLength="226" x="1517.5" y="53.1426">CallingUserActionSequenceElement</text><line style="stroke:#181818;stroke-width:1.0;stroke-dasharray:1.0,2.0;" x1="1508.5" x2="1752.5" y1="60.2188" y2="60.2188"/><text fill="#000000" font-family="sans-serif" font-size="14" lengthAdjust="spacing" textLength="202" x="1517.5" y="78.752">id: _Js2OAITnEeywmO_IpTxeAg</text></g><!--entity u_17--><g id="elem_u_17"><rect fill="#F1F1F1" height="88.8281" rx="2.5" ry="2.5" style="stroke:#181818;stroke-width:0.5;" width="253" x="1629" y="309"/><text fill="#000000" font-family="sans-serif" font-size="14" lengthAdjust="spacing" textLength="151" x="1639" y="333.5332">DatabaseLoadInventory</text><line style="stroke:#181818;stroke-width:1.0;" x1="1630" x2="1881" y1="336.6094" y2="336.6094"/><text fill="#000000" font-family="sans-serif" font-size="14" lengthAdjust="spacing" textLength="233" x="1639" y="355.1426">CallingSEFFActionSequenceElement</text><line style="stroke:#181818;stroke-width:1.0;stroke-dasharray:1.0,2.0;" x1="1630" x2="1881" y1="362.2188" y2="362.2188"/><text fill="#000000" font-family="sans-serif" font-size="14" lengthAdjust="spacing" textLength="202" x="1639" y="380.752">id: _1JoBkITmEeywmO_IpTxeAg</text></g><!--entity u_23--><g id="elem_u_23"><rect fill="#F1F1F1" height="88.8281" rx="2.5" ry="2.5" style="stroke:#181818;stroke-width:0.5;" width="246" x="1884.5" y="614.5"/><text fill="#000000" font-family="sans-serif" font-size="14" lengthAdjust="spacing" textLength="161" x="1894.5" y="639.0332">BuyEntryLevelSystemCall</text><line style="stroke:#181818;stroke-width:1.0;" x1="1885.5" x2="2129.5" y1="642.1094" y2="642.1094"/><text fill="#000000" font-family="sans-serif" font-size="14" lengthAdjust="spacing" textLength="226" x="1894.5" y="660.6426">CallingUserActionSequenceElement</text><line style="stroke:#181818;stroke-width:1.0;stroke-dasharray:1.0,2.0;" x1="1885.5" x2="2129.5" y1="667.7188" y2="667.7188"/><text fill="#000000" font-family="sans-serif" font-size="14" lengthAdjust="spacing" textLength="203" x="1894.5" y="686.252">id: _hq6RAITkEeywmO_IpTxeAg</text></g><!--entity u_26--><g id="elem_u_26"><rect fill="#F1F1F1" height="88.8281" rx="2.5" ry="2.5" style="stroke:#181818;stroke-width:0.5;" width="253" x="1819" y="1133"/><text fill="#000000" font-family="sans-serif" font-size="14" lengthAdjust="spacing" textLength="117" x="1829" y="1157.5332">StoreUserDataCall</text><line style="stroke:#181818;stroke-width:1.0;" x1="1820" x2="2071" y1="1160.6094" y2="1160.6094"/><text fill="#000000" font-family="sans-serif" font-size="14" lengthAdjust="spacing" textLength="233" x="1829" y="1179.1426">CallingSEFFActionSequenceElement</text><line style="stroke:#181818;stroke-width:1.0;stroke-dasharray:1.0,2.0;" x1="1820" x2="2071" y1="1186.2188" y2="1186.2188"/><text fill="#000000" font-family="sans-serif" font-size="14" lengthAdjust="spacing" textLength="205" x="1829" y="1204.752">id: _QqAdMNv2EeyYrpd_1AtxSw</text></g><!--link u_1 to u_3--><g id="link_u_1_u_3"><path codeLine="15" d="M497.46,248.19 C491.04,288.05 485.48,347.7 497.5,398 C502.19,417.63 511.12,437.73 520.39,455.1 " fill="none" id="u_1-to-u_3" style="stroke:#181818;stroke-width:1.0;"/><polygon fill="#181818" points="523.01,459.93,522.2231,450.1126,520.6208,455.5378,515.1956,453.9354,523.01,459.93" style="stroke:#181818;stroke-width:1.0;"/></g><!--link u_3 to u_4--><g id="link_u_3_u_4"><path codeLine="23" d="M459.59,540.22 C392.27,564.91 301.19,598.32 233.22,623.25 " fill="none" id="u_3-to-u_4" style="stroke:#181818;stroke-width:1.0;"/><polygon fill="#181818" points="228.37,625.03,238.1982,625.6679,233.061,623.2995,235.4294,618.1623,228.37,625.03" style="stroke:#181818;stroke-width:1.0;"/></g><!--link u_3 to u_6--><g id="link_u_3_u_6"><path codeLine="31" d="M520.56,551.14 C507.8,569.56 492.97,590.95 479.95,609.73 " fill="none" id="u_3-to-u_6" style="stroke:#181818;stroke-width:1.0;"/><polygon fill="#181818" points="477.03,613.94,485.437,608.8095,479.8723,609.8265,478.8554,604.2618,477.03,613.94" style="stroke:#181818;stroke-width:1.0;"/></g><!--link u_3 to u_9--><g id="link_u_3_u_9"><path codeLine="39" d="M577.84,551.47 C613.02,611.54 675.1,717.54 711.24,779.24 " fill="none" id="u_3-to-u_9" style="stroke:#181818;stroke-width:1.0;"/><polygon fill="#181818" points="713.79,783.6,712.7143,773.8101,711.2724,779.2801,705.8024,777.8382,713.79,783.6" style="stroke:#181818;stroke-width:1.0;"/><text fill="#000000" font-family="sans-serif" font-size="13" lengthAdjust="spacing" textLength="111" x="668.5" y="664.4951">userData, inventory</text></g><!--link u_9 to u_10--><g id="link_u_9_u_10"><path codeLine="47" d="M739.5,874.05 C739.5,896.2 739.5,923.2 739.5,946.71 " fill="none" id="u_9-to-u_10" style="stroke:#181818;stroke-width:1.0;"/><polygon fill="#181818" points="739.5,951.99,743.5,942.99,739.5,946.99,735.5,942.99,739.5,951.99" style="stroke:#181818;stroke-width:1.0;"/><text fill="#000000" font-family="sans-serif" font-size="13" lengthAdjust="spacing" textLength="111" x="740.5" y="918.4951">userData, inventory</text></g><!--link u_10 to u_12--><g id="link_u_10_u_12"><path codeLine="55" d="M715.06,1054.49 C705,1077.76 694.53,1106.18 689.5,1133 C682.2,1171.88 681.83,1183.19 689.5,1222 C694.49,1247.26 704.69,1273.85 714.67,1295.9 " fill="none" id="u_10-to-u_12" style="stroke:#181818;stroke-width:1.0;"/><polygon fill="#181818" points="716.79,1300.53,716.6956,1290.6816,714.7156,1295.9806,709.4166,1294.0006,716.79,1300.53" style="stroke:#181818;stroke-width:1.0;"/><text fill="#000000" font-family="sans-serif" font-size="13" lengthAdjust="spacing" textLength="51" x="690.5" y="1182.9951">inventory</text></g><!--link u_16 to u_18--><g id="link_u_16_u_18"><path codeLine="70" d="M1620.69,247.92 C1617.02,266.67 1613.3,288.79 1611.5,309 C1607.98,348.4 1607.83,358.61 1611.5,398 C1613.21,416.41 1616.56,436.37 1620.03,453.99 " fill="none" id="u_16-to-u_18" style="stroke:#181818;stroke-width:1.0;"/><polygon fill="#181818" points="1621.01,458.89,1623.1888,449.2852,1620.0404,453.9849,1615.3406,450.8365,1621.01,458.89" style="stroke:#181818;stroke-width:1.0;"/></g><!--link u_18 to u_19--><g id="link_u_18_u_19"><path codeLine="78" d="M1539.59,540.22 C1472.27,564.91 1381.19,598.32 1313.22,623.25 " fill="none" id="u_18-to-u_19" style="stroke:#181818;stroke-width:1.0;"/><polygon fill="#181818" points="1308.37,625.03,1318.1982,625.6679,1313.061,623.2995,1315.4294,618.1623,1308.37,625.03" style="stroke:#181818;stroke-width:1.0;"/></g><!--link u_18 to u_21--><g id="link_u_18_u_21"><path codeLine="86" d="M1600.56,551.14 C1587.8,569.56 1572.97,590.95 1559.95,609.73 " fill="none" id="u_18-to-u_21" style="stroke:#181818;stroke-width:1.0;"/><polygon fill="#181818" points="1557.03,613.94,1565.437,608.8095,1559.8723,609.8265,1558.8554,604.2618,1557.03,613.94" style="stroke:#181818;stroke-width:1.0;"/></g><!--link u_18 to u_24--><g id="link_u_18_u_24"><path codeLine="94" d="M1657.7,551.47 C1692.69,611.54 1754.45,717.54 1790.39,779.24 " fill="none" id="u_18-to-u_24" style="stroke:#181818;stroke-width:1.0;"/><polygon fill="#181818" points="1792.93,783.6,1791.8301,773.8127,1790.4018,779.2863,1784.9282,777.8579,1792.93,783.6" style="stroke:#181818;stroke-width:1.0;"/><text fill="#000000" font-family="sans-serif" font-size="13" lengthAdjust="spacing" textLength="111" x="1747.5" y="664.4951">userData, inventory</text></g><!--link u_24 to u_25--><g id="link_u_24_u_25"><path codeLine="102" d="M1818.5,874.05 C1818.5,896.2 1818.5,923.2 1818.5,946.71 " fill="none" id="u_24-to-u_25" style="stroke:#181818;stroke-width:1.0;"/><polygon fill="#181818" points="1818.5,951.99,1822.5,942.99,1818.5,946.99,1814.5,942.99,1818.5,951.99" style="stroke:#181818;stroke-width:1.0;"/><text fill="#000000" font-family="sans-serif" font-size="13" lengthAdjust="spacing" textLength="111" x="1819.5" y="918.4951">userData, inventory</text></g><!--link u_25 to u_27--><g id="link_u_25_u_27"><path codeLine="110" d="M1797.1,1054.47 C1788.2,1077.85 1778.93,1106.37 1774.5,1133 C1768,1172.02 1767.79,1183.02 1774.5,1222 C1778.81,1247.01 1787.66,1273.67 1796.31,1295.83 " fill="none" id="u_25-to-u_27" style="stroke:#181818;stroke-width:1.0;"/><polygon fill="#181818" points="1798.15,1300.49,1798.5579,1290.6496,1796.3103,1295.8408,1791.1191,1293.5932,1798.15,1300.49" style="stroke:#181818;stroke-width:1.0;"/><text fill="#000000" font-family="sans-serif" font-size="13" lengthAdjust="spacing" textLength="25" x="1775.5" y="1182.9951">data</text></g><!--link u_27 to u_28--><g id="link_u_27_u_28"><path codeLine="118" d="M1818.5,1394.18 C1818.5,1416.62 1818.5,1443.64 1818.5,1466.61 " fill="none" id="u_27-to-u_28" style="stroke:#181818;stroke-width:1.0;"/><polygon fill="#181818" points="1818.5,1471.75,1822.5,1462.75,1818.5,1466.75,1814.5,1462.75,1818.5,1471.75" style="stroke:#181818;stroke-width:1.0;"/><text fill="#000000" font-family="sans-serif" font-size="13" lengthAdjust="spacing" textLength="25" x="1819.5" y="1438.4951">data</text></g><!--link u_0 to u_1--><g id="link_u_0_u_1"><path codeLine="126" d="M506.5,96.4 C506.5,113.67 506.5,133.6 506.5,151.42 " fill="none" id="u_0-to-u_1" style="stroke:#181818;stroke-width:1.0;stroke-dasharray:7.0,7.0;"/><polygon fill="#181818" points="506.5,156.88,510.5,147.88,506.5,151.88,502.5,147.88,506.5,156.88" style="stroke:#181818;stroke-width:1.0;"/></g><!--link u_1 to u_2--><g id="link_u_1_u_2"><path codeLine="134" d="M545.19,246.2 C561.84,264.58 581.38,286.14 598.48,305.02 " fill="none" id="u_1-to-u_2" style="stroke:#181818;stroke-width:1.0;stroke-dasharray:7.0,7.0;"/><polygon fill="#181818" points="601.87,308.76,598.7847,299.4069,598.5102,305.0571,592.86,304.7826,601.87,308.76" style="stroke:#181818;stroke-width:1.0;"/></g><!--link u_2 to u_3--><g id="link_u_2_u_3"><path codeLine="135" d="M615.23,398.29 C604.51,416.15 592.07,436.88 581.05,455.26 " fill="none" id="u_2-to-u_3" style="stroke:#181818;stroke-width:1.0;stroke-dasharray:7.0,7.0;"/><polygon fill="#181818" points="578.27,459.88,586.3304,454.2205,580.8425,455.5925,579.4705,450.1046,578.27,459.88" style="stroke:#181818;stroke-width:1.0;"/></g><!--link u_3 to u_8--><g id="link_u_3_u_8"><path codeLine="143" d="M638.71,541.64 C691.04,562.72 758.16,589.77 814.52,612.48 " fill="none" id="u_3-to-u_8" style="stroke:#181818;stroke-width:1.0;stroke-dasharray:7.0,7.0;"/><polygon fill="#181818" points="819.25,614.38,812.398,607.3054,814.6126,612.5108,809.4072,614.7253,819.25,614.38" style="stroke:#181818;stroke-width:1.0;"/></g><!--link u_8 to u_9--><g id="link_u_8_u_9"><path codeLine="144" d="M878.6,703.57 C851.43,727.78 817.67,757.85 790.22,782.31 " fill="none" id="u_8-to-u_9" style="stroke:#181818;stroke-width:1.0;stroke-dasharray:7.0,7.0;"/><polygon fill="#181818" points="786.22,785.88,795.5977,782.8703,789.9499,782.5502,790.2701,776.9024,786.22,785.88" style="stroke:#181818;stroke-width:1.0;"/><text fill="#000000" font-family="sans-serif" font-size="13" lengthAdjust="spacing" textLength="111" x="840.5" y="749.4951">userData, inventory</text></g><!--link u_10 to u_11--><g id="link_u_10_u_11"><path codeLine="152" d="M781.23,1053.33 C801.45,1076.99 825.64,1105.29 845.74,1128.8 " fill="none" id="u_10-to-u_11" style="stroke:#181818;stroke-width:1.0;stroke-dasharray:7.0,7.0;"/><polygon fill="#181818" points="849.18,1132.83,846.3804,1123.3874,845.9343,1129.0267,840.2951,1128.5806,849.18,1132.83" style="stroke:#181818;stroke-width:1.0;"/><text fill="#000000" font-family="sans-serif" font-size="13" lengthAdjust="spacing" textLength="111" x="823.5" y="1099.4951">userData, inventory</text></g><!--link u_11 to u_12--><g id="link_u_11_u_12"><path codeLine="153" d="M848.52,1222.07 C828.23,1245.35 803.21,1274.06 782.36,1297.98 " fill="none" id="u_11-to-u_12" style="stroke:#181818;stroke-width:1.0;stroke-dasharray:7.0,7.0;"/><polygon fill="#181818" points="779.05,1301.77,787.9857,1297.6284,782.3415,1298.0062,781.9637,1292.362,779.05,1301.77" style="stroke:#181818;stroke-width:1.0;"/><text fill="#000000" font-family="sans-serif" font-size="13" lengthAdjust="spacing" textLength="51" x="823.5" y="1266.4951">inventory</text></g><!--link u_15 to u_16--><g id="link_u_15_u_16"><path codeLine="161" d="M1630.5,96.4 C1630.5,113.67 1630.5,133.6 1630.5,151.42 " fill="none" id="u_15-to-u_16" style="stroke:#181818;stroke-width:1.0;stroke-dasharray:7.0,7.0;"/><polygon fill="#181818" points="1630.5,156.88,1634.5,147.88,1630.5,151.88,1626.5,147.88,1630.5,156.88" style="stroke:#181818;stroke-width:1.0;"/></g><!--link u_16 to u_17--><g id="link_u_16_u_17"><path codeLine="169" d="M1666.66,246.6 C1681.94,264.82 1699.8,286.1 1715.47,304.79 " fill="none" id="u_16-to-u_17" style="stroke:#181818;stroke-width:1.0;stroke-dasharray:7.0,7.0;"/><polygon fill="#181818" points="1718.99,308.98,1716.2666,299.5152,1715.775,305.1506,1710.1396,304.6591,1718.99,308.98" style="stroke:#181818;stroke-width:1.0;"/></g><!--link u_17 to u_18--><g id="link_u_17_u_18"><path codeLine="170" d="M1719.3,398.29 C1704.28,416.46 1686.8,437.6 1671.41,456.22 " fill="none" id="u_17-to-u_18" style="stroke:#181818;stroke-width:1.0;stroke-dasharray:7.0,7.0;"/><polygon fill="#181818" points="1667.96,460.4,1676.7833,456.0241,1671.1511,456.5507,1670.6245,450.9184,1667.96,460.4" style="stroke:#181818;stroke-width:1.0;"/></g><!--link u_18 to u_23--><g id="link_u_18_u_23"><path codeLine="178" d="M1718.71,541.64 C1771.04,562.72 1838.16,589.77 1894.52,612.48 " fill="none" id="u_18-to-u_23" style="stroke:#181818;stroke-width:1.0;stroke-dasharray:7.0,7.0;"/><polygon fill="#181818" points="1899.25,614.38,1892.398,607.3054,1894.6126,612.5108,1889.4072,614.7253,1899.25,614.38" style="stroke:#181818;stroke-width:1.0;"/></g><!--link u_23 to u_24--><g id="link_u_23_u_24"><path codeLine="179" d="M1958.34,703.57 C1931.02,727.78 1897.09,757.85 1869.49,782.31 " fill="none" id="u_23-to-u_24" style="stroke:#181818;stroke-width:1.0;stroke-dasharray:7.0,7.0;"/><polygon fill="#181818" points="1865.46,785.88,1874.8498,782.9082,1869.2033,782.5653,1869.5462,776.9188,1865.46,785.88" style="stroke:#181818;stroke-width:1.0;"/><text fill="#000000" font-family="sans-serif" font-size="13" lengthAdjust="spacing" textLength="111" x="1919.5" y="749.4951">userData, inventory</text></g><!--link u_25 to u_26--><g id="link_u_25_u_26"><path codeLine="187" d="M1854.89,1053.79 C1872.21,1077.24 1892.84,1105.19 1910.04,1128.48 " fill="none" id="u_25-to-u_26" style="stroke:#181818;stroke-width:1.0;stroke-dasharray:7.0,7.0;"/><polygon fill="#181818" points="1913.21,1132.77,1911.0868,1123.1527,1910.2421,1128.7462,1904.6486,1127.9014,1913.21,1132.77" style="stroke:#181818;stroke-width:1.0;"/><text fill="#000000" font-family="sans-serif" font-size="13" lengthAdjust="spacing" textLength="111" x="1890.5" y="1099.4951">userData, inventory</text></g><!--link u_26 to u_27--><g id="link_u_26_u_27"><path codeLine="188" d="M1912.46,1222.07 C1894.96,1245.16 1873.4,1273.59 1855.35,1297.4 " fill="none" id="u_26-to-u_27" style="stroke:#181818;stroke-width:1.0;stroke-dasharray:7.0,7.0;"/><polygon fill="#181818" points="1852.25,1301.48,1860.8691,1296.7145,1855.266,1297.492,1854.4884,1291.8889,1852.25,1301.48" style="stroke:#181818;stroke-width:1.0;"/><text fill="#000000" font-family="sans-serif" font-size="13" lengthAdjust="spacing" textLength="25" x="1890.5" y="1266.4951">data</text></g><!--SRC=[lPNTRg9068RFvoguWDKmW_BJWqrqYuQkjLLminko8GWJonO1-RDuzJjKXaA4Y8sL0pCWpFFED-_xJH9XoummanXG1wc3zw17Bg3Aayd8YXtVK_4kmPw5PHTliHU3Fhc0OzynncRg12j5syeuss-V32NGtl1e0_w2f9oJqu7hcxRYfUHJFyowJ-vFdxD7HVjtEha1cLxlUpvv1JJGmLBMLijvTu8oMN2oehaD1AuW32e4_d92_3ZzsLoWai1N298Eria59VAcWMGrbuXEBp5t3064zsPiVcESSXi-e93LmNFehysrupfHx5ZZqFIi5utyHaxEXzq5fO5YB-mK4a5_mi0su2X-K_VlWgH246JFAq8wI0BRZF6dR7EOiIssOQa6H3GqalalY00KloG3F5sCM6L9Luq152b4ga0Gl6eIIWY2LSZWUc7u80pEcWyDpyG1TPSqLsHl4wUe8Gv4II5fU5wIe8E8FCEhuhKB0da8PoIGXoO5Gwf080hiVDeAadWsCbDyVDuPDuRPX9sdR1DEe3YHua9inQQtSNCWQKA_IF1aBmwp6KwngsPHZBS_JDSzulEHusto4fnJyH2Xfv6YUGrEO9b-_ztFDJZfDtbPrsJjizEW5kGkwuSF_lYrnUK56UMrACPSJGKf-JZ9hbA1bns_91LuRJmOZcpIDGon6BST4bLra8HU9OueYtCYh4k1xd_tjjQyCH6mt1lObeZyh-ATUWUl2HtUnafmIBNmTRvm2pVn52xaTmAz4-k-vcvYAKXzXBZStDHXhSss9f6Sk6grjttALelTo7vijXMYsuJuLbiXMiso5Vu7]--></g></svg>