<?xml version="1.0" encoding="UTF-8" standalone="no"?>
<!DOCTYPE svg PUBLIC "-//W3C//DTD SVG 1.1//EN"
 "http://www.w3.org/Graphics/SVG/1.1/DTD/svg11.dtd">
<!-- Generated by graphviz version 2.44.1 (20200629.0846)
 -->
<!-- Title: dfd Pages: 1 -->
<svg width="3480pt" height="450pt"
 viewBox="0.00 0.00 3480.07 449.50" xmlns="http://www.w3.org/2000/svg" xmlns:xlink="http://www.w3.org/1999/xlink">
<g id="graph0" class="graph" transform="scale(1 1) rotate(0) translate(4 445.5)">
<title>dfd</title>
<polygon fill="white" stroke="transparent" points="-4,4 -4,-445.5 3476.07,-445.5 3476.07,4 -4,4"/>
<!-- 1374397870 -->
<g id="node1" class="node">
<title>1374397870</title>
<text text-anchor="start" x="46.39" y="-73.4" font-family="Times New Roman,serif" font-weight="bold" font-size="14.00">FlightPlanner</text>
<text text-anchor="start" x="122.61" y="-73.4" font-family="Times New Roman,serif" font-size="14.00"> &#160;</text>
<text text-anchor="start" x="22.68" y="-52.4" font-family="Times New Roman,serif" font-size="14.00">AssignedRoles.Airline </text>
<polyline fill="none" stroke="black" points="41.5,-47 1.5,-47 "/>
<text text-anchor="start" x="4.39" y="-31.4" font-family="Times New Roman,serif" font-size="14.00">flight:</text>
<polyline fill="none" stroke="black" points="174.5,-47 41.5,-47 "/>
<text text-anchor="start" x="44.43" y="-31.4" font-family="Times New Roman,serif" font-size="14.00">AssignedRoles.Airline</text>
<polygon fill="none" stroke="black" points="0,-24 0,-88 175,-88 175,-24 0,-24"/>
</g>
<!-- 111262651 -->
<g id="node2" class="node">
<title>111262651</title>
<polyline fill="none" stroke="black" points="222,-89 222,-111 "/>
<text text-anchor="start" x="215.75" y="-95.4" font-family="Times New Roman,serif" font-size="14.00"> </text>
<text text-anchor="start" x="290.05" y="-96.8" font-family="Times New Roman,serif" font-weight="bold" font-size="14.00">FlightDB</text>
<text text-anchor="start" x="342.95" y="-96.8" font-family="Times New Roman,serif" font-size="14.00"> &#160;</text>
<polyline fill="none" stroke="black" points="418,-111 418,-89 "/>
<text text-anchor="start" x="420.75" y="-95.4" font-family="Times New Roman,serif" font-size="14.00"> </text>
<polyline fill="none" stroke="black" points="222,-67 222,-89 "/>
<text text-anchor="start" x="215.75" y="-73.4" font-family="Times New Roman,serif" font-size="14.00"> </text>
<text text-anchor="start" x="254.68" y="-73.8" font-family="Times New Roman,serif" font-size="14.00">AssignedRoles.Airline </text>
<polyline fill="none" stroke="black" points="418,-89 418,-67 "/>
<text text-anchor="start" x="420.75" y="-73.4" font-family="Times New Roman,serif" font-size="14.00"> </text>
<polyline fill="none" stroke="black" points="222,-45 222,-67 "/>
<text text-anchor="start" x="215.75" y="-51.4" font-family="Times New Roman,serif" font-size="14.00"> </text>
<polyline fill="none" stroke="black" points="285,-67 222,-67 "/>
<text text-anchor="start" x="236.39" y="-51.4" font-family="Times New Roman,serif" font-size="14.00">flight:</text>
<polyline fill="none" stroke="black" points="418,-67 285,-67 "/>
<text text-anchor="start" x="287.93" y="-51.4" font-family="Times New Roman,serif" font-size="14.00">AssignedRoles.Airline</text>
<polyline fill="none" stroke="black" points="418,-67 418,-45 "/>
<text text-anchor="start" x="420.75" y="-51.4" font-family="Times New Roman,serif" font-size="14.00"> </text>
<polyline fill="none" stroke="black" points="222,-23 222,-45 "/>
<text text-anchor="start" x="215.75" y="-29.4" font-family="Times New Roman,serif" font-size="14.00"> </text>
<text text-anchor="start" x="235.62" y="-29.8" font-family="Times New Roman,serif" font-size="14.00">query:</text>
<text text-anchor="start" x="287.93" y="-29.8" font-family="Times New Roman,serif" font-size="14.00">AssignedRoles.Airline</text>
<polyline fill="none" stroke="black" points="418,-45 418,-23 "/>
<text text-anchor="start" x="420.75" y="-29.4" font-family="Times New Roman,serif" font-size="14.00"> </text>
<polyline fill="none" stroke="black" points="222,-1 222,-23 "/>
<text text-anchor="start" x="215.75" y="-7.4" font-family="Times New Roman,serif" font-size="14.00"> </text>
<text text-anchor="start" x="223.56" y="-7.8" font-family="Times New Roman,serif" font-size="14.00">RETURN:</text>
<text text-anchor="start" x="287.93" y="-7.8" font-family="Times New Roman,serif" font-size="14.00">AssignedRoles.Airline</text>
<polyline fill="none" stroke="black" points="418,-23 418,-1 "/>
<text text-anchor="start" x="420.75" y="-7.4" font-family="Times New Roman,serif" font-size="14.00"> </text>
<polygon fill="none" stroke="black" points="212,0 212,-112 428,-112 428,0 212,0"/>
</g>
<!-- 1374397870&#45;&gt;111262651 -->
<g id="edge2" class="edge">
<title>1374397870&#45;&gt;111262651</title>
<path fill="none" stroke="black" stroke-dasharray="1,5" d="M175.31,-49.44C183.94,-49.32 192.79,-49.26 201.65,-49.25"/>
<polygon fill="black" stroke="black" points="201.65,-52.75 211.66,-49.26 201.66,-45.75 201.65,-52.75"/>
</g>
<!-- 111262651&#45;&gt;1374397870 -->
<g id="edge1" class="edge">
<title>111262651&#45;&gt;1374397870</title>
<path fill="none" stroke="black" stroke-dasharray="1,5" d="M211.66,-62.74C202.9,-62.77 194.09,-62.75 185.42,-62.67"/>
<polygon fill="black" stroke="black" points="185.35,-59.17 175.31,-62.56 185.28,-66.17 185.35,-59.17"/>
</g>
<!-- 610735017 -->
<g id="node9" class="node">
<title>610735017</title>
<path fill="none" stroke="black" d="M507.88,-74C507.88,-74 681.88,-74 681.88,-74 687.88,-74 693.88,-80 693.88,-86 693.88,-86 693.88,-164 693.88,-164 693.88,-170 687.88,-176 681.88,-176 681.88,-176 507.88,-176 507.88,-176 501.88,-176 495.88,-170 495.88,-164 495.88,-164 495.88,-86 495.88,-86 495.88,-80 501.88,-74 507.88,-74"/>
<text text-anchor="start" x="532.86" y="-162.4" font-family="Times New Roman,serif" font-weight="bold" font-size="14.00">read flights from DB</text>
<text text-anchor="start" x="649.89" y="-162.4" font-family="Times New Roman,serif" font-size="14.00"> &#160;</text>
<text text-anchor="start" x="529.55" y="-141.4" font-family="Times New Roman,serif" font-size="14.00">AssignedRoles.Airline </text>
<polyline fill="none" stroke="black" points="560.88,-136 495.88,-136 "/>
<text text-anchor="start" x="498.43" y="-120.4" font-family="Times New Roman,serif" font-size="14.00">RETURN:</text>
<polyline fill="none" stroke="black" points="693.88,-136 560.88,-136 "/>
<text text-anchor="start" x="563.8" y="-120.4" font-family="Times New Roman,serif" font-size="14.00">AssignedRoles.Airline</text>
<text text-anchor="start" x="510.49" y="-99.4" font-family="Times New Roman,serif" font-size="14.00">query:</text>
<text text-anchor="start" x="563.8" y="-99.4" font-family="Times New Roman,serif" font-size="14.00">AssignedRoles.Airline</text>
<text text-anchor="start" x="508.54" y="-79.4" font-family="Times New Roman,serif" font-size="14.00">flights:</text>
<text text-anchor="start" x="563.8" y="-79.4" font-family="Times New Roman,serif" font-size="14.00">AssignedRoles.Airline</text>
</g>
<!-- 111262651&#45;&gt;610735017 -->
<g id="edge13" class="edge">
<title>111262651&#45;&gt;610735017</title>
<path fill="none" stroke="black" d="M428.06,-83.07C447.01,-87.86 466.75,-92.85 485.72,-97.65"/>
<polygon fill="black" stroke="black" points="485.01,-101.08 495.57,-100.14 486.73,-94.3 485.01,-101.08"/>
<text text-anchor="middle" x="461.94" y="-99.2" font-family="Times New Roman,serif" font-size="14.00">query</text>
</g>
<!-- 82028037 -->
<g id="node3" class="node">
<title>82028037</title>
<text text-anchor="start" x="1668.79" y="-273.4" font-family="Times New Roman,serif" font-weight="bold" font-size="14.00">User</text>
<text text-anchor="start" x="1695.21" y="-273.4" font-family="Times New Roman,serif" font-size="14.00"> &#160;</text>
<text text-anchor="start" x="1626.79" y="-252.4" font-family="Times New Roman,serif" font-size="14.00">AssignedRoles.User </text>
<polyline fill="none" stroke="black" points="1666,-247 1586,-247 "/>
<text text-anchor="start" x="1614.34" y="-231.4" font-family="Times New Roman,serif" font-size="14.00">ccd:</text>
<polyline fill="none" stroke="black" points="1785,-247 1666,-247 "/>
<text text-anchor="start" x="1668.54" y="-231.4" font-family="Times New Roman,serif" font-size="14.00">AssignedRoles.User</text>
<text text-anchor="start" x="1608.12" y="-210.4" font-family="Times New Roman,serif" font-size="14.00">query:</text>
<text text-anchor="start" x="1668.54" y="-210.4" font-family="Times New Roman,serif" font-size="14.00">AssignedRoles.User</text>
<text text-anchor="start" x="1596.06" y="-190.4" font-family="Times New Roman,serif" font-size="14.00">RETURN:</text>
<text text-anchor="start" x="1668.54" y="-190.4" font-family="Times New Roman,serif" font-size="14.00">AssignedRoles.User</text>
<text text-anchor="start" x="1606.17" y="-170.4" font-family="Times New Roman,serif" font-size="14.00">flights:</text>
<text text-anchor="start" x="1668.54" y="-170.4" font-family="Times New Roman,serif" font-size="14.00">AssignedRoles.User</text>
<text text-anchor="start" x="1608.89" y="-150.4" font-family="Times New Roman,serif" font-size="14.00">flight:</text>
<text text-anchor="start" x="1668.54" y="-150.4" font-family="Times New Roman,serif" font-size="14.00">AssignedRoles.User</text>
<text text-anchor="start" x="1587.9" y="-130.4" font-family="Times New Roman,serif" font-size="14.00">confirmation:</text>
<text text-anchor="start" x="1668.54" y="-130.4" font-family="Times New Roman,serif" font-size="14.00">AssignedRoles.User</text>
<polygon fill="none" stroke="black" points="1584.5,-124 1584.5,-288 1785.5,-288 1785.5,-124 1584.5,-124"/>
</g>
<!-- 82028037&#45;&gt;82028037 -->
<g id="edge5" class="edge">
<title>82028037&#45;&gt;82028037</title>
<path fill="none" stroke="black" stroke-dasharray="1,5" d="M1665.61,-288.38C1668.97,-298.99 1675.44,-306 1685,-306 1691.43,-306 1696.45,-302.84 1700.08,-297.54"/>
<polygon fill="black" stroke="black" points="1703.3,-298.92 1704.39,-288.38 1696.97,-295.94 1703.3,-298.92"/>
</g>
<!-- 1859352337 -->
<g id="node4" class="node">
<title>1859352337</title>
<polyline fill="none" stroke="black" points="1888.26,-239 1888.26,-261 "/>
<text text-anchor="start" x="1882.01" y="-245.4" font-family="Times New Roman,serif" font-size="14.00"> </text>
<text text-anchor="start" x="1921.73" y="-246.8" font-family="Times New Roman,serif" font-weight="bold" font-size="14.00">CreditCardDataDB</text>
<text text-anchor="start" x="2029.8" y="-246.8" font-family="Times New Roman,serif" font-size="14.00"> &#160;</text>
<polyline fill="none" stroke="black" points="2070.26,-261 2070.26,-239 "/>
<text text-anchor="start" x="2073.01" y="-245.4" font-family="Times New Roman,serif" font-size="14.00"> </text>
<polyline fill="none" stroke="black" points="1888.26,-217 1888.26,-239 "/>
<text text-anchor="start" x="1882.01" y="-223.4" font-family="Times New Roman,serif" font-size="14.00"> </text>
<text text-anchor="start" x="1920.56" y="-223.8" font-family="Times New Roman,serif" font-size="14.00">AssignedRoles.User </text>
<polyline fill="none" stroke="black" points="2070.26,-239 2070.26,-217 "/>
<text text-anchor="start" x="2073.01" y="-223.4" font-family="Times New Roman,serif" font-size="14.00"> </text>
<polyline fill="none" stroke="black" points="1888.26,-195 1888.26,-217 "/>
<text text-anchor="start" x="1882.01" y="-201.4" font-family="Times New Roman,serif" font-size="14.00"> </text>
<polyline fill="none" stroke="black" points="1951.26,-217 1888.26,-217 "/>
<text text-anchor="start" x="1908.1" y="-201.4" font-family="Times New Roman,serif" font-size="14.00">ccd:</text>
<polyline fill="none" stroke="black" points="2070.26,-217 1951.26,-217 "/>
<text text-anchor="start" x="1953.81" y="-201.4" font-family="Times New Roman,serif" font-size="14.00">AssignedRoles.User</text>
<polyline fill="none" stroke="black" points="2070.26,-217 2070.26,-195 "/>
<text text-anchor="start" x="2073.01" y="-201.4" font-family="Times New Roman,serif" font-size="14.00"> </text>
<polyline fill="none" stroke="black" points="1888.26,-173 1888.26,-195 "/>
<text text-anchor="start" x="1882.01" y="-179.4" font-family="Times New Roman,serif" font-size="14.00"> </text>
<text text-anchor="start" x="1899.93" y="-179.8" font-family="Times New Roman,serif" font-size="14.00">flights:</text>
<text text-anchor="start" x="1953.81" y="-179.8" font-family="Times New Roman,serif" font-size="14.00">AssignedRoles.User</text>
<polyline fill="none" stroke="black" points="2070.26,-195 2070.26,-173 "/>
<text text-anchor="start" x="2073.01" y="-179.4" font-family="Times New Roman,serif" font-size="14.00"> </text>
<polyline fill="none" stroke="black" points="1888.26,-151 1888.26,-173 "/>
<text text-anchor="start" x="1882.01" y="-157.4" font-family="Times New Roman,serif" font-size="14.00"> </text>
<text text-anchor="start" x="1889.82" y="-157.8" font-family="Times New Roman,serif" font-size="14.00">RETURN:</text>
<text text-anchor="start" x="1953.81" y="-157.8" font-family="Times New Roman,serif" font-size="14.00">AssignedRoles.User</text>
<polyline fill="none" stroke="black" points="2070.26,-173 2070.26,-151 "/>
<text text-anchor="start" x="2073.01" y="-157.4" font-family="Times New Roman,serif" font-size="14.00"> </text>
<polygon fill="none" stroke="black" points="1878.26,-150 1878.26,-262 2080.26,-262 2080.26,-150 1878.26,-150"/>
</g>
<!-- 82028037&#45;&gt;1859352337 -->
<g id="edge8" class="edge">
<title>82028037&#45;&gt;1859352337</title>
<path fill="none" stroke="black" stroke-dasharray="1,5" d="M1785.76,-199.56C1812.16,-199.2 1840.8,-199.15 1867.73,-199.43"/>
<polygon fill="black" stroke="black" points="1867.92,-202.93 1877.96,-199.55 1868,-195.93 1867.92,-202.93"/>
</g>
<!-- 1250909649 -->
<g id="node5" class="node">
<title>1250909649</title>
<path fill="none" stroke="black" d="M1911.26,-69C1911.26,-69 2047.26,-69 2047.26,-69 2053.26,-69 2059.26,-75 2059.26,-81 2059.26,-81 2059.26,-119 2059.26,-119 2059.26,-125 2053.26,-131 2047.26,-131 2047.26,-131 1911.26,-131 1911.26,-131 1905.26,-131 1899.26,-125 1899.26,-119 1899.26,-119 1899.26,-81 1899.26,-81 1899.26,-75 1905.26,-69 1911.26,-69"/>
<text text-anchor="start" x="1945.04" y="-117.4" font-family="Times New Roman,serif" font-weight="bold" font-size="14.00">findFlights</text>
<text text-anchor="start" x="2006.49" y="-117.4" font-family="Times New Roman,serif" font-size="14.00"> &#160;</text>
<text text-anchor="start" x="1920.56" y="-96.4" font-family="Times New Roman,serif" font-size="14.00">AssignedRoles.User </text>
<polyline fill="none" stroke="black" points="1940.26,-91 1899.26,-91 "/>
<text text-anchor="start" x="1901.88" y="-75.4" font-family="Times New Roman,serif" font-size="14.00">query:</text>
<polyline fill="none" stroke="black" points="2059.26,-91 1940.26,-91 "/>
<text text-anchor="start" x="1942.81" y="-75.4" font-family="Times New Roman,serif" font-size="14.00">AssignedRoles.User</text>
</g>
<!-- 82028037&#45;&gt;1250909649 -->
<g id="edge9" class="edge">
<title>82028037&#45;&gt;1250909649</title>
<path fill="none" stroke="black" d="M1785.76,-169.82C1819.48,-157.59 1856.86,-144.03 1889.65,-132.14"/>
<polygon fill="black" stroke="black" points="1891.01,-135.37 1899.22,-128.67 1888.63,-128.79 1891.01,-135.37"/>
<text text-anchor="middle" x="1831.88" y="-167.2" font-family="Times New Roman,serif" font-size="14.00">query</text>
</g>
<!-- 2081961390 -->
<g id="node13" class="node">
<title>2081961390</title>
<path fill="none" stroke="black" d="M1911.76,-320C1911.76,-320 2046.76,-320 2046.76,-320 2052.76,-320 2058.76,-326 2058.76,-332 2058.76,-332 2058.76,-390 2058.76,-390 2058.76,-396 2052.76,-402 2046.76,-402 2046.76,-402 1911.76,-402 1911.76,-402 1905.76,-402 1899.76,-396 1899.76,-390 1899.76,-390 1899.76,-332 1899.76,-332 1899.76,-326 1905.76,-320 1911.76,-320"/>
<text text-anchor="start" x="1962.26" y="-388.4" font-family="Times New Roman,serif" font-weight="bold" font-size="14.00">book</text>
<text text-anchor="start" x="1990.26" y="-388.4" font-family="Times New Roman,serif" font-size="14.00"> &#160;</text>
<text text-anchor="start" x="1921.06" y="-367.4" font-family="Times New Roman,serif" font-size="14.00">AssignedRoles.User </text>
<polyline fill="none" stroke="black" points="1940.26,-362 1900.26,-362 "/>
<text text-anchor="start" x="1903.15" y="-346.4" font-family="Times New Roman,serif" font-size="14.00">flight:</text>
<polyline fill="none" stroke="black" points="2059.26,-362 1940.26,-362 "/>
<text text-anchor="start" x="1942.81" y="-346.4" font-family="Times New Roman,serif" font-size="14.00">AssignedRoles.User</text>
<text text-anchor="start" x="1908.6" y="-325.4" font-family="Times New Roman,serif" font-size="14.00">ccd:</text>
<text text-anchor="start" x="1942.81" y="-325.4" font-family="Times New Roman,serif" font-size="14.00">AssignedRoles.User</text>
</g>
<!-- 82028037&#45;&gt;2081961390 -->
<g id="edge17" class="edge">
<title>82028037&#45;&gt;2081961390</title>
<path fill="none" stroke="black" d="M1777.96,-288.01C1786.33,-293.81 1794.9,-299.24 1803.5,-304 1830.11,-318.72 1861.11,-330.37 1889.56,-339.21"/>
<polygon fill="black" stroke="black" points="1888.92,-342.67 1899.5,-342.22 1890.94,-335.97 1888.92,-342.67"/>
<text text-anchor="middle" x="1831.88" y="-332.2" font-family="Times New Roman,serif" font-size="14.00">flight, ccd</text>
</g>
<!-- 1859352337&#45;&gt;82028037 -->
<g id="edge4" class="edge">
<title>1859352337&#45;&gt;82028037</title>
<path fill="none" stroke="black" stroke-dasharray="1,5" d="M1877.96,-212.45C1851.53,-212.81 1822.88,-212.85 1795.98,-212.56"/>
<polygon fill="black" stroke="black" points="1795.81,-209.06 1785.76,-212.44 1795.72,-216.06 1795.81,-209.06"/>
</g>
<!-- 1165235571 -->
<g id="node6" class="node">
<title>1165235571</title>
<path fill="none" stroke="black" d="M2185.02,-69C2185.02,-69 2321.02,-69 2321.02,-69 2327.02,-69 2333.02,-75 2333.02,-81 2333.02,-81 2333.02,-119 2333.02,-119 2333.02,-125 2327.02,-131 2321.02,-131 2321.02,-131 2185.02,-131 2185.02,-131 2179.02,-131 2173.02,-125 2173.02,-119 2173.02,-119 2173.02,-81 2173.02,-81 2173.02,-75 2179.02,-69 2185.02,-69"/>
<text text-anchor="start" x="2174.69" y="-117.4" font-family="Times New Roman,serif" font-weight="bold" font-size="14.00">request flights from airline</text>
<text text-anchor="start" x="2324.36" y="-117.4" font-family="Times New Roman,serif" font-size="14.00"> &#160;</text>
<text text-anchor="start" x="2194.32" y="-96.4" font-family="Times New Roman,serif" font-size="14.00">AssignedRoles.User </text>
<polyline fill="none" stroke="black" points="2214.02,-91 2173.02,-91 "/>
<text text-anchor="start" x="2175.64" y="-75.4" font-family="Times New Roman,serif" font-size="14.00">query:</text>
<polyline fill="none" stroke="black" points="2333.02,-91 2214.02,-91 "/>
<text text-anchor="start" x="2216.57" y="-75.4" font-family="Times New Roman,serif" font-size="14.00">AssignedRoles.User</text>
</g>
<!-- 1250909649&#45;&gt;1165235571 -->
<g id="edge10" class="edge">
<title>1250909649&#45;&gt;1165235571</title>
<path fill="none" stroke="black" d="M2059.6,-100C2091.83,-100 2129.22,-100 2162.43,-100"/>
<polygon fill="black" stroke="black" points="2162.59,-103.5 2172.59,-100 2162.59,-96.5 2162.59,-103.5"/>
<text text-anchor="middle" x="2126.64" y="-104.2" font-family="Times New Roman,serif" font-size="14.00">query</text>
</g>
<!-- 1816275354 -->
<g id="node7" class="node">
<title>1816275354</title>
<path fill="none" stroke="black" d="M2437.79,-69C2437.79,-69 2587.79,-69 2587.79,-69 2593.79,-69 2599.79,-75 2599.79,-81 2599.79,-81 2599.79,-119 2599.79,-119 2599.79,-125 2593.79,-131 2587.79,-131 2587.79,-131 2437.79,-131 2437.79,-131 2431.79,-131 2425.79,-125 2425.79,-119 2425.79,-119 2425.79,-81 2425.79,-81 2425.79,-75 2431.79,-69 2437.79,-69"/>
<text text-anchor="start" x="2478.56" y="-117.4" font-family="Times New Roman,serif" font-weight="bold" font-size="14.00">findFlights</text>
<text text-anchor="start" x="2540.01" y="-117.4" font-family="Times New Roman,serif" font-size="14.00"> &#160;</text>
<text text-anchor="start" x="2447.47" y="-96.4" font-family="Times New Roman,serif" font-size="14.00">AssignedRoles.Airline </text>
<polyline fill="none" stroke="black" points="2466.79,-91 2425.79,-91 "/>
<text text-anchor="start" x="2428.4" y="-75.4" font-family="Times New Roman,serif" font-size="14.00">query:</text>
<polyline fill="none" stroke="black" points="2599.79,-91 2466.79,-91 "/>
<text text-anchor="start" x="2469.72" y="-75.4" font-family="Times New Roman,serif" font-size="14.00">AssignedRoles.Airline</text>
</g>
<!-- 1165235571&#45;&gt;1816275354 -->
<g id="edge11" class="edge">
<title>1165235571&#45;&gt;1816275354</title>
<path fill="none" stroke="black" d="M2333.11,-100C2359.1,-100 2388.27,-100 2415.39,-100"/>
<polygon fill="black" stroke="black" points="2415.67,-103.5 2425.67,-100 2415.67,-96.5 2415.67,-103.5"/>
<text text-anchor="middle" x="2379.4" y="-104.2" font-family="Times New Roman,serif" font-size="14.00">query</text>
</g>
<!-- 610735011 -->
<g id="node8" class="node">
<title>610735011</title>
<path fill="none" stroke="black" d="M2715.55,-33C2715.55,-33 2865.55,-33 2865.55,-33 2871.55,-33 2877.55,-39 2877.55,-45 2877.55,-45 2877.55,-83 2877.55,-83 2877.55,-89 2871.55,-95 2865.55,-95 2865.55,-95 2715.55,-95 2715.55,-95 2709.55,-95 2703.55,-89 2703.55,-83 2703.55,-83 2703.55,-45 2703.55,-45 2703.55,-39 2709.55,-33 2715.55,-33"/>
<text text-anchor="start" x="2728.54" y="-81.4" font-family="Times New Roman,serif" font-weight="bold" font-size="14.00">read flights from DB</text>
<text text-anchor="start" x="2845.56" y="-81.4" font-family="Times New Roman,serif" font-size="14.00"> &#160;</text>
<text text-anchor="start" x="2725.23" y="-60.4" font-family="Times New Roman,serif" font-size="14.00">AssignedRoles.Airline </text>
<polyline fill="none" stroke="black" points="2744.55,-55 2703.55,-55 "/>
<text text-anchor="start" x="2706.16" y="-39.4" font-family="Times New Roman,serif" font-size="14.00">query:</text>
<polyline fill="none" stroke="black" points="2877.55,-55 2744.55,-55 "/>
<text text-anchor="start" x="2747.48" y="-39.4" font-family="Times New Roman,serif" font-size="14.00">AssignedRoles.Airline</text>
</g>
<!-- 1816275354&#45;&gt;610735011 -->
<g id="edge12" class="edge">
<title>1816275354&#45;&gt;610735011</title>
<path fill="none" stroke="black" d="M2599.9,-88.76C2629.44,-84.9 2662.67,-80.56 2692.98,-76.61"/>
<polygon fill="black" stroke="black" points="2693.67,-80.05 2703.13,-75.28 2692.76,-73.11 2693.67,-80.05"/>
<text text-anchor="middle" x="2646.17" y="-91.2" font-family="Times New Roman,serif" font-size="14.00">query</text>
</g>
<!-- 610735011&#45;&gt;111262651 -->
<g id="edge3" class="edge">
<title>610735011&#45;&gt;111262651</title>
<path fill="none" stroke="black" stroke-dasharray="1,5" d="M2703.39,-52.63C2649.09,-46.43 2577.46,-40 2513.79,-40 593.88,-40 593.88,-40 593.88,-40 542.81,-40 486.47,-42.83 438.31,-46.1"/>
<polygon fill="black" stroke="black" points="437.89,-42.62 428.16,-46.81 438.38,-49.61 437.89,-42.62"/>
</g>
<!-- 735508909 -->
<g id="node10" class="node">
<title>735508909</title>
<path fill="none" stroke="black" d="M773.75,-79C773.75,-79 1033.75,-79 1033.75,-79 1039.75,-79 1045.75,-85 1045.75,-91 1045.75,-91 1045.75,-169 1045.75,-169 1045.75,-175 1039.75,-181 1033.75,-181 1033.75,-181 773.75,-181 773.75,-181 767.75,-181 761.75,-175 761.75,-169 761.75,-169 761.75,-91 761.75,-91 761.75,-85 767.75,-79 773.75,-79"/>
<text text-anchor="start" x="763.6" y="-167.4" font-family="Times New Roman,serif" font-weight="bold" font-size="14.00">select flights based on query and return selection</text>
<text text-anchor="start" x="1036.9" y="-167.4" font-family="Times New Roman,serif" font-size="14.00"> &#160;</text>
<text text-anchor="start" x="838.43" y="-146.4" font-family="Times New Roman,serif" font-size="14.00">AssignedRoles.Airline </text>
<polyline fill="none" stroke="black" points="868.75,-141 761.75,-141 "/>
<text text-anchor="start" x="797.37" y="-125.4" font-family="Times New Roman,serif" font-size="14.00">query:</text>
<polyline fill="none" stroke="black" points="1023.75,-141 868.75,-141 "/>
<text text-anchor="start" x="882.68" y="-125.4" font-family="Times New Roman,serif" font-size="14.00">AssignedRoles.Airline</text>
<text text-anchor="start" x="795.42" y="-104.4" font-family="Times New Roman,serif" font-size="14.00">flights:</text>
<text text-anchor="start" x="882.68" y="-104.4" font-family="Times New Roman,serif" font-size="14.00">AssignedRoles.Airline</text>
<text text-anchor="start" x="785.31" y="-84.4" font-family="Times New Roman,serif" font-size="14.00">RETURN:</text>
<text text-anchor="start" x="882.68" y="-84.4" font-family="Times New Roman,serif" font-size="14.00">AssignedRoles.Airline</text>
</g>
<!-- 610735017&#45;&gt;735508909 -->
<g id="edge14" class="edge">
<title>610735017&#45;&gt;735508909</title>
<path fill="none" stroke="black" d="M694.24,-126.6C712.53,-126.9 732.02,-127.22 751.46,-127.54"/>
<polygon fill="black" stroke="black" points="751.57,-131.04 761.62,-127.7 751.68,-124.04 751.57,-131.04"/>
<text text-anchor="middle" x="727.81" y="-132.2" font-family="Times New Roman,serif" font-size="14.00">query</text>
</g>
<!-- 1165235565 -->
<g id="node11" class="node">
<title>1165235565</title>
<path fill="none" stroke="black" d="M1125.63,-90C1125.63,-90 1285.63,-90 1285.63,-90 1291.63,-90 1297.63,-96 1297.63,-102 1297.63,-102 1297.63,-180 1297.63,-180 1297.63,-186 1291.63,-192 1285.63,-192 1285.63,-192 1125.63,-192 1125.63,-192 1119.63,-192 1113.63,-186 1113.63,-180 1113.63,-180 1113.63,-102 1113.63,-102 1113.63,-96 1119.63,-90 1125.63,-90"/>
<text text-anchor="start" x="1127.29" y="-178.4" font-family="Times New Roman,serif" font-weight="bold" font-size="14.00">request flights from airline</text>
<text text-anchor="start" x="1276.96" y="-178.4" font-family="Times New Roman,serif" font-size="14.00"> &#160;</text>
<text text-anchor="start" x="1146.92" y="-157.4" font-family="Times New Roman,serif" font-size="14.00">AssignedRoles.User </text>
<polyline fill="none" stroke="black" points="1178.63,-152 1113.63,-152 "/>
<text text-anchor="start" x="1116.18" y="-136.4" font-family="Times New Roman,serif" font-size="14.00">RETURN:</text>
<polyline fill="none" stroke="black" points="1297.63,-152 1178.63,-152 "/>
<text text-anchor="start" x="1181.17" y="-136.4" font-family="Times New Roman,serif" font-size="14.00">AssignedRoles.User</text>
<text text-anchor="start" x="1128.24" y="-115.4" font-family="Times New Roman,serif" font-size="14.00">query:</text>
<text text-anchor="start" x="1181.17" y="-115.4" font-family="Times New Roman,serif" font-size="14.00">AssignedRoles.User</text>
<text text-anchor="start" x="1126.29" y="-95.4" font-family="Times New Roman,serif" font-size="14.00">flights:</text>
<text text-anchor="start" x="1181.17" y="-95.4" font-family="Times New Roman,serif" font-size="14.00">AssignedRoles.User</text>
</g>
<!-- 735508909&#45;&gt;1165235565 -->
<g id="edge15" class="edge">
<title>735508909&#45;&gt;1165235565</title>
<path fill="none" stroke="black" d="M1045.91,-135.18C1065.26,-135.89 1084.81,-136.6 1103.26,-137.28"/>
<polygon fill="black" stroke="black" points="1103.27,-140.78 1113.39,-137.65 1103.53,-133.79 1103.27,-140.78"/>
<text text-anchor="middle" x="1079.69" y="-141.2" font-family="Times New Roman,serif" font-size="14.00">query</text>
</g>
<!-- 1368510460 -->
<g id="node12" class="node">
<title>1368510460</title>
<path fill="none" stroke="black" d="M1377.5,-112C1377.5,-112 1535.5,-112 1535.5,-112 1541.5,-112 1547.5,-118 1547.5,-124 1547.5,-124 1547.5,-202 1547.5,-202 1547.5,-208 1541.5,-214 1535.5,-214 1535.5,-214 1377.5,-214 1377.5,-214 1371.5,-214 1365.5,-208 1365.5,-202 1365.5,-202 1365.5,-124 1365.5,-124 1365.5,-118 1371.5,-112 1377.5,-112"/>
<text text-anchor="start" x="1398.57" y="-200.4" font-family="Times New Roman,serif" font-weight="bold" font-size="14.00">return found flights</text>
<text text-anchor="start" x="1507.43" y="-200.4" font-family="Times New Roman,serif" font-size="14.00"> &#160;</text>
<text text-anchor="start" x="1397.79" y="-179.4" font-family="Times New Roman,serif" font-size="14.00">AssignedRoles.User </text>
<polyline fill="none" stroke="black" points="1428.5,-174 1365.5,-174 "/>
<text text-anchor="start" x="1379.12" y="-158.4" font-family="Times New Roman,serif" font-size="14.00">query:</text>
<polyline fill="none" stroke="black" points="1547.5,-174 1428.5,-174 "/>
<text text-anchor="start" x="1431.04" y="-158.4" font-family="Times New Roman,serif" font-size="14.00">AssignedRoles.User</text>
<text text-anchor="start" x="1377.17" y="-137.4" font-family="Times New Roman,serif" font-size="14.00">flights:</text>
<text text-anchor="start" x="1431.04" y="-137.4" font-family="Times New Roman,serif" font-size="14.00">AssignedRoles.User</text>
<text text-anchor="start" x="1367.06" y="-117.4" font-family="Times New Roman,serif" font-size="14.00">RETURN:</text>
<text text-anchor="start" x="1431.04" y="-117.4" font-family="Times New Roman,serif" font-size="14.00">AssignedRoles.User</text>
</g>
<!-- 1165235565&#45;&gt;1368510460 -->
<g id="edge16" class="edge">
<title>1165235565&#45;&gt;1368510460</title>
<path fill="none" stroke="black" d="M1297.88,-149.07C1316.58,-150.72 1336.36,-152.47 1355.35,-154.15"/>
<polygon fill="black" stroke="black" points="1355.23,-157.65 1365.5,-155.04 1355.85,-150.68 1355.23,-157.65"/>
<text text-anchor="middle" x="1331.56" y="-158.2" font-family="Times New Roman,serif" font-size="14.00">query</text>
</g>
<!-- 1368510460&#45;&gt;82028037 -->
<g id="edge6" class="edge">
<title>1368510460&#45;&gt;82028037</title>
<path fill="none" stroke="black" stroke-dasharray="1,5" d="M1547.67,-180.12C1556.45,-181.79 1565.43,-183.49 1574.38,-185.19"/>
<polygon fill="black" stroke="black" points="1573.98,-188.68 1584.46,-187.1 1575.28,-181.8 1573.98,-188.68"/>
</g>
<!-- 1608361336 -->
<g id="node14" class="node">
<title>1608361336</title>
<path fill="none" stroke="black" d="M2185.52,-322C2185.52,-322 2320.52,-322 2320.52,-322 2326.52,-322 2332.52,-328 2332.52,-334 2332.52,-334 2332.52,-392 2332.52,-392 2332.52,-398 2326.52,-404 2320.52,-404 2320.52,-404 2185.52,-404 2185.52,-404 2179.52,-404 2173.52,-398 2173.52,-392 2173.52,-392 2173.52,-334 2173.52,-334 2173.52,-328 2179.52,-322 2185.52,-322"/>
<text text-anchor="start" x="2181.2" y="-390.4" font-family="Times New Roman,serif" font-weight="bold" font-size="14.00">ask airline to book flight</text>
<text text-anchor="start" x="2318.85" y="-390.4" font-family="Times New Roman,serif" font-size="14.00"> &#160;</text>
<text text-anchor="start" x="2194.82" y="-369.4" font-family="Times New Roman,serif" font-size="14.00">AssignedRoles.User </text>
<polyline fill="none" stroke="black" points="2214.02,-364 2174.02,-364 "/>
<text text-anchor="start" x="2176.91" y="-348.4" font-family="Times New Roman,serif" font-size="14.00">flight:</text>
<polyline fill="none" stroke="black" points="2333.02,-364 2214.02,-364 "/>
<text text-anchor="start" x="2216.57" y="-348.4" font-family="Times New Roman,serif" font-size="14.00">AssignedRoles.User</text>
<text text-anchor="start" x="2182.36" y="-327.4" font-family="Times New Roman,serif" font-size="14.00">ccd:</text>
<text text-anchor="start" x="2216.57" y="-327.4" font-family="Times New Roman,serif" font-size="14.00">AssignedRoles.User</text>
</g>
<!-- 2081961390&#45;&gt;1608361336 -->
<g id="edge18" class="edge">
<title>2081961390&#45;&gt;1608361336</title>
<path fill="none" stroke="black" d="M2058.87,-361.58C2091.4,-361.82 2129.29,-362.1 2162.86,-362.34"/>
<polygon fill="black" stroke="black" points="2163.1,-365.85 2173.13,-362.42 2163.15,-358.85 2163.1,-365.85"/>
<text text-anchor="middle" x="2126.64" y="-366.2" font-family="Times New Roman,serif" font-size="14.00">flight, ccd</text>
</g>
<!-- 1085424400 -->
<g id="node15" class="node">
<title>1085424400</title>
<path fill="none" stroke="black" d="M2438.29,-326C2438.29,-326 2587.29,-326 2587.29,-326 2593.29,-326 2599.29,-332 2599.29,-338 2599.29,-338 2599.29,-396 2599.29,-396 2599.29,-402 2593.29,-408 2587.29,-408 2587.29,-408 2438.29,-408 2438.29,-408 2432.29,-408 2426.29,-402 2426.29,-396 2426.29,-396 2426.29,-338 2426.29,-338 2426.29,-332 2432.29,-326 2438.29,-326"/>
<text text-anchor="start" x="2495.79" y="-394.4" font-family="Times New Roman,serif" font-weight="bold" font-size="14.00">book</text>
<text text-anchor="start" x="2523.79" y="-394.4" font-family="Times New Roman,serif" font-size="14.00"> &#160;</text>
<text text-anchor="start" x="2447.97" y="-373.4" font-family="Times New Roman,serif" font-size="14.00">AssignedRoles.Airline </text>
<polyline fill="none" stroke="black" points="2466.79,-368 2426.79,-368 "/>
<text text-anchor="start" x="2429.67" y="-352.4" font-family="Times New Roman,serif" font-size="14.00">flight:</text>
<polyline fill="none" stroke="black" points="2599.79,-368 2466.79,-368 "/>
<text text-anchor="start" x="2469.72" y="-352.4" font-family="Times New Roman,serif" font-size="14.00">AssignedRoles.Airline</text>
<text text-anchor="start" x="2435.13" y="-331.4" font-family="Times New Roman,serif" font-size="14.00">ccd:</text>
<text text-anchor="start" x="2469.72" y="-331.4" font-family="Times New Roman,serif" font-size="14.00">AssignedRoles.Airline</text>
</g>
<!-- 1608361336&#45;&gt;1085424400 -->
<g id="edge19" class="edge">
<title>1608361336&#45;&gt;1085424400</title>
<path fill="none" stroke="black" d="M2332.76,-364.22C2358.89,-364.63 2388.27,-365.08 2415.56,-365.51"/>
<polygon fill="black" stroke="black" points="2415.85,-369.01 2425.9,-365.67 2415.96,-362.01 2415.85,-369.01"/>
<text text-anchor="middle" x="2379.4" y="-369.2" font-family="Times New Roman,serif" font-size="14.00">flight, ccd</text>
</g>
<!-- 1683310451 -->
<g id="node16" class="node">
<title>1683310451</title>
<path fill="none" stroke="black" d="M2704.55,-324C2704.55,-324 2876.55,-324 2876.55,-324 2882.55,-324 2888.55,-330 2888.55,-336 2888.55,-336 2888.55,-414 2888.55,-414 2888.55,-420 2882.55,-426 2876.55,-426 2876.55,-426 2704.55,-426 2704.55,-426 2698.55,-426 2692.55,-420 2692.55,-414 2692.55,-414 2692.55,-336 2692.55,-336 2692.55,-330 2698.55,-324 2704.55,-324"/>
<text text-anchor="start" x="2732.43" y="-412.4" font-family="Times New Roman,serif" font-weight="bold" font-size="14.00">return confirmation</text>
<text text-anchor="start" x="2841.67" y="-412.4" font-family="Times New Roman,serif" font-size="14.00"> &#160;</text>
<text text-anchor="start" x="2725.23" y="-391.4" font-family="Times New Roman,serif" font-size="14.00">AssignedRoles.Airline </text>
<polyline fill="none" stroke="black" points="2755.55,-386 2692.55,-386 "/>
<text text-anchor="start" x="2706.94" y="-370.4" font-family="Times New Roman,serif" font-size="14.00">flight:</text>
<polyline fill="none" stroke="black" points="2888.55,-386 2755.55,-386 "/>
<text text-anchor="start" x="2758.48" y="-370.4" font-family="Times New Roman,serif" font-size="14.00">AssignedRoles.Airline</text>
<text text-anchor="start" x="2712.39" y="-349.4" font-family="Times New Roman,serif" font-size="14.00">ccd:</text>
<text text-anchor="start" x="2758.48" y="-349.4" font-family="Times New Roman,serif" font-size="14.00">AssignedRoles.Airline</text>
<text text-anchor="start" x="2694.11" y="-329.4" font-family="Times New Roman,serif" font-size="14.00">RETURN:</text>
<text text-anchor="start" x="2758.48" y="-329.4" font-family="Times New Roman,serif" font-size="14.00">AssignedRoles.Airline</text>
</g>
<!-- 1085424400&#45;&gt;1683310451 -->
<g id="edge20" class="edge">
<title>1085424400&#45;&gt;1683310451</title>
<path fill="none" stroke="black" d="M2599.53,-369.49C2625.72,-370.25 2654.85,-371.09 2682.28,-371.89"/>
<polygon fill="black" stroke="black" points="2682.21,-375.39 2692.31,-372.18 2682.41,-368.39 2682.21,-375.39"/>
<text text-anchor="middle" x="2646.17" y="-375.2" font-family="Times New Roman,serif" font-size="14.00">flight, ccd</text>
</g>
<!-- 1608361342 -->
<g id="node17" class="node">
<title>1608361342</title>
<path fill="none" stroke="black" d="M2993.31,-319C2993.31,-319 3168.31,-319 3168.31,-319 3174.31,-319 3180.31,-325 3180.31,-331 3180.31,-331 3180.31,-429 3180.31,-429 3180.31,-435 3174.31,-441 3168.31,-441 3168.31,-441 2993.31,-441 2993.31,-441 2987.31,-441 2981.31,-435 2981.31,-429 2981.31,-429 2981.31,-331 2981.31,-331 2981.31,-325 2987.31,-319 2993.31,-319"/>
<text text-anchor="start" x="3008.99" y="-427.4" font-family="Times New Roman,serif" font-weight="bold" font-size="14.00">ask airline to book flight</text>
<text text-anchor="start" x="3146.63" y="-427.4" font-family="Times New Roman,serif" font-size="14.00"> &#160;</text>
<text text-anchor="start" x="3022.6" y="-406.4" font-family="Times New Roman,serif" font-size="14.00">AssignedRoles.User </text>
<polyline fill="none" stroke="black" points="3061.81,-401 2981.81,-401 "/>
<text text-anchor="start" x="2991.87" y="-385.4" font-family="Times New Roman,serif" font-size="14.00">RETURN:</text>
<polyline fill="none" stroke="black" points="3180.81,-401 3061.81,-401 "/>
<text text-anchor="start" x="3064.35" y="-385.4" font-family="Times New Roman,serif" font-size="14.00">AssignedRoles.User</text>
<text text-anchor="start" x="3004.7" y="-364.4" font-family="Times New Roman,serif" font-size="14.00">flight:</text>
<text text-anchor="start" x="3064.35" y="-364.4" font-family="Times New Roman,serif" font-size="14.00">AssignedRoles.User</text>
<text text-anchor="start" x="3010.15" y="-344.4" font-family="Times New Roman,serif" font-size="14.00">ccd:</text>
<text text-anchor="start" x="3064.35" y="-344.4" font-family="Times New Roman,serif" font-size="14.00">AssignedRoles.User</text>
<text text-anchor="start" x="2983.71" y="-324.4" font-family="Times New Roman,serif" font-size="14.00">confirmation:</text>
<text text-anchor="start" x="3064.35" y="-324.4" font-family="Times New Roman,serif" font-size="14.00">AssignedRoles.User</text>
</g>
<!-- 1683310451&#45;&gt;1608361342 -->
<g id="edge21" class="edge">
<title>1683310451&#45;&gt;1608361342</title>
<path fill="none" stroke="black" d="M2888.74,-376.69C2915.12,-377.14 2943.85,-377.64 2970.83,-378.11"/>
<polygon fill="black" stroke="black" points="2971.02,-381.61 2981.08,-378.29 2971.14,-374.61 2971.02,-381.61"/>
<text text-anchor="middle" x="2934.93" y="-381.2" font-family="Times New Roman,serif" font-size="14.00">flight, ccd</text>
</g>
<!-- 2140278197 -->
<g id="node18" class="node">
<title>2140278197</title>
<path fill="none" stroke="black" d="M3285.07,-245C3285.07,-245 3460.07,-245 3460.07,-245 3466.07,-245 3472.07,-251 3472.07,-257 3472.07,-257 3472.07,-355 3472.07,-355 3472.07,-361 3466.07,-367 3460.07,-367 3460.07,-367 3285.07,-367 3285.07,-367 3279.07,-367 3273.07,-361 3273.07,-355 3273.07,-355 3273.07,-257 3273.07,-257 3273.07,-251 3279.07,-245 3285.07,-245"/>
<text text-anchor="start" x="3314.95" y="-353.4" font-family="Times New Roman,serif" font-weight="bold" font-size="14.00">return confirmation</text>
<text text-anchor="start" x="3424.19" y="-353.4" font-family="Times New Roman,serif" font-size="14.00"> &#160;</text>
<text text-anchor="start" x="3314.36" y="-332.4" font-family="Times New Roman,serif" font-size="14.00">AssignedRoles.User </text>
<polyline fill="none" stroke="black" points="3353.57,-327 3273.57,-327 "/>
<text text-anchor="start" x="3296.46" y="-311.4" font-family="Times New Roman,serif" font-size="14.00">flight:</text>
<polyline fill="none" stroke="black" points="3472.57,-327 3353.57,-327 "/>
<text text-anchor="start" x="3356.11" y="-311.4" font-family="Times New Roman,serif" font-size="14.00">AssignedRoles.User</text>
<text text-anchor="start" x="3301.91" y="-290.4" font-family="Times New Roman,serif" font-size="14.00">ccd:</text>
<text text-anchor="start" x="3356.11" y="-290.4" font-family="Times New Roman,serif" font-size="14.00">AssignedRoles.User</text>
<text text-anchor="start" x="3275.47" y="-270.4" font-family="Times New Roman,serif" font-size="14.00">confirmation:</text>
<text text-anchor="start" x="3356.11" y="-270.4" font-family="Times New Roman,serif" font-size="14.00">AssignedRoles.User</text>
<text text-anchor="start" x="3283.63" y="-250.4" font-family="Times New Roman,serif" font-size="14.00">RETURN:</text>
<text text-anchor="start" x="3356.11" y="-250.4" font-family="Times New Roman,serif" font-size="14.00">AssignedRoles.User</text>
</g>
<!-- 1608361342&#45;&gt;2140278197 -->
<g id="edge22" class="edge">
<title>1608361342&#45;&gt;2140278197</title>
<path fill="none" stroke="black" d="M3180.31,-354.84C3206.91,-348.05 3235.83,-340.67 3262.95,-333.74"/>
<polygon fill="black" stroke="black" points="3264.02,-337.08 3272.85,-331.21 3262.29,-330.3 3264.02,-337.08"/>
<text text-anchor="middle" x="3226.69" y="-353.2" font-family="Times New Roman,serif" font-size="14.00">flight, ccd</text>
</g>
<!-- 2140278197&#45;&gt;82028037 -->
<g id="edge7" class="edge">
<title>2140278197&#45;&gt;82028037</title>
<path fill="none" stroke="black" stroke-dasharray="1,5" d="M3273.07,-297.86C3217.04,-293.91 3145.54,-290 3081.81,-290 1978.26,-290 1978.26,-290 1978.26,-290 1916.13,-290 1849.36,-272.25 1795.35,-253.07"/>
<polygon fill="black" stroke="black" points="1796.35,-249.71 1785.76,-249.6 1793.97,-256.29 1796.35,-249.71"/>
</g>
</g>
</svg>
