<?xml version="1.0" encoding="UTF-8" standalone="no"?>
<!DOCTYPE svg PUBLIC "-//W3C//DTD SVG 1.1//EN"
 "http://www.w3.org/Graphics/SVG/1.1/DTD/svg11.dtd">
<!-- Generated by graphviz version 2.44.1 (20200629.0846)
 -->
<!-- Title: dfd Pages: 1 -->
<svg width="3460pt" height="456pt"
 viewBox="0.00 0.00 3460.07 455.50" xmlns="http://www.w3.org/2000/svg" xmlns:xlink="http://www.w3.org/1999/xlink">
<g id="graph0" class="graph" transform="scale(1 1) rotate(0) translate(4 451.5)">
<title>dfd</title>
<polygon fill="white" stroke="transparent" points="-4,4 -4,-451.5 3456.07,-451.5 3456.07,4 -4,4"/>
<!-- 1374397870 -->
<g id="node1" class="node">
<title>1374397870</title>
<text text-anchor="start" x="46.39" y="-75.4" font-family="Times New Roman,serif" font-weight="bold" font-size="14.00">FlightPlanner</text>
<text text-anchor="start" x="122.61" y="-75.4" font-family="Times New Roman,serif" font-size="14.00"> &#160;</text>
<text text-anchor="start" x="22.68" y="-54.4" font-family="Times New Roman,serif" font-size="14.00">AssignedRoles.Airline </text>
<polyline fill="none" stroke="black" points="41.5,-49 1.5,-49 "/>
<text text-anchor="start" x="4.39" y="-33.4" font-family="Times New Roman,serif" font-size="14.00">flight:</text>
<polyline fill="none" stroke="black" points="174.5,-49 41.5,-49 "/>
<text text-anchor="start" x="44.43" y="-33.4" font-family="Times New Roman,serif" font-size="14.00">AssignedRoles.Airline</text>
<polygon fill="none" stroke="black" points="0,-26 0,-90 175,-90 175,-26 0,-26"/>
</g>
<!-- 111262651 -->
<g id="node2" class="node">
<title>111262651</title>
<text text-anchor="start" x="284.05" y="-99.4" font-family="Times New Roman,serif" font-weight="bold" font-size="14.00">FlightDB</text>
<text text-anchor="start" x="336.95" y="-99.4" font-family="Times New Roman,serif" font-size="14.00"> &#160;</text>
<text text-anchor="start" x="249.68" y="-76.4" font-family="Times New Roman,serif" font-size="14.00">AssignedRoles.Airline </text>
<polyline fill="none" stroke="black" points="278,-69 215,-69 "/>
<text text-anchor="start" x="229.39" y="-53.4" font-family="Times New Roman,serif" font-size="14.00">flight:</text>
<polyline fill="none" stroke="black" points="413,-69 280,-69 "/>
<text text-anchor="start" x="282.93" y="-53.4" font-family="Times New Roman,serif" font-size="14.00">AssignedRoles.Airline</text>
<text text-anchor="start" x="228.62" y="-30.4" font-family="Times New Roman,serif" font-size="14.00">query:</text>
<text text-anchor="start" x="282.93" y="-30.4" font-family="Times New Roman,serif" font-size="14.00">AssignedRoles.Airline</text>
<text text-anchor="start" x="216.56" y="-8.4" font-family="Times New Roman,serif" font-size="14.00">RETURN:</text>
<text text-anchor="start" x="282.93" y="-8.4" font-family="Times New Roman,serif" font-size="14.00">AssignedRoles.Airline</text>
<polyline fill="none" stroke="black" points="418,-116 212,-116 212,0 418,0 "/>
</g>
<!-- 1374397870&#45;&gt;111262651 -->
<g id="edge2" class="edge">
<title>1374397870&#45;&gt;111262651</title>
<path fill="none" stroke="black" d="M175.04,-51.41C183.79,-51.3 192.77,-51.25 201.74,-51.25"/>
<polygon fill="black" stroke="black" points="201.85,-54.75 211.86,-51.28 201.87,-47.75 201.85,-54.75"/>
</g>
<!-- 111262651&#45;&gt;1374397870 -->
<g id="edge1" class="edge">
<title>111262651&#45;&gt;1374397870</title>
<path fill="none" stroke="black" d="M211.86,-64.72C203.02,-64.77 194.09,-64.76 185.29,-64.69"/>
<polygon fill="black" stroke="black" points="185.07,-61.19 175.04,-64.59 185,-68.19 185.07,-61.19"/>
</g>
<!-- 610735017 -->
<g id="node9" class="node">
<title>610735017</title>
<path fill="none" stroke="black" d="M497.88,-76C497.88,-76 671.88,-76 671.88,-76 677.88,-76 683.88,-82 683.88,-88 683.88,-88 683.88,-166 683.88,-166 683.88,-172 677.88,-178 671.88,-178 671.88,-178 497.88,-178 497.88,-178 491.88,-178 485.88,-172 485.88,-166 485.88,-166 485.88,-88 485.88,-88 485.88,-82 491.88,-76 497.88,-76"/>
<text text-anchor="start" x="522.86" y="-164.4" font-family="Times New Roman,serif" font-weight="bold" font-size="14.00">read flights from DB</text>
<text text-anchor="start" x="639.89" y="-164.4" font-family="Times New Roman,serif" font-size="14.00"> &#160;</text>
<text text-anchor="start" x="519.55" y="-143.4" font-family="Times New Roman,serif" font-size="14.00">AssignedRoles.Airline </text>
<polyline fill="none" stroke="black" points="550.88,-138 485.88,-138 "/>
<text text-anchor="start" x="488.43" y="-122.4" font-family="Times New Roman,serif" font-size="14.00">RETURN:</text>
<polyline fill="none" stroke="black" points="683.88,-138 550.88,-138 "/>
<text text-anchor="start" x="553.8" y="-122.4" font-family="Times New Roman,serif" font-size="14.00">AssignedRoles.Airline</text>
<text text-anchor="start" x="500.49" y="-101.4" font-family="Times New Roman,serif" font-size="14.00">query:</text>
<text text-anchor="start" x="553.8" y="-101.4" font-family="Times New Roman,serif" font-size="14.00">AssignedRoles.Airline</text>
<text text-anchor="start" x="498.54" y="-81.4" font-family="Times New Roman,serif" font-size="14.00">flights:</text>
<text text-anchor="start" x="553.8" y="-81.4" font-family="Times New Roman,serif" font-size="14.00">AssignedRoles.Airline</text>
</g>
<!-- 111262651&#45;&gt;610735017 -->
<g id="edge13" class="edge">
<title>111262651&#45;&gt;610735017</title>
<path fill="none" stroke="black" d="M418.04,-84.28C436.92,-89.15 456.71,-94.24 475.77,-99.15"/>
<polygon fill="black" stroke="black" points="475.1,-102.6 485.66,-101.7 476.85,-95.82 475.1,-102.6"/>
<text text-anchor="middle" x="451.94" y="-101.2" font-family="Times New Roman,serif" font-size="14.00">query</text>
</g>
<!-- 82028037 -->
<g id="node3" class="node">
<title>82028037</title>
<text text-anchor="start" x="1658.79" y="-277.4" font-family="Times New Roman,serif" font-weight="bold" font-size="14.00">User</text>
<text text-anchor="start" x="1685.21" y="-277.4" font-family="Times New Roman,serif" font-size="14.00"> &#160;</text>
<text text-anchor="start" x="1616.79" y="-256.4" font-family="Times New Roman,serif" font-size="14.00">AssignedRoles.User </text>
<polyline fill="none" stroke="black" points="1656,-251 1576,-251 "/>
<text text-anchor="start" x="1604.34" y="-235.4" font-family="Times New Roman,serif" font-size="14.00">ccd:</text>
<polyline fill="none" stroke="black" points="1775,-251 1656,-251 "/>
<text text-anchor="start" x="1658.54" y="-235.4" font-family="Times New Roman,serif" font-size="14.00">AssignedRoles.User</text>
<text text-anchor="start" x="1598.12" y="-214.4" font-family="Times New Roman,serif" font-size="14.00">query:</text>
<text text-anchor="start" x="1658.54" y="-214.4" font-family="Times New Roman,serif" font-size="14.00">AssignedRoles.User</text>
<text text-anchor="start" x="1586.06" y="-194.4" font-family="Times New Roman,serif" font-size="14.00">RETURN:</text>
<text text-anchor="start" x="1658.54" y="-194.4" font-family="Times New Roman,serif" font-size="14.00">AssignedRoles.User</text>
<text text-anchor="start" x="1596.17" y="-174.4" font-family="Times New Roman,serif" font-size="14.00">flights:</text>
<text text-anchor="start" x="1658.54" y="-174.4" font-family="Times New Roman,serif" font-size="14.00">AssignedRoles.User</text>
<text text-anchor="start" x="1598.89" y="-154.4" font-family="Times New Roman,serif" font-size="14.00">flight:</text>
<text text-anchor="start" x="1658.54" y="-154.4" font-family="Times New Roman,serif" font-size="14.00">AssignedRoles.User</text>
<text text-anchor="start" x="1577.9" y="-134.4" font-family="Times New Roman,serif" font-size="14.00">confirmation:</text>
<text text-anchor="start" x="1658.54" y="-134.4" font-family="Times New Roman,serif" font-size="14.00">AssignedRoles.User</text>
<polygon fill="none" stroke="black" points="1574.5,-128 1574.5,-292 1775.5,-292 1775.5,-128 1574.5,-128"/>
</g>
<!-- 82028037&#45;&gt;82028037 -->
<g id="edge5" class="edge">
<title>82028037&#45;&gt;82028037</title>
<path fill="none" stroke="black" d="M1655.61,-292.38C1658.97,-302.99 1665.44,-310 1675,-310 1681.43,-310 1686.45,-306.84 1690.08,-301.54"/>
<polygon fill="black" stroke="black" points="1693.3,-302.92 1694.39,-292.38 1686.97,-299.94 1693.3,-302.92"/>
</g>
<!-- 1859352337 -->
<g id="node4" class="node">
<title>1859352337</title>
<text text-anchor="start" x="1905.73" y="-251.4" font-family="Times New Roman,serif" font-weight="bold" font-size="14.00">CreditCardDataDB</text>
<text text-anchor="start" x="2013.8" y="-251.4" font-family="Times New Roman,serif" font-size="14.00"> &#160;</text>
<text text-anchor="start" x="1905.56" y="-228.4" font-family="Times New Roman,serif" font-size="14.00">AssignedRoles.User </text>
<polyline fill="none" stroke="black" points="1934.26,-221 1871.26,-221 "/>
<text text-anchor="start" x="1891.1" y="-205.4" font-family="Times New Roman,serif" font-size="14.00">ccd:</text>
<polyline fill="none" stroke="black" points="2055.26,-221 1936.26,-221 "/>
<text text-anchor="start" x="1938.81" y="-205.4" font-family="Times New Roman,serif" font-size="14.00">AssignedRoles.User</text>
<text text-anchor="start" x="1882.93" y="-182.4" font-family="Times New Roman,serif" font-size="14.00">flights:</text>
<text text-anchor="start" x="1938.81" y="-182.4" font-family="Times New Roman,serif" font-size="14.00">AssignedRoles.User</text>
<text text-anchor="start" x="1872.82" y="-160.4" font-family="Times New Roman,serif" font-size="14.00">RETURN:</text>
<text text-anchor="start" x="1938.81" y="-160.4" font-family="Times New Roman,serif" font-size="14.00">AssignedRoles.User</text>
<polyline fill="none" stroke="black" points="2060.26,-268 1868.26,-268 1868.26,-152 2060.26,-152 "/>
</g>
<!-- 82028037&#45;&gt;1859352337 -->
<g id="edge8" class="edge">
<title>82028037&#45;&gt;1859352337</title>
<path fill="none" stroke="black" d="M1775.66,-203.54C1802.25,-203.18 1831.05,-203.16 1857.93,-203.47"/>
<polygon fill="black" stroke="black" points="1858.08,-206.97 1868.13,-203.6 1858.18,-199.97 1858.08,-206.97"/>
</g>
<!-- 1250909649 -->
<g id="node5" class="node">
<title>1250909649</title>
<path fill="none" stroke="black" d="M1896.26,-71C1896.26,-71 2032.26,-71 2032.26,-71 2038.26,-71 2044.26,-77 2044.26,-83 2044.26,-83 2044.26,-121 2044.26,-121 2044.26,-127 2038.26,-133 2032.26,-133 2032.26,-133 1896.26,-133 1896.26,-133 1890.26,-133 1884.26,-127 1884.26,-121 1884.26,-121 1884.26,-83 1884.26,-83 1884.26,-77 1890.26,-71 1896.26,-71"/>
<text text-anchor="start" x="1930.04" y="-119.4" font-family="Times New Roman,serif" font-weight="bold" font-size="14.00">findFlights</text>
<text text-anchor="start" x="1991.49" y="-119.4" font-family="Times New Roman,serif" font-size="14.00"> &#160;</text>
<text text-anchor="start" x="1905.56" y="-98.4" font-family="Times New Roman,serif" font-size="14.00">AssignedRoles.User </text>
<polyline fill="none" stroke="black" points="1925.26,-93 1884.26,-93 "/>
<text text-anchor="start" x="1886.88" y="-77.4" font-family="Times New Roman,serif" font-size="14.00">query:</text>
<polyline fill="none" stroke="black" points="2044.26,-93 1925.26,-93 "/>
<text text-anchor="start" x="1927.81" y="-77.4" font-family="Times New Roman,serif" font-size="14.00">AssignedRoles.User</text>
</g>
<!-- 82028037&#45;&gt;1250909649 -->
<g id="edge9" class="edge">
<title>82028037&#45;&gt;1250909649</title>
<path fill="none" stroke="black" d="M1775.66,-172.53C1807.83,-160.44 1843.24,-147.12 1874.56,-135.35"/>
<polygon fill="black" stroke="black" points="1876.01,-138.54 1884.14,-131.75 1873.54,-131.99 1876.01,-138.54"/>
<text text-anchor="middle" x="1821.88" y="-170.2" font-family="Times New Roman,serif" font-size="14.00">query</text>
</g>
<!-- 2081961390 -->
<g id="node13" class="node">
<title>2081961390</title>
<path fill="none" stroke="black" d="M1896.76,-326C1896.76,-326 2031.76,-326 2031.76,-326 2037.76,-326 2043.76,-332 2043.76,-338 2043.76,-338 2043.76,-396 2043.76,-396 2043.76,-402 2037.76,-408 2031.76,-408 2031.76,-408 1896.76,-408 1896.76,-408 1890.76,-408 1884.76,-402 1884.76,-396 1884.76,-396 1884.76,-338 1884.76,-338 1884.76,-332 1890.76,-326 1896.76,-326"/>
<text text-anchor="start" x="1947.26" y="-394.4" font-family="Times New Roman,serif" font-weight="bold" font-size="14.00">book</text>
<text text-anchor="start" x="1975.26" y="-394.4" font-family="Times New Roman,serif" font-size="14.00"> &#160;</text>
<text text-anchor="start" x="1906.06" y="-373.4" font-family="Times New Roman,serif" font-size="14.00">AssignedRoles.User </text>
<polyline fill="none" stroke="black" points="1925.26,-368 1885.26,-368 "/>
<text text-anchor="start" x="1888.15" y="-352.4" font-family="Times New Roman,serif" font-size="14.00">flight:</text>
<polyline fill="none" stroke="black" points="2044.26,-368 1925.26,-368 "/>
<text text-anchor="start" x="1927.81" y="-352.4" font-family="Times New Roman,serif" font-size="14.00">AssignedRoles.User</text>
<text text-anchor="start" x="1893.6" y="-331.4" font-family="Times New Roman,serif" font-size="14.00">ccd:</text>
<text text-anchor="start" x="1927.81" y="-331.4" font-family="Times New Roman,serif" font-size="14.00">AssignedRoles.User</text>
</g>
<!-- 82028037&#45;&gt;2081961390 -->
<g id="edge17" class="edge">
<title>82028037&#45;&gt;2081961390</title>
<path fill="none" stroke="black" d="M1765.87,-292.18C1774.89,-298.66 1784.17,-304.73 1793.5,-310 1818.57,-324.17 1847.72,-335.55 1874.72,-344.3"/>
<polygon fill="black" stroke="black" points="1873.97,-347.73 1884.56,-347.41 1876.07,-341.06 1873.97,-347.73"/>
<text text-anchor="middle" x="1821.88" y="-338.2" font-family="Times New Roman,serif" font-size="14.00">flight, ccd</text>
</g>
<!-- 1859352337&#45;&gt;82028037 -->
<g id="edge4" class="edge">
<title>1859352337&#45;&gt;82028037</title>
<path fill="none" stroke="black" d="M1868.13,-216.4C1841.81,-216.79 1813.04,-216.86 1785.95,-216.58"/>
<polygon fill="black" stroke="black" points="1785.71,-213.08 1775.66,-216.46 1785.62,-220.08 1785.71,-213.08"/>
</g>
<!-- 1165235571 -->
<g id="node6" class="node">
<title>1165235571</title>
<path fill="none" stroke="black" d="M2165.02,-71C2165.02,-71 2301.02,-71 2301.02,-71 2307.02,-71 2313.02,-77 2313.02,-83 2313.02,-83 2313.02,-121 2313.02,-121 2313.02,-127 2307.02,-133 2301.02,-133 2301.02,-133 2165.02,-133 2165.02,-133 2159.02,-133 2153.02,-127 2153.02,-121 2153.02,-121 2153.02,-83 2153.02,-83 2153.02,-77 2159.02,-71 2165.02,-71"/>
<text text-anchor="start" x="2154.69" y="-119.4" font-family="Times New Roman,serif" font-weight="bold" font-size="14.00">request flights from airline</text>
<text text-anchor="start" x="2304.36" y="-119.4" font-family="Times New Roman,serif" font-size="14.00"> &#160;</text>
<text text-anchor="start" x="2174.32" y="-98.4" font-family="Times New Roman,serif" font-size="14.00">AssignedRoles.User </text>
<polyline fill="none" stroke="black" points="2194.02,-93 2153.02,-93 "/>
<text text-anchor="start" x="2155.64" y="-77.4" font-family="Times New Roman,serif" font-size="14.00">query:</text>
<polyline fill="none" stroke="black" points="2313.02,-93 2194.02,-93 "/>
<text text-anchor="start" x="2196.57" y="-77.4" font-family="Times New Roman,serif" font-size="14.00">AssignedRoles.User</text>
</g>
<!-- 1250909649&#45;&gt;1165235571 -->
<g id="edge10" class="edge">
<title>1250909649&#45;&gt;1165235571</title>
<path fill="none" stroke="black" d="M2044.58,-102C2075.48,-102 2111.05,-102 2142.84,-102"/>
<polygon fill="black" stroke="black" points="2143.01,-105.5 2153.01,-102 2143.01,-98.5 2143.01,-105.5"/>
<text text-anchor="middle" x="2106.64" y="-106.2" font-family="Times New Roman,serif" font-size="14.00">query</text>
</g>
<!-- 1816275354 -->
<g id="node7" class="node">
<title>1816275354</title>
<path fill="none" stroke="black" d="M2417.79,-71C2417.79,-71 2567.79,-71 2567.79,-71 2573.79,-71 2579.79,-77 2579.79,-83 2579.79,-83 2579.79,-121 2579.79,-121 2579.79,-127 2573.79,-133 2567.79,-133 2567.79,-133 2417.79,-133 2417.79,-133 2411.79,-133 2405.79,-127 2405.79,-121 2405.79,-121 2405.79,-83 2405.79,-83 2405.79,-77 2411.79,-71 2417.79,-71"/>
<text text-anchor="start" x="2458.56" y="-119.4" font-family="Times New Roman,serif" font-weight="bold" font-size="14.00">findFlights</text>
<text text-anchor="start" x="2520.01" y="-119.4" font-family="Times New Roman,serif" font-size="14.00"> &#160;</text>
<text text-anchor="start" x="2427.47" y="-98.4" font-family="Times New Roman,serif" font-size="14.00">AssignedRoles.Airline </text>
<polyline fill="none" stroke="black" points="2446.79,-93 2405.79,-93 "/>
<text text-anchor="start" x="2408.4" y="-77.4" font-family="Times New Roman,serif" font-size="14.00">query:</text>
<polyline fill="none" stroke="black" points="2579.79,-93 2446.79,-93 "/>
<text text-anchor="start" x="2449.72" y="-77.4" font-family="Times New Roman,serif" font-size="14.00">AssignedRoles.Airline</text>
</g>
<!-- 1165235571&#45;&gt;1816275354 -->
<g id="edge11" class="edge">
<title>1165235571&#45;&gt;1816275354</title>
<path fill="none" stroke="black" d="M2313.11,-102C2339.1,-102 2368.27,-102 2395.39,-102"/>
<polygon fill="black" stroke="black" points="2395.67,-105.5 2405.67,-102 2395.67,-98.5 2395.67,-105.5"/>
<text text-anchor="middle" x="2359.4" y="-106.2" font-family="Times New Roman,serif" font-size="14.00">query</text>
</g>
<!-- 610735011 -->
<g id="node8" class="node">
<title>610735011</title>
<path fill="none" stroke="black" d="M2695.55,-35C2695.55,-35 2845.55,-35 2845.55,-35 2851.55,-35 2857.55,-41 2857.55,-47 2857.55,-47 2857.55,-85 2857.55,-85 2857.55,-91 2851.55,-97 2845.55,-97 2845.55,-97 2695.55,-97 2695.55,-97 2689.55,-97 2683.55,-91 2683.55,-85 2683.55,-85 2683.55,-47 2683.55,-47 2683.55,-41 2689.55,-35 2695.55,-35"/>
<text text-anchor="start" x="2708.54" y="-83.4" font-family="Times New Roman,serif" font-weight="bold" font-size="14.00">read flights from DB</text>
<text text-anchor="start" x="2825.56" y="-83.4" font-family="Times New Roman,serif" font-size="14.00"> &#160;</text>
<text text-anchor="start" x="2705.23" y="-62.4" font-family="Times New Roman,serif" font-size="14.00">AssignedRoles.Airline </text>
<polyline fill="none" stroke="black" points="2724.55,-57 2683.55,-57 "/>
<text text-anchor="start" x="2686.16" y="-41.4" font-family="Times New Roman,serif" font-size="14.00">query:</text>
<polyline fill="none" stroke="black" points="2857.55,-57 2724.55,-57 "/>
<text text-anchor="start" x="2727.48" y="-41.4" font-family="Times New Roman,serif" font-size="14.00">AssignedRoles.Airline</text>
</g>
<!-- 1816275354&#45;&gt;610735011 -->
<g id="edge12" class="edge">
<title>1816275354&#45;&gt;610735011</title>
<path fill="none" stroke="black" d="M2579.9,-90.76C2609.44,-86.9 2642.67,-82.56 2672.98,-78.61"/>
<polygon fill="black" stroke="black" points="2673.67,-82.05 2683.13,-77.28 2672.76,-75.11 2673.67,-82.05"/>
<text text-anchor="middle" x="2626.17" y="-93.2" font-family="Times New Roman,serif" font-size="14.00">query</text>
</g>
<!-- 610735011&#45;&gt;111262651 -->
<g id="edge3" class="edge">
<title>610735011&#45;&gt;111262651</title>
<path fill="none" stroke="black" d="M2683.39,-54.63C2629.09,-48.43 2557.46,-42 2493.79,-42 583.88,-42 583.88,-42 583.88,-42 532.77,-42 476.27,-44.94 428.39,-48.3"/>
<polygon fill="black" stroke="black" points="428.04,-44.81 418.31,-49.02 428.54,-51.79 428.04,-44.81"/>
</g>
<!-- 735508909 -->
<g id="node10" class="node">
<title>735508909</title>
<path fill="none" stroke="black" d="M763.75,-82C763.75,-82 1023.75,-82 1023.75,-82 1029.75,-82 1035.75,-88 1035.75,-94 1035.75,-94 1035.75,-172 1035.75,-172 1035.75,-178 1029.75,-184 1023.75,-184 1023.75,-184 763.75,-184 763.75,-184 757.75,-184 751.75,-178 751.75,-172 751.75,-172 751.75,-94 751.75,-94 751.75,-88 757.75,-82 763.75,-82"/>
<text text-anchor="start" x="753.6" y="-170.4" font-family="Times New Roman,serif" font-weight="bold" font-size="14.00">select flights based on query and return selection</text>
<text text-anchor="start" x="1026.9" y="-170.4" font-family="Times New Roman,serif" font-size="14.00"> &#160;</text>
<text text-anchor="start" x="828.43" y="-149.4" font-family="Times New Roman,serif" font-size="14.00">AssignedRoles.Airline </text>
<polyline fill="none" stroke="black" points="858.75,-144 751.75,-144 "/>
<text text-anchor="start" x="787.37" y="-128.4" font-family="Times New Roman,serif" font-size="14.00">query:</text>
<polyline fill="none" stroke="black" points="1013.75,-144 858.75,-144 "/>
<text text-anchor="start" x="872.68" y="-128.4" font-family="Times New Roman,serif" font-size="14.00">AssignedRoles.Airline</text>
<text text-anchor="start" x="785.42" y="-107.4" font-family="Times New Roman,serif" font-size="14.00">flights:</text>
<text text-anchor="start" x="872.68" y="-107.4" font-family="Times New Roman,serif" font-size="14.00">AssignedRoles.Airline</text>
<text text-anchor="start" x="775.31" y="-87.4" font-family="Times New Roman,serif" font-size="14.00">RETURN:</text>
<text text-anchor="start" x="872.68" y="-87.4" font-family="Times New Roman,serif" font-size="14.00">AssignedRoles.Airline</text>
</g>
<!-- 610735017&#45;&gt;735508909 -->
<g id="edge14" class="edge">
<title>610735017&#45;&gt;735508909</title>
<path fill="none" stroke="black" d="M684.24,-128.92C702.53,-129.28 722.02,-129.66 741.46,-130.04"/>
<polygon fill="black" stroke="black" points="741.55,-133.54 751.62,-130.24 741.69,-126.55 741.55,-133.54"/>
<text text-anchor="middle" x="717.81" y="-134.2" font-family="Times New Roman,serif" font-size="14.00">query</text>
</g>
<!-- 1165235565 -->
<g id="node11" class="node">
<title>1165235565</title>
<path fill="none" stroke="black" d="M1115.63,-93C1115.63,-93 1275.63,-93 1275.63,-93 1281.63,-93 1287.63,-99 1287.63,-105 1287.63,-105 1287.63,-183 1287.63,-183 1287.63,-189 1281.63,-195 1275.63,-195 1275.63,-195 1115.63,-195 1115.63,-195 1109.63,-195 1103.63,-189 1103.63,-183 1103.63,-183 1103.63,-105 1103.63,-105 1103.63,-99 1109.63,-93 1115.63,-93"/>
<text text-anchor="start" x="1117.29" y="-181.4" font-family="Times New Roman,serif" font-weight="bold" font-size="14.00">request flights from airline</text>
<text text-anchor="start" x="1266.96" y="-181.4" font-family="Times New Roman,serif" font-size="14.00"> &#160;</text>
<text text-anchor="start" x="1136.92" y="-160.4" font-family="Times New Roman,serif" font-size="14.00">AssignedRoles.User </text>
<polyline fill="none" stroke="black" points="1168.63,-155 1103.63,-155 "/>
<text text-anchor="start" x="1106.18" y="-139.4" font-family="Times New Roman,serif" font-size="14.00">RETURN:</text>
<polyline fill="none" stroke="black" points="1287.63,-155 1168.63,-155 "/>
<text text-anchor="start" x="1171.17" y="-139.4" font-family="Times New Roman,serif" font-size="14.00">AssignedRoles.User</text>
<text text-anchor="start" x="1118.24" y="-118.4" font-family="Times New Roman,serif" font-size="14.00">query:</text>
<text text-anchor="start" x="1171.17" y="-118.4" font-family="Times New Roman,serif" font-size="14.00">AssignedRoles.User</text>
<text text-anchor="start" x="1116.29" y="-98.4" font-family="Times New Roman,serif" font-size="14.00">flights:</text>
<text text-anchor="start" x="1171.17" y="-98.4" font-family="Times New Roman,serif" font-size="14.00">AssignedRoles.User</text>
</g>
<!-- 735508909&#45;&gt;1165235565 -->
<g id="edge15" class="edge">
<title>735508909&#45;&gt;1165235565</title>
<path fill="none" stroke="black" d="M1035.91,-138.18C1055.26,-138.89 1074.81,-139.6 1093.26,-140.28"/>
<polygon fill="black" stroke="black" points="1093.27,-143.78 1103.39,-140.65 1093.53,-136.79 1093.27,-143.78"/>
<text text-anchor="middle" x="1069.69" y="-144.2" font-family="Times New Roman,serif" font-size="14.00">query</text>
</g>
<!-- 1368510460 -->
<g id="node12" class="node">
<title>1368510460</title>
<path fill="none" stroke="black" d="M1367.5,-115C1367.5,-115 1525.5,-115 1525.5,-115 1531.5,-115 1537.5,-121 1537.5,-127 1537.5,-127 1537.5,-205 1537.5,-205 1537.5,-211 1531.5,-217 1525.5,-217 1525.5,-217 1367.5,-217 1367.5,-217 1361.5,-217 1355.5,-211 1355.5,-205 1355.5,-205 1355.5,-127 1355.5,-127 1355.5,-121 1361.5,-115 1367.5,-115"/>
<text text-anchor="start" x="1388.57" y="-203.4" font-family="Times New Roman,serif" font-weight="bold" font-size="14.00">return found flights</text>
<text text-anchor="start" x="1497.43" y="-203.4" font-family="Times New Roman,serif" font-size="14.00"> &#160;</text>
<text text-anchor="start" x="1387.79" y="-182.4" font-family="Times New Roman,serif" font-size="14.00">AssignedRoles.User </text>
<polyline fill="none" stroke="black" points="1418.5,-177 1355.5,-177 "/>
<text text-anchor="start" x="1369.12" y="-161.4" font-family="Times New Roman,serif" font-size="14.00">query:</text>
<polyline fill="none" stroke="black" points="1537.5,-177 1418.5,-177 "/>
<text text-anchor="start" x="1421.04" y="-161.4" font-family="Times New Roman,serif" font-size="14.00">AssignedRoles.User</text>
<text text-anchor="start" x="1367.17" y="-140.4" font-family="Times New Roman,serif" font-size="14.00">flights:</text>
<text text-anchor="start" x="1421.04" y="-140.4" font-family="Times New Roman,serif" font-size="14.00">AssignedRoles.User</text>
<text text-anchor="start" x="1357.06" y="-120.4" font-family="Times New Roman,serif" font-size="14.00">RETURN:</text>
<text text-anchor="start" x="1421.04" y="-120.4" font-family="Times New Roman,serif" font-size="14.00">AssignedRoles.User</text>
</g>
<!-- 1165235565&#45;&gt;1368510460 -->
<g id="edge16" class="edge">
<title>1165235565&#45;&gt;1368510460</title>
<path fill="none" stroke="black" d="M1287.88,-152.07C1306.58,-153.72 1326.36,-155.47 1345.35,-157.15"/>
<polygon fill="black" stroke="black" points="1345.23,-160.65 1355.5,-158.04 1345.85,-153.68 1345.23,-160.65"/>
<text text-anchor="middle" x="1321.56" y="-161.2" font-family="Times New Roman,serif" font-size="14.00">query</text>
</g>
<!-- 1368510460&#45;&gt;82028037 -->
<g id="edge6" class="edge">
<title>1368510460&#45;&gt;82028037</title>
<path fill="none" stroke="black" d="M1537.67,-183.52C1546.45,-185.22 1555.43,-186.97 1564.38,-188.7"/>
<polygon fill="black" stroke="black" points="1563.97,-192.19 1574.46,-190.66 1565.31,-185.32 1563.97,-192.19"/>
</g>
<!-- 1608361336 -->
<g id="node14" class="node">
<title>1608361336</title>
<path fill="none" stroke="black" d="M2165.52,-328C2165.52,-328 2300.52,-328 2300.52,-328 2306.52,-328 2312.52,-334 2312.52,-340 2312.52,-340 2312.52,-398 2312.52,-398 2312.52,-404 2306.52,-410 2300.52,-410 2300.52,-410 2165.52,-410 2165.52,-410 2159.52,-410 2153.52,-404 2153.52,-398 2153.52,-398 2153.52,-340 2153.52,-340 2153.52,-334 2159.52,-328 2165.52,-328"/>
<text text-anchor="start" x="2161.2" y="-396.4" font-family="Times New Roman,serif" font-weight="bold" font-size="14.00">ask airline to book flight</text>
<text text-anchor="start" x="2298.85" y="-396.4" font-family="Times New Roman,serif" font-size="14.00"> &#160;</text>
<text text-anchor="start" x="2174.82" y="-375.4" font-family="Times New Roman,serif" font-size="14.00">AssignedRoles.User </text>
<polyline fill="none" stroke="black" points="2194.02,-370 2154.02,-370 "/>
<text text-anchor="start" x="2156.91" y="-354.4" font-family="Times New Roman,serif" font-size="14.00">flight:</text>
<polyline fill="none" stroke="black" points="2313.02,-370 2194.02,-370 "/>
<text text-anchor="start" x="2196.57" y="-354.4" font-family="Times New Roman,serif" font-size="14.00">AssignedRoles.User</text>
<text text-anchor="start" x="2162.36" y="-333.4" font-family="Times New Roman,serif" font-size="14.00">ccd:</text>
<text text-anchor="start" x="2196.57" y="-333.4" font-family="Times New Roman,serif" font-size="14.00">AssignedRoles.User</text>
</g>
<!-- 2081961390&#45;&gt;1608361336 -->
<g id="edge18" class="edge">
<title>2081961390&#45;&gt;1608361336</title>
<path fill="none" stroke="black" d="M2043.86,-367.59C2074.92,-367.82 2110.78,-368.09 2142.82,-368.33"/>
<polygon fill="black" stroke="black" points="2143.04,-371.83 2153.07,-368.41 2143.1,-364.83 2143.04,-371.83"/>
<text text-anchor="middle" x="2106.64" y="-372.2" font-family="Times New Roman,serif" font-size="14.00">flight, ccd</text>
</g>
<!-- 1085424400 -->
<g id="node15" class="node">
<title>1085424400</title>
<path fill="none" stroke="black" d="M2418.29,-332C2418.29,-332 2567.29,-332 2567.29,-332 2573.29,-332 2579.29,-338 2579.29,-344 2579.29,-344 2579.29,-402 2579.29,-402 2579.29,-408 2573.29,-414 2567.29,-414 2567.29,-414 2418.29,-414 2418.29,-414 2412.29,-414 2406.29,-408 2406.29,-402 2406.29,-402 2406.29,-344 2406.29,-344 2406.29,-338 2412.29,-332 2418.29,-332"/>
<text text-anchor="start" x="2475.79" y="-400.4" font-family="Times New Roman,serif" font-weight="bold" font-size="14.00">book</text>
<text text-anchor="start" x="2503.79" y="-400.4" font-family="Times New Roman,serif" font-size="14.00"> &#160;</text>
<text text-anchor="start" x="2427.97" y="-379.4" font-family="Times New Roman,serif" font-size="14.00">AssignedRoles.Airline </text>
<polyline fill="none" stroke="black" points="2446.79,-374 2406.79,-374 "/>
<text text-anchor="start" x="2409.67" y="-358.4" font-family="Times New Roman,serif" font-size="14.00">flight:</text>
<polyline fill="none" stroke="black" points="2579.79,-374 2446.79,-374 "/>
<text text-anchor="start" x="2449.72" y="-358.4" font-family="Times New Roman,serif" font-size="14.00">AssignedRoles.Airline</text>
<text text-anchor="start" x="2415.13" y="-337.4" font-family="Times New Roman,serif" font-size="14.00">ccd:</text>
<text text-anchor="start" x="2449.72" y="-337.4" font-family="Times New Roman,serif" font-size="14.00">AssignedRoles.Airline</text>
</g>
<!-- 1608361336&#45;&gt;1085424400 -->
<g id="edge19" class="edge">
<title>1608361336&#45;&gt;1085424400</title>
<path fill="none" stroke="black" d="M2312.76,-370.22C2338.89,-370.63 2368.27,-371.08 2395.56,-371.51"/>
<polygon fill="black" stroke="black" points="2395.85,-375.01 2405.9,-371.67 2395.96,-368.01 2395.85,-375.01"/>
<text text-anchor="middle" x="2359.4" y="-375.2" font-family="Times New Roman,serif" font-size="14.00">flight, ccd</text>
</g>
<!-- 1683310451 -->
<g id="node16" class="node">
<title>1683310451</title>
<path fill="none" stroke="black" d="M2684.55,-330C2684.55,-330 2856.55,-330 2856.55,-330 2862.55,-330 2868.55,-336 2868.55,-342 2868.55,-342 2868.55,-420 2868.55,-420 2868.55,-426 2862.55,-432 2856.55,-432 2856.55,-432 2684.55,-432 2684.55,-432 2678.55,-432 2672.55,-426 2672.55,-420 2672.55,-420 2672.55,-342 2672.55,-342 2672.55,-336 2678.55,-330 2684.55,-330"/>
<text text-anchor="start" x="2712.43" y="-418.4" font-family="Times New Roman,serif" font-weight="bold" font-size="14.00">return confirmation</text>
<text text-anchor="start" x="2821.67" y="-418.4" font-family="Times New Roman,serif" font-size="14.00"> &#160;</text>
<text text-anchor="start" x="2705.23" y="-397.4" font-family="Times New Roman,serif" font-size="14.00">AssignedRoles.Airline </text>
<polyline fill="none" stroke="black" points="2735.55,-392 2672.55,-392 "/>
<text text-anchor="start" x="2686.94" y="-376.4" font-family="Times New Roman,serif" font-size="14.00">flight:</text>
<polyline fill="none" stroke="black" points="2868.55,-392 2735.55,-392 "/>
<text text-anchor="start" x="2738.48" y="-376.4" font-family="Times New Roman,serif" font-size="14.00">AssignedRoles.Airline</text>
<text text-anchor="start" x="2692.39" y="-355.4" font-family="Times New Roman,serif" font-size="14.00">ccd:</text>
<text text-anchor="start" x="2738.48" y="-355.4" font-family="Times New Roman,serif" font-size="14.00">AssignedRoles.Airline</text>
<text text-anchor="start" x="2674.11" y="-335.4" font-family="Times New Roman,serif" font-size="14.00">RETURN:</text>
<text text-anchor="start" x="2738.48" y="-335.4" font-family="Times New Roman,serif" font-size="14.00">AssignedRoles.Airline</text>
</g>
<!-- 1085424400&#45;&gt;1683310451 -->
<g id="edge20" class="edge">
<title>1085424400&#45;&gt;1683310451</title>
<path fill="none" stroke="black" d="M2579.53,-375.49C2605.72,-376.25 2634.85,-377.09 2662.28,-377.89"/>
<polygon fill="black" stroke="black" points="2662.21,-381.39 2672.31,-378.18 2662.41,-374.39 2662.21,-381.39"/>
<text text-anchor="middle" x="2626.17" y="-381.2" font-family="Times New Roman,serif" font-size="14.00">flight, ccd</text>
</g>
<!-- 1608361342 -->
<g id="node17" class="node">
<title>1608361342</title>
<path fill="none" stroke="black" d="M2973.31,-325C2973.31,-325 3148.31,-325 3148.31,-325 3154.31,-325 3160.31,-331 3160.31,-337 3160.31,-337 3160.31,-435 3160.31,-435 3160.31,-441 3154.31,-447 3148.31,-447 3148.31,-447 2973.31,-447 2973.31,-447 2967.31,-447 2961.31,-441 2961.31,-435 2961.31,-435 2961.31,-337 2961.31,-337 2961.31,-331 2967.31,-325 2973.31,-325"/>
<text text-anchor="start" x="2988.99" y="-433.4" font-family="Times New Roman,serif" font-weight="bold" font-size="14.00">ask airline to book flight</text>
<text text-anchor="start" x="3126.63" y="-433.4" font-family="Times New Roman,serif" font-size="14.00"> &#160;</text>
<text text-anchor="start" x="3002.6" y="-412.4" font-family="Times New Roman,serif" font-size="14.00">AssignedRoles.User </text>
<polyline fill="none" stroke="black" points="3041.81,-407 2961.81,-407 "/>
<text text-anchor="start" x="2971.87" y="-391.4" font-family="Times New Roman,serif" font-size="14.00">RETURN:</text>
<polyline fill="none" stroke="black" points="3160.81,-407 3041.81,-407 "/>
<text text-anchor="start" x="3044.35" y="-391.4" font-family="Times New Roman,serif" font-size="14.00">AssignedRoles.User</text>
<text text-anchor="start" x="2984.7" y="-370.4" font-family="Times New Roman,serif" font-size="14.00">flight:</text>
<text text-anchor="start" x="3044.35" y="-370.4" font-family="Times New Roman,serif" font-size="14.00">AssignedRoles.User</text>
<text text-anchor="start" x="2990.15" y="-350.4" font-family="Times New Roman,serif" font-size="14.00">ccd:</text>
<text text-anchor="start" x="3044.35" y="-350.4" font-family="Times New Roman,serif" font-size="14.00">AssignedRoles.User</text>
<text text-anchor="start" x="2963.71" y="-330.4" font-family="Times New Roman,serif" font-size="14.00">confirmation:</text>
<text text-anchor="start" x="3044.35" y="-330.4" font-family="Times New Roman,serif" font-size="14.00">AssignedRoles.User</text>
</g>
<!-- 1683310451&#45;&gt;1608361342 -->
<g id="edge21" class="edge">
<title>1683310451&#45;&gt;1608361342</title>
<path fill="none" stroke="black" d="M2868.74,-382.69C2895.12,-383.14 2923.85,-383.64 2950.83,-384.11"/>
<polygon fill="black" stroke="black" points="2951.02,-387.61 2961.08,-384.29 2951.14,-380.61 2951.02,-387.61"/>
<text text-anchor="middle" x="2914.93" y="-387.2" font-family="Times New Roman,serif" font-size="14.00">flight, ccd</text>
</g>
<!-- 2140278197 -->
<g id="node18" class="node">
<title>2140278197</title>
<path fill="none" stroke="black" d="M3265.07,-251C3265.07,-251 3440.07,-251 3440.07,-251 3446.07,-251 3452.07,-257 3452.07,-263 3452.07,-263 3452.07,-361 3452.07,-361 3452.07,-367 3446.07,-373 3440.07,-373 3440.07,-373 3265.07,-373 3265.07,-373 3259.07,-373 3253.07,-367 3253.07,-361 3253.07,-361 3253.07,-263 3253.07,-263 3253.07,-257 3259.07,-251 3265.07,-251"/>
<text text-anchor="start" x="3294.95" y="-359.4" font-family="Times New Roman,serif" font-weight="bold" font-size="14.00">return confirmation</text>
<text text-anchor="start" x="3404.19" y="-359.4" font-family="Times New Roman,serif" font-size="14.00"> &#160;</text>
<text text-anchor="start" x="3294.36" y="-338.4" font-family="Times New Roman,serif" font-size="14.00">AssignedRoles.User </text>
<polyline fill="none" stroke="black" points="3333.57,-333 3253.57,-333 "/>
<text text-anchor="start" x="3276.46" y="-317.4" font-family="Times New Roman,serif" font-size="14.00">flight:</text>
<polyline fill="none" stroke="black" points="3452.57,-333 3333.57,-333 "/>
<text text-anchor="start" x="3336.11" y="-317.4" font-family="Times New Roman,serif" font-size="14.00">AssignedRoles.User</text>
<text text-anchor="start" x="3281.91" y="-296.4" font-family="Times New Roman,serif" font-size="14.00">ccd:</text>
<text text-anchor="start" x="3336.11" y="-296.4" font-family="Times New Roman,serif" font-size="14.00">AssignedRoles.User</text>
<text text-anchor="start" x="3255.47" y="-276.4" font-family="Times New Roman,serif" font-size="14.00">confirmation:</text>
<text text-anchor="start" x="3336.11" y="-276.4" font-family="Times New Roman,serif" font-size="14.00">AssignedRoles.User</text>
<text text-anchor="start" x="3263.63" y="-256.4" font-family="Times New Roman,serif" font-size="14.00">RETURN:</text>
<text text-anchor="start" x="3336.11" y="-256.4" font-family="Times New Roman,serif" font-size="14.00">AssignedRoles.User</text>
</g>
<!-- 1608361342&#45;&gt;2140278197 -->
<g id="edge22" class="edge">
<title>1608361342&#45;&gt;2140278197</title>
<path fill="none" stroke="black" d="M3160.31,-360.84C3186.91,-354.05 3215.83,-346.67 3242.95,-339.74"/>
<polygon fill="black" stroke="black" points="3244.02,-343.08 3252.85,-337.21 3242.29,-336.3 3244.02,-343.08"/>
<text text-anchor="middle" x="3206.69" y="-359.2" font-family="Times New Roman,serif" font-size="14.00">flight, ccd</text>
</g>
<!-- 2140278197&#45;&gt;82028037 -->
<g id="edge7" class="edge">
<title>2140278197&#45;&gt;82028037</title>
<path fill="none" stroke="black" d="M3253.07,-303.86C3197.04,-299.91 3125.54,-296 3061.81,-296 1963.26,-296 1963.26,-296 1963.26,-296 1902.61,-296 1837.67,-278.19 1784.9,-258.78"/>
<polygon fill="black" stroke="black" points="1786.13,-255.5 1775.53,-255.27 1783.67,-262.05 1786.13,-255.5"/>
</g>
</g>
</svg>
