<?xml version="1.0" encoding="UTF-8" standalone="no"?>
<!DOCTYPE svg PUBLIC "-//W3C//DTD SVG 1.1//EN"
 "http://www.w3.org/Graphics/SVG/1.1/DTD/svg11.dtd">
<!-- Generated by graphviz version 2.44.1 (20200629.0846)
 -->
<!-- Title: dfd Pages: 1 -->
<svg width="1655pt" height="273pt"
 viewBox="0.00 0.00 1655.27 272.50" xmlns="http://www.w3.org/2000/svg" xmlns:xlink="http://www.w3.org/1999/xlink">
<g id="graph0" class="graph" transform="scale(1 1) rotate(0) translate(4 268.5)">
<title>dfd</title>
<polygon fill="white" stroke="transparent" points="-4,4 -4,-268.5 1651.27,-268.5 1651.27,4 -4,4"/>
<!-- 1160552821 -->
<g id="node1" class="node">
<title>1160552821</title>
<text text-anchor="start" x="3.18" y="-117.4" font-family="Times New Roman,serif" font-weight="bold" font-size="14.00">ShopingUsageScenario</text>
<text text-anchor="start" x="133.82" y="-117.4" font-family="Times New Roman,serif" font-size="14.00"> &#160;</text>
<polygon fill="none" stroke="black" points="0,-110 0,-132 143,-132 143,-110 0,-110"/>
</g>
<!-- 1160552821&#45;&gt;1160552821 -->
<g id="edge2" class="edge">
<title>1160552821&#45;&gt;1160552821</title>
<path fill="none" stroke="black" d="M45.45,-139.15C41.44,-148.54 50.12,-157 71.5,-157 84.53,-157 92.84,-153.86 96.44,-149.28"/>
<polygon fill="black" stroke="black" points="99.94,-149.48 97.55,-139.15 92.98,-148.71 99.94,-149.48"/>
</g>
<!-- 724287091 -->
<g id="node2" class="node">
<title>724287091</title>
<path fill="none" stroke="black" d="M301.4,-224C301.4,-224 392.4,-224 392.4,-224 398.4,-224 404.4,-230 404.4,-236 404.4,-236 404.4,-252 404.4,-252 404.4,-258 398.4,-264 392.4,-264 392.4,-264 301.4,-264 301.4,-264 295.4,-264 289.4,-258 289.4,-252 289.4,-252 289.4,-236 289.4,-236 289.4,-230 295.4,-224 301.4,-224"/>
<text text-anchor="start" x="330.3" y="-250.4" font-family="Times New Roman,serif" font-weight="bold" font-size="14.00">view</text>
<text text-anchor="start" x="357.51" y="-250.4" font-family="Times New Roman,serif" font-size="14.00"> &#160;</text>
<text text-anchor="start" x="291.42" y="-229.4" font-family="Times New Roman,serif" font-size="14.00">ServerLocation.EU </text>
</g>
<!-- 1160552821&#45;&gt;724287091 -->
<g id="edge5" class="edge">
<title>1160552821&#45;&gt;724287091</title>
<path fill="none" stroke="black" d="M85.27,-139.03C100.74,-159.44 128.79,-192.04 161,-209 197.33,-228.14 242.56,-236.92 279.18,-240.9"/>
<polygon fill="black" stroke="black" points="278.98,-244.4 289.27,-241.9 279.67,-237.43 278.98,-244.4"/>
</g>
<!-- 188012899 -->
<g id="node8" class="node">
<title>188012899</title>
<path fill="none" stroke="black" d="M301.4,-101C301.4,-101 392.4,-101 392.4,-101 398.4,-101 404.4,-107 404.4,-113 404.4,-113 404.4,-129 404.4,-129 404.4,-135 398.4,-141 392.4,-141 392.4,-141 301.4,-141 301.4,-141 295.4,-141 289.4,-135 289.4,-129 289.4,-129 289.4,-113 289.4,-113 289.4,-107 295.4,-101 301.4,-101"/>
<text text-anchor="start" x="333.4" y="-127.4" font-family="Times New Roman,serif" font-weight="bold" font-size="14.00">buy</text>
<text text-anchor="start" x="354.4" y="-127.4" font-family="Times New Roman,serif" font-size="14.00"> &#160;</text>
<text text-anchor="start" x="291.42" y="-106.4" font-family="Times New Roman,serif" font-size="14.00">ServerLocation.EU </text>
</g>
<!-- 1160552821&#45;&gt;188012899 -->
<g id="edge11" class="edge">
<title>1160552821&#45;&gt;188012899</title>
<path fill="none" stroke="black" d="M143.26,-121C185.12,-121 237.83,-121 279,-121"/>
<polygon fill="black" stroke="black" points="279.2,-124.5 289.2,-121 279.2,-117.5 279.2,-124.5"/>
<text text-anchor="middle" x="216.2" y="-125.2" font-family="Times New Roman,serif" font-size="14.00">userData, inventory</text>
</g>
<!-- 454345997 -->
<g id="node3" class="node">
<title>454345997</title>
<path fill="none" stroke="black" d="M562.81,-224C562.81,-224 683.81,-224 683.81,-224 689.81,-224 695.81,-230 695.81,-236 695.81,-236 695.81,-252 695.81,-252 695.81,-258 689.81,-264 683.81,-264 683.81,-264 562.81,-264 562.81,-264 556.81,-264 550.81,-258 550.81,-252 550.81,-252 550.81,-236 550.81,-236 550.81,-230 556.81,-224 562.81,-224"/>
<text text-anchor="start" x="553.06" y="-250.4" font-family="Times New Roman,serif" font-weight="bold" font-size="14.00">DatabaseLoadInventory</text>
<text text-anchor="start" x="687.55" y="-250.4" font-family="Times New Roman,serif" font-size="14.00"> &#160;</text>
<text text-anchor="start" x="567.83" y="-229.4" font-family="Times New Roman,serif" font-size="14.00">ServerLocation.EU </text>
</g>
<!-- 724287091&#45;&gt;454345997 -->
<g id="edge6" class="edge">
<title>724287091&#45;&gt;454345997</title>
<path fill="none" stroke="black" d="M404.43,-244C443.73,-244 496.72,-244 540.61,-244"/>
<polygon fill="black" stroke="black" points="540.68,-247.5 550.68,-244 540.68,-240.5 540.68,-247.5"/>
</g>
<!-- 31919186 -->
<g id="node4" class="node">
<title>31919186</title>
<path fill="none" stroke="black" d="M797.46,-224C797.46,-224 909.46,-224 909.46,-224 915.46,-224 921.46,-230 921.46,-236 921.46,-236 921.46,-252 921.46,-252 921.46,-258 915.46,-264 909.46,-264 909.46,-264 797.46,-264 797.46,-264 791.46,-264 785.46,-258 785.46,-252 785.46,-252 785.46,-236 785.46,-236 785.46,-230 791.46,-224 797.46,-224"/>
<text text-anchor="start" x="810.7" y="-250.4" font-family="Times New Roman,serif" font-weight="bold" font-size="14.00">loadInventory</text>
<text text-anchor="start" x="889.23" y="-250.4" font-family="Times New Roman,serif" font-size="14.00"> &#160;</text>
<text text-anchor="start" x="786.98" y="-229.4" font-family="Times New Roman,serif" font-size="14.00">ServerLocation.nonEU </text>
</g>
<!-- 454345997&#45;&gt;31919186 -->
<g id="edge7" class="edge">
<title>454345997&#45;&gt;31919186</title>
<path fill="none" stroke="black" d="M695.87,-244C721.14,-244 749.65,-244 775.35,-244"/>
<polygon fill="black" stroke="black" points="775.43,-247.5 785.43,-244 775.43,-240.5 775.43,-247.5"/>
</g>
<!-- 2141225306 -->
<g id="node5" class="node">
<title>2141225306</title>
<path fill="none" stroke="black" d="M1079.86,-224C1079.86,-224 1191.86,-224 1191.86,-224 1197.86,-224 1203.86,-230 1203.86,-236 1203.86,-236 1203.86,-252 1203.86,-252 1203.86,-258 1197.86,-264 1191.86,-264 1191.86,-264 1079.86,-264 1079.86,-264 1073.86,-264 1067.86,-258 1067.86,-252 1067.86,-252 1067.86,-236 1067.86,-236 1067.86,-230 1073.86,-224 1079.86,-224"/>
<text text-anchor="start" x="1104.37" y="-250.4" font-family="Times New Roman,serif" font-weight="bold" font-size="14.00">RETURN</text>
<text text-anchor="start" x="1160.36" y="-250.4" font-family="Times New Roman,serif" font-size="14.00"> &#160;</text>
<text text-anchor="start" x="1069.39" y="-229.4" font-family="Times New Roman,serif" font-size="14.00">ServerLocation.nonEU </text>
</g>
<!-- 31919186&#45;&gt;2141225306 -->
<g id="edge8" class="edge">
<title>31919186&#45;&gt;2141225306</title>
<path fill="none" stroke="black" d="M921.63,-244C962.57,-244 1015.06,-244 1057.71,-244"/>
<polygon fill="black" stroke="black" points="1057.76,-247.5 1067.76,-244 1057.76,-240.5 1057.76,-247.5"/>
</g>
<!-- 454346003 -->
<g id="node6" class="node">
<title>454346003</title>
<path fill="none" stroke="black" d="M1362.27,-224C1362.27,-224 1483.27,-224 1483.27,-224 1489.27,-224 1495.27,-230 1495.27,-236 1495.27,-236 1495.27,-252 1495.27,-252 1495.27,-258 1489.27,-264 1483.27,-264 1483.27,-264 1362.27,-264 1362.27,-264 1356.27,-264 1350.27,-258 1350.27,-252 1350.27,-252 1350.27,-236 1350.27,-236 1350.27,-230 1356.27,-224 1362.27,-224"/>
<text text-anchor="start" x="1352.52" y="-250.4" font-family="Times New Roman,serif" font-weight="bold" font-size="14.00">DatabaseLoadInventory</text>
<text text-anchor="start" x="1487.01" y="-250.4" font-family="Times New Roman,serif" font-size="14.00"> &#160;</text>
<text text-anchor="start" x="1367.29" y="-229.4" font-family="Times New Roman,serif" font-size="14.00">ServerLocation.EU </text>
</g>
<!-- 2141225306&#45;&gt;454346003 -->
<g id="edge9" class="edge">
<title>2141225306&#45;&gt;454346003</title>
<path fill="none" stroke="black" d="M1204.02,-244C1244.69,-244 1296.84,-244 1339.91,-244"/>
<polygon fill="black" stroke="black" points="1340.08,-247.5 1350.08,-244 1340.08,-240.5 1340.08,-247.5"/>
</g>
<!-- 1715023177 -->
<g id="node7" class="node">
<title>1715023177</title>
<path fill="none" stroke="black" d="M1544.27,-187C1544.27,-187 1635.27,-187 1635.27,-187 1641.27,-187 1647.27,-193 1647.27,-199 1647.27,-199 1647.27,-215 1647.27,-215 1647.27,-221 1641.27,-227 1635.27,-227 1635.27,-227 1544.27,-227 1544.27,-227 1538.27,-227 1532.27,-221 1532.27,-215 1532.27,-215 1532.27,-199 1532.27,-199 1532.27,-193 1538.27,-187 1544.27,-187"/>
<text text-anchor="start" x="1558.77" y="-213.4" font-family="Times New Roman,serif" font-weight="bold" font-size="14.00">RETURN</text>
<text text-anchor="start" x="1614.76" y="-213.4" font-family="Times New Roman,serif" font-size="14.00"> &#160;</text>
<text text-anchor="start" x="1534.29" y="-192.4" font-family="Times New Roman,serif" font-size="14.00">ServerLocation.EU </text>
</g>
<!-- 454346003&#45;&gt;1715023177 -->
<g id="edge10" class="edge">
<title>454346003&#45;&gt;1715023177</title>
<path fill="none" stroke="black" d="M1495.66,-227.88C1504.55,-225.88 1513.62,-223.85 1522.43,-221.88"/>
<polygon fill="black" stroke="black" points="1523.25,-225.28 1532.24,-219.68 1521.72,-218.45 1523.25,-225.28"/>
</g>
<!-- 1715023177&#45;&gt;1160552821 -->
<g id="edge1" class="edge">
<title>1715023177&#45;&gt;1160552821</title>
<path fill="none" stroke="black" d="M1531.95,-200.82C1500.17,-197.88 1459.81,-195 1423.77,-195 345.9,-195 345.9,-195 345.9,-195 265.42,-195 176.09,-164.75 122.13,-142.93"/>
<polygon fill="black" stroke="black" points="123.38,-139.66 112.8,-139.1 120.72,-146.14 123.38,-139.66"/>
</g>
<!-- 254517211 -->
<g id="node9" class="node">
<title>254517211</title>
<path fill="none" stroke="black" d="M577.81,-67C577.81,-67 668.81,-67 668.81,-67 674.81,-67 680.81,-73 680.81,-79 680.81,-79 680.81,-95 680.81,-95 680.81,-101 674.81,-107 668.81,-107 668.81,-107 577.81,-107 577.81,-107 571.81,-107 565.81,-101 565.81,-95 565.81,-95 565.81,-79 565.81,-79 565.81,-73 571.81,-67 577.81,-67"/>
<text text-anchor="start" x="567.82" y="-93.4" font-family="Times New Roman,serif" font-weight="bold" font-size="14.00">SaveInventoryCall</text>
<text text-anchor="start" x="672.79" y="-93.4" font-family="Times New Roman,serif" font-size="14.00"> &#160;</text>
<text text-anchor="start" x="567.83" y="-72.4" font-family="Times New Roman,serif" font-size="14.00">ServerLocation.EU </text>
</g>
<!-- 188012899&#45;&gt;254517211 -->
<g id="edge12" class="edge">
<title>188012899&#45;&gt;254517211</title>
<path fill="none" stroke="black" d="M404.77,-109.97C410.71,-108.96 416.67,-108.02 422.4,-107.2 466.62,-100.88 516.62,-95.83 555.56,-92.36"/>
<polygon fill="black" stroke="black" points="556.06,-95.83 565.72,-91.47 555.45,-88.85 556.06,-95.83"/>
<text text-anchor="middle" x="477.6" y="-111.2" font-family="Times New Roman,serif" font-size="14.00">userData, inventory</text>
</g>
<!-- 50765856 -->
<g id="node12" class="node">
<title>50765856</title>
<path fill="none" stroke="black" d="M577.31,-126C577.31,-126 669.31,-126 669.31,-126 675.31,-126 681.31,-132 681.31,-138 681.31,-138 681.31,-154 681.31,-154 681.31,-160 675.31,-166 669.31,-166 669.31,-166 577.31,-166 577.31,-166 571.31,-166 565.31,-160 565.31,-154 565.31,-154 565.31,-138 565.31,-138 565.31,-132 571.31,-126 577.31,-126"/>
<text text-anchor="start" x="566.94" y="-152.4" font-family="Times New Roman,serif" font-weight="bold" font-size="14.00">StoreUserDataCall</text>
<text text-anchor="start" x="672.67" y="-152.4" font-family="Times New Roman,serif" font-size="14.00"> &#160;</text>
<text text-anchor="start" x="567.33" y="-131.4" font-family="Times New Roman,serif" font-size="14.00">ServerLocation.EU </text>
</g>
<!-- 188012899&#45;&gt;50765856 -->
<g id="edge15" class="edge">
<title>188012899&#45;&gt;50765856</title>
<path fill="none" stroke="black" d="M404.43,-126.15C448.04,-130.12 508.52,-135.63 554.69,-139.84"/>
<polygon fill="black" stroke="black" points="554.63,-143.35 564.91,-140.77 555.27,-136.38 554.63,-143.35"/>
<text text-anchor="middle" x="477.6" y="-141.2" font-family="Times New Roman,serif" font-size="14.00">userData, inventory</text>
</g>
<!-- 191985992 -->
<g id="node10" class="node">
<title>191985992</title>
<path fill="none" stroke="black" d="M797.46,-67C797.46,-67 909.46,-67 909.46,-67 915.46,-67 921.46,-73 921.46,-79 921.46,-79 921.46,-95 921.46,-95 921.46,-101 915.46,-107 909.46,-107 909.46,-107 797.46,-107 797.46,-107 791.46,-107 785.46,-101 785.46,-95 785.46,-95 785.46,-79 785.46,-79 785.46,-73 791.46,-67 797.46,-67"/>
<text text-anchor="start" x="804.09" y="-93.4" font-family="Times New Roman,serif" font-weight="bold" font-size="14.00">updateInventory</text>
<text text-anchor="start" x="895.83" y="-93.4" font-family="Times New Roman,serif" font-size="14.00"> &#160;</text>
<text text-anchor="start" x="786.98" y="-72.4" font-family="Times New Roman,serif" font-size="14.00">ServerLocation.nonEU </text>
</g>
<!-- 254517211&#45;&gt;191985992 -->
<g id="edge13" class="edge">
<title>254517211&#45;&gt;191985992</title>
<path fill="none" stroke="black" d="M681,-87C709.34,-87 744.06,-87 774.84,-87"/>
<polygon fill="black" stroke="black" points="775.1,-90.5 785.1,-87 775.1,-83.5 775.1,-90.5"/>
<text text-anchor="middle" x="740.63" y="-91.2" font-family="Times New Roman,serif" font-size="14.00">inventory</text>
</g>
<!-- 254517205 -->
<g id="node11" class="node">
<title>254517205</title>
<path fill="none" stroke="black" d="M1090.36,-44C1090.36,-44 1181.36,-44 1181.36,-44 1187.36,-44 1193.36,-50 1193.36,-56 1193.36,-56 1193.36,-72 1193.36,-72 1193.36,-78 1187.36,-84 1181.36,-84 1181.36,-84 1090.36,-84 1090.36,-84 1084.36,-84 1078.36,-78 1078.36,-72 1078.36,-72 1078.36,-56 1078.36,-56 1078.36,-50 1084.36,-44 1090.36,-44"/>
<text text-anchor="start" x="1080.38" y="-70.4" font-family="Times New Roman,serif" font-weight="bold" font-size="14.00">SaveInventoryCall</text>
<text text-anchor="start" x="1185.35" y="-70.4" font-family="Times New Roman,serif" font-size="14.00"> &#160;</text>
<text text-anchor="start" x="1080.39" y="-49.4" font-family="Times New Roman,serif" font-size="14.00">ServerLocation.EU </text>
</g>
<!-- 191985992&#45;&gt;254517205 -->
<g id="edge14" class="edge">
<title>191985992&#45;&gt;254517205</title>
<path fill="none" stroke="black" d="M921.63,-81.49C965.97,-77.85 1023.83,-73.11 1068.09,-69.48"/>
<polygon fill="black" stroke="black" points="1068.5,-72.96 1078.18,-68.65 1067.92,-65.98 1068.5,-72.96"/>
<text text-anchor="middle" x="994.66" y="-83.2" font-family="Times New Roman,serif" font-size="14.00">userData, inventory</text>
</g>
<!-- 254517205&#45;&gt;1160552821 -->
<g id="edge3" class="edge">
<title>254517205&#45;&gt;1160552821</title>
<path fill="none" stroke="black" d="M1078.35,-55.67C1021.82,-48.06 932.32,-38 854.46,-38 345.9,-38 345.9,-38 345.9,-38 262.14,-38 169.92,-74.11 116.85,-98.7"/>
<polygon fill="black" stroke="black" points="115.28,-95.57 107.73,-102.99 118.26,-101.9 115.28,-95.57"/>
</g>
<!-- 1254518148 -->
<g id="node13" class="node">
<title>1254518148</title>
<path fill="none" stroke="black" d="M797.46,-126C797.46,-126 909.46,-126 909.46,-126 915.46,-126 921.46,-132 921.46,-138 921.46,-138 921.46,-154 921.46,-154 921.46,-160 915.46,-166 909.46,-166 909.46,-166 797.46,-166 797.46,-166 791.46,-166 785.46,-160 785.46,-154 785.46,-154 785.46,-138 785.46,-138 785.46,-132 791.46,-126 797.46,-126"/>
<text text-anchor="start" x="809.93" y="-152.4" font-family="Times New Roman,serif" font-weight="bold" font-size="14.00">storeUserData</text>
<text text-anchor="start" x="889.99" y="-152.4" font-family="Times New Roman,serif" font-size="14.00"> &#160;</text>
<text text-anchor="start" x="786.98" y="-131.4" font-family="Times New Roman,serif" font-size="14.00">ServerLocation.nonEU </text>
</g>
<!-- 50765856&#45;&gt;1254518148 -->
<g id="edge16" class="edge">
<title>50765856&#45;&gt;1254518148</title>
<path fill="none" stroke="black" d="M681.58,-146C709.93,-146 744.55,-146 775.2,-146"/>
<polygon fill="black" stroke="black" points="775.43,-149.5 785.43,-146 775.43,-142.5 775.43,-149.5"/>
<text text-anchor="middle" x="740.63" y="-150.2" font-family="Times New Roman,serif" font-size="14.00">data</text>
</g>
<!-- 1782726851 -->
<g id="node14" class="node">
<title>1782726851</title>
<path fill="none" stroke="black" d="M1079.86,-122C1079.86,-122 1191.86,-122 1191.86,-122 1197.86,-122 1203.86,-128 1203.86,-134 1203.86,-134 1203.86,-150 1203.86,-150 1203.86,-156 1197.86,-162 1191.86,-162 1191.86,-162 1079.86,-162 1079.86,-162 1073.86,-162 1067.86,-156 1067.86,-150 1067.86,-150 1067.86,-134 1067.86,-134 1067.86,-128 1073.86,-122 1079.86,-122"/>
<text text-anchor="start" x="1106.52" y="-148.4" font-family="Times New Roman,serif" font-weight="bold" font-size="14.00">save data</text>
<text text-anchor="start" x="1158.21" y="-148.4" font-family="Times New Roman,serif" font-size="14.00"> &#160;</text>
<text text-anchor="start" x="1069.39" y="-127.4" font-family="Times New Roman,serif" font-size="14.00">ServerLocation.nonEU </text>
</g>
<!-- 1254518148&#45;&gt;1782726851 -->
<g id="edge17" class="edge">
<title>1254518148&#45;&gt;1782726851</title>
<path fill="none" stroke="black" d="M921.63,-145.04C962.57,-144.46 1015.06,-143.71 1057.71,-143.1"/>
<polygon fill="black" stroke="black" points="1057.81,-146.6 1067.76,-142.96 1057.71,-139.6 1057.81,-146.6"/>
<text text-anchor="middle" x="994.66" y="-148.2" font-family="Times New Roman,serif" font-size="14.00">data</text>
</g>
<!-- 50765862 -->
<g id="node15" class="node">
<title>50765862</title>
<path fill="none" stroke="black" d="M1376.77,-53C1376.77,-53 1468.77,-53 1468.77,-53 1474.77,-53 1480.77,-59 1480.77,-65 1480.77,-65 1480.77,-81 1480.77,-81 1480.77,-87 1474.77,-93 1468.77,-93 1468.77,-93 1376.77,-93 1376.77,-93 1370.77,-93 1364.77,-87 1364.77,-81 1364.77,-81 1364.77,-65 1364.77,-65 1364.77,-59 1370.77,-53 1376.77,-53"/>
<text text-anchor="start" x="1366.4" y="-79.4" font-family="Times New Roman,serif" font-weight="bold" font-size="14.00">StoreUserDataCall</text>
<text text-anchor="start" x="1472.13" y="-79.4" font-family="Times New Roman,serif" font-size="14.00"> &#160;</text>
<text text-anchor="start" x="1366.79" y="-58.4" font-family="Times New Roman,serif" font-size="14.00">ServerLocation.EU </text>
</g>
<!-- 1782726851&#45;&gt;50765862 -->
<g id="edge18" class="edge">
<title>1782726851&#45;&gt;50765862</title>
<path fill="none" stroke="black" d="M1204.02,-125.74C1249.54,-114.71 1309.46,-100.2 1354.91,-89.19"/>
<polygon fill="black" stroke="black" points="1355.78,-92.58 1364.67,-86.83 1354.13,-85.78 1355.78,-92.58"/>
<text text-anchor="middle" x="1277.07" y="-123.2" font-family="Times New Roman,serif" font-size="14.00">userData, inventory</text>
</g>
<!-- 50765862&#45;&gt;1160552821 -->
<g id="edge4" class="edge">
<title>50765862&#45;&gt;1160552821</title>
<path fill="none" stroke="black" d="M1374.08,-52.96C1318.25,-31.34 1222.52,0 1136.86,0 345.9,0 345.9,0 345.9,0 261.63,0 235.9,-3.38 161,-42 135.44,-55.18 111.44,-77.48 94.9,-95.03"/>
<polygon fill="black" stroke="black" points="92.03,-92.98 87.84,-102.71 97.18,-97.72 92.03,-92.98"/>
</g>
</g>
</svg>
